%TF.GenerationSoftware,KiCad,Pcbnew,(5.1.8)-1*%
%TF.CreationDate,2021-05-23T23:23:44-05:00*%
%TF.ProjectId,CircuitBoardV2,43697263-7569-4744-926f-61726456322e,rev?*%
%TF.SameCoordinates,Original*%
%TF.FileFunction,Paste,Top*%
%TF.FilePolarity,Positive*%
%FSLAX46Y46*%
G04 Gerber Fmt 4.6, Leading zero omitted, Abs format (unit mm)*
G04 Created by KiCad (PCBNEW (5.1.8)-1) date 2021-05-23 23:23:44*
%MOMM*%
%LPD*%
G01*
G04 APERTURE LIST*
%ADD10R,1.570000X0.410000*%
%ADD11R,0.410000X1.570000*%
G04 APERTURE END LIST*
D10*
%TO.C,U5*%
X116408000Y-135259000D03*
X116408000Y-134609000D03*
X116408000Y-133959000D03*
X116408000Y-133309000D03*
X116408000Y-132659000D03*
X116408000Y-132009000D03*
X116408000Y-131359000D03*
X116408000Y-130709000D03*
X116408000Y-130059000D03*
X116408000Y-129409000D03*
X110668000Y-129409000D03*
X110668000Y-130059000D03*
X110668000Y-130709000D03*
X110668000Y-131359000D03*
X110668000Y-132009000D03*
X110668000Y-132659000D03*
X110668000Y-133309000D03*
X110668000Y-133959000D03*
X110668000Y-134609000D03*
X110668000Y-135259000D03*
%TD*%
%TO.C,U1*%
X143332000Y-122805000D03*
X143332000Y-123455000D03*
X143332000Y-124105000D03*
X143332000Y-124755000D03*
X143332000Y-125405000D03*
X143332000Y-126055000D03*
X143332000Y-126705000D03*
X143332000Y-127355000D03*
X143332000Y-128005000D03*
X143332000Y-128655000D03*
X137592000Y-128655000D03*
X137592000Y-128005000D03*
X137592000Y-127355000D03*
X137592000Y-126705000D03*
X137592000Y-126055000D03*
X137592000Y-125405000D03*
X137592000Y-124755000D03*
X137592000Y-124105000D03*
X137592000Y-123455000D03*
X137592000Y-122805000D03*
%TD*%
%TO.C,U4*%
X110668000Y-99445000D03*
X110668000Y-98795000D03*
X110668000Y-98145000D03*
X110668000Y-97495000D03*
X110668000Y-96845000D03*
X110668000Y-96195000D03*
X110668000Y-95545000D03*
X110668000Y-94895000D03*
X110668000Y-94245000D03*
X110668000Y-93595000D03*
X116408000Y-93595000D03*
X116408000Y-94245000D03*
X116408000Y-94895000D03*
X116408000Y-95545000D03*
X116408000Y-96195000D03*
X116408000Y-96845000D03*
X116408000Y-97495000D03*
X116408000Y-98145000D03*
X116408000Y-98795000D03*
X116408000Y-99445000D03*
%TD*%
D11*
%TO.C,U3*%
X123821000Y-73990000D03*
X124471000Y-73990000D03*
X125121000Y-73990000D03*
X125771000Y-73990000D03*
X126421000Y-73990000D03*
X127071000Y-73990000D03*
X127721000Y-73990000D03*
X128371000Y-73990000D03*
X129021000Y-73990000D03*
X129671000Y-73990000D03*
X129671000Y-68250000D03*
X129021000Y-68250000D03*
X128371000Y-68250000D03*
X127721000Y-68250000D03*
X127071000Y-68250000D03*
X126421000Y-68250000D03*
X125771000Y-68250000D03*
X125121000Y-68250000D03*
X124471000Y-68250000D03*
X123821000Y-68250000D03*
%TD*%
D10*
%TO.C,U2*%
X142824000Y-86483000D03*
X142824000Y-87133000D03*
X142824000Y-87783000D03*
X142824000Y-88433000D03*
X142824000Y-89083000D03*
X142824000Y-89733000D03*
X142824000Y-90383000D03*
X142824000Y-91033000D03*
X142824000Y-91683000D03*
X142824000Y-92333000D03*
X137084000Y-92333000D03*
X137084000Y-91683000D03*
X137084000Y-91033000D03*
X137084000Y-90383000D03*
X137084000Y-89733000D03*
X137084000Y-89083000D03*
X137084000Y-88433000D03*
X137084000Y-87783000D03*
X137084000Y-87133000D03*
X137084000Y-86483000D03*
%TD*%
M02*
