%TF.GenerationSoftware,KiCad,Pcbnew,(5.1.8)-1*%
%TF.CreationDate,2021-05-23T23:23:44-05:00*%
%TF.ProjectId,CircuitBoardV2,43697263-7569-4744-926f-61726456322e,rev?*%
%TF.SameCoordinates,Original*%
%TF.FileFunction,Copper,L2,Bot*%
%TF.FilePolarity,Positive*%
%FSLAX46Y46*%
G04 Gerber Fmt 4.6, Leading zero omitted, Abs format (unit mm)*
G04 Created by KiCad (PCBNEW (5.1.8)-1) date 2021-05-23 23:23:44*
%MOMM*%
%LPD*%
G01*
G04 APERTURE LIST*
%TA.AperFunction,ComponentPad*%
%ADD10O,1.730000X2.030000*%
%TD*%
%TA.AperFunction,ComponentPad*%
%ADD11R,1.730000X2.030000*%
%TD*%
%TA.AperFunction,ComponentPad*%
%ADD12O,1.700000X1.700000*%
%TD*%
%TA.AperFunction,ComponentPad*%
%ADD13R,1.700000X1.700000*%
%TD*%
%TA.AperFunction,ComponentPad*%
%ADD14C,7.500000*%
%TD*%
%TA.AperFunction,ComponentPad*%
%ADD15C,2.540000*%
%TD*%
%TA.AperFunction,ComponentPad*%
%ADD16C,3.990000*%
%TD*%
%TA.AperFunction,ComponentPad*%
%ADD17C,2.400000*%
%TD*%
%TA.AperFunction,ComponentPad*%
%ADD18O,2.030000X1.730000*%
%TD*%
%TA.AperFunction,ComponentPad*%
%ADD19R,2.030000X1.730000*%
%TD*%
%TA.AperFunction,ViaPad*%
%ADD20C,0.800000*%
%TD*%
%TA.AperFunction,Conductor*%
%ADD21C,2.032000*%
%TD*%
%TA.AperFunction,Conductor*%
%ADD22C,0.250000*%
%TD*%
G04 APERTURE END LIST*
D10*
%TO.P,J31,4*%
%TO.N,Net-(J1-Pad4)*%
X100076000Y-93980000D03*
%TO.P,J31,3*%
%TO.N,Net-(J31-Pad3)*%
X102616000Y-93980000D03*
%TO.P,J31,2*%
%TO.N,Net-(J31-Pad2)*%
X105156000Y-93980000D03*
D11*
%TO.P,J31,1*%
%TO.N,Net-(J1-Pad1)*%
X107696000Y-93980000D03*
%TD*%
D12*
%TO.P,J21,24*%
%TO.N,Net-(J21-Pad24)*%
X134620000Y-85090000D03*
%TO.P,J21,23*%
%TO.N,Net-(J21-Pad23)*%
X134620000Y-87630000D03*
%TO.P,J21,22*%
%TO.N,Net-(J21-Pad22)*%
X134620000Y-90170000D03*
%TO.P,J21,21*%
%TO.N,Net-(J21-Pad21)*%
X134620000Y-92710000D03*
%TO.P,J21,20*%
%TO.N,Net-(J21-Pad20)*%
X134620000Y-95250000D03*
%TO.P,J21,19*%
%TO.N,Net-(J21-Pad19)*%
X134620000Y-97790000D03*
%TO.P,J21,18*%
%TO.N,Net-(J21-Pad18)*%
X134620000Y-100330000D03*
%TO.P,J21,17*%
%TO.N,Net-(J21-Pad17)*%
X134620000Y-102870000D03*
%TO.P,J21,16*%
%TO.N,Net-(J21-Pad16)*%
X134620000Y-105410000D03*
%TO.P,J21,15*%
%TO.N,Net-(J21-Pad15)*%
X134620000Y-107950000D03*
%TO.P,J21,14*%
%TO.N,Net-(J21-Pad14)*%
X134620000Y-110490000D03*
%TO.P,J21,13*%
%TO.N,Net-(J21-Pad13)*%
X134620000Y-113030000D03*
%TO.P,J21,12*%
%TO.N,Net-(J21-Pad12)*%
X134620000Y-115570000D03*
%TO.P,J21,11*%
%TO.N,Net-(J21-Pad11)*%
X134620000Y-118110000D03*
%TO.P,J21,10*%
%TO.N,Net-(J21-Pad10)*%
X134620000Y-120650000D03*
%TO.P,J21,9*%
%TO.N,Net-(J21-Pad9)*%
X134620000Y-123190000D03*
%TO.P,J21,8*%
%TO.N,Net-(J21-Pad8)*%
X134620000Y-125730000D03*
%TO.P,J21,7*%
%TO.N,Net-(J21-Pad7)*%
X134620000Y-128270000D03*
%TO.P,J21,6*%
%TO.N,Net-(J21-Pad6)*%
X134620000Y-130810000D03*
%TO.P,J21,5*%
%TO.N,Net-(J21-Pad5)*%
X134620000Y-133350000D03*
%TO.P,J21,4*%
%TO.N,Net-(J21-Pad4)*%
X134620000Y-135890000D03*
%TO.P,J21,3*%
%TO.N,Net-(J21-Pad3)*%
X134620000Y-138430000D03*
%TO.P,J21,2*%
%TO.N,Net-(J21-Pad2)*%
X134620000Y-140970000D03*
D13*
%TO.P,J21,1*%
%TO.N,Net-(J1-Pad4)*%
X134620000Y-143510000D03*
%TD*%
D14*
%TO.P,REF\u002A\u002A,1*%
%TO.N,N/C*%
X137668000Y-60706000D03*
%TD*%
%TO.P,REF\u002A\u002A,1*%
%TO.N,N/C*%
X116332000Y-60706000D03*
%TD*%
%TO.P,REF\u002A\u002A,1*%
%TO.N,N/C*%
X137668000Y-155956000D03*
%TD*%
%TO.P,REF\u002A\u002A,1*%
%TO.N,N/C*%
X116332000Y-155956000D03*
%TD*%
D10*
%TO.P,J37,4*%
%TO.N,Net-(J1-Pad4)*%
X100076000Y-136652000D03*
%TO.P,J37,3*%
%TO.N,Net-(J37-Pad3)*%
X102616000Y-136652000D03*
%TO.P,J37,2*%
%TO.N,Net-(J37-Pad2)*%
X105156000Y-136652000D03*
D11*
%TO.P,J37,1*%
%TO.N,Net-(J1-Pad1)*%
X107696000Y-136652000D03*
%TD*%
%TO.P,J40,1*%
%TO.N,Net-(J1-Pad1)*%
X107696000Y-157988000D03*
D10*
%TO.P,J40,2*%
%TO.N,Net-(J40-Pad2)*%
X105156000Y-157988000D03*
%TO.P,J40,3*%
%TO.N,Net-(J40-Pad3)*%
X102616000Y-157988000D03*
%TO.P,J40,4*%
%TO.N,Net-(J1-Pad4)*%
X100076000Y-157988000D03*
%TD*%
%TO.P,J5,4*%
%TO.N,Net-(J1-Pad4)*%
X153924000Y-72136000D03*
%TO.P,J5,3*%
%TO.N,Net-(J5-Pad3)*%
X151384000Y-72136000D03*
%TO.P,J5,2*%
%TO.N,Net-(J5-Pad2)*%
X148844000Y-72136000D03*
D11*
%TO.P,J5,1*%
%TO.N,Net-(J1-Pad1)*%
X146304000Y-72136000D03*
%TD*%
D10*
%TO.P,J1,4*%
%TO.N,Net-(J1-Pad4)*%
X153924000Y-93472000D03*
%TO.P,J1,3*%
%TO.N,Net-(J1-Pad3)*%
X151384000Y-93472000D03*
%TO.P,J1,2*%
%TO.N,Net-(J1-Pad2)*%
X148844000Y-93472000D03*
D11*
%TO.P,J1,1*%
%TO.N,Net-(J1-Pad1)*%
X146304000Y-93472000D03*
%TD*%
D10*
%TO.P,J3,4*%
%TO.N,Net-(J1-Pad4)*%
X153924000Y-100584000D03*
%TO.P,J3,3*%
%TO.N,Net-(J3-Pad3)*%
X151384000Y-100584000D03*
%TO.P,J3,2*%
%TO.N,Net-(J3-Pad2)*%
X148844000Y-100584000D03*
D11*
%TO.P,J3,1*%
%TO.N,Net-(J1-Pad1)*%
X146304000Y-100584000D03*
%TD*%
D10*
%TO.P,J35,4*%
%TO.N,Net-(J1-Pad4)*%
X100076000Y-122428000D03*
%TO.P,J35,3*%
%TO.N,Net-(J35-Pad3)*%
X102616000Y-122428000D03*
%TO.P,J35,2*%
%TO.N,Net-(J35-Pad2)*%
X105156000Y-122428000D03*
D11*
%TO.P,J35,1*%
%TO.N,Net-(J1-Pad1)*%
X107696000Y-122428000D03*
%TD*%
%TO.P,J38,1*%
%TO.N,Net-(J1-Pad1)*%
X107696000Y-143764000D03*
D10*
%TO.P,J38,2*%
%TO.N,Net-(J38-Pad2)*%
X105156000Y-143764000D03*
%TO.P,J38,3*%
%TO.N,Net-(J38-Pad3)*%
X102616000Y-143764000D03*
%TO.P,J38,4*%
%TO.N,Net-(J1-Pad4)*%
X100076000Y-143764000D03*
%TD*%
%TO.P,J36,4*%
%TO.N,Net-(J1-Pad4)*%
X100076000Y-129540000D03*
%TO.P,J36,3*%
%TO.N,Net-(J36-Pad3)*%
X102616000Y-129540000D03*
%TO.P,J36,2*%
%TO.N,Net-(J36-Pad2)*%
X105156000Y-129540000D03*
D11*
%TO.P,J36,1*%
%TO.N,Net-(J1-Pad1)*%
X107696000Y-129540000D03*
%TD*%
%TO.P,J39,1*%
%TO.N,Net-(J1-Pad1)*%
X107696000Y-150876000D03*
D10*
%TO.P,J39,2*%
%TO.N,Net-(J39-Pad2)*%
X105156000Y-150876000D03*
%TO.P,J39,3*%
%TO.N,Net-(J39-Pad3)*%
X102616000Y-150876000D03*
%TO.P,J39,4*%
%TO.N,Net-(J1-Pad4)*%
X100076000Y-150876000D03*
%TD*%
D11*
%TO.P,J41,1*%
%TO.N,Net-(J1-Pad1)*%
X107696000Y-165100000D03*
D10*
%TO.P,J41,2*%
%TO.N,Net-(J41-Pad2)*%
X105156000Y-165100000D03*
%TO.P,J41,3*%
%TO.N,Net-(J41-Pad3)*%
X102616000Y-165100000D03*
%TO.P,J41,4*%
%TO.N,Net-(J1-Pad4)*%
X100076000Y-165100000D03*
%TD*%
D15*
%TO.P,JMolex1,8*%
%TO.N,N/C*%
X116840000Y-164635000D03*
D16*
%TO.P,JMolex1,7*%
X121920000Y-172255000D03*
%TO.P,JMolex1,6*%
X132080000Y-172255000D03*
D15*
%TO.P,JMolex1,5*%
X137160000Y-164635000D03*
D17*
%TO.P,JMolex1,4*%
%TO.N,Net-(J1-Pad1)*%
X134620000Y-162095000D03*
%TO.P,JMolex1,3*%
%TO.N,Net-(J1-Pad4)*%
X129540000Y-162095000D03*
%TO.P,JMolex1,2*%
%TO.N,Net-(JMolex1-Pad2)*%
X124460000Y-162095000D03*
%TO.P,JMolex1,1*%
%TO.N,Net-(JMolex1-Pad1)*%
X119380000Y-162095000D03*
%TD*%
D11*
%TO.P,J42,1*%
%TO.N,Net-(J1-Pad1)*%
X107696000Y-172212000D03*
D10*
%TO.P,J42,2*%
%TO.N,Net-(J42-Pad2)*%
X105156000Y-172212000D03*
%TO.P,J42,3*%
%TO.N,Net-(J42-Pad3)*%
X102616000Y-172212000D03*
%TO.P,J42,4*%
%TO.N,Net-(J1-Pad4)*%
X100076000Y-172212000D03*
%TD*%
%TO.P,J34,4*%
%TO.N,Net-(J1-Pad4)*%
X100076000Y-115316000D03*
%TO.P,J34,3*%
%TO.N,Net-(J34-Pad3)*%
X102616000Y-115316000D03*
%TO.P,J34,2*%
%TO.N,Net-(J34-Pad2)*%
X105156000Y-115316000D03*
D11*
%TO.P,J34,1*%
%TO.N,Net-(J1-Pad1)*%
X107696000Y-115316000D03*
%TD*%
D10*
%TO.P,J33,4*%
%TO.N,Net-(J1-Pad4)*%
X100076000Y-108204000D03*
%TO.P,J33,3*%
%TO.N,Net-(J33-Pad3)*%
X102616000Y-108204000D03*
%TO.P,J33,2*%
%TO.N,Net-(J33-Pad2)*%
X105156000Y-108204000D03*
D11*
%TO.P,J33,1*%
%TO.N,Net-(J1-Pad1)*%
X107696000Y-108204000D03*
%TD*%
D10*
%TO.P,J32,4*%
%TO.N,Net-(J1-Pad4)*%
X100076000Y-101092000D03*
%TO.P,J32,3*%
%TO.N,Net-(J32-Pad3)*%
X102616000Y-101092000D03*
%TO.P,J32,2*%
%TO.N,Net-(J32-Pad2)*%
X105156000Y-101092000D03*
D11*
%TO.P,J32,1*%
%TO.N,Net-(J1-Pad1)*%
X107696000Y-101092000D03*
%TD*%
D10*
%TO.P,J30,4*%
%TO.N,Net-(J1-Pad4)*%
X100076000Y-86868000D03*
%TO.P,J30,3*%
%TO.N,Net-(J30-Pad3)*%
X102616000Y-86868000D03*
%TO.P,J30,2*%
%TO.N,Net-(J30-Pad2)*%
X105156000Y-86868000D03*
D11*
%TO.P,J30,1*%
%TO.N,Net-(J1-Pad1)*%
X107696000Y-86868000D03*
%TD*%
D10*
%TO.P,J29,4*%
%TO.N,Net-(J1-Pad4)*%
X100076000Y-79756000D03*
%TO.P,J29,3*%
%TO.N,Net-(J29-Pad3)*%
X102616000Y-79756000D03*
%TO.P,J29,2*%
%TO.N,Net-(J29-Pad2)*%
X105156000Y-79756000D03*
D11*
%TO.P,J29,1*%
%TO.N,Net-(J1-Pad1)*%
X107696000Y-79756000D03*
%TD*%
D10*
%TO.P,J28,4*%
%TO.N,Net-(J1-Pad4)*%
X100076000Y-72644000D03*
%TO.P,J28,3*%
%TO.N,Net-(J28-Pad3)*%
X102616000Y-72644000D03*
%TO.P,J28,2*%
%TO.N,Net-(J28-Pad2)*%
X105156000Y-72644000D03*
D11*
%TO.P,J28,1*%
%TO.N,Net-(J1-Pad1)*%
X107696000Y-72644000D03*
%TD*%
D10*
%TO.P,J27,4*%
%TO.N,Net-(J1-Pad4)*%
X100076000Y-65532000D03*
%TO.P,J27,3*%
%TO.N,Net-(J27-Pad3)*%
X102616000Y-65532000D03*
%TO.P,J27,2*%
%TO.N,Net-(J27-Pad2)*%
X105156000Y-65532000D03*
D11*
%TO.P,J27,1*%
%TO.N,Net-(J1-Pad1)*%
X107696000Y-65532000D03*
%TD*%
D10*
%TO.P,J26,4*%
%TO.N,Net-(J1-Pad4)*%
X153924000Y-57912000D03*
%TO.P,J26,3*%
%TO.N,Net-(J26-Pad3)*%
X151384000Y-57912000D03*
%TO.P,J26,2*%
%TO.N,Net-(J26-Pad2)*%
X148844000Y-57912000D03*
D11*
%TO.P,J26,1*%
%TO.N,Net-(J1-Pad1)*%
X146304000Y-57912000D03*
%TD*%
D18*
%TO.P,J25,4*%
%TO.N,Net-(J1-Pad4)*%
X144018000Y-45212000D03*
%TO.P,J25,3*%
%TO.N,Net-(J25-Pad3)*%
X144018000Y-47752000D03*
%TO.P,J25,2*%
%TO.N,Net-(J25-Pad2)*%
X144018000Y-50292000D03*
D19*
%TO.P,J25,1*%
%TO.N,Net-(J1-Pad1)*%
X144018000Y-52832000D03*
%TD*%
D18*
%TO.P,J24,4*%
%TO.N,Net-(J1-Pad4)*%
X136906000Y-45212000D03*
%TO.P,J24,3*%
%TO.N,Net-(J24-Pad3)*%
X136906000Y-47752000D03*
%TO.P,J24,2*%
%TO.N,Net-(J24-Pad2)*%
X136906000Y-50292000D03*
D19*
%TO.P,J24,1*%
%TO.N,Net-(J1-Pad1)*%
X136906000Y-52832000D03*
%TD*%
D18*
%TO.P,J23,4*%
%TO.N,Net-(J1-Pad4)*%
X129794000Y-45212000D03*
%TO.P,J23,3*%
%TO.N,Net-(J23-Pad3)*%
X129794000Y-47752000D03*
%TO.P,J23,2*%
%TO.N,Net-(J23-Pad2)*%
X129794000Y-50292000D03*
D19*
%TO.P,J23,1*%
%TO.N,Net-(J1-Pad1)*%
X129794000Y-52832000D03*
%TD*%
D12*
%TO.P,J22,24*%
%TO.N,Net-(J22-Pad24)*%
X119380000Y-85090000D03*
%TO.P,J22,23*%
%TO.N,Net-(J22-Pad23)*%
X119380000Y-87630000D03*
%TO.P,J22,22*%
%TO.N,Net-(J22-Pad22)*%
X119380000Y-90170000D03*
%TO.P,J22,21*%
%TO.N,Net-(J22-Pad21)*%
X119380000Y-92710000D03*
%TO.P,J22,20*%
%TO.N,Net-(J22-Pad20)*%
X119380000Y-95250000D03*
%TO.P,J22,19*%
%TO.N,Net-(J22-Pad19)*%
X119380000Y-97790000D03*
%TO.P,J22,18*%
%TO.N,Net-(J22-Pad18)*%
X119380000Y-100330000D03*
%TO.P,J22,17*%
%TO.N,Net-(J22-Pad17)*%
X119380000Y-102870000D03*
%TO.P,J22,16*%
%TO.N,Net-(J22-Pad16)*%
X119380000Y-105410000D03*
%TO.P,J22,15*%
%TO.N,Net-(J22-Pad15)*%
X119380000Y-107950000D03*
%TO.P,J22,14*%
%TO.N,Net-(J22-Pad14)*%
X119380000Y-110490000D03*
%TO.P,J22,13*%
%TO.N,Net-(J22-Pad13)*%
X119380000Y-113030000D03*
%TO.P,J22,12*%
%TO.N,Net-(J22-Pad12)*%
X119380000Y-115570000D03*
%TO.P,J22,11*%
%TO.N,Net-(J22-Pad11)*%
X119380000Y-118110000D03*
%TO.P,J22,10*%
%TO.N,Net-(J22-Pad10)*%
X119380000Y-120650000D03*
%TO.P,J22,9*%
%TO.N,Net-(J22-Pad9)*%
X119380000Y-123190000D03*
%TO.P,J22,8*%
%TO.N,Net-(J22-Pad8)*%
X119380000Y-125730000D03*
%TO.P,J22,7*%
%TO.N,Net-(J22-Pad7)*%
X119380000Y-128270000D03*
%TO.P,J22,6*%
%TO.N,Net-(J22-Pad6)*%
X119380000Y-130810000D03*
%TO.P,J22,5*%
%TO.N,Net-(J22-Pad5)*%
X119380000Y-133350000D03*
%TO.P,J22,4*%
%TO.N,Net-(J22-Pad4)*%
X119380000Y-135890000D03*
%TO.P,J22,3*%
%TO.N,Net-(J22-Pad3)*%
X119380000Y-138430000D03*
%TO.P,J22,2*%
%TO.N,Net-(J22-Pad2)*%
X119380000Y-140970000D03*
D13*
%TO.P,J22,1*%
%TO.N,Net-(J22-Pad1)*%
X119380000Y-143510000D03*
%TD*%
D10*
%TO.P,J20,4*%
%TO.N,Net-(J1-Pad4)*%
X153924000Y-107696000D03*
%TO.P,J20,3*%
%TO.N,Net-(J20-Pad3)*%
X151384000Y-107696000D03*
%TO.P,J20,2*%
%TO.N,Net-(J20-Pad2)*%
X148844000Y-107696000D03*
D11*
%TO.P,J20,1*%
%TO.N,Net-(J1-Pad1)*%
X146304000Y-107696000D03*
%TD*%
D10*
%TO.P,J19,4*%
%TO.N,Net-(J1-Pad4)*%
X153924000Y-114808000D03*
%TO.P,J19,3*%
%TO.N,Net-(J19-Pad3)*%
X151384000Y-114808000D03*
%TO.P,J19,2*%
%TO.N,Net-(J19-Pad2)*%
X148844000Y-114808000D03*
D11*
%TO.P,J19,1*%
%TO.N,Net-(J1-Pad1)*%
X146304000Y-114808000D03*
%TD*%
D10*
%TO.P,J18,4*%
%TO.N,Net-(J1-Pad4)*%
X153924000Y-121920000D03*
%TO.P,J18,3*%
%TO.N,Net-(J18-Pad3)*%
X151384000Y-121920000D03*
%TO.P,J18,2*%
%TO.N,Net-(J18-Pad2)*%
X148844000Y-121920000D03*
D11*
%TO.P,J18,1*%
%TO.N,Net-(J1-Pad1)*%
X146304000Y-121920000D03*
%TD*%
D10*
%TO.P,J17,4*%
%TO.N,Net-(J1-Pad4)*%
X153924000Y-129032000D03*
%TO.P,J17,3*%
%TO.N,Net-(J17-Pad3)*%
X151384000Y-129032000D03*
%TO.P,J17,2*%
%TO.N,Net-(J17-Pad2)*%
X148844000Y-129032000D03*
D11*
%TO.P,J17,1*%
%TO.N,Net-(J1-Pad1)*%
X146304000Y-129032000D03*
%TD*%
D10*
%TO.P,J16,4*%
%TO.N,Net-(J1-Pad4)*%
X153924000Y-136144000D03*
%TO.P,J16,3*%
%TO.N,Net-(J16-Pad3)*%
X151384000Y-136144000D03*
%TO.P,J16,2*%
%TO.N,Net-(J16-Pad2)*%
X148844000Y-136144000D03*
D11*
%TO.P,J16,1*%
%TO.N,Net-(J1-Pad1)*%
X146304000Y-136144000D03*
%TD*%
D10*
%TO.P,J15,4*%
%TO.N,Net-(J1-Pad4)*%
X153924000Y-143256000D03*
%TO.P,J15,3*%
%TO.N,Net-(J15-Pad3)*%
X151384000Y-143256000D03*
%TO.P,J15,2*%
%TO.N,Net-(J15-Pad2)*%
X148844000Y-143256000D03*
D11*
%TO.P,J15,1*%
%TO.N,Net-(J1-Pad1)*%
X146304000Y-143256000D03*
%TD*%
D10*
%TO.P,J14,4*%
%TO.N,Net-(J1-Pad4)*%
X153924000Y-150368000D03*
%TO.P,J14,3*%
%TO.N,Net-(J14-Pad3)*%
X151384000Y-150368000D03*
%TO.P,J14,2*%
%TO.N,Net-(J14-Pad2)*%
X148844000Y-150368000D03*
D11*
%TO.P,J14,1*%
%TO.N,Net-(J1-Pad1)*%
X146304000Y-150368000D03*
%TD*%
D10*
%TO.P,J13,4*%
%TO.N,Net-(J1-Pad4)*%
X153924000Y-157480000D03*
%TO.P,J13,3*%
%TO.N,Net-(J13-Pad3)*%
X151384000Y-157480000D03*
%TO.P,J13,2*%
%TO.N,Net-(J13-Pad2)*%
X148844000Y-157480000D03*
D11*
%TO.P,J13,1*%
%TO.N,Net-(J1-Pad1)*%
X146304000Y-157480000D03*
%TD*%
D10*
%TO.P,J12,4*%
%TO.N,Net-(J1-Pad4)*%
X153924000Y-164592000D03*
%TO.P,J12,3*%
%TO.N,Net-(J12-Pad3)*%
X151384000Y-164592000D03*
%TO.P,J12,2*%
%TO.N,Net-(J12-Pad2)*%
X148844000Y-164592000D03*
D11*
%TO.P,J12,1*%
%TO.N,Net-(J1-Pad1)*%
X146304000Y-164592000D03*
%TD*%
D10*
%TO.P,J11,4*%
%TO.N,Net-(J1-Pad4)*%
X153924000Y-171704000D03*
%TO.P,J11,3*%
%TO.N,Net-(J11-Pad3)*%
X151384000Y-171704000D03*
%TO.P,J11,2*%
%TO.N,Net-(J11-Pad2)*%
X148844000Y-171704000D03*
D11*
%TO.P,J11,1*%
%TO.N,Net-(J1-Pad1)*%
X146304000Y-171704000D03*
%TD*%
D18*
%TO.P,J10,4*%
%TO.N,Net-(J1-Pad4)*%
X122682000Y-45212000D03*
%TO.P,J10,3*%
%TO.N,Net-(J10-Pad3)*%
X122682000Y-47752000D03*
%TO.P,J10,2*%
%TO.N,Net-(J10-Pad2)*%
X122682000Y-50292000D03*
D19*
%TO.P,J10,1*%
%TO.N,Net-(J1-Pad1)*%
X122682000Y-52832000D03*
%TD*%
D18*
%TO.P,J9,4*%
%TO.N,Net-(J1-Pad4)*%
X108458000Y-45212000D03*
%TO.P,J9,3*%
%TO.N,Net-(J9-Pad3)*%
X108458000Y-47752000D03*
%TO.P,J9,2*%
%TO.N,Net-(J9-Pad2)*%
X108458000Y-50292000D03*
D19*
%TO.P,J9,1*%
%TO.N,Net-(J1-Pad1)*%
X108458000Y-52832000D03*
%TD*%
D10*
%TO.P,J8,4*%
%TO.N,Net-(J1-Pad4)*%
X100076000Y-58420000D03*
%TO.P,J8,3*%
%TO.N,Net-(J8-Pad3)*%
X102616000Y-58420000D03*
%TO.P,J8,2*%
%TO.N,Net-(J8-Pad2)*%
X105156000Y-58420000D03*
D11*
%TO.P,J8,1*%
%TO.N,Net-(J1-Pad1)*%
X107696000Y-58420000D03*
%TD*%
D10*
%TO.P,J7,4*%
%TO.N,Net-(J1-Pad4)*%
X153924000Y-65024000D03*
%TO.P,J7,3*%
%TO.N,Net-(J7-Pad3)*%
X151384000Y-65024000D03*
%TO.P,J7,2*%
%TO.N,Net-(J7-Pad2)*%
X148844000Y-65024000D03*
D11*
%TO.P,J7,1*%
%TO.N,Net-(J1-Pad1)*%
X146304000Y-65024000D03*
%TD*%
D18*
%TO.P,J6,4*%
%TO.N,Net-(J1-Pad4)*%
X115570000Y-45212000D03*
%TO.P,J6,3*%
%TO.N,Net-(J6-Pad3)*%
X115570000Y-47752000D03*
%TO.P,J6,2*%
%TO.N,Net-(J6-Pad2)*%
X115570000Y-50292000D03*
D19*
%TO.P,J6,1*%
%TO.N,Net-(J1-Pad1)*%
X115570000Y-52832000D03*
%TD*%
D10*
%TO.P,J4,4*%
%TO.N,Net-(J1-Pad4)*%
X153924000Y-79248000D03*
%TO.P,J4,3*%
%TO.N,Net-(J4-Pad3)*%
X151384000Y-79248000D03*
%TO.P,J4,2*%
%TO.N,Net-(J4-Pad2)*%
X148844000Y-79248000D03*
D11*
%TO.P,J4,1*%
%TO.N,Net-(J1-Pad1)*%
X146304000Y-79248000D03*
%TD*%
D10*
%TO.P,J2,4*%
%TO.N,Net-(J1-Pad4)*%
X153924000Y-86360000D03*
%TO.P,J2,3*%
%TO.N,Net-(J2-Pad3)*%
X151384000Y-86360000D03*
%TO.P,J2,2*%
%TO.N,Net-(J2-Pad2)*%
X148844000Y-86360000D03*
D11*
%TO.P,J2,1*%
%TO.N,Net-(J1-Pad1)*%
X146304000Y-86360000D03*
%TD*%
D20*
%TO.N,Net-(J1-Pad4)*%
X109728000Y-86868000D03*
X142824000Y-94158000D03*
X142824000Y-100152000D03*
X110527724Y-90202620D03*
%TO.N,Net-(J21-Pad24)*%
X120805842Y-77117842D03*
%TO.N,Net-(J21-Pad23)*%
X119126000Y-77216000D03*
%TO.N,Net-(J21-Pad22)*%
X117584963Y-77452963D03*
%TO.N,Net-(J21-Pad21)*%
X115824000Y-77724000D03*
%TO.N,Net-(J21-Pad20)*%
X114554000Y-78994014D03*
%TO.N,Net-(J21-Pad19)*%
X113538000Y-79502000D03*
%TO.N,Net-(J21-Pad18)*%
X112522010Y-80518000D03*
%TO.N,Net-(J21-Pad17)*%
X111760000Y-81533998D03*
%TO.N,Net-(J21-Pad16)*%
X128509054Y-98298000D03*
%TO.N,Net-(J21-Pad15)*%
X132918000Y-73990000D03*
X140462000Y-83566000D03*
X137160000Y-94234000D03*
X138176000Y-121158000D03*
X137414000Y-130302000D03*
X115315994Y-124714000D03*
X115062000Y-100584000D03*
X117163271Y-89841943D03*
X115732759Y-137643080D03*
%TO.N,Net-(J22-Pad24)*%
X116840001Y-136576236D03*
%TO.N,Net-(J22-Pad23)*%
X115889087Y-136266340D03*
%TO.N,Net-(J22-Pad13)*%
X131178478Y-111507112D03*
%TO.N,Net-(J22-Pad12)*%
X131628489Y-114046000D03*
%TO.N,Net-(J22-Pad11)*%
X132353499Y-116097499D03*
%TO.N,Net-(J32-Pad2)*%
X110892476Y-86814746D03*
%TO.N,Net-(J33-Pad2)*%
X111887938Y-86719455D03*
%TO.N,Net-(J34-Pad2)*%
X112838173Y-86405632D03*
%TO.N,Net-(J42-Pad2)*%
X104956928Y-167132000D03*
%TD*%
D21*
%TO.N,Net-(J1-Pad4)*%
X153924000Y-129032000D02*
X153924000Y-121920000D01*
X153924000Y-136144000D02*
X153924000Y-129032000D01*
X100076000Y-101092000D02*
X100076000Y-93980000D01*
X100076000Y-93980000D02*
X100076000Y-86868000D01*
X100076000Y-86868000D02*
X100076000Y-79756000D01*
X100076000Y-79756000D02*
X100076000Y-72644000D01*
X100076000Y-72644000D02*
X100076000Y-65532000D01*
X100076000Y-65532000D02*
X100076000Y-58420000D01*
X105365131Y-45212000D02*
X108458000Y-45212000D01*
X100076000Y-53831313D02*
X105365131Y-45212000D01*
X100076000Y-58420000D02*
X100076000Y-53831313D01*
X108458000Y-45212000D02*
X115570000Y-45212000D01*
X115570000Y-45212000D02*
X122682000Y-45212000D01*
X122682000Y-45212000D02*
X129794000Y-45212000D01*
X129794000Y-45212000D02*
X136906000Y-45212000D01*
X136906000Y-45212000D02*
X144018000Y-45212000D01*
X153924000Y-54565008D02*
X153924000Y-57912000D01*
X144570992Y-45212000D02*
X153924000Y-54565008D01*
X144018000Y-45212000D02*
X144570992Y-45212000D01*
X153924000Y-57912000D02*
X153924000Y-65024000D01*
D22*
X109728000Y-86868000D02*
X109728000Y-86868000D01*
X142824000Y-94158000D02*
X142824000Y-100152000D01*
X142824000Y-100152000D02*
X142824000Y-100152000D01*
X110527724Y-87667724D02*
X110527724Y-90202620D01*
X109728000Y-86868000D02*
X110527724Y-87667724D01*
D21*
%TO.N,Net-(J1-Pad1)*%
X146304000Y-72136000D02*
X146304000Y-65024000D01*
X146304000Y-79248000D02*
X146304000Y-72136000D01*
X146304000Y-86360000D02*
X146304000Y-79248000D01*
X146304000Y-93472000D02*
X146304000Y-86360000D01*
X146304000Y-100584000D02*
X146304000Y-93472000D01*
X146304000Y-107696000D02*
X146304000Y-100584000D01*
X146304000Y-114808000D02*
X146304000Y-107696000D01*
X146304000Y-121920000D02*
X146304000Y-114808000D01*
X146304000Y-129032000D02*
X146304000Y-121920000D01*
X146304000Y-136144000D02*
X146304000Y-129032000D01*
X146304000Y-143256000D02*
X146304000Y-136144000D01*
X134620000Y-162095000D02*
X143807000Y-162095000D01*
X143807000Y-162095000D02*
X146304000Y-164592000D01*
X146304000Y-150368000D02*
X146304000Y-143256000D01*
X146304000Y-157480000D02*
X146304000Y-150368000D01*
X146304000Y-164592000D02*
X146304000Y-157480000D01*
X146304000Y-164592000D02*
X146304000Y-171704000D01*
X146304000Y-65024000D02*
X146304000Y-57912000D01*
X146304000Y-55118000D02*
X144018000Y-52832000D01*
X146304000Y-57912000D02*
X146304000Y-55118000D01*
X144018000Y-52832000D02*
X136906000Y-52832000D01*
X136906000Y-52832000D02*
X129794000Y-52832000D01*
X129794000Y-52832000D02*
X122682000Y-52832000D01*
X122682000Y-52832000D02*
X115570000Y-52832000D01*
X115570000Y-52832000D02*
X108458000Y-52832000D01*
X108458000Y-57658000D02*
X107696000Y-58420000D01*
X108458000Y-52832000D02*
X108458000Y-57658000D01*
X107696000Y-58420000D02*
X107696000Y-65532000D01*
X107696000Y-65532000D02*
X107696000Y-72644000D01*
X107696000Y-72644000D02*
X107696000Y-79756000D01*
X107696000Y-79756000D02*
X107696000Y-86868000D01*
X107696000Y-86868000D02*
X107696000Y-93980000D01*
X107696000Y-93980000D02*
X107696000Y-101092000D01*
X107696000Y-122428000D02*
X107696000Y-129540000D01*
X107696000Y-129540000D02*
X107696000Y-136652000D01*
X107696000Y-136652000D02*
X107696000Y-143764000D01*
X107696000Y-143764000D02*
X107696000Y-150876000D01*
X107696000Y-150876000D02*
X107696000Y-157988000D01*
X107696000Y-157988000D02*
X107696000Y-165100000D01*
X107696000Y-165100000D02*
X107696000Y-172212000D01*
X107696000Y-172212000D02*
X116586000Y-172212000D01*
X116586000Y-172212000D02*
X120142000Y-168656000D01*
X128059000Y-168656000D02*
X134620000Y-162095000D01*
X120142000Y-168656000D02*
X128059000Y-168656000D01*
D22*
%TO.N,Net-(J21-Pad24)*%
X126647842Y-77117842D02*
X120805842Y-77117842D01*
X134620000Y-85090000D02*
X126647842Y-77117842D01*
%TO.N,Net-(J21-Pad23)*%
X119752843Y-77842843D02*
X119126000Y-77216000D01*
X124832843Y-77842843D02*
X119752843Y-77842843D01*
X134620000Y-87630000D02*
X124832843Y-77842843D01*
%TO.N,Net-(J21-Pad22)*%
X134620000Y-90170000D02*
X124437956Y-79987956D01*
X124437956Y-79987956D02*
X120119956Y-79987956D01*
X120119956Y-79987956D02*
X117584963Y-77452963D01*
%TO.N,Net-(J21-Pad21)*%
X134620000Y-92079230D02*
X134620000Y-92710000D01*
X122978737Y-80437967D02*
X134620000Y-92079230D01*
X118537967Y-80437967D02*
X122978737Y-80437967D01*
X115824000Y-77724000D02*
X118537967Y-80437967D01*
%TO.N,Net-(J21-Pad20)*%
X116447964Y-80887978D02*
X114554000Y-78994014D01*
X122792338Y-80887978D02*
X116447964Y-80887978D01*
X128784789Y-86880429D02*
X122792338Y-80887978D01*
X128784789Y-89414789D02*
X128784789Y-86880429D01*
X134620000Y-95250000D02*
X128784789Y-89414789D01*
%TO.N,Net-(J21-Pad19)*%
X128334779Y-91504779D02*
X128334779Y-87066829D01*
X115373989Y-81337989D02*
X113538000Y-79502000D01*
X122605939Y-81337989D02*
X115373989Y-81337989D01*
X134620000Y-97790000D02*
X128334779Y-91504779D01*
X128334779Y-87066829D02*
X122605939Y-81337989D01*
%TO.N,Net-(J21-Pad18)*%
X127884769Y-93594769D02*
X127884769Y-87253233D01*
X113938009Y-81933999D02*
X112522010Y-80518000D01*
X127884769Y-87253233D02*
X122565535Y-81933999D01*
X122565535Y-81933999D02*
X113938009Y-81933999D01*
X134620000Y-100330000D02*
X127884769Y-93594769D01*
%TO.N,Net-(J21-Pad17)*%
X134620000Y-102870000D02*
X127180759Y-95430759D01*
X127180759Y-95430759D02*
X127180759Y-87185632D01*
X127180759Y-87185632D02*
X122437126Y-82441999D01*
X122437126Y-82441999D02*
X112668001Y-82441999D01*
X112668001Y-82441999D02*
X111760000Y-81533998D01*
%TO.N,Net-(J21-Pad16)*%
X128509054Y-99299054D02*
X128509054Y-98298000D01*
X134620000Y-105410000D02*
X128509054Y-99299054D01*
%TO.N,Net-(J21-Pad15)*%
X132918000Y-73990000D02*
X132918000Y-79324000D01*
X132918000Y-79324000D02*
X137160000Y-83566000D01*
X137160000Y-83566000D02*
X140462000Y-83566000D01*
X140462000Y-83566000D02*
X140462000Y-83566000D01*
X140462000Y-91440000D02*
X137668000Y-94234000D01*
X137668000Y-94234000D02*
X137160000Y-94234000D01*
X140462000Y-83566000D02*
X140462000Y-91440000D01*
X137160000Y-94234000D02*
X137160000Y-94234000D01*
X138176000Y-111506000D02*
X138176000Y-121158000D01*
X134620000Y-107950000D02*
X138176000Y-111506000D01*
X138176000Y-121158000D02*
X137414000Y-121920000D01*
X137414000Y-121920000D02*
X137414000Y-130302000D01*
X115315994Y-124714000D02*
X115315994Y-100837994D01*
X115315994Y-100837994D02*
X115062000Y-100584000D01*
X115062000Y-100584000D02*
X115062000Y-91943214D01*
X115062000Y-91943214D02*
X117163271Y-89841943D01*
X137414000Y-130302000D02*
X137414000Y-134835002D01*
X117429934Y-137643080D02*
X115732759Y-137643080D01*
X137414000Y-134835002D02*
X135089002Y-137160000D01*
X117913014Y-137160000D02*
X117429934Y-137643080D01*
X135089002Y-137160000D02*
X117913014Y-137160000D01*
X115732759Y-137643080D02*
X114554000Y-136464321D01*
X114554000Y-125475994D02*
X115315994Y-124714000D01*
X114554000Y-136464321D02*
X114554000Y-125475994D01*
%TO.N,Net-(J22-Pad24)*%
X119380000Y-85090000D02*
X123640011Y-89350011D01*
X119005997Y-111665001D02*
X116840001Y-113830997D01*
X123640011Y-107968991D02*
X119944001Y-111665001D01*
X123640011Y-89350011D02*
X123640011Y-107968991D01*
X116840001Y-113830997D02*
X116840001Y-136576236D01*
X119944001Y-111665001D02*
X119005997Y-111665001D01*
%TO.N,Net-(J22-Pad23)*%
X117888273Y-89121727D02*
X117888273Y-90189644D01*
X116289086Y-135866341D02*
X115889087Y-136266340D01*
X119380000Y-87630000D02*
X117888273Y-89121727D01*
X116289086Y-91788831D02*
X116289086Y-135866341D01*
X117888273Y-90189644D02*
X116289086Y-91788831D01*
%TO.N,Net-(J22-Pad13)*%
X119380000Y-113030000D02*
X129655590Y-113030000D01*
X129655590Y-113030000D02*
X131178478Y-111507112D01*
%TO.N,Net-(J22-Pad12)*%
X119380000Y-115570000D02*
X120904000Y-114046000D01*
X120904000Y-114046000D02*
X131628489Y-114046000D01*
%TO.N,Net-(J22-Pad11)*%
X130340998Y-118110000D02*
X132353499Y-116097499D01*
X119380000Y-118110000D02*
X130340998Y-118110000D01*
%TO.N,Net-(J32-Pad2)*%
X112268000Y-102108000D02*
X112268000Y-88190270D01*
X105156000Y-101092000D02*
X107696000Y-103632000D01*
X110744000Y-103632000D02*
X112268000Y-102108000D01*
X112268000Y-88190270D02*
X110892476Y-86814746D01*
X107696000Y-103632000D02*
X110744000Y-103632000D01*
%TO.N,Net-(J33-Pad2)*%
X113030000Y-104140000D02*
X113030000Y-87861517D01*
X105156000Y-108204000D02*
X109220000Y-104140000D01*
X113030000Y-87861517D02*
X111887938Y-86719455D01*
X109220000Y-104140000D02*
X113030000Y-104140000D01*
%TO.N,Net-(J34-Pad2)*%
X105156000Y-115316000D02*
X113792000Y-106680000D01*
X113792000Y-106680000D02*
X113792000Y-87359459D01*
X113792000Y-87359459D02*
X112838173Y-86405632D01*
%TO.N,Net-(J42-Pad2)*%
X104956928Y-172012928D02*
X105156000Y-172212000D01*
X104956928Y-167132000D02*
X104956928Y-172012928D01*
%TD*%
M02*
