%TF.GenerationSoftware,KiCad,Pcbnew,(5.1.8)-1*%
%TF.CreationDate,2021-05-23T23:23:44-05:00*%
%TF.ProjectId,CircuitBoardV2,43697263-7569-4744-926f-61726456322e,rev?*%
%TF.SameCoordinates,Original*%
%TF.FileFunction,Copper,L1,Top*%
%TF.FilePolarity,Positive*%
%FSLAX46Y46*%
G04 Gerber Fmt 4.6, Leading zero omitted, Abs format (unit mm)*
G04 Created by KiCad (PCBNEW (5.1.8)-1) date 2021-05-23 23:23:44*
%MOMM*%
%LPD*%
G01*
G04 APERTURE LIST*
%TA.AperFunction,SMDPad,CuDef*%
%ADD10R,1.570000X0.410000*%
%TD*%
%TA.AperFunction,ComponentPad*%
%ADD11O,1.730000X2.030000*%
%TD*%
%TA.AperFunction,ComponentPad*%
%ADD12R,1.730000X2.030000*%
%TD*%
%TA.AperFunction,ComponentPad*%
%ADD13O,1.700000X1.700000*%
%TD*%
%TA.AperFunction,ComponentPad*%
%ADD14R,1.700000X1.700000*%
%TD*%
%TA.AperFunction,ComponentPad*%
%ADD15C,7.500000*%
%TD*%
%TA.AperFunction,SMDPad,CuDef*%
%ADD16R,0.410000X1.570000*%
%TD*%
%TA.AperFunction,ComponentPad*%
%ADD17C,2.540000*%
%TD*%
%TA.AperFunction,ComponentPad*%
%ADD18C,3.990000*%
%TD*%
%TA.AperFunction,ComponentPad*%
%ADD19C,2.400000*%
%TD*%
%TA.AperFunction,ComponentPad*%
%ADD20O,2.030000X1.730000*%
%TD*%
%TA.AperFunction,ComponentPad*%
%ADD21R,2.030000X1.730000*%
%TD*%
%TA.AperFunction,ViaPad*%
%ADD22C,0.800000*%
%TD*%
%TA.AperFunction,Conductor*%
%ADD23C,2.032000*%
%TD*%
%TA.AperFunction,Conductor*%
%ADD24C,0.250000*%
%TD*%
G04 APERTURE END LIST*
D10*
%TO.P,U5,1*%
%TO.N,Net-(J22-Pad24)*%
X116408000Y-135259000D03*
%TO.P,U5,2*%
%TO.N,Net-(J21-Pad15)*%
X116408000Y-134609000D03*
%TO.P,U5,3*%
%TO.N,Net-(J22-Pad23)*%
X116408000Y-133959000D03*
%TO.P,U5,4*%
%TO.N,Net-(J22-Pad22)*%
X116408000Y-133309000D03*
%TO.P,U5,5*%
%TO.N,Net-(J22-Pad21)*%
X116408000Y-132659000D03*
%TO.P,U5,6*%
%TO.N,Net-(J22-Pad20)*%
X116408000Y-132009000D03*
%TO.P,U5,7*%
%TO.N,Net-(J22-Pad19)*%
X116408000Y-131359000D03*
%TO.P,U5,8*%
%TO.N,Net-(J22-Pad18)*%
X116408000Y-130709000D03*
%TO.P,U5,9*%
%TO.N,Net-(J22-Pad17)*%
X116408000Y-130059000D03*
%TO.P,U5,10*%
%TO.N,Net-(J21-Pad15)*%
X116408000Y-129409000D03*
%TO.P,U5,11*%
%TO.N,Net-(J1-Pad4)*%
X110668000Y-129409000D03*
%TO.P,U5,12*%
%TO.N,Net-(J42-Pad2)*%
X110668000Y-130059000D03*
%TO.P,U5,13*%
%TO.N,Net-(J41-Pad2)*%
X110668000Y-130709000D03*
%TO.P,U5,14*%
%TO.N,Net-(J40-Pad2)*%
X110668000Y-131359000D03*
%TO.P,U5,15*%
%TO.N,Net-(J39-Pad2)*%
X110668000Y-132009000D03*
%TO.P,U5,16*%
%TO.N,Net-(J38-Pad2)*%
X110668000Y-132659000D03*
%TO.P,U5,17*%
%TO.N,Net-(J37-Pad2)*%
X110668000Y-133309000D03*
%TO.P,U5,18*%
%TO.N,Net-(J36-Pad2)*%
X110668000Y-133959000D03*
%TO.P,U5,19*%
%TO.N,Net-(J1-Pad1)*%
X110668000Y-134609000D03*
%TO.P,U5,20*%
%TO.N,Net-(J35-Pad2)*%
X110668000Y-135259000D03*
%TD*%
D11*
%TO.P,J31,4*%
%TO.N,Net-(J1-Pad4)*%
X100076000Y-93980000D03*
%TO.P,J31,3*%
%TO.N,Net-(J31-Pad3)*%
X102616000Y-93980000D03*
%TO.P,J31,2*%
%TO.N,Net-(J31-Pad2)*%
X105156000Y-93980000D03*
D12*
%TO.P,J31,1*%
%TO.N,Net-(J1-Pad1)*%
X107696000Y-93980000D03*
%TD*%
D13*
%TO.P,J21,24*%
%TO.N,Net-(J21-Pad24)*%
X134620000Y-85090000D03*
%TO.P,J21,23*%
%TO.N,Net-(J21-Pad23)*%
X134620000Y-87630000D03*
%TO.P,J21,22*%
%TO.N,Net-(J21-Pad22)*%
X134620000Y-90170000D03*
%TO.P,J21,21*%
%TO.N,Net-(J21-Pad21)*%
X134620000Y-92710000D03*
%TO.P,J21,20*%
%TO.N,Net-(J21-Pad20)*%
X134620000Y-95250000D03*
%TO.P,J21,19*%
%TO.N,Net-(J21-Pad19)*%
X134620000Y-97790000D03*
%TO.P,J21,18*%
%TO.N,Net-(J21-Pad18)*%
X134620000Y-100330000D03*
%TO.P,J21,17*%
%TO.N,Net-(J21-Pad17)*%
X134620000Y-102870000D03*
%TO.P,J21,16*%
%TO.N,Net-(J21-Pad16)*%
X134620000Y-105410000D03*
%TO.P,J21,15*%
%TO.N,Net-(J21-Pad15)*%
X134620000Y-107950000D03*
%TO.P,J21,14*%
%TO.N,Net-(J21-Pad14)*%
X134620000Y-110490000D03*
%TO.P,J21,13*%
%TO.N,Net-(J21-Pad13)*%
X134620000Y-113030000D03*
%TO.P,J21,12*%
%TO.N,Net-(J21-Pad12)*%
X134620000Y-115570000D03*
%TO.P,J21,11*%
%TO.N,Net-(J21-Pad11)*%
X134620000Y-118110000D03*
%TO.P,J21,10*%
%TO.N,Net-(J21-Pad10)*%
X134620000Y-120650000D03*
%TO.P,J21,9*%
%TO.N,Net-(J21-Pad9)*%
X134620000Y-123190000D03*
%TO.P,J21,8*%
%TO.N,Net-(J21-Pad8)*%
X134620000Y-125730000D03*
%TO.P,J21,7*%
%TO.N,Net-(J21-Pad7)*%
X134620000Y-128270000D03*
%TO.P,J21,6*%
%TO.N,Net-(J21-Pad6)*%
X134620000Y-130810000D03*
%TO.P,J21,5*%
%TO.N,Net-(J21-Pad5)*%
X134620000Y-133350000D03*
%TO.P,J21,4*%
%TO.N,Net-(J21-Pad4)*%
X134620000Y-135890000D03*
%TO.P,J21,3*%
%TO.N,Net-(J21-Pad3)*%
X134620000Y-138430000D03*
%TO.P,J21,2*%
%TO.N,Net-(J21-Pad2)*%
X134620000Y-140970000D03*
D14*
%TO.P,J21,1*%
%TO.N,Net-(J1-Pad4)*%
X134620000Y-143510000D03*
%TD*%
D10*
%TO.P,U1,20*%
%TO.N,Net-(J11-Pad2)*%
X143332000Y-122805000D03*
%TO.P,U1,19*%
%TO.N,Net-(J1-Pad1)*%
X143332000Y-123455000D03*
%TO.P,U1,18*%
%TO.N,Net-(J12-Pad2)*%
X143332000Y-124105000D03*
%TO.P,U1,17*%
%TO.N,Net-(J13-Pad2)*%
X143332000Y-124755000D03*
%TO.P,U1,16*%
%TO.N,Net-(J14-Pad2)*%
X143332000Y-125405000D03*
%TO.P,U1,15*%
%TO.N,Net-(J15-Pad2)*%
X143332000Y-126055000D03*
%TO.P,U1,14*%
%TO.N,Net-(J16-Pad2)*%
X143332000Y-126705000D03*
%TO.P,U1,13*%
%TO.N,Net-(J17-Pad2)*%
X143332000Y-127355000D03*
%TO.P,U1,12*%
%TO.N,Net-(J18-Pad2)*%
X143332000Y-128005000D03*
%TO.P,U1,11*%
%TO.N,Net-(J1-Pad4)*%
X143332000Y-128655000D03*
%TO.P,U1,10*%
%TO.N,Net-(J21-Pad15)*%
X137592000Y-128655000D03*
%TO.P,U1,9*%
%TO.N,Net-(J21-Pad9)*%
X137592000Y-128005000D03*
%TO.P,U1,8*%
%TO.N,Net-(J21-Pad8)*%
X137592000Y-127355000D03*
%TO.P,U1,7*%
%TO.N,Net-(J21-Pad7)*%
X137592000Y-126705000D03*
%TO.P,U1,6*%
%TO.N,Net-(J21-Pad6)*%
X137592000Y-126055000D03*
%TO.P,U1,5*%
%TO.N,Net-(J21-Pad5)*%
X137592000Y-125405000D03*
%TO.P,U1,4*%
%TO.N,Net-(J21-Pad4)*%
X137592000Y-124755000D03*
%TO.P,U1,3*%
%TO.N,Net-(J21-Pad3)*%
X137592000Y-124105000D03*
%TO.P,U1,2*%
%TO.N,Net-(J21-Pad15)*%
X137592000Y-123455000D03*
%TO.P,U1,1*%
%TO.N,Net-(J21-Pad2)*%
X137592000Y-122805000D03*
%TD*%
D15*
%TO.P,REF\u002A\u002A,1*%
%TO.N,N/C*%
X137668000Y-60706000D03*
%TD*%
%TO.P,REF\u002A\u002A,1*%
%TO.N,N/C*%
X116332000Y-60706000D03*
%TD*%
%TO.P,REF\u002A\u002A,1*%
%TO.N,N/C*%
X137668000Y-155956000D03*
%TD*%
%TO.P,REF\u002A\u002A,1*%
%TO.N,N/C*%
X116332000Y-155956000D03*
%TD*%
D11*
%TO.P,J37,4*%
%TO.N,Net-(J1-Pad4)*%
X100076000Y-136652000D03*
%TO.P,J37,3*%
%TO.N,Net-(J37-Pad3)*%
X102616000Y-136652000D03*
%TO.P,J37,2*%
%TO.N,Net-(J37-Pad2)*%
X105156000Y-136652000D03*
D12*
%TO.P,J37,1*%
%TO.N,Net-(J1-Pad1)*%
X107696000Y-136652000D03*
%TD*%
%TO.P,J40,1*%
%TO.N,Net-(J1-Pad1)*%
X107696000Y-157988000D03*
D11*
%TO.P,J40,2*%
%TO.N,Net-(J40-Pad2)*%
X105156000Y-157988000D03*
%TO.P,J40,3*%
%TO.N,Net-(J40-Pad3)*%
X102616000Y-157988000D03*
%TO.P,J40,4*%
%TO.N,Net-(J1-Pad4)*%
X100076000Y-157988000D03*
%TD*%
D10*
%TO.P,U4,20*%
%TO.N,Net-(J27-Pad2)*%
X110668000Y-99445000D03*
%TO.P,U4,19*%
%TO.N,Net-(J1-Pad1)*%
X110668000Y-98795000D03*
%TO.P,U4,18*%
%TO.N,Net-(J28-Pad2)*%
X110668000Y-98145000D03*
%TO.P,U4,17*%
%TO.N,Net-(J29-Pad2)*%
X110668000Y-97495000D03*
%TO.P,U4,16*%
%TO.N,Net-(J30-Pad2)*%
X110668000Y-96845000D03*
%TO.P,U4,15*%
%TO.N,Net-(J31-Pad2)*%
X110668000Y-96195000D03*
%TO.P,U4,14*%
%TO.N,Net-(J32-Pad2)*%
X110668000Y-95545000D03*
%TO.P,U4,13*%
%TO.N,Net-(J33-Pad2)*%
X110668000Y-94895000D03*
%TO.P,U4,12*%
%TO.N,Net-(J34-Pad2)*%
X110668000Y-94245000D03*
%TO.P,U4,11*%
%TO.N,Net-(J1-Pad4)*%
X110668000Y-93595000D03*
%TO.P,U4,10*%
%TO.N,Net-(J21-Pad15)*%
X116408000Y-93595000D03*
%TO.P,U4,9*%
%TO.N,Net-(J21-Pad24)*%
X116408000Y-94245000D03*
%TO.P,U4,8*%
%TO.N,Net-(J21-Pad23)*%
X116408000Y-94895000D03*
%TO.P,U4,7*%
%TO.N,Net-(J21-Pad22)*%
X116408000Y-95545000D03*
%TO.P,U4,6*%
%TO.N,Net-(J21-Pad21)*%
X116408000Y-96195000D03*
%TO.P,U4,5*%
%TO.N,Net-(J21-Pad20)*%
X116408000Y-96845000D03*
%TO.P,U4,4*%
%TO.N,Net-(J21-Pad19)*%
X116408000Y-97495000D03*
%TO.P,U4,3*%
%TO.N,Net-(J21-Pad18)*%
X116408000Y-98145000D03*
%TO.P,U4,2*%
%TO.N,Net-(J21-Pad15)*%
X116408000Y-98795000D03*
%TO.P,U4,1*%
%TO.N,Net-(J21-Pad17)*%
X116408000Y-99445000D03*
%TD*%
D16*
%TO.P,U3,1*%
%TO.N,Net-(J22-Pad10)*%
X123821000Y-73990000D03*
%TO.P,U3,2*%
%TO.N,Net-(J21-Pad15)*%
X124471000Y-73990000D03*
%TO.P,U3,3*%
%TO.N,Net-(J22-Pad9)*%
X125121000Y-73990000D03*
%TO.P,U3,4*%
%TO.N,Net-(J22-Pad8)*%
X125771000Y-73990000D03*
%TO.P,U3,5*%
%TO.N,Net-(J22-Pad7)*%
X126421000Y-73990000D03*
%TO.P,U3,6*%
%TO.N,Net-(J22-Pad6)*%
X127071000Y-73990000D03*
%TO.P,U3,7*%
%TO.N,Net-(J22-Pad5)*%
X127721000Y-73990000D03*
%TO.P,U3,8*%
%TO.N,Net-(J22-Pad4)*%
X128371000Y-73990000D03*
%TO.P,U3,9*%
%TO.N,Net-(J21-Pad16)*%
X129021000Y-73990000D03*
%TO.P,U3,10*%
%TO.N,Net-(J21-Pad15)*%
X129671000Y-73990000D03*
%TO.P,U3,11*%
%TO.N,Net-(J1-Pad4)*%
X129671000Y-68250000D03*
%TO.P,U3,12*%
%TO.N,Net-(J26-Pad2)*%
X129021000Y-68250000D03*
%TO.P,U3,13*%
%TO.N,Net-(J25-Pad2)*%
X128371000Y-68250000D03*
%TO.P,U3,14*%
%TO.N,Net-(J24-Pad2)*%
X127721000Y-68250000D03*
%TO.P,U3,15*%
%TO.N,Net-(J23-Pad2)*%
X127071000Y-68250000D03*
%TO.P,U3,16*%
%TO.N,Net-(J10-Pad2)*%
X126421000Y-68250000D03*
%TO.P,U3,17*%
%TO.N,Net-(J6-Pad2)*%
X125771000Y-68250000D03*
%TO.P,U3,18*%
%TO.N,Net-(J9-Pad2)*%
X125121000Y-68250000D03*
%TO.P,U3,19*%
%TO.N,Net-(J1-Pad1)*%
X124471000Y-68250000D03*
%TO.P,U3,20*%
%TO.N,Net-(J8-Pad2)*%
X123821000Y-68250000D03*
%TD*%
D10*
%TO.P,U2,20*%
%TO.N,Net-(J19-Pad2)*%
X142824000Y-86483000D03*
%TO.P,U2,19*%
%TO.N,Net-(J1-Pad1)*%
X142824000Y-87133000D03*
%TO.P,U2,18*%
%TO.N,Net-(J20-Pad2)*%
X142824000Y-87783000D03*
%TO.P,U2,17*%
%TO.N,Net-(J3-Pad2)*%
X142824000Y-88433000D03*
%TO.P,U2,16*%
%TO.N,Net-(J1-Pad2)*%
X142824000Y-89083000D03*
%TO.P,U2,15*%
%TO.N,Net-(J2-Pad2)*%
X142824000Y-89733000D03*
%TO.P,U2,14*%
%TO.N,Net-(J4-Pad2)*%
X142824000Y-90383000D03*
%TO.P,U2,13*%
%TO.N,Net-(J5-Pad2)*%
X142824000Y-91033000D03*
%TO.P,U2,12*%
%TO.N,Net-(J7-Pad2)*%
X142824000Y-91683000D03*
%TO.P,U2,11*%
%TO.N,Net-(J1-Pad4)*%
X142824000Y-92333000D03*
%TO.P,U2,10*%
%TO.N,Net-(J21-Pad15)*%
X137084000Y-92333000D03*
%TO.P,U2,9*%
%TO.N,Net-(J22-Pad11)*%
X137084000Y-91683000D03*
%TO.P,U2,8*%
%TO.N,Net-(J22-Pad12)*%
X137084000Y-91033000D03*
%TO.P,U2,7*%
%TO.N,Net-(J22-Pad13)*%
X137084000Y-90383000D03*
%TO.P,U2,6*%
%TO.N,Net-(J21-Pad14)*%
X137084000Y-89733000D03*
%TO.P,U2,5*%
%TO.N,Net-(J21-Pad13)*%
X137084000Y-89083000D03*
%TO.P,U2,4*%
%TO.N,Net-(J21-Pad12)*%
X137084000Y-88433000D03*
%TO.P,U2,3*%
%TO.N,Net-(J21-Pad11)*%
X137084000Y-87783000D03*
%TO.P,U2,2*%
%TO.N,Net-(J21-Pad15)*%
X137084000Y-87133000D03*
%TO.P,U2,1*%
%TO.N,Net-(J21-Pad10)*%
X137084000Y-86483000D03*
%TD*%
D11*
%TO.P,J5,4*%
%TO.N,Net-(J1-Pad4)*%
X153924000Y-72136000D03*
%TO.P,J5,3*%
%TO.N,Net-(J5-Pad3)*%
X151384000Y-72136000D03*
%TO.P,J5,2*%
%TO.N,Net-(J5-Pad2)*%
X148844000Y-72136000D03*
D12*
%TO.P,J5,1*%
%TO.N,Net-(J1-Pad1)*%
X146304000Y-72136000D03*
%TD*%
D11*
%TO.P,J1,4*%
%TO.N,Net-(J1-Pad4)*%
X153924000Y-93472000D03*
%TO.P,J1,3*%
%TO.N,Net-(J1-Pad3)*%
X151384000Y-93472000D03*
%TO.P,J1,2*%
%TO.N,Net-(J1-Pad2)*%
X148844000Y-93472000D03*
D12*
%TO.P,J1,1*%
%TO.N,Net-(J1-Pad1)*%
X146304000Y-93472000D03*
%TD*%
D11*
%TO.P,J3,4*%
%TO.N,Net-(J1-Pad4)*%
X153924000Y-100584000D03*
%TO.P,J3,3*%
%TO.N,Net-(J3-Pad3)*%
X151384000Y-100584000D03*
%TO.P,J3,2*%
%TO.N,Net-(J3-Pad2)*%
X148844000Y-100584000D03*
D12*
%TO.P,J3,1*%
%TO.N,Net-(J1-Pad1)*%
X146304000Y-100584000D03*
%TD*%
D11*
%TO.P,J35,4*%
%TO.N,Net-(J1-Pad4)*%
X100076000Y-122428000D03*
%TO.P,J35,3*%
%TO.N,Net-(J35-Pad3)*%
X102616000Y-122428000D03*
%TO.P,J35,2*%
%TO.N,Net-(J35-Pad2)*%
X105156000Y-122428000D03*
D12*
%TO.P,J35,1*%
%TO.N,Net-(J1-Pad1)*%
X107696000Y-122428000D03*
%TD*%
%TO.P,J38,1*%
%TO.N,Net-(J1-Pad1)*%
X107696000Y-143764000D03*
D11*
%TO.P,J38,2*%
%TO.N,Net-(J38-Pad2)*%
X105156000Y-143764000D03*
%TO.P,J38,3*%
%TO.N,Net-(J38-Pad3)*%
X102616000Y-143764000D03*
%TO.P,J38,4*%
%TO.N,Net-(J1-Pad4)*%
X100076000Y-143764000D03*
%TD*%
%TO.P,J36,4*%
%TO.N,Net-(J1-Pad4)*%
X100076000Y-129540000D03*
%TO.P,J36,3*%
%TO.N,Net-(J36-Pad3)*%
X102616000Y-129540000D03*
%TO.P,J36,2*%
%TO.N,Net-(J36-Pad2)*%
X105156000Y-129540000D03*
D12*
%TO.P,J36,1*%
%TO.N,Net-(J1-Pad1)*%
X107696000Y-129540000D03*
%TD*%
%TO.P,J39,1*%
%TO.N,Net-(J1-Pad1)*%
X107696000Y-150876000D03*
D11*
%TO.P,J39,2*%
%TO.N,Net-(J39-Pad2)*%
X105156000Y-150876000D03*
%TO.P,J39,3*%
%TO.N,Net-(J39-Pad3)*%
X102616000Y-150876000D03*
%TO.P,J39,4*%
%TO.N,Net-(J1-Pad4)*%
X100076000Y-150876000D03*
%TD*%
D12*
%TO.P,J41,1*%
%TO.N,Net-(J1-Pad1)*%
X107696000Y-165100000D03*
D11*
%TO.P,J41,2*%
%TO.N,Net-(J41-Pad2)*%
X105156000Y-165100000D03*
%TO.P,J41,3*%
%TO.N,Net-(J41-Pad3)*%
X102616000Y-165100000D03*
%TO.P,J41,4*%
%TO.N,Net-(J1-Pad4)*%
X100076000Y-165100000D03*
%TD*%
D17*
%TO.P,JMolex1,8*%
%TO.N,N/C*%
X116840000Y-164635000D03*
D18*
%TO.P,JMolex1,7*%
X121920000Y-172255000D03*
%TO.P,JMolex1,6*%
X132080000Y-172255000D03*
D17*
%TO.P,JMolex1,5*%
X137160000Y-164635000D03*
D19*
%TO.P,JMolex1,4*%
%TO.N,Net-(J1-Pad1)*%
X134620000Y-162095000D03*
%TO.P,JMolex1,3*%
%TO.N,Net-(J1-Pad4)*%
X129540000Y-162095000D03*
%TO.P,JMolex1,2*%
%TO.N,Net-(JMolex1-Pad2)*%
X124460000Y-162095000D03*
%TO.P,JMolex1,1*%
%TO.N,Net-(JMolex1-Pad1)*%
X119380000Y-162095000D03*
%TD*%
D12*
%TO.P,J42,1*%
%TO.N,Net-(J1-Pad1)*%
X107696000Y-172212000D03*
D11*
%TO.P,J42,2*%
%TO.N,Net-(J42-Pad2)*%
X105156000Y-172212000D03*
%TO.P,J42,3*%
%TO.N,Net-(J42-Pad3)*%
X102616000Y-172212000D03*
%TO.P,J42,4*%
%TO.N,Net-(J1-Pad4)*%
X100076000Y-172212000D03*
%TD*%
%TO.P,J34,4*%
%TO.N,Net-(J1-Pad4)*%
X100076000Y-115316000D03*
%TO.P,J34,3*%
%TO.N,Net-(J34-Pad3)*%
X102616000Y-115316000D03*
%TO.P,J34,2*%
%TO.N,Net-(J34-Pad2)*%
X105156000Y-115316000D03*
D12*
%TO.P,J34,1*%
%TO.N,Net-(J1-Pad1)*%
X107696000Y-115316000D03*
%TD*%
D11*
%TO.P,J33,4*%
%TO.N,Net-(J1-Pad4)*%
X100076000Y-108204000D03*
%TO.P,J33,3*%
%TO.N,Net-(J33-Pad3)*%
X102616000Y-108204000D03*
%TO.P,J33,2*%
%TO.N,Net-(J33-Pad2)*%
X105156000Y-108204000D03*
D12*
%TO.P,J33,1*%
%TO.N,Net-(J1-Pad1)*%
X107696000Y-108204000D03*
%TD*%
D11*
%TO.P,J32,4*%
%TO.N,Net-(J1-Pad4)*%
X100076000Y-101092000D03*
%TO.P,J32,3*%
%TO.N,Net-(J32-Pad3)*%
X102616000Y-101092000D03*
%TO.P,J32,2*%
%TO.N,Net-(J32-Pad2)*%
X105156000Y-101092000D03*
D12*
%TO.P,J32,1*%
%TO.N,Net-(J1-Pad1)*%
X107696000Y-101092000D03*
%TD*%
D11*
%TO.P,J30,4*%
%TO.N,Net-(J1-Pad4)*%
X100076000Y-86868000D03*
%TO.P,J30,3*%
%TO.N,Net-(J30-Pad3)*%
X102616000Y-86868000D03*
%TO.P,J30,2*%
%TO.N,Net-(J30-Pad2)*%
X105156000Y-86868000D03*
D12*
%TO.P,J30,1*%
%TO.N,Net-(J1-Pad1)*%
X107696000Y-86868000D03*
%TD*%
D11*
%TO.P,J29,4*%
%TO.N,Net-(J1-Pad4)*%
X100076000Y-79756000D03*
%TO.P,J29,3*%
%TO.N,Net-(J29-Pad3)*%
X102616000Y-79756000D03*
%TO.P,J29,2*%
%TO.N,Net-(J29-Pad2)*%
X105156000Y-79756000D03*
D12*
%TO.P,J29,1*%
%TO.N,Net-(J1-Pad1)*%
X107696000Y-79756000D03*
%TD*%
D11*
%TO.P,J28,4*%
%TO.N,Net-(J1-Pad4)*%
X100076000Y-72644000D03*
%TO.P,J28,3*%
%TO.N,Net-(J28-Pad3)*%
X102616000Y-72644000D03*
%TO.P,J28,2*%
%TO.N,Net-(J28-Pad2)*%
X105156000Y-72644000D03*
D12*
%TO.P,J28,1*%
%TO.N,Net-(J1-Pad1)*%
X107696000Y-72644000D03*
%TD*%
D11*
%TO.P,J27,4*%
%TO.N,Net-(J1-Pad4)*%
X100076000Y-65532000D03*
%TO.P,J27,3*%
%TO.N,Net-(J27-Pad3)*%
X102616000Y-65532000D03*
%TO.P,J27,2*%
%TO.N,Net-(J27-Pad2)*%
X105156000Y-65532000D03*
D12*
%TO.P,J27,1*%
%TO.N,Net-(J1-Pad1)*%
X107696000Y-65532000D03*
%TD*%
D11*
%TO.P,J26,4*%
%TO.N,Net-(J1-Pad4)*%
X153924000Y-57912000D03*
%TO.P,J26,3*%
%TO.N,Net-(J26-Pad3)*%
X151384000Y-57912000D03*
%TO.P,J26,2*%
%TO.N,Net-(J26-Pad2)*%
X148844000Y-57912000D03*
D12*
%TO.P,J26,1*%
%TO.N,Net-(J1-Pad1)*%
X146304000Y-57912000D03*
%TD*%
D20*
%TO.P,J25,4*%
%TO.N,Net-(J1-Pad4)*%
X144018000Y-45212000D03*
%TO.P,J25,3*%
%TO.N,Net-(J25-Pad3)*%
X144018000Y-47752000D03*
%TO.P,J25,2*%
%TO.N,Net-(J25-Pad2)*%
X144018000Y-50292000D03*
D21*
%TO.P,J25,1*%
%TO.N,Net-(J1-Pad1)*%
X144018000Y-52832000D03*
%TD*%
D20*
%TO.P,J24,4*%
%TO.N,Net-(J1-Pad4)*%
X136906000Y-45212000D03*
%TO.P,J24,3*%
%TO.N,Net-(J24-Pad3)*%
X136906000Y-47752000D03*
%TO.P,J24,2*%
%TO.N,Net-(J24-Pad2)*%
X136906000Y-50292000D03*
D21*
%TO.P,J24,1*%
%TO.N,Net-(J1-Pad1)*%
X136906000Y-52832000D03*
%TD*%
D20*
%TO.P,J23,4*%
%TO.N,Net-(J1-Pad4)*%
X129794000Y-45212000D03*
%TO.P,J23,3*%
%TO.N,Net-(J23-Pad3)*%
X129794000Y-47752000D03*
%TO.P,J23,2*%
%TO.N,Net-(J23-Pad2)*%
X129794000Y-50292000D03*
D21*
%TO.P,J23,1*%
%TO.N,Net-(J1-Pad1)*%
X129794000Y-52832000D03*
%TD*%
D13*
%TO.P,J22,24*%
%TO.N,Net-(J22-Pad24)*%
X119380000Y-85090000D03*
%TO.P,J22,23*%
%TO.N,Net-(J22-Pad23)*%
X119380000Y-87630000D03*
%TO.P,J22,22*%
%TO.N,Net-(J22-Pad22)*%
X119380000Y-90170000D03*
%TO.P,J22,21*%
%TO.N,Net-(J22-Pad21)*%
X119380000Y-92710000D03*
%TO.P,J22,20*%
%TO.N,Net-(J22-Pad20)*%
X119380000Y-95250000D03*
%TO.P,J22,19*%
%TO.N,Net-(J22-Pad19)*%
X119380000Y-97790000D03*
%TO.P,J22,18*%
%TO.N,Net-(J22-Pad18)*%
X119380000Y-100330000D03*
%TO.P,J22,17*%
%TO.N,Net-(J22-Pad17)*%
X119380000Y-102870000D03*
%TO.P,J22,16*%
%TO.N,Net-(J22-Pad16)*%
X119380000Y-105410000D03*
%TO.P,J22,15*%
%TO.N,Net-(J22-Pad15)*%
X119380000Y-107950000D03*
%TO.P,J22,14*%
%TO.N,Net-(J22-Pad14)*%
X119380000Y-110490000D03*
%TO.P,J22,13*%
%TO.N,Net-(J22-Pad13)*%
X119380000Y-113030000D03*
%TO.P,J22,12*%
%TO.N,Net-(J22-Pad12)*%
X119380000Y-115570000D03*
%TO.P,J22,11*%
%TO.N,Net-(J22-Pad11)*%
X119380000Y-118110000D03*
%TO.P,J22,10*%
%TO.N,Net-(J22-Pad10)*%
X119380000Y-120650000D03*
%TO.P,J22,9*%
%TO.N,Net-(J22-Pad9)*%
X119380000Y-123190000D03*
%TO.P,J22,8*%
%TO.N,Net-(J22-Pad8)*%
X119380000Y-125730000D03*
%TO.P,J22,7*%
%TO.N,Net-(J22-Pad7)*%
X119380000Y-128270000D03*
%TO.P,J22,6*%
%TO.N,Net-(J22-Pad6)*%
X119380000Y-130810000D03*
%TO.P,J22,5*%
%TO.N,Net-(J22-Pad5)*%
X119380000Y-133350000D03*
%TO.P,J22,4*%
%TO.N,Net-(J22-Pad4)*%
X119380000Y-135890000D03*
%TO.P,J22,3*%
%TO.N,Net-(J22-Pad3)*%
X119380000Y-138430000D03*
%TO.P,J22,2*%
%TO.N,Net-(J22-Pad2)*%
X119380000Y-140970000D03*
D14*
%TO.P,J22,1*%
%TO.N,Net-(J22-Pad1)*%
X119380000Y-143510000D03*
%TD*%
D11*
%TO.P,J20,4*%
%TO.N,Net-(J1-Pad4)*%
X153924000Y-107696000D03*
%TO.P,J20,3*%
%TO.N,Net-(J20-Pad3)*%
X151384000Y-107696000D03*
%TO.P,J20,2*%
%TO.N,Net-(J20-Pad2)*%
X148844000Y-107696000D03*
D12*
%TO.P,J20,1*%
%TO.N,Net-(J1-Pad1)*%
X146304000Y-107696000D03*
%TD*%
D11*
%TO.P,J19,4*%
%TO.N,Net-(J1-Pad4)*%
X153924000Y-114808000D03*
%TO.P,J19,3*%
%TO.N,Net-(J19-Pad3)*%
X151384000Y-114808000D03*
%TO.P,J19,2*%
%TO.N,Net-(J19-Pad2)*%
X148844000Y-114808000D03*
D12*
%TO.P,J19,1*%
%TO.N,Net-(J1-Pad1)*%
X146304000Y-114808000D03*
%TD*%
D11*
%TO.P,J18,4*%
%TO.N,Net-(J1-Pad4)*%
X153924000Y-121920000D03*
%TO.P,J18,3*%
%TO.N,Net-(J18-Pad3)*%
X151384000Y-121920000D03*
%TO.P,J18,2*%
%TO.N,Net-(J18-Pad2)*%
X148844000Y-121920000D03*
D12*
%TO.P,J18,1*%
%TO.N,Net-(J1-Pad1)*%
X146304000Y-121920000D03*
%TD*%
D11*
%TO.P,J17,4*%
%TO.N,Net-(J1-Pad4)*%
X153924000Y-129032000D03*
%TO.P,J17,3*%
%TO.N,Net-(J17-Pad3)*%
X151384000Y-129032000D03*
%TO.P,J17,2*%
%TO.N,Net-(J17-Pad2)*%
X148844000Y-129032000D03*
D12*
%TO.P,J17,1*%
%TO.N,Net-(J1-Pad1)*%
X146304000Y-129032000D03*
%TD*%
D11*
%TO.P,J16,4*%
%TO.N,Net-(J1-Pad4)*%
X153924000Y-136144000D03*
%TO.P,J16,3*%
%TO.N,Net-(J16-Pad3)*%
X151384000Y-136144000D03*
%TO.P,J16,2*%
%TO.N,Net-(J16-Pad2)*%
X148844000Y-136144000D03*
D12*
%TO.P,J16,1*%
%TO.N,Net-(J1-Pad1)*%
X146304000Y-136144000D03*
%TD*%
D11*
%TO.P,J15,4*%
%TO.N,Net-(J1-Pad4)*%
X153924000Y-143256000D03*
%TO.P,J15,3*%
%TO.N,Net-(J15-Pad3)*%
X151384000Y-143256000D03*
%TO.P,J15,2*%
%TO.N,Net-(J15-Pad2)*%
X148844000Y-143256000D03*
D12*
%TO.P,J15,1*%
%TO.N,Net-(J1-Pad1)*%
X146304000Y-143256000D03*
%TD*%
D11*
%TO.P,J14,4*%
%TO.N,Net-(J1-Pad4)*%
X153924000Y-150368000D03*
%TO.P,J14,3*%
%TO.N,Net-(J14-Pad3)*%
X151384000Y-150368000D03*
%TO.P,J14,2*%
%TO.N,Net-(J14-Pad2)*%
X148844000Y-150368000D03*
D12*
%TO.P,J14,1*%
%TO.N,Net-(J1-Pad1)*%
X146304000Y-150368000D03*
%TD*%
D11*
%TO.P,J13,4*%
%TO.N,Net-(J1-Pad4)*%
X153924000Y-157480000D03*
%TO.P,J13,3*%
%TO.N,Net-(J13-Pad3)*%
X151384000Y-157480000D03*
%TO.P,J13,2*%
%TO.N,Net-(J13-Pad2)*%
X148844000Y-157480000D03*
D12*
%TO.P,J13,1*%
%TO.N,Net-(J1-Pad1)*%
X146304000Y-157480000D03*
%TD*%
D11*
%TO.P,J12,4*%
%TO.N,Net-(J1-Pad4)*%
X153924000Y-164592000D03*
%TO.P,J12,3*%
%TO.N,Net-(J12-Pad3)*%
X151384000Y-164592000D03*
%TO.P,J12,2*%
%TO.N,Net-(J12-Pad2)*%
X148844000Y-164592000D03*
D12*
%TO.P,J12,1*%
%TO.N,Net-(J1-Pad1)*%
X146304000Y-164592000D03*
%TD*%
D11*
%TO.P,J11,4*%
%TO.N,Net-(J1-Pad4)*%
X153924000Y-171704000D03*
%TO.P,J11,3*%
%TO.N,Net-(J11-Pad3)*%
X151384000Y-171704000D03*
%TO.P,J11,2*%
%TO.N,Net-(J11-Pad2)*%
X148844000Y-171704000D03*
D12*
%TO.P,J11,1*%
%TO.N,Net-(J1-Pad1)*%
X146304000Y-171704000D03*
%TD*%
D20*
%TO.P,J10,4*%
%TO.N,Net-(J1-Pad4)*%
X122682000Y-45212000D03*
%TO.P,J10,3*%
%TO.N,Net-(J10-Pad3)*%
X122682000Y-47752000D03*
%TO.P,J10,2*%
%TO.N,Net-(J10-Pad2)*%
X122682000Y-50292000D03*
D21*
%TO.P,J10,1*%
%TO.N,Net-(J1-Pad1)*%
X122682000Y-52832000D03*
%TD*%
D20*
%TO.P,J9,4*%
%TO.N,Net-(J1-Pad4)*%
X108458000Y-45212000D03*
%TO.P,J9,3*%
%TO.N,Net-(J9-Pad3)*%
X108458000Y-47752000D03*
%TO.P,J9,2*%
%TO.N,Net-(J9-Pad2)*%
X108458000Y-50292000D03*
D21*
%TO.P,J9,1*%
%TO.N,Net-(J1-Pad1)*%
X108458000Y-52832000D03*
%TD*%
D11*
%TO.P,J8,4*%
%TO.N,Net-(J1-Pad4)*%
X100076000Y-58420000D03*
%TO.P,J8,3*%
%TO.N,Net-(J8-Pad3)*%
X102616000Y-58420000D03*
%TO.P,J8,2*%
%TO.N,Net-(J8-Pad2)*%
X105156000Y-58420000D03*
D12*
%TO.P,J8,1*%
%TO.N,Net-(J1-Pad1)*%
X107696000Y-58420000D03*
%TD*%
D11*
%TO.P,J7,4*%
%TO.N,Net-(J1-Pad4)*%
X153924000Y-65024000D03*
%TO.P,J7,3*%
%TO.N,Net-(J7-Pad3)*%
X151384000Y-65024000D03*
%TO.P,J7,2*%
%TO.N,Net-(J7-Pad2)*%
X148844000Y-65024000D03*
D12*
%TO.P,J7,1*%
%TO.N,Net-(J1-Pad1)*%
X146304000Y-65024000D03*
%TD*%
D20*
%TO.P,J6,4*%
%TO.N,Net-(J1-Pad4)*%
X115570000Y-45212000D03*
%TO.P,J6,3*%
%TO.N,Net-(J6-Pad3)*%
X115570000Y-47752000D03*
%TO.P,J6,2*%
%TO.N,Net-(J6-Pad2)*%
X115570000Y-50292000D03*
D21*
%TO.P,J6,1*%
%TO.N,Net-(J1-Pad1)*%
X115570000Y-52832000D03*
%TD*%
D11*
%TO.P,J4,4*%
%TO.N,Net-(J1-Pad4)*%
X153924000Y-79248000D03*
%TO.P,J4,3*%
%TO.N,Net-(J4-Pad3)*%
X151384000Y-79248000D03*
%TO.P,J4,2*%
%TO.N,Net-(J4-Pad2)*%
X148844000Y-79248000D03*
D12*
%TO.P,J4,1*%
%TO.N,Net-(J1-Pad1)*%
X146304000Y-79248000D03*
%TD*%
D11*
%TO.P,J2,4*%
%TO.N,Net-(J1-Pad4)*%
X153924000Y-86360000D03*
%TO.P,J2,3*%
%TO.N,Net-(J2-Pad3)*%
X151384000Y-86360000D03*
%TO.P,J2,2*%
%TO.N,Net-(J2-Pad2)*%
X148844000Y-86360000D03*
D12*
%TO.P,J2,1*%
%TO.N,Net-(J1-Pad1)*%
X146304000Y-86360000D03*
%TD*%
D22*
%TO.N,Net-(J1-Pad4)*%
X109728000Y-86868000D03*
X142824000Y-94158000D03*
X142824000Y-100152000D03*
X110527724Y-90202620D03*
%TO.N,Net-(J21-Pad24)*%
X120805842Y-77117842D03*
%TO.N,Net-(J21-Pad23)*%
X119126000Y-77216000D03*
%TO.N,Net-(J21-Pad22)*%
X117584963Y-77452963D03*
%TO.N,Net-(J21-Pad21)*%
X115824000Y-77724000D03*
%TO.N,Net-(J21-Pad20)*%
X114554000Y-78994014D03*
%TO.N,Net-(J21-Pad19)*%
X113538000Y-79502000D03*
%TO.N,Net-(J21-Pad18)*%
X112522010Y-80518000D03*
%TO.N,Net-(J21-Pad17)*%
X111760000Y-81533998D03*
%TO.N,Net-(J21-Pad16)*%
X128509054Y-98298000D03*
%TO.N,Net-(J21-Pad15)*%
X132918000Y-73990000D03*
X140462000Y-83566000D03*
X137160000Y-94234000D03*
X138176000Y-121158000D03*
X137414000Y-130302000D03*
X115315994Y-124714000D03*
X115062000Y-100584000D03*
X117163271Y-89841943D03*
X115732759Y-137643080D03*
%TO.N,Net-(J22-Pad24)*%
X116840001Y-136576236D03*
%TO.N,Net-(J22-Pad23)*%
X115889087Y-136266340D03*
%TO.N,Net-(J22-Pad13)*%
X131178478Y-111507112D03*
%TO.N,Net-(J22-Pad12)*%
X131628489Y-114046000D03*
%TO.N,Net-(J22-Pad11)*%
X132353499Y-116097499D03*
%TO.N,Net-(J32-Pad2)*%
X110892476Y-86814746D03*
%TO.N,Net-(J33-Pad2)*%
X111887938Y-86719455D03*
%TO.N,Net-(J34-Pad2)*%
X112838173Y-86405632D03*
%TO.N,Net-(J42-Pad2)*%
X104956928Y-167132000D03*
%TD*%
D23*
%TO.N,Net-(J1-Pad4)*%
X153924000Y-72136000D02*
X153924000Y-65024000D01*
X153924000Y-79248000D02*
X153924000Y-72136000D01*
X153924000Y-86360000D02*
X153924000Y-79248000D01*
X153924000Y-93472000D02*
X153924000Y-86360000D01*
X153924000Y-100584000D02*
X153924000Y-93472000D01*
X153924000Y-107696000D02*
X153924000Y-100584000D01*
X153924000Y-114808000D02*
X153924000Y-107696000D01*
X153924000Y-121920000D02*
X153924000Y-114808000D01*
X153924000Y-143256000D02*
X153924000Y-136144000D01*
X153924000Y-171704000D02*
X153924000Y-172256992D01*
X152245991Y-173935001D02*
X141380001Y-173935001D01*
X153924000Y-172256992D02*
X152245991Y-173935001D01*
X141380001Y-173935001D02*
X129540000Y-162095000D01*
X153924000Y-150368000D02*
X153924000Y-143256000D01*
X153924000Y-157480000D02*
X153924000Y-150368000D01*
X153924000Y-164592000D02*
X153924000Y-157480000D01*
X153924000Y-171704000D02*
X153924000Y-164592000D01*
D24*
X151253000Y-131703000D02*
X153924000Y-129032000D01*
D23*
X124513999Y-167121001D02*
X117612999Y-167121001D01*
X129540000Y-162095000D02*
X124513999Y-167121001D01*
X100076000Y-172212000D02*
X100076000Y-165100000D01*
X100076000Y-165100000D02*
X100076000Y-157988000D01*
X100076000Y-157988000D02*
X100076000Y-150876000D01*
X100076000Y-150876000D02*
X100076000Y-143764000D01*
X100076000Y-143764000D02*
X100076000Y-136652000D01*
X100076000Y-136652000D02*
X100076000Y-129540000D01*
X100076000Y-129540000D02*
X100076000Y-122428000D01*
X100076000Y-122428000D02*
X100076000Y-115316000D01*
X100076000Y-115316000D02*
X100076000Y-108204000D01*
X100076000Y-108204000D02*
X100076000Y-101092000D01*
X100076000Y-169165000D02*
X100076000Y-172212000D01*
X100214999Y-169026001D02*
X100076000Y-169165000D01*
X115707999Y-169026001D02*
X100214999Y-169026001D01*
X117612999Y-167121001D02*
X115707999Y-169026001D01*
D24*
X142824000Y-92333000D02*
X142824000Y-94158000D01*
X142824000Y-94158000D02*
X142824000Y-94158000D01*
X152583990Y-101924010D02*
X153924000Y-100584000D01*
X144596010Y-101924010D02*
X152583990Y-101924010D01*
X142824000Y-100152000D02*
X144596010Y-101924010D01*
X129540000Y-148590000D02*
X129540000Y-162095000D01*
X134620000Y-143510000D02*
X129540000Y-148590000D01*
X151253000Y-131703000D02*
X145419000Y-131703000D01*
X143332000Y-129616000D02*
X143332000Y-128655000D01*
X145419000Y-131703000D02*
X143332000Y-129616000D01*
X110668000Y-90342896D02*
X110527724Y-90202620D01*
X110668000Y-93595000D02*
X110668000Y-90342896D01*
X101600000Y-120904000D02*
X100076000Y-122428000D01*
X105691464Y-120904000D02*
X101600000Y-120904000D01*
X106346010Y-121558546D02*
X105691464Y-120904000D01*
X106346010Y-123543012D02*
X106346010Y-121558546D01*
X110668000Y-127865002D02*
X106346010Y-123543012D01*
X110668000Y-129409000D02*
X110668000Y-127865002D01*
X153924000Y-63759000D02*
X153924000Y-65024000D01*
X150313072Y-61722000D02*
X151887000Y-61722000D01*
X147574000Y-64461072D02*
X150313072Y-61722000D01*
X151887000Y-61722000D02*
X153924000Y-63759000D01*
X147574000Y-66219002D02*
X147574000Y-64461072D01*
X145543002Y-68250000D02*
X147574000Y-66219002D01*
X129671000Y-68250000D02*
X145543002Y-68250000D01*
X101600000Y-78232000D02*
X100076000Y-79756000D01*
X105918000Y-78232000D02*
X101600000Y-78232000D01*
X106426000Y-78740000D02*
X105918000Y-78232000D01*
X106426000Y-83000315D02*
X106426000Y-78740000D01*
X109728000Y-86302315D02*
X106426000Y-83000315D01*
X109728000Y-86868000D02*
X109728000Y-86302315D01*
%TO.N,Net-(J1-Pad2)*%
X142882055Y-97282000D02*
X141246044Y-95645989D01*
X148844000Y-93472000D02*
X145034000Y-97282000D01*
X141246044Y-95645989D02*
X141246044Y-89625956D01*
X141789000Y-89083000D02*
X142824000Y-89083000D01*
X141246044Y-89625956D02*
X141789000Y-89083000D01*
X145034000Y-97282000D02*
X142882055Y-97282000D01*
%TO.N,Net-(J1-Pad1)*%
X142824000Y-87133000D02*
X143859000Y-87133000D01*
X143859000Y-87133000D02*
X144075990Y-86916010D01*
X144075991Y-83304601D02*
X146304000Y-81076592D01*
X144075990Y-86916010D02*
X144075991Y-83304601D01*
X146304000Y-81076592D02*
X146304000Y-79248000D01*
D23*
X107696000Y-101092000D02*
X107696000Y-108204000D01*
X107696000Y-108204000D02*
X107696000Y-115316000D01*
X107696000Y-115316000D02*
X107696000Y-122428000D01*
D24*
X107696000Y-129878000D02*
X107696000Y-129540000D01*
X124471000Y-61733000D02*
X115570000Y-52832000D01*
X124471000Y-68250000D02*
X124471000Y-61733000D01*
X144769000Y-123455000D02*
X146304000Y-121920000D01*
X143332000Y-123455000D02*
X144769000Y-123455000D01*
X108728000Y-98795000D02*
X110668000Y-98795000D01*
X107696000Y-99827000D02*
X108728000Y-98795000D01*
X107696000Y-101092000D02*
X107696000Y-99827000D01*
X111703000Y-134609000D02*
X110668000Y-134609000D01*
X112014000Y-134920000D02*
X111703000Y-134609000D01*
X112014000Y-135488002D02*
X112014000Y-134920000D01*
X110850002Y-136652000D02*
X112014000Y-135488002D01*
X107696000Y-136652000D02*
X110850002Y-136652000D01*
%TO.N,Net-(J2-Pad2)*%
X148844000Y-88195666D02*
X148844000Y-86360000D01*
X144272000Y-92767666D02*
X148844000Y-88195666D01*
X144272000Y-95250000D02*
X144272000Y-92767666D01*
X141732000Y-95250000D02*
X144272000Y-95250000D01*
X141696055Y-95214055D02*
X141732000Y-95250000D01*
X141789000Y-89733000D02*
X141696055Y-89825945D01*
X141696055Y-89825945D02*
X141696055Y-95214055D01*
X142824000Y-89733000D02*
X141789000Y-89733000D01*
%TO.N,Net-(J3-Pad2)*%
X140796033Y-95832390D02*
X140796033Y-89425967D01*
X140796033Y-89425967D02*
X141789000Y-88433000D01*
X141789000Y-88433000D02*
X142824000Y-88433000D01*
X142770043Y-97806400D02*
X140796033Y-95832390D01*
X146066400Y-97806400D02*
X142770043Y-97806400D01*
X148844000Y-100584000D02*
X146066400Y-97806400D01*
%TO.N,Net-(J4-Pad2)*%
X144526000Y-89716000D02*
X144526000Y-83491002D01*
X144526000Y-83491002D02*
X148769002Y-79248000D01*
X148769002Y-79248000D02*
X148844000Y-79248000D01*
X142824000Y-90383000D02*
X143859000Y-90383000D01*
X143859000Y-90383000D02*
X144526000Y-89716000D01*
%TO.N,Net-(J5-Pad2)*%
X150114000Y-73406000D02*
X148844000Y-72136000D01*
X150114000Y-80037464D02*
X150114000Y-73406000D01*
X145034000Y-85117464D02*
X150114000Y-80037464D01*
X145034000Y-89858000D02*
X145034000Y-85117464D01*
X143859000Y-91033000D02*
X145034000Y-89858000D01*
X142824000Y-91033000D02*
X143859000Y-91033000D01*
%TO.N,Net-(J6-Pad2)*%
X125771000Y-59228000D02*
X116835000Y-50292000D01*
X125771000Y-68250000D02*
X125771000Y-59228000D01*
X116835000Y-50292000D02*
X115570000Y-50292000D01*
%TO.N,Net-(J7-Pad2)*%
X152574010Y-68754010D02*
X148844000Y-65024000D01*
X152574010Y-80797062D02*
X152574010Y-68754010D01*
X147574000Y-85797072D02*
X152574010Y-80797062D01*
X147574000Y-87968000D02*
X147574000Y-85797072D01*
X143859000Y-91683000D02*
X147574000Y-87968000D01*
X142824000Y-91683000D02*
X143859000Y-91683000D01*
%TO.N,Net-(J8-Pad2)*%
X114986000Y-68250000D02*
X105156000Y-58420000D01*
X123821000Y-68250000D02*
X114986000Y-68250000D01*
%TO.N,Net-(J9-Pad2)*%
X109728000Y-51562000D02*
X108458000Y-50292000D01*
X116765002Y-51562000D02*
X109728000Y-51562000D01*
X125121000Y-59917998D02*
X116765002Y-51562000D01*
X125121000Y-68250000D02*
X125121000Y-59917998D01*
%TO.N,Net-(J10-Pad2)*%
X122682000Y-50366998D02*
X122682000Y-50292000D01*
X126421000Y-54105998D02*
X122682000Y-50366998D01*
X126421000Y-68250000D02*
X126421000Y-54105998D01*
%TO.N,Net-(J11-Pad2)*%
X142297000Y-122805000D02*
X143332000Y-122805000D01*
X140288031Y-124813969D02*
X142297000Y-122805000D01*
X140288031Y-149635439D02*
X140288031Y-124813969D01*
X144272000Y-153619408D02*
X140288031Y-149635439D01*
X144272000Y-167132000D02*
X144272000Y-153619408D01*
X148844000Y-171704000D02*
X144272000Y-167132000D01*
%TO.N,Net-(J12-Pad2)*%
X140738042Y-125663958D02*
X142297000Y-124105000D01*
X140738042Y-149449040D02*
X140738042Y-125663958D01*
X147574000Y-156284998D02*
X140738042Y-149449040D01*
X147574000Y-163322000D02*
X147574000Y-156284998D01*
X142297000Y-124105000D02*
X143332000Y-124105000D01*
X148844000Y-164592000D02*
X147574000Y-163322000D01*
%TO.N,Net-(J13-Pad2)*%
X141188053Y-148559053D02*
X148844000Y-156215000D01*
X148844000Y-156215000D02*
X148844000Y-157480000D01*
X142297000Y-124755000D02*
X141188053Y-125863947D01*
X141188053Y-125863947D02*
X141188053Y-148559053D01*
X143332000Y-124755000D02*
X142297000Y-124755000D01*
%TO.N,Net-(J14-Pad2)*%
X142297000Y-125405000D02*
X143332000Y-125405000D01*
X141638064Y-126063936D02*
X142297000Y-125405000D01*
X141638064Y-143162064D02*
X141638064Y-126063936D01*
X148844000Y-150368000D02*
X141638064Y-143162064D01*
%TO.N,Net-(J15-Pad2)*%
X142297000Y-126055000D02*
X143332000Y-126055000D01*
X142088075Y-126263925D02*
X142297000Y-126055000D01*
X142088075Y-136500075D02*
X142088075Y-126263925D01*
X148844000Y-143256000D02*
X142088075Y-136500075D01*
%TO.N,Net-(J16-Pad2)*%
X148844000Y-134879000D02*
X148844000Y-136144000D01*
X153350990Y-130372010D02*
X148844000Y-134879000D01*
X154416918Y-130372010D02*
X153350990Y-130372010D01*
X155194000Y-127633590D02*
X155194000Y-129594928D01*
X150114000Y-122553590D02*
X155194000Y-127633590D01*
X150114000Y-121158000D02*
X150114000Y-122553590D01*
X149352000Y-120396000D02*
X150114000Y-121158000D01*
X148308536Y-120396000D02*
X149352000Y-120396000D01*
X155194000Y-129594928D02*
X154416918Y-130372010D01*
X147574000Y-121130536D02*
X148308536Y-120396000D01*
X144906092Y-126705000D02*
X147574000Y-124037092D01*
X147574000Y-124037092D02*
X147574000Y-121130536D01*
X143332000Y-126705000D02*
X144906092Y-126705000D01*
%TO.N,Net-(J17-Pad2)*%
X147167000Y-127355000D02*
X148844000Y-129032000D01*
X143332000Y-127355000D02*
X147167000Y-127355000D01*
%TO.N,Net-(J18-Pad2)*%
X150114000Y-123190000D02*
X148844000Y-121920000D01*
X150114000Y-129821464D02*
X150114000Y-123190000D01*
X145859998Y-131053000D02*
X148882464Y-131053000D01*
X144442001Y-129635003D02*
X145859998Y-131053000D01*
X148882464Y-131053000D02*
X150114000Y-129821464D01*
X144442001Y-128189999D02*
X144442001Y-129635003D01*
X144257002Y-128005000D02*
X144442001Y-128189999D01*
X143332000Y-128005000D02*
X144257002Y-128005000D01*
%TO.N,Net-(J19-Pad2)*%
X148844000Y-114808000D02*
X139896011Y-105860011D01*
X139896011Y-105860011D02*
X139896011Y-88375989D01*
X141789000Y-86483000D02*
X142824000Y-86483000D01*
X139896011Y-88375989D02*
X141789000Y-86483000D01*
%TO.N,Net-(J20-Pad2)*%
X141789000Y-87783000D02*
X142824000Y-87783000D01*
X140346022Y-99198022D02*
X140346022Y-89225978D01*
X140346022Y-89225978D02*
X141789000Y-87783000D01*
X148844000Y-107696000D02*
X140346022Y-99198022D01*
%TO.N,Net-(J21-Pad24)*%
X117772001Y-91629999D02*
X117888272Y-91513728D01*
X117888272Y-91513728D02*
X117888272Y-80035412D01*
X117888272Y-80035412D02*
X120805842Y-77117842D01*
X117772001Y-93915999D02*
X117443000Y-94245000D01*
X117443000Y-94245000D02*
X116408000Y-94245000D01*
X117772001Y-91629999D02*
X117772001Y-93915999D01*
%TO.N,Net-(J21-Pad23)*%
X115373000Y-94895000D02*
X116408000Y-94895000D01*
X115062000Y-94584000D02*
X115373000Y-94895000D01*
X116438261Y-90329078D02*
X115062000Y-91705339D01*
X116438261Y-89059026D02*
X116438261Y-90329078D01*
X116772466Y-88724821D02*
X116438261Y-89059026D01*
X115062000Y-91705339D02*
X115062000Y-94584000D01*
X116772466Y-79569534D02*
X116772466Y-88724821D01*
X119126000Y-77216000D02*
X116772466Y-79569534D01*
%TO.N,Net-(J21-Pad22)*%
X116322455Y-88538421D02*
X116322455Y-78715471D01*
X116408000Y-95545000D02*
X115373000Y-95545000D01*
X114611989Y-94783989D02*
X114611989Y-90248887D01*
X116322455Y-78715471D02*
X117584963Y-77452963D01*
X114611989Y-90248887D02*
X116322455Y-88538421D01*
X115373000Y-95545000D02*
X114611989Y-94783989D01*
%TO.N,Net-(J21-Pad21)*%
X114161978Y-94983978D02*
X115373000Y-96195000D01*
X115824000Y-77724000D02*
X115872444Y-77772444D01*
X115872444Y-88352021D02*
X114161978Y-90062487D01*
X114161978Y-90062487D02*
X114161978Y-94983978D01*
X115373000Y-96195000D02*
X116408000Y-96195000D01*
X115872444Y-77772444D02*
X115872444Y-88352021D01*
%TO.N,Net-(J21-Pad20)*%
X115422433Y-79862447D02*
X114554000Y-78994014D01*
X116408000Y-96845000D02*
X115373000Y-96845000D01*
X113711967Y-95183967D02*
X113711967Y-89876087D01*
X113711967Y-89876087D02*
X115422433Y-88165621D01*
X115373000Y-96845000D02*
X113711967Y-95183967D01*
X115422433Y-88165621D02*
X115422433Y-79862447D01*
%TO.N,Net-(J21-Pad19)*%
X113538000Y-79502000D02*
X114972422Y-80936422D01*
X114972422Y-80936422D02*
X114972422Y-87979221D01*
X115373000Y-97495000D02*
X116408000Y-97495000D01*
X113261956Y-89689687D02*
X113261956Y-95383956D01*
X113261956Y-95383956D02*
X115373000Y-97495000D01*
X114972422Y-87979221D02*
X113261956Y-89689687D01*
%TO.N,Net-(J21-Pad18)*%
X112811945Y-89503287D02*
X114522411Y-87792821D01*
X114522411Y-82518401D02*
X112522010Y-80518000D01*
X112811945Y-95583945D02*
X112811945Y-89503287D01*
X114522411Y-87792821D02*
X114522411Y-82518401D01*
X115373000Y-98145000D02*
X112811945Y-95583945D01*
X116408000Y-98145000D02*
X115373000Y-98145000D01*
%TO.N,Net-(J21-Pad17)*%
X112361934Y-89316887D02*
X114072400Y-87606421D01*
X116408000Y-99445000D02*
X116408000Y-100508000D01*
X112361934Y-99661934D02*
X112361934Y-89316887D01*
X116408000Y-100508000D02*
X115316000Y-101600000D01*
X115316000Y-101600000D02*
X114300000Y-101600000D01*
X114300000Y-101600000D02*
X112361934Y-99661934D01*
X114072400Y-87606421D02*
X114072400Y-83846398D01*
X114072400Y-83846398D02*
X111760000Y-81533998D01*
%TO.N,Net-(J21-Pad16)*%
X128509054Y-75536946D02*
X128509054Y-98298000D01*
X129021000Y-75025000D02*
X128509054Y-75536946D01*
X129021000Y-73990000D02*
X129021000Y-75025000D01*
%TO.N,Net-(J21-Pad15)*%
X124471000Y-73990000D02*
X124471000Y-72633000D01*
X124471000Y-72633000D02*
X125476000Y-71628000D01*
X129671000Y-72955000D02*
X129671000Y-73990000D01*
X128344000Y-71628000D02*
X129671000Y-72955000D01*
X125476000Y-71628000D02*
X128344000Y-71628000D01*
X129671000Y-73990000D02*
X132918000Y-73990000D01*
X132918000Y-73990000D02*
X132918000Y-73990000D01*
X138119000Y-87133000D02*
X137084000Y-87133000D01*
X140462000Y-84790000D02*
X138119000Y-87133000D01*
X140462000Y-83566000D02*
X140462000Y-84790000D01*
X137160000Y-92409000D02*
X137084000Y-92333000D01*
X137160000Y-94234000D02*
X137160000Y-92409000D01*
X137160000Y-105410000D02*
X134620000Y-107950000D01*
X137160000Y-94234000D02*
X137160000Y-105410000D01*
X138176000Y-121158000D02*
X138938000Y-121920000D01*
X138627000Y-123455000D02*
X137592000Y-123455000D01*
X138938000Y-123144000D02*
X138627000Y-123455000D01*
X138938000Y-121920000D02*
X138938000Y-123144000D01*
X137414000Y-128833000D02*
X137592000Y-128655000D01*
X137414000Y-130302000D02*
X137414000Y-128833000D01*
X115373000Y-98795000D02*
X116408000Y-98795000D01*
X115062000Y-99106000D02*
X115373000Y-98795000D01*
X115062000Y-100584000D02*
X115062000Y-99106000D01*
X116586000Y-90979000D02*
X117163271Y-90401729D01*
X117163271Y-90401729D02*
X117163271Y-89841943D01*
X116586000Y-93417000D02*
X116408000Y-93595000D01*
X116586000Y-90979000D02*
X116586000Y-93417000D01*
X116408000Y-125806006D02*
X116331997Y-125730003D01*
X116408000Y-129409000D02*
X116408000Y-125806006D01*
X116331997Y-125730003D02*
X115315994Y-124714000D01*
X115164077Y-137074398D02*
X115164077Y-134817923D01*
X115373000Y-134609000D02*
X116408000Y-134609000D01*
X115732759Y-137643080D02*
X115164077Y-137074398D01*
X115164077Y-134817923D02*
X115373000Y-134609000D01*
%TO.N,Net-(J21-Pad14)*%
X138119000Y-89733000D02*
X137084000Y-89733000D01*
X138233989Y-89847989D02*
X138119000Y-89733000D01*
X138233989Y-106876011D02*
X138233989Y-89847989D01*
X134620000Y-110490000D02*
X138233989Y-106876011D01*
%TO.N,Net-(J21-Pad13)*%
X137667994Y-112522000D02*
X135128000Y-112522000D01*
X135128000Y-112522000D02*
X134620000Y-113030000D01*
X138683997Y-111505997D02*
X137667994Y-112522000D01*
X137084000Y-89083000D02*
X137084000Y-89202999D01*
X137084000Y-89202999D02*
X138225409Y-89202999D01*
X138225409Y-89202999D02*
X138683999Y-89661589D01*
X138683999Y-89661589D02*
X138683997Y-111505997D01*
%TO.N,Net-(J21-Pad12)*%
X137084000Y-88433000D02*
X138119000Y-88433000D01*
X139134008Y-89448008D02*
X139134008Y-112258073D01*
X138119000Y-88433000D02*
X139134008Y-89448008D01*
X139134008Y-112258073D02*
X135822081Y-115570000D01*
X135822081Y-115570000D02*
X134620000Y-115570000D01*
%TO.N,Net-(J21-Pad11)*%
X129851989Y-80460011D02*
X129851989Y-116518400D01*
X140208000Y-79756000D02*
X130556000Y-79756000D01*
X141478000Y-81026000D02*
X140208000Y-79756000D01*
X137084000Y-87783000D02*
X138531000Y-87783000D01*
X141478000Y-84836000D02*
X141478000Y-81026000D01*
X138531000Y-87783000D02*
X141478000Y-84836000D01*
X130556000Y-79756000D02*
X129851989Y-80460011D01*
X131443589Y-118110000D02*
X134620000Y-118110000D01*
X129851989Y-116518400D02*
X131443589Y-118110000D01*
%TO.N,Net-(J21-Pad10)*%
X135890000Y-119380000D02*
X134620000Y-120650000D01*
X135890000Y-117602000D02*
X135890000Y-119380000D01*
X135128000Y-116840000D02*
X135890000Y-117602000D01*
X130810000Y-116840000D02*
X135128000Y-116840000D01*
X130302000Y-80772000D02*
X130302000Y-116332000D01*
X130302000Y-116332000D02*
X130810000Y-116840000D01*
X139192000Y-80772000D02*
X130302000Y-80772000D01*
X139192000Y-84375000D02*
X139192000Y-80772000D01*
X137084000Y-86483000D02*
X139192000Y-84375000D01*
%TO.N,Net-(J21-Pad9)*%
X138627000Y-128005000D02*
X137592000Y-128005000D01*
X135382000Y-134620000D02*
X138702001Y-131299999D01*
X134150998Y-134620000D02*
X135382000Y-134620000D01*
X131941978Y-132410980D02*
X134150998Y-134620000D01*
X131941978Y-125868022D02*
X131941978Y-132410980D01*
X134620000Y-123190000D02*
X131941978Y-125868022D01*
X138702001Y-128080001D02*
X138627000Y-128005000D01*
X138702001Y-131299999D02*
X138702001Y-128080001D01*
%TO.N,Net-(J21-Pad8)*%
X136481999Y-127539999D02*
X136666998Y-127355000D01*
X136481999Y-130980001D02*
X136481999Y-127539999D01*
X136666998Y-127355000D02*
X137592000Y-127355000D01*
X134491589Y-125730000D02*
X132842000Y-127379589D01*
X132842000Y-131064000D02*
X133858000Y-132080000D01*
X134620000Y-125730000D02*
X134491589Y-125730000D01*
X133858000Y-132080000D02*
X135382000Y-132080000D01*
X132842000Y-127379589D02*
X132842000Y-131064000D01*
X135382000Y-132080000D02*
X136481999Y-130980001D01*
%TO.N,Net-(J21-Pad7)*%
X134620000Y-128270000D02*
X134992000Y-128270000D01*
X136666998Y-126705000D02*
X137592000Y-126705000D01*
X135101998Y-128270000D02*
X136666998Y-126705000D01*
X134620000Y-128270000D02*
X135101998Y-128270000D01*
%TO.N,Net-(J21-Pad6)*%
X134620000Y-130810000D02*
X133350000Y-129540000D01*
X136666998Y-126055000D02*
X137592000Y-126055000D01*
X133858000Y-127000000D02*
X135721998Y-127000000D01*
X135721998Y-127000000D02*
X136666998Y-126055000D01*
X133350000Y-129540000D02*
X133350000Y-127508000D01*
X133350000Y-127508000D02*
X133858000Y-127000000D01*
%TO.N,Net-(J21-Pad5)*%
X136557000Y-125405000D02*
X137592000Y-125405000D01*
X135612000Y-124460000D02*
X136557000Y-125405000D01*
X132391989Y-126219009D02*
X134150998Y-124460000D01*
X134491589Y-133350000D02*
X132391989Y-131250400D01*
X134620000Y-133350000D02*
X134491589Y-133350000D01*
X132391989Y-131250400D02*
X132391989Y-126219009D01*
X134150998Y-124460000D02*
X135612000Y-124460000D01*
%TO.N,Net-(J21-Pad4)*%
X134620000Y-135890000D02*
X135822081Y-135890000D01*
X139152012Y-132560069D02*
X139152012Y-125280012D01*
X135822081Y-135890000D02*
X139152012Y-132560069D01*
X139152012Y-125280012D02*
X138627000Y-124755000D01*
X138627000Y-124755000D02*
X137592000Y-124755000D01*
%TO.N,Net-(J21-Pad3)*%
X134620000Y-138430000D02*
X139602023Y-133447977D01*
X138627000Y-124105000D02*
X137592000Y-124105000D01*
X139602023Y-133447977D02*
X139602023Y-125080023D01*
X139602023Y-125080023D02*
X138627000Y-124105000D01*
%TO.N,Net-(J21-Pad2)*%
X136707000Y-121920000D02*
X137592000Y-122805000D01*
X133858000Y-121920000D02*
X136707000Y-121920000D01*
X131318000Y-124460000D02*
X133858000Y-121920000D01*
X131318000Y-137668000D02*
X131318000Y-124460000D01*
X134620000Y-140970000D02*
X131318000Y-137668000D01*
%TO.N,Net-(J22-Pad24)*%
X116840001Y-135691001D02*
X116840001Y-136576236D01*
X116408000Y-135259000D02*
X116840001Y-135691001D01*
%TO.N,Net-(J22-Pad23)*%
X116408000Y-133959000D02*
X117443000Y-133959000D01*
X117443000Y-133959000D02*
X117565001Y-134081001D01*
X117565001Y-134081001D02*
X117565001Y-137000001D01*
X117565001Y-137000001D02*
X117188001Y-137377001D01*
X117188001Y-137377001D02*
X116491999Y-137377001D01*
X116491999Y-137377001D02*
X115889087Y-136774089D01*
X115889087Y-136774089D02*
X115889087Y-136266340D01*
%TO.N,Net-(J22-Pad22)*%
X118204999Y-132437003D02*
X117333002Y-133309000D01*
X121412000Y-92202000D02*
X121412000Y-105117002D01*
X119944001Y-106585001D02*
X119005997Y-106585001D01*
X121412000Y-105117002D02*
X119944001Y-106585001D01*
X117333002Y-133309000D02*
X116408000Y-133309000D01*
X119380000Y-90170000D02*
X121412000Y-92202000D01*
X118204999Y-107385999D02*
X118204999Y-132437003D01*
X119005997Y-106585001D02*
X118204999Y-107385999D01*
%TO.N,Net-(J22-Pad21)*%
X117754988Y-105296010D02*
X117754988Y-132250604D01*
X119005997Y-104045001D02*
X117754988Y-105296010D01*
X119944001Y-104045001D02*
X119005997Y-104045001D01*
X120555001Y-93885001D02*
X120555001Y-103434001D01*
X119380000Y-92710000D02*
X120555001Y-93885001D01*
X117754988Y-132250604D02*
X117346592Y-132659000D01*
X117346592Y-132659000D02*
X116408000Y-132659000D01*
X120555001Y-103434001D02*
X119944001Y-104045001D01*
%TO.N,Net-(J22-Pad20)*%
X119380000Y-95762002D02*
X119380000Y-95250000D01*
X116858011Y-100565989D02*
X117856000Y-99568000D01*
X117856000Y-96774000D02*
X119380000Y-95250000D01*
X116858011Y-100694400D02*
X116858011Y-100565989D01*
X112032001Y-105520410D02*
X116858011Y-100694400D01*
X112032001Y-128668001D02*
X112032001Y-105520410D01*
X117856000Y-99568000D02*
X117856000Y-96774000D01*
X115373000Y-132009000D02*
X112032001Y-128668001D01*
X116408000Y-132009000D02*
X115373000Y-132009000D01*
%TO.N,Net-(J22-Pad19)*%
X115482998Y-131359000D02*
X116408000Y-131359000D01*
X113030000Y-128906002D02*
X115482998Y-131359000D01*
X113030000Y-105158822D02*
X113030000Y-128906002D01*
X118306011Y-99758402D02*
X117308022Y-100756391D01*
X117308022Y-100756391D02*
X117308022Y-100880800D01*
X118306011Y-98863989D02*
X118306011Y-99758402D01*
X117308022Y-100880800D02*
X113030000Y-105158822D01*
X119380000Y-97790000D02*
X118306011Y-98863989D01*
%TO.N,Net-(J22-Pad18)*%
X113632988Y-106077012D02*
X119380000Y-100330000D01*
X113632988Y-128858990D02*
X113632988Y-125824988D01*
X116408000Y-130709000D02*
X115482998Y-130709000D01*
X113632988Y-125824988D02*
X113632988Y-106077012D01*
X115482998Y-130709000D02*
X113632988Y-128858990D01*
X113632988Y-126076168D02*
X113632988Y-125824988D01*
%TO.N,Net-(J22-Pad17)*%
X115482998Y-130059000D02*
X116408000Y-130059000D01*
X114082999Y-128659001D02*
X115482998Y-130059000D01*
X114082999Y-108167001D02*
X114082999Y-128659001D01*
X119380000Y-102870000D02*
X114082999Y-108167001D01*
%TO.N,Net-(J22-Pad13)*%
X131178478Y-91872520D02*
X131178478Y-111507112D01*
X135089002Y-88900000D02*
X134150998Y-88900000D01*
X135890000Y-90224000D02*
X135890000Y-89700998D01*
X134150998Y-88900000D02*
X131178478Y-91872520D01*
X136049000Y-90383000D02*
X135890000Y-90224000D01*
X135890000Y-89700998D02*
X135089002Y-88900000D01*
X137084000Y-90383000D02*
X136049000Y-90383000D01*
%TO.N,Net-(J22-Pad12)*%
X131903488Y-113771001D02*
X131628489Y-114046000D01*
X134150998Y-91440000D02*
X131903488Y-93687510D01*
X131903488Y-93687510D02*
X131903488Y-113771001D01*
X135279000Y-91440000D02*
X134150998Y-91440000D01*
X135686000Y-91033000D02*
X135279000Y-91440000D01*
X137084000Y-91033000D02*
X135686000Y-91033000D01*
%TO.N,Net-(J22-Pad11)*%
X132334000Y-114046000D02*
X132334000Y-114046000D01*
X136158998Y-91683000D02*
X137084000Y-91683000D01*
X135973999Y-91867999D02*
X136158998Y-91683000D01*
X135973999Y-93095003D02*
X135973999Y-91867999D01*
X135089002Y-93980000D02*
X135973999Y-93095003D01*
X134150998Y-93980000D02*
X135089002Y-93980000D01*
X132353499Y-95777499D02*
X134150998Y-93980000D01*
X132353499Y-116097499D02*
X132353499Y-95777499D01*
%TO.N,Net-(J22-Pad10)*%
X123821000Y-116209000D02*
X123821000Y-73990000D01*
X119380000Y-120650000D02*
X123821000Y-116209000D01*
%TO.N,Net-(J22-Pad9)*%
X125121000Y-117449000D02*
X125121000Y-73990000D01*
X119380000Y-123190000D02*
X125121000Y-117449000D01*
%TO.N,Net-(J22-Pad8)*%
X125771000Y-74915002D02*
X125771000Y-73990000D01*
X125984000Y-75128002D02*
X125771000Y-74915002D01*
X125984000Y-119126000D02*
X125984000Y-75128002D01*
X119380000Y-125730000D02*
X125984000Y-119126000D01*
%TO.N,Net-(J22-Pad7)*%
X119380000Y-128011998D02*
X119380000Y-128270000D01*
X126434011Y-74003011D02*
X126421000Y-73990000D01*
X119380000Y-128270000D02*
X126434011Y-121215989D01*
X126434011Y-121215989D02*
X126434011Y-74003011D01*
%TO.N,Net-(J22-Pad6)*%
X119380000Y-130810000D02*
X126884022Y-123305978D01*
X127071000Y-75025000D02*
X127071000Y-73990000D01*
X126884022Y-75211978D02*
X127071000Y-75025000D01*
X126884022Y-123305978D02*
X126884022Y-75211978D01*
%TO.N,Net-(J22-Pad5)*%
X127721000Y-73990000D02*
X127721000Y-75025000D01*
X127334033Y-75411967D02*
X127334033Y-125395967D01*
X127334033Y-125395967D02*
X119380000Y-133350000D01*
X127721000Y-75025000D02*
X127334033Y-75411967D01*
%TO.N,Net-(J22-Pad4)*%
X127784044Y-75611956D02*
X127784044Y-127485956D01*
X128371000Y-73990000D02*
X128371000Y-75025000D01*
X127784044Y-127485956D02*
X119380000Y-135890000D01*
X128371000Y-75025000D02*
X127784044Y-75611956D01*
%TO.N,Net-(J23-Pad2)*%
X129794000Y-50366998D02*
X129794000Y-50292000D01*
X127071000Y-53089998D02*
X129794000Y-50366998D01*
X127071000Y-68250000D02*
X127071000Y-53089998D01*
%TO.N,Net-(J24-Pad2)*%
X127721000Y-68250000D02*
X127721000Y-58212000D01*
X135641000Y-50292000D02*
X136906000Y-50292000D01*
X127721000Y-58212000D02*
X135641000Y-50292000D01*
%TO.N,Net-(J25-Pad2)*%
X128371000Y-67215000D02*
X128371000Y-68250000D01*
X132334000Y-63252000D02*
X128371000Y-67215000D01*
X132334000Y-59944000D02*
X132334000Y-63252000D01*
X141986000Y-50292000D02*
X132334000Y-59944000D01*
X144018000Y-50292000D02*
X141986000Y-50292000D01*
%TO.N,Net-(J26-Pad2)*%
X129021000Y-68250000D02*
X129021000Y-67215000D01*
X131004988Y-65231012D02*
X141524988Y-65231012D01*
X141524988Y-65231012D02*
X148844000Y-57912000D01*
X129021000Y-67215000D02*
X131004988Y-65231012D01*
%TO.N,Net-(J27-Pad2)*%
X105156000Y-65532000D02*
X108886001Y-69262001D01*
X108886001Y-69262001D02*
X108886001Y-80184001D01*
X108886001Y-80184001D02*
X113622389Y-84920389D01*
X113622389Y-84920389D02*
X113622389Y-87420021D01*
X111911923Y-99236077D02*
X111703000Y-99445000D01*
X113622389Y-87420021D02*
X111911923Y-89130487D01*
X111703000Y-99445000D02*
X110668000Y-99445000D01*
X111911923Y-89130487D02*
X111911923Y-99236077D01*
%TO.N,Net-(J28-Pad2)*%
X105156000Y-73909000D02*
X105156000Y-72644000D01*
X103119000Y-75946000D02*
X105156000Y-73909000D01*
X101092000Y-75946000D02*
X103119000Y-75946000D01*
X98806000Y-78232000D02*
X101092000Y-75946000D01*
X98806000Y-94542928D02*
X98806000Y-78232000D01*
X102408072Y-98145000D02*
X98806000Y-94542928D01*
X110668000Y-98145000D02*
X102408072Y-98145000D01*
%TO.N,Net-(J29-Pad2)*%
X102675998Y-97495000D02*
X110668000Y-97495000D01*
X101346000Y-96165002D02*
X102675998Y-97495000D01*
X101346000Y-84831000D02*
X101346000Y-96165002D01*
X105156000Y-81021000D02*
X101346000Y-84831000D01*
X105156000Y-79756000D02*
X105156000Y-81021000D01*
%TO.N,Net-(J30-Pad2)*%
X106188072Y-96845000D02*
X110471990Y-96845000D01*
X103886000Y-88138000D02*
X103886000Y-94542928D01*
X103886000Y-94542928D02*
X106188072Y-96845000D01*
X105156000Y-86868000D02*
X103886000Y-88138000D01*
%TO.N,Net-(J31-Pad2)*%
X110668000Y-96195000D02*
X106809587Y-96195000D01*
X106809587Y-96195000D02*
X105156000Y-94541413D01*
X105156000Y-94541413D02*
X105156000Y-93980000D01*
%TO.N,Net-(J32-Pad2)*%
X106426000Y-95175002D02*
X106795998Y-95545000D01*
X106426000Y-92784998D02*
X106426000Y-95175002D01*
X108769989Y-90441009D02*
X106426000Y-92784998D01*
X108769989Y-88937233D02*
X108769989Y-90441009D01*
X106795998Y-95545000D02*
X110668000Y-95545000D01*
X110892476Y-86814746D02*
X108769989Y-88937233D01*
%TO.N,Net-(J33-Pad2)*%
X109633000Y-94895000D02*
X110668000Y-94895000D01*
X109220000Y-89776302D02*
X109220000Y-92831587D01*
X109107988Y-94369988D02*
X109633000Y-94895000D01*
X109107988Y-92943599D02*
X109107988Y-94369988D01*
X109220000Y-92831587D02*
X109107988Y-92943599D01*
X111887938Y-87108364D02*
X109220000Y-89776302D01*
X111887938Y-86719455D02*
X111887938Y-87108364D01*
%TO.N,Net-(J34-Pad2)*%
X112838173Y-86794541D02*
X112838173Y-86405632D01*
X112838173Y-86405632D02*
X112838173Y-86819169D01*
X109557999Y-94169999D02*
X109633000Y-94245000D01*
X109802723Y-92885275D02*
X109557999Y-93129999D01*
X112838173Y-86819169D02*
X109802723Y-89854619D01*
X109557999Y-93129999D02*
X109557999Y-94169999D01*
X109802723Y-89854619D02*
X109802723Y-92885275D01*
X109633000Y-94245000D02*
X110668000Y-94245000D01*
%TO.N,Net-(J35-Pad2)*%
X110615001Y-135311999D02*
X110668000Y-135259000D01*
X106863999Y-135311999D02*
X110615001Y-135311999D01*
X103886000Y-132334000D02*
X106863999Y-135311999D01*
X103886000Y-123698000D02*
X103886000Y-132334000D01*
X105156000Y-122428000D02*
X103886000Y-123698000D01*
%TO.N,Net-(J36-Pad2)*%
X105156000Y-132009339D02*
X105156000Y-129540000D01*
X107105661Y-133959000D02*
X110668000Y-133959000D01*
X105156000Y-132009339D02*
X107105661Y-133959000D01*
%TO.N,Net-(J37-Pad2)*%
X105156000Y-136652000D02*
X106496001Y-137992001D01*
X106496001Y-137992001D02*
X110146412Y-137992001D01*
X110146412Y-137992001D02*
X112464011Y-135674402D01*
X112464011Y-135674402D02*
X112464011Y-134070011D01*
X112464011Y-134070011D02*
X111703000Y-133309000D01*
X111703000Y-133309000D02*
X110668000Y-133309000D01*
%TO.N,Net-(J38-Pad2)*%
X105156000Y-143764000D02*
X112914022Y-136005978D01*
X112914022Y-136005978D02*
X112914022Y-133870022D01*
X112914022Y-133870022D02*
X111703000Y-132659000D01*
X111703000Y-132659000D02*
X110668000Y-132659000D01*
%TO.N,Net-(J39-Pad2)*%
X113364033Y-142667967D02*
X113364033Y-133670033D01*
X113364033Y-133670033D02*
X111703000Y-132009000D01*
X111703000Y-132009000D02*
X110668000Y-132009000D01*
X105156000Y-150876000D02*
X113364033Y-142667967D01*
%TO.N,Net-(J40-Pad2)*%
X105156000Y-157988000D02*
X105156000Y-156723000D01*
X105156000Y-156723000D02*
X113814044Y-148064956D01*
X113814044Y-148064956D02*
X113814044Y-133470044D01*
X113814044Y-133470044D02*
X111703000Y-131359000D01*
X111703000Y-131359000D02*
X110668000Y-131359000D01*
%TO.N,Net-(J41-Pad2)*%
X114264055Y-133270055D02*
X111703000Y-130709000D01*
X114264055Y-148754355D02*
X114264055Y-133270055D01*
X106426000Y-156592410D02*
X114264055Y-148754355D01*
X106426000Y-162565000D02*
X106426000Y-156592410D01*
X105156000Y-163835000D02*
X106426000Y-162565000D01*
X111703000Y-130709000D02*
X110668000Y-130709000D01*
X105156000Y-165100000D02*
X105156000Y-163835000D01*
%TO.N,Net-(J42-Pad2)*%
X104956928Y-167132000D02*
X104956928Y-167132000D01*
X106426000Y-165662928D02*
X104956928Y-167132000D01*
X106426000Y-163904998D02*
X106426000Y-165662928D01*
X109728000Y-153926821D02*
X109728000Y-160602998D01*
X109728000Y-160602998D02*
X106426000Y-163904998D01*
X114714066Y-148940755D02*
X109728000Y-153926821D01*
X114714066Y-133002066D02*
X114714066Y-148940755D01*
X111771000Y-130059000D02*
X114714066Y-133002066D01*
X110668000Y-130059000D02*
X111771000Y-130059000D01*
%TD*%
M02*
