M48
; DRILL file {KiCad (5.1.8)-1} date 05/23/21 23:24:23
; FORMAT={-:-/ absolute / metric / decimal}
; #@! TF.CreationDate,2021-05-23T23:24:23-05:00
; #@! TF.GenerationSoftware,Kicad,Pcbnew,(5.1.8)-1
FMAT,2
METRIC
T1C0.400
T2C1.000
T3C1.020
T4C1.600
T5C2.540
T6C3.990
T7C4.300
T8C1.100
%
G90
G05
T1
X104.957Y-167.132
X109.728Y-86.868
X110.528Y-90.203
X110.892Y-86.815
X111.76Y-81.534
X111.888Y-86.719
X112.522Y-80.518
X112.838Y-86.406
X113.538Y-79.502
X114.554Y-78.994
X115.062Y-100.584
X115.316Y-124.714
X115.733Y-137.643
X115.824Y-77.724
X115.889Y-136.266
X116.84Y-136.576
X117.163Y-89.842
X117.585Y-77.453
X119.126Y-77.216
X120.806Y-77.118
X128.509Y-98.298
X131.178Y-111.507
X131.628Y-114.046
X132.353Y-116.097
X132.918Y-73.99
X137.16Y-94.234
X137.414Y-130.302
X138.176Y-121.158
X140.462Y-83.566
X142.824Y-94.158
X142.824Y-100.152
T2
X134.62Y-85.09
X134.62Y-87.63
X134.62Y-90.17
X134.62Y-92.71
X134.62Y-95.25
X134.62Y-97.79
X134.62Y-100.33
X134.62Y-102.87
X134.62Y-105.41
X134.62Y-107.95
X134.62Y-110.49
X134.62Y-113.03
X134.62Y-115.57
X134.62Y-118.11
X134.62Y-120.65
X134.62Y-123.19
X134.62Y-125.73
X134.62Y-128.27
X134.62Y-130.81
X134.62Y-133.35
X134.62Y-135.89
X134.62Y-138.43
X134.62Y-140.97
X134.62Y-143.51
X119.38Y-85.09
X119.38Y-87.63
X119.38Y-90.17
X119.38Y-92.71
X119.38Y-95.25
X119.38Y-97.79
X119.38Y-100.33
X119.38Y-102.87
X119.38Y-105.41
X119.38Y-107.95
X119.38Y-110.49
X119.38Y-113.03
X119.38Y-115.57
X119.38Y-118.11
X119.38Y-120.65
X119.38Y-123.19
X119.38Y-125.73
X119.38Y-128.27
X119.38Y-130.81
X119.38Y-133.35
X119.38Y-135.89
X119.38Y-138.43
X119.38Y-140.97
X119.38Y-143.51
T3
X100.076Y-101.092
X102.616Y-101.092
X105.156Y-101.092
X107.696Y-101.092
X129.794Y-45.212
X129.794Y-47.752
X129.794Y-50.292
X129.794Y-52.832
X100.076Y-157.988
X102.616Y-157.988
X105.156Y-157.988
X107.696Y-157.988
X146.304Y-72.136
X148.844Y-72.136
X151.384Y-72.136
X153.924Y-72.136
X146.304Y-65.024
X148.844Y-65.024
X151.384Y-65.024
X153.924Y-65.024
X146.304Y-107.696
X148.844Y-107.696
X151.384Y-107.696
X153.924Y-107.696
X144.018Y-45.212
X144.018Y-47.752
X144.018Y-50.292
X144.018Y-52.832
X100.076Y-136.652
X102.616Y-136.652
X105.156Y-136.652
X107.696Y-136.652
X100.076Y-108.204
X102.616Y-108.204
X105.156Y-108.204
X107.696Y-108.204
X100.076Y-150.876
X102.616Y-150.876
X105.156Y-150.876
X107.696Y-150.876
X100.076Y-58.42
X102.616Y-58.42
X105.156Y-58.42
X107.696Y-58.42
X146.304Y-143.256
X148.844Y-143.256
X151.384Y-143.256
X153.924Y-143.256
X136.906Y-45.212
X136.906Y-47.752
X136.906Y-50.292
X136.906Y-52.832
X146.304Y-136.144
X148.844Y-136.144
X151.384Y-136.144
X153.924Y-136.144
X100.076Y-165.1
X102.616Y-165.1
X105.156Y-165.1
X107.696Y-165.1
X100.076Y-129.54
X102.616Y-129.54
X105.156Y-129.54
X107.696Y-129.54
X146.304Y-79.248
X148.844Y-79.248
X151.384Y-79.248
X153.924Y-79.248
X122.682Y-45.212
X122.682Y-47.752
X122.682Y-50.292
X122.682Y-52.832
X146.304Y-114.808
X148.844Y-114.808
X151.384Y-114.808
X153.924Y-114.808
X146.304Y-86.36
X148.844Y-86.36
X151.384Y-86.36
X153.924Y-86.36
X100.076Y-86.868
X102.616Y-86.868
X105.156Y-86.868
X107.696Y-86.868
X100.076Y-72.644
X102.616Y-72.644
X105.156Y-72.644
X107.696Y-72.644
X100.076Y-172.212
X102.616Y-172.212
X105.156Y-172.212
X107.696Y-172.212
X146.304Y-100.584
X148.844Y-100.584
X151.384Y-100.584
X153.924Y-100.584
X146.304Y-171.704
X148.844Y-171.704
X151.384Y-171.704
X153.924Y-171.704
X146.304Y-150.368
X148.844Y-150.368
X151.384Y-150.368
X153.924Y-150.368
X146.304Y-57.912
X148.844Y-57.912
X151.384Y-57.912
X153.924Y-57.912
X146.304Y-157.48
X148.844Y-157.48
X151.384Y-157.48
X153.924Y-157.48
X146.304Y-93.472
X148.844Y-93.472
X151.384Y-93.472
X153.924Y-93.472
X100.076Y-143.764
X102.616Y-143.764
X105.156Y-143.764
X107.696Y-143.764
X146.304Y-164.592
X148.844Y-164.592
X151.384Y-164.592
X153.924Y-164.592
X108.458Y-45.212
X108.458Y-47.752
X108.458Y-50.292
X108.458Y-52.832
X146.304Y-129.032
X148.844Y-129.032
X151.384Y-129.032
X153.924Y-129.032
X115.57Y-45.212
X115.57Y-47.752
X115.57Y-50.292
X115.57Y-52.832
X100.076Y-65.532
X102.616Y-65.532
X105.156Y-65.532
X107.696Y-65.532
X100.076Y-79.756
X102.616Y-79.756
X105.156Y-79.756
X107.696Y-79.756
X100.076Y-115.316
X102.616Y-115.316
X105.156Y-115.316
X107.696Y-115.316
X146.304Y-121.92
X148.844Y-121.92
X151.384Y-121.92
X153.924Y-121.92
X100.076Y-122.428
X102.616Y-122.428
X105.156Y-122.428
X107.696Y-122.428
X100.076Y-93.98
X102.616Y-93.98
X105.156Y-93.98
X107.696Y-93.98
T4
X119.38Y-162.095
X124.46Y-162.095
X129.54Y-162.095
X134.62Y-162.095
T5
X116.84Y-164.635
X137.16Y-164.635
T6
X121.92Y-172.255
X132.08Y-172.255
T7
X137.668Y-155.956
X137.668Y-60.706
X116.332Y-60.706
X116.332Y-155.956
T8
X102.616Y-153.036
X102.616Y-60.58
X151.384Y-141.096
X134.746Y-47.752
X151.384Y-133.984
X102.616Y-167.26
X102.616Y-131.7
X151.384Y-77.088
X120.522Y-47.752
X151.384Y-112.648
X151.384Y-84.2
X102.616Y-89.028
X102.616Y-74.804
X102.616Y-174.372
X151.384Y-98.424
X151.384Y-169.544
X151.384Y-148.208
X151.384Y-55.752
X151.384Y-155.32
X151.384Y-91.312
X102.616Y-145.924
X151.384Y-162.432
X106.298Y-47.752
X151.384Y-126.872
X113.41Y-47.752
X102.616Y-67.692
X102.616Y-81.916
X102.616Y-117.476
X151.384Y-119.76
X102.616Y-124.588
X102.616Y-96.14
X102.616Y-103.252
X127.634Y-47.752
X102.616Y-160.148
X151.384Y-69.976
X151.384Y-62.864
X151.384Y-105.536
X141.858Y-47.752
X102.616Y-138.812
X102.616Y-110.364
T0
M30
