%FSLAX45Y45*%
G04 Gerber Fmt 4.5, Leading zero omitted, Abs format (unit mm)*
G04 Created by KiCad (PCBNEW (5.1.8)-1) date 2021-05-24 16:17:23*
%MOMM*%
%LPD*%
G01*
G04 APERTURE LIST*
%TA.AperFunction,Profile*%
%ADD10C,0.050000*%
%TD*%
%ADD11C,0.200000*%
%ADD12C,0.300000*%
G04 APERTURE END LIST*
D10*
X9829800Y-5435600D02*
X9829800Y-17551400D01*
X10515600Y-4318000D02*
X9829800Y-5435600D01*
X14909800Y-4318000D02*
X10515600Y-4318000D01*
X15570200Y-5461000D02*
X14909800Y-4318000D01*
X15570200Y-17551400D02*
X15570200Y-5461000D01*
X9829800Y-17551400D02*
X15570200Y-17551400D01*
D11*
X10475693Y-16693200D02*
X10515693Y-16733200D01*
X10515693Y-16693200D02*
X10475693Y-16733200D01*
X10952800Y-8666800D02*
X10992800Y-8706800D01*
X10992800Y-8666800D02*
X10952800Y-8706800D01*
X11032772Y-9000262D02*
X11072772Y-9040262D01*
X11072772Y-9000262D02*
X11032772Y-9040262D01*
X11069248Y-8661475D02*
X11109248Y-8701475D01*
X11109248Y-8661475D02*
X11069248Y-8701475D01*
X11156000Y-8133400D02*
X11196000Y-8173400D01*
X11196000Y-8133400D02*
X11156000Y-8173400D01*
X11168794Y-8651946D02*
X11208794Y-8691946D01*
X11208794Y-8651946D02*
X11168794Y-8691946D01*
X11232201Y-8031800D02*
X11272201Y-8071800D01*
X11272201Y-8031800D02*
X11232201Y-8071800D01*
X11263817Y-8620563D02*
X11303817Y-8660563D01*
X11303817Y-8620563D02*
X11263817Y-8660563D01*
X11333800Y-7930200D02*
X11373800Y-7970200D01*
X11373800Y-7930200D02*
X11333800Y-7970200D01*
X11435400Y-7879401D02*
X11475400Y-7919401D01*
X11475400Y-7879401D02*
X11435400Y-7919401D01*
X11486200Y-10038400D02*
X11526200Y-10078400D01*
X11526200Y-10038400D02*
X11486200Y-10078400D01*
X11511599Y-12451400D02*
X11551599Y-12491400D01*
X11551599Y-12451400D02*
X11511599Y-12491400D01*
X11553276Y-13744308D02*
X11593276Y-13784308D01*
X11593276Y-13744308D02*
X11553276Y-13784308D01*
X11562400Y-7752400D02*
X11602400Y-7792400D01*
X11602400Y-7752400D02*
X11562400Y-7792400D01*
X11568909Y-13606634D02*
X11608909Y-13646634D01*
X11608909Y-13606634D02*
X11568909Y-13646634D01*
X11664000Y-13637624D02*
X11704000Y-13677624D01*
X11704000Y-13637624D02*
X11664000Y-13677624D01*
X11696327Y-8964194D02*
X11736327Y-9004194D01*
X11736327Y-8964194D02*
X11696327Y-9004194D01*
X11738496Y-7725296D02*
X11778496Y-7765296D01*
X11778496Y-7725296D02*
X11738496Y-7765296D01*
X11892600Y-7701600D02*
X11932600Y-7741600D01*
X11932600Y-7701600D02*
X11892600Y-7741600D01*
X12060584Y-7691784D02*
X12100584Y-7731784D01*
X12100584Y-7691784D02*
X12060584Y-7731784D01*
X12830905Y-9809800D02*
X12870905Y-9849800D01*
X12870905Y-9809800D02*
X12830905Y-9849800D01*
X13097848Y-11130711D02*
X13137848Y-11170711D01*
X13137848Y-11130711D02*
X13097848Y-11170711D01*
X13142849Y-11384600D02*
X13182849Y-11424600D01*
X13182849Y-11384600D02*
X13142849Y-11424600D01*
X13215350Y-11589750D02*
X13255350Y-11629750D01*
X13255350Y-11589750D02*
X13215350Y-11629750D01*
X13271800Y-7379000D02*
X13311800Y-7419000D01*
X13311800Y-7379000D02*
X13271800Y-7419000D01*
X13696000Y-9403400D02*
X13736000Y-9443400D01*
X13736000Y-9403400D02*
X13696000Y-9443400D01*
X13721400Y-13010200D02*
X13761400Y-13050200D01*
X13761400Y-13010200D02*
X13721400Y-13050200D01*
X13797600Y-12095800D02*
X13837600Y-12135800D01*
X13837600Y-12095800D02*
X13797600Y-12135800D01*
X14026200Y-8336600D02*
X14066200Y-8376600D01*
X14066200Y-8336600D02*
X14026200Y-8376600D01*
X14262400Y-9395800D02*
X14302400Y-9435800D01*
X14302400Y-9395800D02*
X14262400Y-9435800D01*
X14262400Y-9995200D02*
X14302400Y-10035200D01*
X14302400Y-9995200D02*
X14262400Y-10035200D01*
X11988000Y-8509000D02*
G75*
G03*
X11988000Y-8509000I-50000J0D01*
G01*
X11988000Y-8763000D02*
G75*
G03*
X11988000Y-8763000I-50000J0D01*
G01*
X11988000Y-9017000D02*
G75*
G03*
X11988000Y-9017000I-50000J0D01*
G01*
X11988000Y-9271000D02*
G75*
G03*
X11988000Y-9271000I-50000J0D01*
G01*
X11988000Y-9525000D02*
G75*
G03*
X11988000Y-9525000I-50000J0D01*
G01*
X11988000Y-9779000D02*
G75*
G03*
X11988000Y-9779000I-50000J0D01*
G01*
X11988000Y-10033000D02*
G75*
G03*
X11988000Y-10033000I-50000J0D01*
G01*
X11988000Y-10287000D02*
G75*
G03*
X11988000Y-10287000I-50000J0D01*
G01*
X11988000Y-10541000D02*
G75*
G03*
X11988000Y-10541000I-50000J0D01*
G01*
X11988000Y-10795000D02*
G75*
G03*
X11988000Y-10795000I-50000J0D01*
G01*
X11988000Y-11049000D02*
G75*
G03*
X11988000Y-11049000I-50000J0D01*
G01*
X11988000Y-11303000D02*
G75*
G03*
X11988000Y-11303000I-50000J0D01*
G01*
X11988000Y-11557000D02*
G75*
G03*
X11988000Y-11557000I-50000J0D01*
G01*
X11988000Y-11811000D02*
G75*
G03*
X11988000Y-11811000I-50000J0D01*
G01*
X11988000Y-12065000D02*
G75*
G03*
X11988000Y-12065000I-50000J0D01*
G01*
X11988000Y-12319000D02*
G75*
G03*
X11988000Y-12319000I-50000J0D01*
G01*
X11988000Y-12573000D02*
G75*
G03*
X11988000Y-12573000I-50000J0D01*
G01*
X11988000Y-12827000D02*
G75*
G03*
X11988000Y-12827000I-50000J0D01*
G01*
X11988000Y-13081000D02*
G75*
G03*
X11988000Y-13081000I-50000J0D01*
G01*
X11988000Y-13335000D02*
G75*
G03*
X11988000Y-13335000I-50000J0D01*
G01*
X11988000Y-13589000D02*
G75*
G03*
X11988000Y-13589000I-50000J0D01*
G01*
X11988000Y-13843000D02*
G75*
G03*
X11988000Y-13843000I-50000J0D01*
G01*
X11988000Y-14097000D02*
G75*
G03*
X11988000Y-14097000I-50000J0D01*
G01*
X11988000Y-14351000D02*
G75*
G03*
X11988000Y-14351000I-50000J0D01*
G01*
X13512000Y-8509000D02*
G75*
G03*
X13512000Y-8509000I-50000J0D01*
G01*
X13512000Y-8763000D02*
G75*
G03*
X13512000Y-8763000I-50000J0D01*
G01*
X13512000Y-9017000D02*
G75*
G03*
X13512000Y-9017000I-50000J0D01*
G01*
X13512000Y-9271000D02*
G75*
G03*
X13512000Y-9271000I-50000J0D01*
G01*
X13512000Y-9525000D02*
G75*
G03*
X13512000Y-9525000I-50000J0D01*
G01*
X13512000Y-9779000D02*
G75*
G03*
X13512000Y-9779000I-50000J0D01*
G01*
X13512000Y-10033000D02*
G75*
G03*
X13512000Y-10033000I-50000J0D01*
G01*
X13512000Y-10287000D02*
G75*
G03*
X13512000Y-10287000I-50000J0D01*
G01*
X13512000Y-10541000D02*
G75*
G03*
X13512000Y-10541000I-50000J0D01*
G01*
X13512000Y-10795000D02*
G75*
G03*
X13512000Y-10795000I-50000J0D01*
G01*
X13512000Y-11049000D02*
G75*
G03*
X13512000Y-11049000I-50000J0D01*
G01*
X13512000Y-11303000D02*
G75*
G03*
X13512000Y-11303000I-50000J0D01*
G01*
X13512000Y-11557000D02*
G75*
G03*
X13512000Y-11557000I-50000J0D01*
G01*
X13512000Y-11811000D02*
G75*
G03*
X13512000Y-11811000I-50000J0D01*
G01*
X13512000Y-12065000D02*
G75*
G03*
X13512000Y-12065000I-50000J0D01*
G01*
X13512000Y-12319000D02*
G75*
G03*
X13512000Y-12319000I-50000J0D01*
G01*
X13512000Y-12573000D02*
G75*
G03*
X13512000Y-12573000I-50000J0D01*
G01*
X13512000Y-12827000D02*
G75*
G03*
X13512000Y-12827000I-50000J0D01*
G01*
X13512000Y-13081000D02*
G75*
G03*
X13512000Y-13081000I-50000J0D01*
G01*
X13512000Y-13335000D02*
G75*
G03*
X13512000Y-13335000I-50000J0D01*
G01*
X13512000Y-13589000D02*
G75*
G03*
X13512000Y-13589000I-50000J0D01*
G01*
X13512000Y-13843000D02*
G75*
G03*
X13512000Y-13843000I-50000J0D01*
G01*
X13512000Y-14097000D02*
G75*
G03*
X13512000Y-14097000I-50000J0D01*
G01*
X13512000Y-14351000D02*
G75*
G03*
X13512000Y-14351000I-50000J0D01*
G01*
X10007600Y-16459000D02*
X10007600Y-16561000D01*
X9956600Y-16510000D02*
X10058600Y-16510000D01*
X10261600Y-16459000D02*
X10261600Y-16561000D01*
X10210600Y-16510000D02*
X10312600Y-16510000D01*
X10515600Y-16459000D02*
X10515600Y-16561000D01*
X10464600Y-16510000D02*
X10566600Y-16510000D01*
X10769600Y-16459000D02*
X10769600Y-16561000D01*
X10718600Y-16510000D02*
X10820600Y-16510000D01*
X14630400Y-15697000D02*
X14630400Y-15799000D01*
X14579400Y-15748000D02*
X14681400Y-15748000D01*
X14884400Y-15697000D02*
X14884400Y-15799000D01*
X14833400Y-15748000D02*
X14935400Y-15748000D01*
X15138400Y-15697000D02*
X15138400Y-15799000D01*
X15087400Y-15748000D02*
X15189400Y-15748000D01*
X15392400Y-15697000D02*
X15392400Y-15799000D01*
X15341400Y-15748000D02*
X15443400Y-15748000D01*
X12979400Y-4470200D02*
X12979400Y-4572200D01*
X12928400Y-4521200D02*
X13030400Y-4521200D01*
X12979400Y-4724200D02*
X12979400Y-4826200D01*
X12928400Y-4775200D02*
X13030400Y-4775200D01*
X12979400Y-4978200D02*
X12979400Y-5080200D01*
X12928400Y-5029200D02*
X13030400Y-5029200D01*
X12979400Y-5232200D02*
X12979400Y-5334200D01*
X12928400Y-5283200D02*
X13030400Y-5283200D01*
X14630400Y-12852200D02*
X14630400Y-12954200D01*
X14579400Y-12903200D02*
X14681400Y-12903200D01*
X14884400Y-12852200D02*
X14884400Y-12954200D01*
X14833400Y-12903200D02*
X14935400Y-12903200D01*
X15138400Y-12852200D02*
X15138400Y-12954200D01*
X15087400Y-12903200D02*
X15189400Y-12903200D01*
X15392400Y-12852200D02*
X15392400Y-12954200D01*
X15341400Y-12903200D02*
X15443400Y-12903200D01*
X10007600Y-15036600D02*
X10007600Y-15138600D01*
X9956600Y-15087600D02*
X10058600Y-15087600D01*
X10261600Y-15036600D02*
X10261600Y-15138600D01*
X10210600Y-15087600D02*
X10312600Y-15087600D01*
X10515600Y-15036600D02*
X10515600Y-15138600D01*
X10464600Y-15087600D02*
X10566600Y-15087600D01*
X10769600Y-15036600D02*
X10769600Y-15138600D01*
X10718600Y-15087600D02*
X10820600Y-15087600D01*
X10007600Y-9347000D02*
X10007600Y-9449000D01*
X9956600Y-9398000D02*
X10058600Y-9398000D01*
X10261600Y-9347000D02*
X10261600Y-9449000D01*
X10210600Y-9398000D02*
X10312600Y-9398000D01*
X10515600Y-9347000D02*
X10515600Y-9449000D01*
X10464600Y-9398000D02*
X10566600Y-9398000D01*
X10769600Y-9347000D02*
X10769600Y-9449000D01*
X10718600Y-9398000D02*
X10820600Y-9398000D01*
X14630400Y-11429800D02*
X14630400Y-11531800D01*
X14579400Y-11480800D02*
X14681400Y-11480800D01*
X14884400Y-11429800D02*
X14884400Y-11531800D01*
X14833400Y-11480800D02*
X14935400Y-11480800D01*
X15138400Y-11429800D02*
X15138400Y-11531800D01*
X15087400Y-11480800D02*
X15189400Y-11480800D01*
X15392400Y-11429800D02*
X15392400Y-11531800D01*
X15341400Y-11480800D02*
X15443400Y-11480800D01*
X10007600Y-7213400D02*
X10007600Y-7315400D01*
X9956600Y-7264400D02*
X10058600Y-7264400D01*
X10261600Y-7213400D02*
X10261600Y-7315400D01*
X10210600Y-7264400D02*
X10312600Y-7264400D01*
X10515600Y-7213400D02*
X10515600Y-7315400D01*
X10464600Y-7264400D02*
X10566600Y-7264400D01*
X10769600Y-7213400D02*
X10769600Y-7315400D01*
X10718600Y-7264400D02*
X10820600Y-7264400D01*
X14630400Y-10718600D02*
X14630400Y-10820600D01*
X14579400Y-10769600D02*
X14681400Y-10769600D01*
X14884400Y-10718600D02*
X14884400Y-10820600D01*
X14833400Y-10769600D02*
X14935400Y-10769600D01*
X15138400Y-10718600D02*
X15138400Y-10820600D01*
X15087400Y-10769600D02*
X15189400Y-10769600D01*
X15392400Y-10718600D02*
X15392400Y-10820600D01*
X15341400Y-10769600D02*
X15443400Y-10769600D01*
X10007600Y-12191800D02*
X10007600Y-12293800D01*
X9956600Y-12242800D02*
X10058600Y-12242800D01*
X10261600Y-12191800D02*
X10261600Y-12293800D01*
X10210600Y-12242800D02*
X10312600Y-12242800D01*
X10515600Y-12191800D02*
X10515600Y-12293800D01*
X10464600Y-12242800D02*
X10566600Y-12242800D01*
X10769600Y-12191800D02*
X10769600Y-12293800D01*
X10718600Y-12242800D02*
X10820600Y-12242800D01*
X14630400Y-10007400D02*
X14630400Y-10109400D01*
X14579400Y-10058400D02*
X14681400Y-10058400D01*
X14884400Y-10007400D02*
X14884400Y-10109400D01*
X14833400Y-10058400D02*
X14935400Y-10058400D01*
X15138400Y-10007400D02*
X15138400Y-10109400D01*
X15087400Y-10058400D02*
X15189400Y-10058400D01*
X15392400Y-10007400D02*
X15392400Y-10109400D01*
X15341400Y-10058400D02*
X15443400Y-10058400D01*
X10007600Y-10769400D02*
X10007600Y-10871400D01*
X9956600Y-10820400D02*
X10058600Y-10820400D01*
X10261600Y-10769400D02*
X10261600Y-10871400D01*
X10210600Y-10820400D02*
X10312600Y-10820400D01*
X10515600Y-10769400D02*
X10515600Y-10871400D01*
X10464600Y-10820400D02*
X10566600Y-10820400D01*
X10769600Y-10769400D02*
X10769600Y-10871400D01*
X10718600Y-10820400D02*
X10820600Y-10820400D01*
X14630400Y-6451400D02*
X14630400Y-6553400D01*
X14579400Y-6502400D02*
X14681400Y-6502400D01*
X14884400Y-6451400D02*
X14884400Y-6553400D01*
X14833400Y-6502400D02*
X14935400Y-6502400D01*
X15138400Y-6451400D02*
X15138400Y-6553400D01*
X15087400Y-6502400D02*
X15189400Y-6502400D01*
X15392400Y-6451400D02*
X15392400Y-6553400D01*
X15341400Y-6502400D02*
X15443400Y-6502400D01*
X14630400Y-14985800D02*
X14630400Y-15087800D01*
X14579400Y-15036800D02*
X14681400Y-15036800D01*
X14884400Y-14985800D02*
X14884400Y-15087800D01*
X14833400Y-15036800D02*
X14935400Y-15036800D01*
X15138400Y-14985800D02*
X15138400Y-15087800D01*
X15087400Y-15036800D02*
X15189400Y-15036800D01*
X15392400Y-14985800D02*
X15392400Y-15087800D01*
X15341400Y-15036800D02*
X15443400Y-15036800D01*
X14630400Y-12141000D02*
X14630400Y-12243000D01*
X14579400Y-12192000D02*
X14681400Y-12192000D01*
X14884400Y-12141000D02*
X14884400Y-12243000D01*
X14833400Y-12192000D02*
X14935400Y-12192000D01*
X15138400Y-12141000D02*
X15138400Y-12243000D01*
X15087400Y-12192000D02*
X15189400Y-12192000D01*
X15392400Y-12141000D02*
X15392400Y-12243000D01*
X15341400Y-12192000D02*
X15443400Y-12192000D01*
X10007600Y-14325400D02*
X10007600Y-14427400D01*
X9956600Y-14376400D02*
X10058600Y-14376400D01*
X10261600Y-14325400D02*
X10261600Y-14427400D01*
X10210600Y-14376400D02*
X10312600Y-14376400D01*
X10515600Y-14325400D02*
X10515600Y-14427400D01*
X10464600Y-14376400D02*
X10566600Y-14376400D01*
X10769600Y-14325400D02*
X10769600Y-14427400D01*
X10718600Y-14376400D02*
X10820600Y-14376400D01*
X14630400Y-9296200D02*
X14630400Y-9398200D01*
X14579400Y-9347200D02*
X14681400Y-9347200D01*
X14884400Y-9296200D02*
X14884400Y-9398200D01*
X14833400Y-9347200D02*
X14935400Y-9347200D01*
X15138400Y-9296200D02*
X15138400Y-9398200D01*
X15087400Y-9347200D02*
X15189400Y-9347200D01*
X15392400Y-9296200D02*
X15392400Y-9398200D01*
X15341400Y-9347200D02*
X15443400Y-9347200D01*
X12268200Y-4470200D02*
X12268200Y-4572200D01*
X12217200Y-4521200D02*
X12319200Y-4521200D01*
X12268200Y-4724200D02*
X12268200Y-4826200D01*
X12217200Y-4775200D02*
X12319200Y-4775200D01*
X12268200Y-4978200D02*
X12268200Y-5080200D01*
X12217200Y-5029200D02*
X12319200Y-5029200D01*
X12268200Y-5232200D02*
X12268200Y-5334200D01*
X12217200Y-5283200D02*
X12319200Y-5283200D01*
X14630400Y-8585000D02*
X14630400Y-8687000D01*
X14579400Y-8636000D02*
X14681400Y-8636000D01*
X14884400Y-8585000D02*
X14884400Y-8687000D01*
X14833400Y-8636000D02*
X14935400Y-8636000D01*
X15138400Y-8585000D02*
X15138400Y-8687000D01*
X15087400Y-8636000D02*
X15189400Y-8636000D01*
X15392400Y-8585000D02*
X15392400Y-8687000D01*
X15341400Y-8636000D02*
X15443400Y-8636000D01*
X13690600Y-4470200D02*
X13690600Y-4572200D01*
X13639600Y-4521200D02*
X13741600Y-4521200D01*
X13690600Y-4724200D02*
X13690600Y-4826200D01*
X13639600Y-4775200D02*
X13741600Y-4775200D01*
X13690600Y-4978200D02*
X13690600Y-5080200D01*
X13639600Y-5029200D02*
X13741600Y-5029200D01*
X13690600Y-5232200D02*
X13690600Y-5334200D01*
X13639600Y-5283200D02*
X13741600Y-5283200D01*
X10007600Y-8635800D02*
X10007600Y-8737800D01*
X9956600Y-8686800D02*
X10058600Y-8686800D01*
X10261600Y-8635800D02*
X10261600Y-8737800D01*
X10210600Y-8686800D02*
X10312600Y-8686800D01*
X10515600Y-8635800D02*
X10515600Y-8737800D01*
X10464600Y-8686800D02*
X10566600Y-8686800D01*
X10769600Y-8635800D02*
X10769600Y-8737800D01*
X10718600Y-8686800D02*
X10820600Y-8686800D01*
X10007600Y-15747800D02*
X10007600Y-15849800D01*
X9956600Y-15798800D02*
X10058600Y-15798800D01*
X10261600Y-15747800D02*
X10261600Y-15849800D01*
X10210600Y-15798800D02*
X10312600Y-15798800D01*
X10515600Y-15747800D02*
X10515600Y-15849800D01*
X10464600Y-15798800D02*
X10566600Y-15798800D01*
X10769600Y-15747800D02*
X10769600Y-15849800D01*
X10718600Y-15798800D02*
X10820600Y-15798800D01*
X14630400Y-7162600D02*
X14630400Y-7264600D01*
X14579400Y-7213600D02*
X14681400Y-7213600D01*
X14884400Y-7162600D02*
X14884400Y-7264600D01*
X14833400Y-7213600D02*
X14935400Y-7213600D01*
X15138400Y-7162600D02*
X15138400Y-7264600D01*
X15087400Y-7213600D02*
X15189400Y-7213600D01*
X15392400Y-7162600D02*
X15392400Y-7264600D01*
X15341400Y-7213600D02*
X15443400Y-7213600D01*
X10845800Y-4470200D02*
X10845800Y-4572200D01*
X10794800Y-4521200D02*
X10896800Y-4521200D01*
X10845800Y-4724200D02*
X10845800Y-4826200D01*
X10794800Y-4775200D02*
X10896800Y-4775200D01*
X10845800Y-4978200D02*
X10845800Y-5080200D01*
X10794800Y-5029200D02*
X10896800Y-5029200D01*
X10845800Y-5232200D02*
X10845800Y-5334200D01*
X10794800Y-5283200D02*
X10896800Y-5283200D01*
X10007600Y-5791000D02*
X10007600Y-5893000D01*
X9956600Y-5842000D02*
X10058600Y-5842000D01*
X10261600Y-5791000D02*
X10261600Y-5893000D01*
X10210600Y-5842000D02*
X10312600Y-5842000D01*
X10515600Y-5791000D02*
X10515600Y-5893000D01*
X10464600Y-5842000D02*
X10566600Y-5842000D01*
X10769600Y-5791000D02*
X10769600Y-5893000D01*
X10718600Y-5842000D02*
X10820600Y-5842000D01*
X14630400Y-5740200D02*
X14630400Y-5842200D01*
X14579400Y-5791200D02*
X14681400Y-5791200D01*
X14884400Y-5740200D02*
X14884400Y-5842200D01*
X14833400Y-5791200D02*
X14935400Y-5791200D01*
X15138400Y-5740200D02*
X15138400Y-5842200D01*
X15087400Y-5791200D02*
X15189400Y-5791200D01*
X15392400Y-5740200D02*
X15392400Y-5842200D01*
X15341400Y-5791200D02*
X15443400Y-5791200D01*
X10007600Y-11480600D02*
X10007600Y-11582600D01*
X9956600Y-11531600D02*
X10058600Y-11531600D01*
X10261600Y-11480600D02*
X10261600Y-11582600D01*
X10210600Y-11531600D02*
X10312600Y-11531600D01*
X10515600Y-11480600D02*
X10515600Y-11582600D01*
X10464600Y-11531600D02*
X10566600Y-11531600D01*
X10769600Y-11480600D02*
X10769600Y-11582600D01*
X10718600Y-11531600D02*
X10820600Y-11531600D01*
X11557000Y-4470200D02*
X11557000Y-4572200D01*
X11506000Y-4521200D02*
X11608000Y-4521200D01*
X11557000Y-4724200D02*
X11557000Y-4826200D01*
X11506000Y-4775200D02*
X11608000Y-4775200D01*
X11557000Y-4978200D02*
X11557000Y-5080200D01*
X11506000Y-5029200D02*
X11608000Y-5029200D01*
X11557000Y-5232200D02*
X11557000Y-5334200D01*
X11506000Y-5283200D02*
X11608000Y-5283200D01*
X14630400Y-7873800D02*
X14630400Y-7975800D01*
X14579400Y-7924800D02*
X14681400Y-7924800D01*
X14884400Y-7873800D02*
X14884400Y-7975800D01*
X14833400Y-7924800D02*
X14935400Y-7924800D01*
X15138400Y-7873800D02*
X15138400Y-7975800D01*
X15087400Y-7924800D02*
X15189400Y-7924800D01*
X15392400Y-7873800D02*
X15392400Y-7975800D01*
X15341400Y-7924800D02*
X15443400Y-7924800D01*
X10007600Y-7924600D02*
X10007600Y-8026600D01*
X9956600Y-7975600D02*
X10058600Y-7975600D01*
X10261600Y-7924600D02*
X10261600Y-8026600D01*
X10210600Y-7975600D02*
X10312600Y-7975600D01*
X10515600Y-7924600D02*
X10515600Y-8026600D01*
X10464600Y-7975600D02*
X10566600Y-7975600D01*
X10769600Y-7924600D02*
X10769600Y-8026600D01*
X10718600Y-7975600D02*
X10820600Y-7975600D01*
X14630400Y-14274600D02*
X14630400Y-14376600D01*
X14579400Y-14325600D02*
X14681400Y-14325600D01*
X14884400Y-14274600D02*
X14884400Y-14376600D01*
X14833400Y-14325600D02*
X14935400Y-14325600D01*
X15138400Y-14274600D02*
X15138400Y-14376600D01*
X15087400Y-14325600D02*
X15189400Y-14325600D01*
X15392400Y-14274600D02*
X15392400Y-14376600D01*
X15341400Y-14325600D02*
X15443400Y-14325600D01*
X10007600Y-10058200D02*
X10007600Y-10160200D01*
X9956600Y-10109200D02*
X10058600Y-10109200D01*
X10261600Y-10058200D02*
X10261600Y-10160200D01*
X10210600Y-10109200D02*
X10312600Y-10109200D01*
X10515600Y-10058200D02*
X10515600Y-10160200D01*
X10464600Y-10109200D02*
X10566600Y-10109200D01*
X10769600Y-10058200D02*
X10769600Y-10160200D01*
X10718600Y-10109200D02*
X10820600Y-10109200D01*
X10007600Y-12903000D02*
X10007600Y-13005000D01*
X9956600Y-12954000D02*
X10058600Y-12954000D01*
X10261600Y-12903000D02*
X10261600Y-13005000D01*
X10210600Y-12954000D02*
X10312600Y-12954000D01*
X10515600Y-12903000D02*
X10515600Y-13005000D01*
X10464600Y-12954000D02*
X10566600Y-12954000D01*
X10769600Y-12903000D02*
X10769600Y-13005000D01*
X10718600Y-12954000D02*
X10820600Y-12954000D01*
X10007600Y-17170200D02*
X10007600Y-17272200D01*
X9956600Y-17221200D02*
X10058600Y-17221200D01*
X10261600Y-17170200D02*
X10261600Y-17272200D01*
X10210600Y-17221200D02*
X10312600Y-17221200D01*
X10515600Y-17170200D02*
X10515600Y-17272200D01*
X10464600Y-17221200D02*
X10566600Y-17221200D01*
X10769600Y-17170200D02*
X10769600Y-17272200D01*
X10718600Y-17221200D02*
X10820600Y-17221200D01*
X10007600Y-13614200D02*
X10007600Y-13716200D01*
X9956600Y-13665200D02*
X10058600Y-13665200D01*
X10261600Y-13614200D02*
X10261600Y-13716200D01*
X10210600Y-13665200D02*
X10312600Y-13665200D01*
X10515600Y-13614200D02*
X10515600Y-13716200D01*
X10464600Y-13665200D02*
X10566600Y-13665200D01*
X10769600Y-13614200D02*
X10769600Y-13716200D01*
X10718600Y-13665200D02*
X10820600Y-13665200D01*
X14630400Y-16408200D02*
X14630400Y-16510200D01*
X14579400Y-16459200D02*
X14681400Y-16459200D01*
X14884400Y-16408200D02*
X14884400Y-16510200D01*
X14833400Y-16459200D02*
X14935400Y-16459200D01*
X15138400Y-16408200D02*
X15138400Y-16510200D01*
X15087400Y-16459200D02*
X15189400Y-16459200D01*
X15392400Y-16408200D02*
X15392400Y-16510200D01*
X15341400Y-16459200D02*
X15443400Y-16459200D01*
X14630400Y-17119400D02*
X14630400Y-17221400D01*
X14579400Y-17170400D02*
X14681400Y-17170400D01*
X14884400Y-17119400D02*
X14884400Y-17221400D01*
X14833400Y-17170400D02*
X14935400Y-17170400D01*
X15138400Y-17119400D02*
X15138400Y-17221400D01*
X15087400Y-17170400D02*
X15189400Y-17170400D01*
X15392400Y-17119400D02*
X15392400Y-17221400D01*
X15341400Y-17170400D02*
X15443400Y-17170400D01*
X10007600Y-6502200D02*
X10007600Y-6604200D01*
X9956600Y-6553200D02*
X10058600Y-6553200D01*
X10261600Y-6502200D02*
X10261600Y-6604200D01*
X10210600Y-6553200D02*
X10312600Y-6553200D01*
X10515600Y-6502200D02*
X10515600Y-6604200D01*
X10464600Y-6553200D02*
X10566600Y-6553200D01*
X10769600Y-6502200D02*
X10769600Y-6604200D01*
X10718600Y-6553200D02*
X10820600Y-6553200D01*
X14401800Y-4470200D02*
X14401800Y-4572200D01*
X14350800Y-4521200D02*
X14452800Y-4521200D01*
X14401800Y-4724200D02*
X14401800Y-4826200D01*
X14350800Y-4775200D02*
X14452800Y-4775200D01*
X14401800Y-4978200D02*
X14401800Y-5080200D01*
X14350800Y-5029200D02*
X14452800Y-5029200D01*
X14401800Y-5232200D02*
X14401800Y-5334200D01*
X14350800Y-5283200D02*
X14452800Y-5283200D01*
X14630400Y-13563400D02*
X14630400Y-13665400D01*
X14579400Y-13614400D02*
X14681400Y-13614400D01*
X14884400Y-13563400D02*
X14884400Y-13665400D01*
X14833400Y-13614400D02*
X14935400Y-13614400D01*
X15138400Y-13563400D02*
X15138400Y-13665400D01*
X15087400Y-13614400D02*
X15189400Y-13614400D01*
X15392400Y-13563400D02*
X15392400Y-13665400D01*
X15341400Y-13614400D02*
X15443400Y-13614400D01*
X11994569Y-16266069D02*
X11994569Y-16152931D01*
X11881431Y-16152931D01*
X11881431Y-16266069D01*
X11994569Y-16266069D01*
X12502569Y-16266069D02*
X12502569Y-16152931D01*
X12389431Y-16152931D01*
X12389431Y-16266069D01*
X12502569Y-16266069D01*
X13010569Y-16266069D02*
X13010569Y-16152931D01*
X12897431Y-16152931D01*
X12897431Y-16266069D01*
X13010569Y-16266069D01*
X13518569Y-16266069D02*
X13518569Y-16152931D01*
X13405431Y-16152931D01*
X13405431Y-16266069D01*
X13518569Y-16266069D01*
X11684000Y-16590500D02*
X11811000Y-16463500D01*
X11684000Y-16336500D01*
X11557000Y-16463500D01*
X11684000Y-16590500D01*
X13716000Y-16590500D02*
X13843000Y-16463500D01*
X13716000Y-16336500D01*
X13589000Y-16463500D01*
X13716000Y-16590500D01*
X11992500Y-17026000D02*
X12391500Y-17425000D01*
X12391500Y-17026000D02*
X11992500Y-17425000D01*
X12391500Y-17225500D02*
G75*
G03*
X12391500Y-17225500I-199500J0D01*
G01*
X13008500Y-17026000D02*
X13407500Y-17425000D01*
X13407500Y-17026000D02*
X13008500Y-17425000D01*
X13407500Y-17225500D02*
G75*
G03*
X13407500Y-17225500I-199500J0D01*
G01*
X13551800Y-15380600D02*
X13981800Y-15810600D01*
X13981800Y-15380600D02*
X13551800Y-15810600D01*
X13766800Y-15380600D02*
X13766800Y-15810600D01*
X13551800Y-15595600D02*
X13981800Y-15595600D01*
X11418200Y-5855600D02*
X11848200Y-6285600D01*
X11848200Y-5855600D02*
X11418200Y-6285600D01*
X11633200Y-5855600D02*
X11633200Y-6285600D01*
X11418200Y-6070600D02*
X11848200Y-6070600D01*
X11418200Y-15380600D02*
X11848200Y-15810600D01*
X11848200Y-15380600D02*
X11418200Y-15810600D01*
X11633200Y-15380600D02*
X11633200Y-15810600D01*
X11418200Y-15595600D02*
X11848200Y-15595600D01*
X13551800Y-5855600D02*
X13981800Y-6285600D01*
X13981800Y-5855600D02*
X13551800Y-6285600D01*
X13766800Y-5855600D02*
X13766800Y-6285600D01*
X13551800Y-6070600D02*
X13981800Y-6070600D01*
X10574800Y-4720200D02*
X10684800Y-4830200D01*
X10684800Y-4720200D02*
X10574800Y-4830200D01*
X10668691Y-4814091D02*
X10668691Y-4736309D01*
X10590909Y-4736309D01*
X10590909Y-4814091D01*
X10668691Y-4814091D01*
X10206600Y-6003000D02*
X10316600Y-6113000D01*
X10316600Y-6003000D02*
X10206600Y-6113000D01*
X10300491Y-6096891D02*
X10300491Y-6019109D01*
X10222709Y-6019109D01*
X10222709Y-6096891D01*
X10300491Y-6096891D01*
X15083400Y-5520200D02*
X15193400Y-5630200D01*
X15193400Y-5520200D02*
X15083400Y-5630200D01*
X15177291Y-5614091D02*
X15177291Y-5536309D01*
X15099509Y-5536309D01*
X15099509Y-5614091D01*
X15177291Y-5614091D01*
X10206600Y-11692600D02*
X10316600Y-11802600D01*
X10316600Y-11692600D02*
X10206600Y-11802600D01*
X10300491Y-11786491D02*
X10300491Y-11708709D01*
X10222709Y-11708709D01*
X10222709Y-11786491D01*
X10300491Y-11786491D01*
X11286000Y-4720200D02*
X11396000Y-4830200D01*
X11396000Y-4720200D02*
X11286000Y-4830200D01*
X11379891Y-4814091D02*
X11379891Y-4736309D01*
X11302109Y-4736309D01*
X11302109Y-4814091D01*
X11379891Y-4814091D01*
X15083400Y-7653800D02*
X15193400Y-7763800D01*
X15193400Y-7653800D02*
X15083400Y-7763800D01*
X15177291Y-7747691D02*
X15177291Y-7669909D01*
X15099509Y-7669909D01*
X15099509Y-7747691D01*
X15177291Y-7747691D01*
X10206600Y-8136600D02*
X10316600Y-8246600D01*
X10316600Y-8136600D02*
X10206600Y-8246600D01*
X10300491Y-8230491D02*
X10300491Y-8152709D01*
X10222709Y-8152709D01*
X10222709Y-8230491D01*
X10300491Y-8230491D01*
X15083400Y-14054600D02*
X15193400Y-14164600D01*
X15193400Y-14054600D02*
X15083400Y-14164600D01*
X15177291Y-14148491D02*
X15177291Y-14070709D01*
X15099509Y-14070709D01*
X15099509Y-14148491D01*
X15177291Y-14148491D01*
X10206600Y-10270200D02*
X10316600Y-10380200D01*
X10316600Y-10270200D02*
X10206600Y-10380200D01*
X10300491Y-10364091D02*
X10300491Y-10286309D01*
X10222709Y-10286309D01*
X10222709Y-10364091D01*
X10300491Y-10364091D01*
X10206600Y-13115000D02*
X10316600Y-13225000D01*
X10316600Y-13115000D02*
X10206600Y-13225000D01*
X10300491Y-13208891D02*
X10300491Y-13131109D01*
X10222709Y-13131109D01*
X10222709Y-13208891D01*
X10300491Y-13208891D01*
X10206600Y-17382200D02*
X10316600Y-17492200D01*
X10316600Y-17382200D02*
X10206600Y-17492200D01*
X10300491Y-17476091D02*
X10300491Y-17398309D01*
X10222709Y-17398309D01*
X10222709Y-17476091D01*
X10300491Y-17476091D01*
X10206600Y-13826200D02*
X10316600Y-13936200D01*
X10316600Y-13826200D02*
X10206600Y-13936200D01*
X10300491Y-13920091D02*
X10300491Y-13842309D01*
X10222709Y-13842309D01*
X10222709Y-13920091D01*
X10300491Y-13920091D01*
X15083400Y-16188200D02*
X15193400Y-16298200D01*
X15193400Y-16188200D02*
X15083400Y-16298200D01*
X15177291Y-16282091D02*
X15177291Y-16204309D01*
X15099509Y-16204309D01*
X15099509Y-16282091D01*
X15177291Y-16282091D01*
X15083400Y-16899400D02*
X15193400Y-17009400D01*
X15193400Y-16899400D02*
X15083400Y-17009400D01*
X15177291Y-16993291D02*
X15177291Y-16915509D01*
X15099509Y-16915509D01*
X15099509Y-16993291D01*
X15177291Y-16993291D01*
X10206600Y-6714200D02*
X10316600Y-6824200D01*
X10316600Y-6714200D02*
X10206600Y-6824200D01*
X10300491Y-6808091D02*
X10300491Y-6730309D01*
X10222709Y-6730309D01*
X10222709Y-6808091D01*
X10300491Y-6808091D01*
X14130800Y-4720200D02*
X14240800Y-4830200D01*
X14240800Y-4720200D02*
X14130800Y-4830200D01*
X14224691Y-4814091D02*
X14224691Y-4736309D01*
X14146909Y-4736309D01*
X14146909Y-4814091D01*
X14224691Y-4814091D01*
X15083400Y-13343400D02*
X15193400Y-13453400D01*
X15193400Y-13343400D02*
X15083400Y-13453400D01*
X15177291Y-13437291D02*
X15177291Y-13359509D01*
X15099509Y-13359509D01*
X15099509Y-13437291D01*
X15177291Y-13437291D01*
X10206600Y-16671000D02*
X10316600Y-16781000D01*
X10316600Y-16671000D02*
X10206600Y-16781000D01*
X10300491Y-16764891D02*
X10300491Y-16687109D01*
X10222709Y-16687109D01*
X10222709Y-16764891D01*
X10300491Y-16764891D01*
X15083400Y-15477000D02*
X15193400Y-15587000D01*
X15193400Y-15477000D02*
X15083400Y-15587000D01*
X15177291Y-15570891D02*
X15177291Y-15493109D01*
X15099509Y-15493109D01*
X15099509Y-15570891D01*
X15177291Y-15570891D01*
X12708400Y-4720200D02*
X12818400Y-4830200D01*
X12818400Y-4720200D02*
X12708400Y-4830200D01*
X12802291Y-4814091D02*
X12802291Y-4736309D01*
X12724509Y-4736309D01*
X12724509Y-4814091D01*
X12802291Y-4814091D01*
X15083400Y-12632200D02*
X15193400Y-12742200D01*
X15193400Y-12632200D02*
X15083400Y-12742200D01*
X15177291Y-12726091D02*
X15177291Y-12648309D01*
X15099509Y-12648309D01*
X15099509Y-12726091D01*
X15177291Y-12726091D01*
X10206600Y-15248600D02*
X10316600Y-15358600D01*
X10316600Y-15248600D02*
X10206600Y-15358600D01*
X10300491Y-15342491D02*
X10300491Y-15264709D01*
X10222709Y-15264709D01*
X10222709Y-15342491D01*
X10300491Y-15342491D01*
X10206600Y-9559000D02*
X10316600Y-9669000D01*
X10316600Y-9559000D02*
X10206600Y-9669000D01*
X10300491Y-9652891D02*
X10300491Y-9575109D01*
X10222709Y-9575109D01*
X10222709Y-9652891D01*
X10300491Y-9652891D01*
X15083400Y-11209800D02*
X15193400Y-11319800D01*
X15193400Y-11209800D02*
X15083400Y-11319800D01*
X15177291Y-11303691D02*
X15177291Y-11225909D01*
X15099509Y-11225909D01*
X15099509Y-11303691D01*
X15177291Y-11303691D01*
X10206600Y-7425400D02*
X10316600Y-7535400D01*
X10316600Y-7425400D02*
X10206600Y-7535400D01*
X10300491Y-7519291D02*
X10300491Y-7441509D01*
X10222709Y-7441509D01*
X10222709Y-7519291D01*
X10300491Y-7519291D01*
X15083400Y-10498600D02*
X15193400Y-10608600D01*
X15193400Y-10498600D02*
X15083400Y-10608600D01*
X15177291Y-10592491D02*
X15177291Y-10514709D01*
X15099509Y-10514709D01*
X15099509Y-10592491D01*
X15177291Y-10592491D01*
X10206600Y-12403800D02*
X10316600Y-12513800D01*
X10316600Y-12403800D02*
X10206600Y-12513800D01*
X10300491Y-12497691D02*
X10300491Y-12419909D01*
X10222709Y-12419909D01*
X10222709Y-12497691D01*
X10300491Y-12497691D01*
X15083400Y-9787400D02*
X15193400Y-9897400D01*
X15193400Y-9787400D02*
X15083400Y-9897400D01*
X15177291Y-9881291D02*
X15177291Y-9803509D01*
X15099509Y-9803509D01*
X15099509Y-9881291D01*
X15177291Y-9881291D01*
X10206600Y-10981400D02*
X10316600Y-11091400D01*
X10316600Y-10981400D02*
X10206600Y-11091400D01*
X10300491Y-11075291D02*
X10300491Y-10997509D01*
X10222709Y-10997509D01*
X10222709Y-11075291D01*
X10300491Y-11075291D01*
X15083400Y-6231400D02*
X15193400Y-6341400D01*
X15193400Y-6231400D02*
X15083400Y-6341400D01*
X15177291Y-6325291D02*
X15177291Y-6247509D01*
X15099509Y-6247509D01*
X15099509Y-6325291D01*
X15177291Y-6325291D01*
X15083400Y-14765800D02*
X15193400Y-14875800D01*
X15193400Y-14765800D02*
X15083400Y-14875800D01*
X15177291Y-14859691D02*
X15177291Y-14781909D01*
X15099509Y-14781909D01*
X15099509Y-14859691D01*
X15177291Y-14859691D01*
X15083400Y-11921000D02*
X15193400Y-12031000D01*
X15193400Y-11921000D02*
X15083400Y-12031000D01*
X15177291Y-12014891D02*
X15177291Y-11937109D01*
X15099509Y-11937109D01*
X15099509Y-12014891D01*
X15177291Y-12014891D01*
X10206600Y-14537400D02*
X10316600Y-14647400D01*
X10316600Y-14537400D02*
X10206600Y-14647400D01*
X10300491Y-14631291D02*
X10300491Y-14553509D01*
X10222709Y-14553509D01*
X10222709Y-14631291D01*
X10300491Y-14631291D01*
X15083400Y-9076200D02*
X15193400Y-9186200D01*
X15193400Y-9076200D02*
X15083400Y-9186200D01*
X15177291Y-9170091D02*
X15177291Y-9092309D01*
X15099509Y-9092309D01*
X15099509Y-9170091D01*
X15177291Y-9170091D01*
X11997200Y-4720200D02*
X12107200Y-4830200D01*
X12107200Y-4720200D02*
X11997200Y-4830200D01*
X12091091Y-4814091D02*
X12091091Y-4736309D01*
X12013309Y-4736309D01*
X12013309Y-4814091D01*
X12091091Y-4814091D01*
X15083400Y-8365000D02*
X15193400Y-8475000D01*
X15193400Y-8365000D02*
X15083400Y-8475000D01*
X15177291Y-8458891D02*
X15177291Y-8381109D01*
X15099509Y-8381109D01*
X15099509Y-8458891D01*
X15177291Y-8458891D01*
X13419600Y-4720200D02*
X13529600Y-4830200D01*
X13529600Y-4720200D02*
X13419600Y-4830200D01*
X13513491Y-4814091D02*
X13513491Y-4736309D01*
X13435709Y-4736309D01*
X13435709Y-4814091D01*
X13513491Y-4814091D01*
X10206600Y-8847800D02*
X10316600Y-8957800D01*
X10316600Y-8847800D02*
X10206600Y-8957800D01*
X10300491Y-8941691D02*
X10300491Y-8863909D01*
X10222709Y-8863909D01*
X10222709Y-8941691D01*
X10300491Y-8941691D01*
X10206600Y-15959800D02*
X10316600Y-16069800D01*
X10316600Y-15959800D02*
X10206600Y-16069800D01*
X10300491Y-16053691D02*
X10300491Y-15975909D01*
X10222709Y-15975909D01*
X10222709Y-16053691D01*
X10300491Y-16053691D01*
X15083400Y-6942600D02*
X15193400Y-7052600D01*
X15193400Y-6942600D02*
X15083400Y-7052600D01*
X15177291Y-7036491D02*
X15177291Y-6958709D01*
X15099509Y-6958709D01*
X15099509Y-7036491D01*
X15177291Y-7036491D01*
D12*
X10113728Y-18019614D02*
X10113728Y-17719614D01*
X10185157Y-17719614D01*
X10228014Y-17733900D01*
X10256586Y-17762472D01*
X10270871Y-17791043D01*
X10285157Y-17848186D01*
X10285157Y-17891043D01*
X10270871Y-17948186D01*
X10256586Y-17976757D01*
X10228014Y-18005329D01*
X10185157Y-18019614D01*
X10113728Y-18019614D01*
X10413728Y-18019614D02*
X10413728Y-17819614D01*
X10413728Y-17876757D02*
X10428014Y-17848186D01*
X10442300Y-17833900D01*
X10470871Y-17819614D01*
X10499443Y-17819614D01*
X10599443Y-18019614D02*
X10599443Y-17819614D01*
X10599443Y-17719614D02*
X10585157Y-17733900D01*
X10599443Y-17748186D01*
X10613728Y-17733900D01*
X10599443Y-17719614D01*
X10599443Y-17748186D01*
X10785157Y-18019614D02*
X10756586Y-18005329D01*
X10742300Y-17976757D01*
X10742300Y-17719614D01*
X10942300Y-18019614D02*
X10913728Y-18005329D01*
X10899443Y-17976757D01*
X10899443Y-17719614D01*
X11285157Y-18019614D02*
X11285157Y-17719614D01*
X11385157Y-17933900D01*
X11485157Y-17719614D01*
X11485157Y-18019614D01*
X11756586Y-18019614D02*
X11756586Y-17862472D01*
X11742300Y-17833900D01*
X11713728Y-17819614D01*
X11656586Y-17819614D01*
X11628014Y-17833900D01*
X11756586Y-18005329D02*
X11728014Y-18019614D01*
X11656586Y-18019614D01*
X11628014Y-18005329D01*
X11613728Y-17976757D01*
X11613728Y-17948186D01*
X11628014Y-17919614D01*
X11656586Y-17905329D01*
X11728014Y-17905329D01*
X11756586Y-17891043D01*
X11899443Y-17819614D02*
X11899443Y-18119614D01*
X11899443Y-17833900D02*
X11928014Y-17819614D01*
X11985157Y-17819614D01*
X12013728Y-17833900D01*
X12028014Y-17848186D01*
X12042300Y-17876757D01*
X12042300Y-17962472D01*
X12028014Y-17991043D01*
X12013728Y-18005329D01*
X11985157Y-18019614D01*
X11928014Y-18019614D01*
X11899443Y-18005329D01*
X12170871Y-17991043D02*
X12185157Y-18005329D01*
X12170871Y-18019614D01*
X12156586Y-18005329D01*
X12170871Y-17991043D01*
X12170871Y-18019614D01*
X12170871Y-17833900D02*
X12185157Y-17848186D01*
X12170871Y-17862472D01*
X12156586Y-17848186D01*
X12170871Y-17833900D01*
X12170871Y-17862472D01*
X9787300Y-18493900D02*
X9827300Y-18533900D01*
X9827300Y-18493900D02*
X9787300Y-18533900D01*
X10170871Y-18349614D02*
X10199443Y-18349614D01*
X10228014Y-18363900D01*
X10242300Y-18378186D01*
X10256586Y-18406757D01*
X10270871Y-18463900D01*
X10270871Y-18535329D01*
X10256586Y-18592472D01*
X10242300Y-18621043D01*
X10228014Y-18635329D01*
X10199443Y-18649614D01*
X10170871Y-18649614D01*
X10142300Y-18635329D01*
X10128014Y-18621043D01*
X10113728Y-18592472D01*
X10099443Y-18535329D01*
X10099443Y-18463900D01*
X10113728Y-18406757D01*
X10128014Y-18378186D01*
X10142300Y-18363900D01*
X10170871Y-18349614D01*
X10399443Y-18621043D02*
X10413728Y-18635329D01*
X10399443Y-18649614D01*
X10385157Y-18635329D01*
X10399443Y-18621043D01*
X10399443Y-18649614D01*
X10670871Y-18449614D02*
X10670871Y-18649614D01*
X10599443Y-18335329D02*
X10528014Y-18549614D01*
X10713728Y-18549614D01*
X10885157Y-18349614D02*
X10913728Y-18349614D01*
X10942300Y-18363900D01*
X10956586Y-18378186D01*
X10970871Y-18406757D01*
X10985157Y-18463900D01*
X10985157Y-18535329D01*
X10970871Y-18592472D01*
X10956586Y-18621043D01*
X10942300Y-18635329D01*
X10913728Y-18649614D01*
X10885157Y-18649614D01*
X10856586Y-18635329D01*
X10842300Y-18621043D01*
X10828014Y-18592472D01*
X10813728Y-18535329D01*
X10813728Y-18463900D01*
X10828014Y-18406757D01*
X10842300Y-18378186D01*
X10856586Y-18363900D01*
X10885157Y-18349614D01*
X11113728Y-18649614D02*
X11113728Y-18449614D01*
X11113728Y-18478186D02*
X11128014Y-18463900D01*
X11156586Y-18449614D01*
X11199443Y-18449614D01*
X11228014Y-18463900D01*
X11242300Y-18492472D01*
X11242300Y-18649614D01*
X11242300Y-18492472D02*
X11256586Y-18463900D01*
X11285157Y-18449614D01*
X11328014Y-18449614D01*
X11356586Y-18463900D01*
X11370871Y-18492472D01*
X11370871Y-18649614D01*
X11513728Y-18649614D02*
X11513728Y-18449614D01*
X11513728Y-18478186D02*
X11528014Y-18463900D01*
X11556586Y-18449614D01*
X11599443Y-18449614D01*
X11628014Y-18463900D01*
X11642300Y-18492472D01*
X11642300Y-18649614D01*
X11642300Y-18492472D02*
X11656586Y-18463900D01*
X11685157Y-18449614D01*
X11728014Y-18449614D01*
X11756586Y-18463900D01*
X11770871Y-18492472D01*
X11770871Y-18649614D01*
X12356586Y-18335329D02*
X12099443Y-18721043D01*
X12742300Y-18349614D02*
X12770871Y-18349614D01*
X12799443Y-18363900D01*
X12813728Y-18378186D01*
X12828014Y-18406757D01*
X12842300Y-18463900D01*
X12842300Y-18535329D01*
X12828014Y-18592472D01*
X12813728Y-18621043D01*
X12799443Y-18635329D01*
X12770871Y-18649614D01*
X12742300Y-18649614D01*
X12713728Y-18635329D01*
X12699443Y-18621043D01*
X12685157Y-18592472D01*
X12670871Y-18535329D01*
X12670871Y-18463900D01*
X12685157Y-18406757D01*
X12699443Y-18378186D01*
X12713728Y-18363900D01*
X12742300Y-18349614D01*
X12970871Y-18621043D02*
X12985157Y-18635329D01*
X12970871Y-18649614D01*
X12956586Y-18635329D01*
X12970871Y-18621043D01*
X12970871Y-18649614D01*
X13170871Y-18349614D02*
X13199443Y-18349614D01*
X13228014Y-18363900D01*
X13242300Y-18378186D01*
X13256586Y-18406757D01*
X13270871Y-18463900D01*
X13270871Y-18535329D01*
X13256586Y-18592472D01*
X13242300Y-18621043D01*
X13228014Y-18635329D01*
X13199443Y-18649614D01*
X13170871Y-18649614D01*
X13142300Y-18635329D01*
X13128014Y-18621043D01*
X13113728Y-18592472D01*
X13099443Y-18535329D01*
X13099443Y-18463900D01*
X13113728Y-18406757D01*
X13128014Y-18378186D01*
X13142300Y-18363900D01*
X13170871Y-18349614D01*
X13556586Y-18649614D02*
X13385157Y-18649614D01*
X13470871Y-18649614D02*
X13470871Y-18349614D01*
X13442300Y-18392472D01*
X13413728Y-18421043D01*
X13385157Y-18435329D01*
X13813728Y-18349614D02*
X13756586Y-18349614D01*
X13728014Y-18363900D01*
X13713728Y-18378186D01*
X13685157Y-18421043D01*
X13670871Y-18478186D01*
X13670871Y-18592472D01*
X13685157Y-18621043D01*
X13699443Y-18635329D01*
X13728014Y-18649614D01*
X13785157Y-18649614D01*
X13813728Y-18635329D01*
X13828014Y-18621043D01*
X13842300Y-18592472D01*
X13842300Y-18521043D01*
X13828014Y-18492472D01*
X13813728Y-18478186D01*
X13785157Y-18463900D01*
X13728014Y-18463900D01*
X13699443Y-18478186D01*
X13685157Y-18492472D01*
X13670871Y-18521043D01*
X13956586Y-18349614D02*
X13956586Y-18406757D01*
X14070871Y-18349614D02*
X14070871Y-18406757D01*
X14513728Y-18763900D02*
X14499443Y-18749614D01*
X14470871Y-18706757D01*
X14456586Y-18678186D01*
X14442300Y-18635329D01*
X14428014Y-18563900D01*
X14428014Y-18506757D01*
X14442300Y-18435329D01*
X14456586Y-18392472D01*
X14470871Y-18363900D01*
X14499443Y-18321043D01*
X14513728Y-18306757D01*
X14599443Y-18349614D02*
X14785157Y-18349614D01*
X14685157Y-18463900D01*
X14728014Y-18463900D01*
X14756586Y-18478186D01*
X14770871Y-18492472D01*
X14785157Y-18521043D01*
X14785157Y-18592472D01*
X14770871Y-18621043D01*
X14756586Y-18635329D01*
X14728014Y-18649614D01*
X14642300Y-18649614D01*
X14613728Y-18635329D01*
X14599443Y-18621043D01*
X15070871Y-18649614D02*
X14899443Y-18649614D01*
X14985157Y-18649614D02*
X14985157Y-18349614D01*
X14956586Y-18392472D01*
X14928014Y-18421043D01*
X14899443Y-18435329D01*
X15428014Y-18649614D02*
X15428014Y-18349614D01*
X15556586Y-18649614D02*
X15556586Y-18492472D01*
X15542300Y-18463900D01*
X15513728Y-18449614D01*
X15470871Y-18449614D01*
X15442300Y-18463900D01*
X15428014Y-18478186D01*
X15742300Y-18649614D02*
X15713728Y-18635329D01*
X15699443Y-18621043D01*
X15685157Y-18592472D01*
X15685157Y-18506757D01*
X15699443Y-18478186D01*
X15713728Y-18463900D01*
X15742300Y-18449614D01*
X15785157Y-18449614D01*
X15813728Y-18463900D01*
X15828014Y-18478186D01*
X15842300Y-18506757D01*
X15842300Y-18592472D01*
X15828014Y-18621043D01*
X15813728Y-18635329D01*
X15785157Y-18649614D01*
X15742300Y-18649614D01*
X16013728Y-18649614D02*
X15985157Y-18635329D01*
X15970871Y-18606757D01*
X15970871Y-18349614D01*
X16242300Y-18635329D02*
X16213728Y-18649614D01*
X16156586Y-18649614D01*
X16128014Y-18635329D01*
X16113728Y-18606757D01*
X16113728Y-18492472D01*
X16128014Y-18463900D01*
X16156586Y-18449614D01*
X16213728Y-18449614D01*
X16242300Y-18463900D01*
X16256586Y-18492472D01*
X16256586Y-18521043D01*
X16113728Y-18549614D01*
X16370871Y-18635329D02*
X16399443Y-18649614D01*
X16456586Y-18649614D01*
X16485157Y-18635329D01*
X16499443Y-18606757D01*
X16499443Y-18592472D01*
X16485157Y-18563900D01*
X16456586Y-18549614D01*
X16413728Y-18549614D01*
X16385157Y-18535329D01*
X16370871Y-18506757D01*
X16370871Y-18492472D01*
X16385157Y-18463900D01*
X16413728Y-18449614D01*
X16456586Y-18449614D01*
X16485157Y-18463900D01*
X16599443Y-18763900D02*
X16613728Y-18749614D01*
X16642300Y-18706757D01*
X16656586Y-18678186D01*
X16670871Y-18635329D01*
X16685157Y-18563900D01*
X16685157Y-18506757D01*
X16670871Y-18435329D01*
X16656586Y-18392472D01*
X16642300Y-18363900D01*
X16613728Y-18321043D01*
X16599443Y-18306757D01*
X9827300Y-18909900D02*
G75*
G03*
X9827300Y-18909900I-50000J0D01*
G01*
X10270871Y-19045614D02*
X10099443Y-19045614D01*
X10185157Y-19045614D02*
X10185157Y-18745614D01*
X10156586Y-18788472D01*
X10128014Y-18817043D01*
X10099443Y-18831329D01*
X10399443Y-19017043D02*
X10413728Y-19031329D01*
X10399443Y-19045614D01*
X10385157Y-19031329D01*
X10399443Y-19017043D01*
X10399443Y-19045614D01*
X10599443Y-18745614D02*
X10628014Y-18745614D01*
X10656586Y-18759900D01*
X10670871Y-18774186D01*
X10685157Y-18802757D01*
X10699443Y-18859900D01*
X10699443Y-18931329D01*
X10685157Y-18988472D01*
X10670871Y-19017043D01*
X10656586Y-19031329D01*
X10628014Y-19045614D01*
X10599443Y-19045614D01*
X10570871Y-19031329D01*
X10556586Y-19017043D01*
X10542300Y-18988472D01*
X10528014Y-18931329D01*
X10528014Y-18859900D01*
X10542300Y-18802757D01*
X10556586Y-18774186D01*
X10570871Y-18759900D01*
X10599443Y-18745614D01*
X10885157Y-18745614D02*
X10913728Y-18745614D01*
X10942300Y-18759900D01*
X10956586Y-18774186D01*
X10970871Y-18802757D01*
X10985157Y-18859900D01*
X10985157Y-18931329D01*
X10970871Y-18988472D01*
X10956586Y-19017043D01*
X10942300Y-19031329D01*
X10913728Y-19045614D01*
X10885157Y-19045614D01*
X10856586Y-19031329D01*
X10842300Y-19017043D01*
X10828014Y-18988472D01*
X10813728Y-18931329D01*
X10813728Y-18859900D01*
X10828014Y-18802757D01*
X10842300Y-18774186D01*
X10856586Y-18759900D01*
X10885157Y-18745614D01*
X11113728Y-19045614D02*
X11113728Y-18845614D01*
X11113728Y-18874186D02*
X11128014Y-18859900D01*
X11156586Y-18845614D01*
X11199443Y-18845614D01*
X11228014Y-18859900D01*
X11242300Y-18888472D01*
X11242300Y-19045614D01*
X11242300Y-18888472D02*
X11256586Y-18859900D01*
X11285157Y-18845614D01*
X11328014Y-18845614D01*
X11356586Y-18859900D01*
X11370871Y-18888472D01*
X11370871Y-19045614D01*
X11513728Y-19045614D02*
X11513728Y-18845614D01*
X11513728Y-18874186D02*
X11528014Y-18859900D01*
X11556586Y-18845614D01*
X11599443Y-18845614D01*
X11628014Y-18859900D01*
X11642300Y-18888472D01*
X11642300Y-19045614D01*
X11642300Y-18888472D02*
X11656586Y-18859900D01*
X11685157Y-18845614D01*
X11728014Y-18845614D01*
X11756586Y-18859900D01*
X11770871Y-18888472D01*
X11770871Y-19045614D01*
X12356586Y-18731329D02*
X12099443Y-19117043D01*
X12742300Y-18745614D02*
X12770871Y-18745614D01*
X12799443Y-18759900D01*
X12813728Y-18774186D01*
X12828014Y-18802757D01*
X12842300Y-18859900D01*
X12842300Y-18931329D01*
X12828014Y-18988472D01*
X12813728Y-19017043D01*
X12799443Y-19031329D01*
X12770871Y-19045614D01*
X12742300Y-19045614D01*
X12713728Y-19031329D01*
X12699443Y-19017043D01*
X12685157Y-18988472D01*
X12670871Y-18931329D01*
X12670871Y-18859900D01*
X12685157Y-18802757D01*
X12699443Y-18774186D01*
X12713728Y-18759900D01*
X12742300Y-18745614D01*
X12970871Y-19017043D02*
X12985157Y-19031329D01*
X12970871Y-19045614D01*
X12956586Y-19031329D01*
X12970871Y-19017043D01*
X12970871Y-19045614D01*
X13170871Y-18745614D02*
X13199443Y-18745614D01*
X13228014Y-18759900D01*
X13242300Y-18774186D01*
X13256586Y-18802757D01*
X13270871Y-18859900D01*
X13270871Y-18931329D01*
X13256586Y-18988472D01*
X13242300Y-19017043D01*
X13228014Y-19031329D01*
X13199443Y-19045614D01*
X13170871Y-19045614D01*
X13142300Y-19031329D01*
X13128014Y-19017043D01*
X13113728Y-18988472D01*
X13099443Y-18931329D01*
X13099443Y-18859900D01*
X13113728Y-18802757D01*
X13128014Y-18774186D01*
X13142300Y-18759900D01*
X13170871Y-18745614D01*
X13370871Y-18745614D02*
X13556586Y-18745614D01*
X13456586Y-18859900D01*
X13499443Y-18859900D01*
X13528014Y-18874186D01*
X13542300Y-18888472D01*
X13556586Y-18917043D01*
X13556586Y-18988472D01*
X13542300Y-19017043D01*
X13528014Y-19031329D01*
X13499443Y-19045614D01*
X13413728Y-19045614D01*
X13385157Y-19031329D01*
X13370871Y-19017043D01*
X13699443Y-19045614D02*
X13756586Y-19045614D01*
X13785157Y-19031329D01*
X13799443Y-19017043D01*
X13828014Y-18974186D01*
X13842300Y-18917043D01*
X13842300Y-18802757D01*
X13828014Y-18774186D01*
X13813728Y-18759900D01*
X13785157Y-18745614D01*
X13728014Y-18745614D01*
X13699443Y-18759900D01*
X13685157Y-18774186D01*
X13670871Y-18802757D01*
X13670871Y-18874186D01*
X13685157Y-18902757D01*
X13699443Y-18917043D01*
X13728014Y-18931329D01*
X13785157Y-18931329D01*
X13813728Y-18917043D01*
X13828014Y-18902757D01*
X13842300Y-18874186D01*
X13956586Y-18745614D02*
X13956586Y-18802757D01*
X14070871Y-18745614D02*
X14070871Y-18802757D01*
X14513728Y-19159900D02*
X14499443Y-19145614D01*
X14470871Y-19102757D01*
X14456586Y-19074186D01*
X14442300Y-19031329D01*
X14428014Y-18959900D01*
X14428014Y-18902757D01*
X14442300Y-18831329D01*
X14456586Y-18788472D01*
X14470871Y-18759900D01*
X14499443Y-18717043D01*
X14513728Y-18702757D01*
X14756586Y-18845614D02*
X14756586Y-19045614D01*
X14685157Y-18731329D02*
X14613728Y-18945614D01*
X14799443Y-18945614D01*
X14956586Y-18874186D02*
X14928014Y-18859900D01*
X14913728Y-18845614D01*
X14899443Y-18817043D01*
X14899443Y-18802757D01*
X14913728Y-18774186D01*
X14928014Y-18759900D01*
X14956586Y-18745614D01*
X15013728Y-18745614D01*
X15042300Y-18759900D01*
X15056586Y-18774186D01*
X15070871Y-18802757D01*
X15070871Y-18817043D01*
X15056586Y-18845614D01*
X15042300Y-18859900D01*
X15013728Y-18874186D01*
X14956586Y-18874186D01*
X14928014Y-18888472D01*
X14913728Y-18902757D01*
X14899443Y-18931329D01*
X14899443Y-18988472D01*
X14913728Y-19017043D01*
X14928014Y-19031329D01*
X14956586Y-19045614D01*
X15013728Y-19045614D01*
X15042300Y-19031329D01*
X15056586Y-19017043D01*
X15070871Y-18988472D01*
X15070871Y-18931329D01*
X15056586Y-18902757D01*
X15042300Y-18888472D01*
X15013728Y-18874186D01*
X15428014Y-19045614D02*
X15428014Y-18745614D01*
X15556586Y-19045614D02*
X15556586Y-18888472D01*
X15542300Y-18859900D01*
X15513728Y-18845614D01*
X15470871Y-18845614D01*
X15442300Y-18859900D01*
X15428014Y-18874186D01*
X15742300Y-19045614D02*
X15713728Y-19031329D01*
X15699443Y-19017043D01*
X15685157Y-18988472D01*
X15685157Y-18902757D01*
X15699443Y-18874186D01*
X15713728Y-18859900D01*
X15742300Y-18845614D01*
X15785157Y-18845614D01*
X15813728Y-18859900D01*
X15828014Y-18874186D01*
X15842300Y-18902757D01*
X15842300Y-18988472D01*
X15828014Y-19017043D01*
X15813728Y-19031329D01*
X15785157Y-19045614D01*
X15742300Y-19045614D01*
X16013728Y-19045614D02*
X15985157Y-19031329D01*
X15970871Y-19002757D01*
X15970871Y-18745614D01*
X16242300Y-19031329D02*
X16213728Y-19045614D01*
X16156586Y-19045614D01*
X16128014Y-19031329D01*
X16113728Y-19002757D01*
X16113728Y-18888472D01*
X16128014Y-18859900D01*
X16156586Y-18845614D01*
X16213728Y-18845614D01*
X16242300Y-18859900D01*
X16256586Y-18888472D01*
X16256586Y-18917043D01*
X16113728Y-18945614D01*
X16370871Y-19031329D02*
X16399443Y-19045614D01*
X16456586Y-19045614D01*
X16485157Y-19031329D01*
X16499443Y-19002757D01*
X16499443Y-18988472D01*
X16485157Y-18959900D01*
X16456586Y-18945614D01*
X16413728Y-18945614D01*
X16385157Y-18931329D01*
X16370871Y-18902757D01*
X16370871Y-18888472D01*
X16385157Y-18859900D01*
X16413728Y-18845614D01*
X16456586Y-18845614D01*
X16485157Y-18859900D01*
X16599443Y-19159900D02*
X16613728Y-19145614D01*
X16642300Y-19102757D01*
X16656586Y-19074186D01*
X16670871Y-19031329D01*
X16685157Y-18959900D01*
X16685157Y-18902757D01*
X16670871Y-18831329D01*
X16656586Y-18788472D01*
X16642300Y-18759900D01*
X16613728Y-18717043D01*
X16599443Y-18702757D01*
X9776300Y-19254900D02*
X9776300Y-19356900D01*
X9725300Y-19305900D02*
X9827300Y-19305900D01*
X10270871Y-19441614D02*
X10099443Y-19441614D01*
X10185157Y-19441614D02*
X10185157Y-19141614D01*
X10156586Y-19184472D01*
X10128014Y-19213043D01*
X10099443Y-19227329D01*
X10399443Y-19413043D02*
X10413728Y-19427329D01*
X10399443Y-19441614D01*
X10385157Y-19427329D01*
X10399443Y-19413043D01*
X10399443Y-19441614D01*
X10599443Y-19141614D02*
X10628014Y-19141614D01*
X10656586Y-19155900D01*
X10670871Y-19170186D01*
X10685157Y-19198757D01*
X10699443Y-19255900D01*
X10699443Y-19327329D01*
X10685157Y-19384472D01*
X10670871Y-19413043D01*
X10656586Y-19427329D01*
X10628014Y-19441614D01*
X10599443Y-19441614D01*
X10570871Y-19427329D01*
X10556586Y-19413043D01*
X10542300Y-19384472D01*
X10528014Y-19327329D01*
X10528014Y-19255900D01*
X10542300Y-19198757D01*
X10556586Y-19170186D01*
X10570871Y-19155900D01*
X10599443Y-19141614D01*
X10813728Y-19170186D02*
X10828014Y-19155900D01*
X10856586Y-19141614D01*
X10928014Y-19141614D01*
X10956586Y-19155900D01*
X10970871Y-19170186D01*
X10985157Y-19198757D01*
X10985157Y-19227329D01*
X10970871Y-19270186D01*
X10799443Y-19441614D01*
X10985157Y-19441614D01*
X11113728Y-19441614D02*
X11113728Y-19241614D01*
X11113728Y-19270186D02*
X11128014Y-19255900D01*
X11156586Y-19241614D01*
X11199443Y-19241614D01*
X11228014Y-19255900D01*
X11242300Y-19284472D01*
X11242300Y-19441614D01*
X11242300Y-19284472D02*
X11256586Y-19255900D01*
X11285157Y-19241614D01*
X11328014Y-19241614D01*
X11356586Y-19255900D01*
X11370871Y-19284472D01*
X11370871Y-19441614D01*
X11513728Y-19441614D02*
X11513728Y-19241614D01*
X11513728Y-19270186D02*
X11528014Y-19255900D01*
X11556586Y-19241614D01*
X11599443Y-19241614D01*
X11628014Y-19255900D01*
X11642300Y-19284472D01*
X11642300Y-19441614D01*
X11642300Y-19284472D02*
X11656586Y-19255900D01*
X11685157Y-19241614D01*
X11728014Y-19241614D01*
X11756586Y-19255900D01*
X11770871Y-19284472D01*
X11770871Y-19441614D01*
X12356586Y-19127329D02*
X12099443Y-19513043D01*
X12742300Y-19141614D02*
X12770871Y-19141614D01*
X12799443Y-19155900D01*
X12813728Y-19170186D01*
X12828014Y-19198757D01*
X12842300Y-19255900D01*
X12842300Y-19327329D01*
X12828014Y-19384472D01*
X12813728Y-19413043D01*
X12799443Y-19427329D01*
X12770871Y-19441614D01*
X12742300Y-19441614D01*
X12713728Y-19427329D01*
X12699443Y-19413043D01*
X12685157Y-19384472D01*
X12670871Y-19327329D01*
X12670871Y-19255900D01*
X12685157Y-19198757D01*
X12699443Y-19170186D01*
X12713728Y-19155900D01*
X12742300Y-19141614D01*
X12970871Y-19413043D02*
X12985157Y-19427329D01*
X12970871Y-19441614D01*
X12956586Y-19427329D01*
X12970871Y-19413043D01*
X12970871Y-19441614D01*
X13170871Y-19141614D02*
X13199443Y-19141614D01*
X13228014Y-19155900D01*
X13242300Y-19170186D01*
X13256586Y-19198757D01*
X13270871Y-19255900D01*
X13270871Y-19327329D01*
X13256586Y-19384472D01*
X13242300Y-19413043D01*
X13228014Y-19427329D01*
X13199443Y-19441614D01*
X13170871Y-19441614D01*
X13142300Y-19427329D01*
X13128014Y-19413043D01*
X13113728Y-19384472D01*
X13099443Y-19327329D01*
X13099443Y-19255900D01*
X13113728Y-19198757D01*
X13128014Y-19170186D01*
X13142300Y-19155900D01*
X13170871Y-19141614D01*
X13528014Y-19241614D02*
X13528014Y-19441614D01*
X13456586Y-19127329D02*
X13385157Y-19341614D01*
X13570871Y-19341614D01*
X13742300Y-19141614D02*
X13770871Y-19141614D01*
X13799443Y-19155900D01*
X13813728Y-19170186D01*
X13828014Y-19198757D01*
X13842300Y-19255900D01*
X13842300Y-19327329D01*
X13828014Y-19384472D01*
X13813728Y-19413043D01*
X13799443Y-19427329D01*
X13770871Y-19441614D01*
X13742300Y-19441614D01*
X13713728Y-19427329D01*
X13699443Y-19413043D01*
X13685157Y-19384472D01*
X13670871Y-19327329D01*
X13670871Y-19255900D01*
X13685157Y-19198757D01*
X13699443Y-19170186D01*
X13713728Y-19155900D01*
X13742300Y-19141614D01*
X13956586Y-19141614D02*
X13956586Y-19198757D01*
X14070871Y-19141614D02*
X14070871Y-19198757D01*
X14513728Y-19555900D02*
X14499443Y-19541614D01*
X14470871Y-19498757D01*
X14456586Y-19470186D01*
X14442300Y-19427329D01*
X14428014Y-19355900D01*
X14428014Y-19298757D01*
X14442300Y-19227329D01*
X14456586Y-19184472D01*
X14470871Y-19155900D01*
X14499443Y-19113043D01*
X14513728Y-19098757D01*
X14785157Y-19441614D02*
X14613728Y-19441614D01*
X14699443Y-19441614D02*
X14699443Y-19141614D01*
X14670871Y-19184472D01*
X14642300Y-19213043D01*
X14613728Y-19227329D01*
X15042300Y-19141614D02*
X14985157Y-19141614D01*
X14956586Y-19155900D01*
X14942300Y-19170186D01*
X14913728Y-19213043D01*
X14899443Y-19270186D01*
X14899443Y-19384472D01*
X14913728Y-19413043D01*
X14928014Y-19427329D01*
X14956586Y-19441614D01*
X15013728Y-19441614D01*
X15042300Y-19427329D01*
X15056586Y-19413043D01*
X15070871Y-19384472D01*
X15070871Y-19313043D01*
X15056586Y-19284472D01*
X15042300Y-19270186D01*
X15013728Y-19255900D01*
X14956586Y-19255900D01*
X14928014Y-19270186D01*
X14913728Y-19284472D01*
X14899443Y-19313043D01*
X15256586Y-19141614D02*
X15285157Y-19141614D01*
X15313728Y-19155900D01*
X15328014Y-19170186D01*
X15342300Y-19198757D01*
X15356586Y-19255900D01*
X15356586Y-19327329D01*
X15342300Y-19384472D01*
X15328014Y-19413043D01*
X15313728Y-19427329D01*
X15285157Y-19441614D01*
X15256586Y-19441614D01*
X15228014Y-19427329D01*
X15213728Y-19413043D01*
X15199443Y-19384472D01*
X15185157Y-19327329D01*
X15185157Y-19255900D01*
X15199443Y-19198757D01*
X15213728Y-19170186D01*
X15228014Y-19155900D01*
X15256586Y-19141614D01*
X15713728Y-19441614D02*
X15713728Y-19141614D01*
X15842300Y-19441614D02*
X15842300Y-19284472D01*
X15828014Y-19255900D01*
X15799443Y-19241614D01*
X15756586Y-19241614D01*
X15728014Y-19255900D01*
X15713728Y-19270186D01*
X16028014Y-19441614D02*
X15999443Y-19427329D01*
X15985157Y-19413043D01*
X15970871Y-19384472D01*
X15970871Y-19298757D01*
X15985157Y-19270186D01*
X15999443Y-19255900D01*
X16028014Y-19241614D01*
X16070871Y-19241614D01*
X16099443Y-19255900D01*
X16113728Y-19270186D01*
X16128014Y-19298757D01*
X16128014Y-19384472D01*
X16113728Y-19413043D01*
X16099443Y-19427329D01*
X16070871Y-19441614D01*
X16028014Y-19441614D01*
X16299443Y-19441614D02*
X16270871Y-19427329D01*
X16256586Y-19398757D01*
X16256586Y-19141614D01*
X16528014Y-19427329D02*
X16499443Y-19441614D01*
X16442300Y-19441614D01*
X16413728Y-19427329D01*
X16399443Y-19398757D01*
X16399443Y-19284472D01*
X16413728Y-19255900D01*
X16442300Y-19241614D01*
X16499443Y-19241614D01*
X16528014Y-19255900D01*
X16542300Y-19284472D01*
X16542300Y-19313043D01*
X16399443Y-19341614D01*
X16656586Y-19427329D02*
X16685157Y-19441614D01*
X16742300Y-19441614D01*
X16770871Y-19427329D01*
X16785157Y-19398757D01*
X16785157Y-19384472D01*
X16770871Y-19355900D01*
X16742300Y-19341614D01*
X16699443Y-19341614D01*
X16670871Y-19327329D01*
X16656586Y-19298757D01*
X16656586Y-19284472D01*
X16670871Y-19255900D01*
X16699443Y-19241614D01*
X16742300Y-19241614D01*
X16770871Y-19255900D01*
X16885157Y-19555900D02*
X16899443Y-19541614D01*
X16928014Y-19498757D01*
X16942300Y-19470186D01*
X16956586Y-19427329D01*
X16970871Y-19355900D01*
X16970871Y-19298757D01*
X16956586Y-19227329D01*
X16942300Y-19184472D01*
X16928014Y-19155900D01*
X16899443Y-19113043D01*
X16885157Y-19098757D01*
X9803869Y-19758469D02*
X9803869Y-19645331D01*
X9690731Y-19645331D01*
X9690731Y-19758469D01*
X9803869Y-19758469D01*
X10270871Y-19837614D02*
X10099443Y-19837614D01*
X10185157Y-19837614D02*
X10185157Y-19537614D01*
X10156586Y-19580472D01*
X10128014Y-19609043D01*
X10099443Y-19623329D01*
X10399443Y-19809043D02*
X10413728Y-19823329D01*
X10399443Y-19837614D01*
X10385157Y-19823329D01*
X10399443Y-19809043D01*
X10399443Y-19837614D01*
X10670871Y-19537614D02*
X10613728Y-19537614D01*
X10585157Y-19551900D01*
X10570871Y-19566186D01*
X10542300Y-19609043D01*
X10528014Y-19666186D01*
X10528014Y-19780472D01*
X10542300Y-19809043D01*
X10556586Y-19823329D01*
X10585157Y-19837614D01*
X10642300Y-19837614D01*
X10670871Y-19823329D01*
X10685157Y-19809043D01*
X10699443Y-19780472D01*
X10699443Y-19709043D01*
X10685157Y-19680472D01*
X10670871Y-19666186D01*
X10642300Y-19651900D01*
X10585157Y-19651900D01*
X10556586Y-19666186D01*
X10542300Y-19680472D01*
X10528014Y-19709043D01*
X10885157Y-19537614D02*
X10913728Y-19537614D01*
X10942300Y-19551900D01*
X10956586Y-19566186D01*
X10970871Y-19594757D01*
X10985157Y-19651900D01*
X10985157Y-19723329D01*
X10970871Y-19780472D01*
X10956586Y-19809043D01*
X10942300Y-19823329D01*
X10913728Y-19837614D01*
X10885157Y-19837614D01*
X10856586Y-19823329D01*
X10842300Y-19809043D01*
X10828014Y-19780472D01*
X10813728Y-19723329D01*
X10813728Y-19651900D01*
X10828014Y-19594757D01*
X10842300Y-19566186D01*
X10856586Y-19551900D01*
X10885157Y-19537614D01*
X11113728Y-19837614D02*
X11113728Y-19637614D01*
X11113728Y-19666186D02*
X11128014Y-19651900D01*
X11156586Y-19637614D01*
X11199443Y-19637614D01*
X11228014Y-19651900D01*
X11242300Y-19680472D01*
X11242300Y-19837614D01*
X11242300Y-19680472D02*
X11256586Y-19651900D01*
X11285157Y-19637614D01*
X11328014Y-19637614D01*
X11356586Y-19651900D01*
X11370871Y-19680472D01*
X11370871Y-19837614D01*
X11513728Y-19837614D02*
X11513728Y-19637614D01*
X11513728Y-19666186D02*
X11528014Y-19651900D01*
X11556586Y-19637614D01*
X11599443Y-19637614D01*
X11628014Y-19651900D01*
X11642300Y-19680472D01*
X11642300Y-19837614D01*
X11642300Y-19680472D02*
X11656586Y-19651900D01*
X11685157Y-19637614D01*
X11728014Y-19637614D01*
X11756586Y-19651900D01*
X11770871Y-19680472D01*
X11770871Y-19837614D01*
X12356586Y-19523329D02*
X12099443Y-19909043D01*
X12742300Y-19537614D02*
X12770871Y-19537614D01*
X12799443Y-19551900D01*
X12813728Y-19566186D01*
X12828014Y-19594757D01*
X12842300Y-19651900D01*
X12842300Y-19723329D01*
X12828014Y-19780472D01*
X12813728Y-19809043D01*
X12799443Y-19823329D01*
X12770871Y-19837614D01*
X12742300Y-19837614D01*
X12713728Y-19823329D01*
X12699443Y-19809043D01*
X12685157Y-19780472D01*
X12670871Y-19723329D01*
X12670871Y-19651900D01*
X12685157Y-19594757D01*
X12699443Y-19566186D01*
X12713728Y-19551900D01*
X12742300Y-19537614D01*
X12970871Y-19809043D02*
X12985157Y-19823329D01*
X12970871Y-19837614D01*
X12956586Y-19823329D01*
X12970871Y-19809043D01*
X12970871Y-19837614D01*
X13170871Y-19537614D02*
X13199443Y-19537614D01*
X13228014Y-19551900D01*
X13242300Y-19566186D01*
X13256586Y-19594757D01*
X13270871Y-19651900D01*
X13270871Y-19723329D01*
X13256586Y-19780472D01*
X13242300Y-19809043D01*
X13228014Y-19823329D01*
X13199443Y-19837614D01*
X13170871Y-19837614D01*
X13142300Y-19823329D01*
X13128014Y-19809043D01*
X13113728Y-19780472D01*
X13099443Y-19723329D01*
X13099443Y-19651900D01*
X13113728Y-19594757D01*
X13128014Y-19566186D01*
X13142300Y-19551900D01*
X13170871Y-19537614D01*
X13528014Y-19537614D02*
X13470871Y-19537614D01*
X13442300Y-19551900D01*
X13428014Y-19566186D01*
X13399443Y-19609043D01*
X13385157Y-19666186D01*
X13385157Y-19780472D01*
X13399443Y-19809043D01*
X13413728Y-19823329D01*
X13442300Y-19837614D01*
X13499443Y-19837614D01*
X13528014Y-19823329D01*
X13542300Y-19809043D01*
X13556586Y-19780472D01*
X13556586Y-19709043D01*
X13542300Y-19680472D01*
X13528014Y-19666186D01*
X13499443Y-19651900D01*
X13442300Y-19651900D01*
X13413728Y-19666186D01*
X13399443Y-19680472D01*
X13385157Y-19709043D01*
X13656586Y-19537614D02*
X13842300Y-19537614D01*
X13742300Y-19651900D01*
X13785157Y-19651900D01*
X13813728Y-19666186D01*
X13828014Y-19680472D01*
X13842300Y-19709043D01*
X13842300Y-19780472D01*
X13828014Y-19809043D01*
X13813728Y-19823329D01*
X13785157Y-19837614D01*
X13699443Y-19837614D01*
X13670871Y-19823329D01*
X13656586Y-19809043D01*
X13956586Y-19537614D02*
X13956586Y-19594757D01*
X14070871Y-19537614D02*
X14070871Y-19594757D01*
X14513728Y-19951900D02*
X14499443Y-19937614D01*
X14470871Y-19894757D01*
X14456586Y-19866186D01*
X14442300Y-19823329D01*
X14428014Y-19751900D01*
X14428014Y-19694757D01*
X14442300Y-19623329D01*
X14456586Y-19580472D01*
X14470871Y-19551900D01*
X14499443Y-19509043D01*
X14513728Y-19494757D01*
X14756586Y-19637614D02*
X14756586Y-19837614D01*
X14685157Y-19523329D02*
X14613728Y-19737614D01*
X14799443Y-19737614D01*
X15142300Y-19837614D02*
X15142300Y-19537614D01*
X15270871Y-19837614D02*
X15270871Y-19680472D01*
X15256586Y-19651900D01*
X15228014Y-19637614D01*
X15185157Y-19637614D01*
X15156586Y-19651900D01*
X15142300Y-19666186D01*
X15456586Y-19837614D02*
X15428014Y-19823329D01*
X15413728Y-19809043D01*
X15399443Y-19780472D01*
X15399443Y-19694757D01*
X15413728Y-19666186D01*
X15428014Y-19651900D01*
X15456586Y-19637614D01*
X15499443Y-19637614D01*
X15528014Y-19651900D01*
X15542300Y-19666186D01*
X15556586Y-19694757D01*
X15556586Y-19780472D01*
X15542300Y-19809043D01*
X15528014Y-19823329D01*
X15499443Y-19837614D01*
X15456586Y-19837614D01*
X15728014Y-19837614D02*
X15699443Y-19823329D01*
X15685157Y-19794757D01*
X15685157Y-19537614D01*
X15956586Y-19823329D02*
X15928014Y-19837614D01*
X15870871Y-19837614D01*
X15842300Y-19823329D01*
X15828014Y-19794757D01*
X15828014Y-19680472D01*
X15842300Y-19651900D01*
X15870871Y-19637614D01*
X15928014Y-19637614D01*
X15956586Y-19651900D01*
X15970871Y-19680472D01*
X15970871Y-19709043D01*
X15828014Y-19737614D01*
X16085157Y-19823329D02*
X16113728Y-19837614D01*
X16170871Y-19837614D01*
X16199443Y-19823329D01*
X16213728Y-19794757D01*
X16213728Y-19780472D01*
X16199443Y-19751900D01*
X16170871Y-19737614D01*
X16128014Y-19737614D01*
X16099443Y-19723329D01*
X16085157Y-19694757D01*
X16085157Y-19680472D01*
X16099443Y-19651900D01*
X16128014Y-19637614D01*
X16170871Y-19637614D01*
X16199443Y-19651900D01*
X16313728Y-19951900D02*
X16328014Y-19937614D01*
X16356586Y-19894757D01*
X16370871Y-19866186D01*
X16385157Y-19823329D01*
X16399443Y-19751900D01*
X16399443Y-19694757D01*
X16385157Y-19623329D01*
X16370871Y-19580472D01*
X16356586Y-19551900D01*
X16328014Y-19509043D01*
X16313728Y-19494757D01*
X9700300Y-20224900D02*
X9827300Y-20097900D01*
X9700300Y-19970900D01*
X9573300Y-20097900D01*
X9700300Y-20224900D01*
X10099443Y-19962186D02*
X10113728Y-19947900D01*
X10142300Y-19933614D01*
X10213728Y-19933614D01*
X10242300Y-19947900D01*
X10256586Y-19962186D01*
X10270871Y-19990757D01*
X10270871Y-20019329D01*
X10256586Y-20062186D01*
X10085157Y-20233614D01*
X10270871Y-20233614D01*
X10399443Y-20205043D02*
X10413728Y-20219329D01*
X10399443Y-20233614D01*
X10385157Y-20219329D01*
X10399443Y-20205043D01*
X10399443Y-20233614D01*
X10685157Y-19933614D02*
X10542300Y-19933614D01*
X10528014Y-20076472D01*
X10542300Y-20062186D01*
X10570871Y-20047900D01*
X10642300Y-20047900D01*
X10670871Y-20062186D01*
X10685157Y-20076472D01*
X10699443Y-20105043D01*
X10699443Y-20176472D01*
X10685157Y-20205043D01*
X10670871Y-20219329D01*
X10642300Y-20233614D01*
X10570871Y-20233614D01*
X10542300Y-20219329D01*
X10528014Y-20205043D01*
X10956586Y-20033614D02*
X10956586Y-20233614D01*
X10885157Y-19919329D02*
X10813728Y-20133614D01*
X10999443Y-20133614D01*
X11113728Y-20233614D02*
X11113728Y-20033614D01*
X11113728Y-20062186D02*
X11128014Y-20047900D01*
X11156586Y-20033614D01*
X11199443Y-20033614D01*
X11228014Y-20047900D01*
X11242300Y-20076472D01*
X11242300Y-20233614D01*
X11242300Y-20076472D02*
X11256586Y-20047900D01*
X11285157Y-20033614D01*
X11328014Y-20033614D01*
X11356586Y-20047900D01*
X11370871Y-20076472D01*
X11370871Y-20233614D01*
X11513728Y-20233614D02*
X11513728Y-20033614D01*
X11513728Y-20062186D02*
X11528014Y-20047900D01*
X11556586Y-20033614D01*
X11599443Y-20033614D01*
X11628014Y-20047900D01*
X11642300Y-20076472D01*
X11642300Y-20233614D01*
X11642300Y-20076472D02*
X11656586Y-20047900D01*
X11685157Y-20033614D01*
X11728014Y-20033614D01*
X11756586Y-20047900D01*
X11770871Y-20076472D01*
X11770871Y-20233614D01*
X12356586Y-19919329D02*
X12099443Y-20305043D01*
X12742300Y-19933614D02*
X12770871Y-19933614D01*
X12799443Y-19947900D01*
X12813728Y-19962186D01*
X12828014Y-19990757D01*
X12842300Y-20047900D01*
X12842300Y-20119329D01*
X12828014Y-20176472D01*
X12813728Y-20205043D01*
X12799443Y-20219329D01*
X12770871Y-20233614D01*
X12742300Y-20233614D01*
X12713728Y-20219329D01*
X12699443Y-20205043D01*
X12685157Y-20176472D01*
X12670871Y-20119329D01*
X12670871Y-20047900D01*
X12685157Y-19990757D01*
X12699443Y-19962186D01*
X12713728Y-19947900D01*
X12742300Y-19933614D01*
X12970871Y-20205043D02*
X12985157Y-20219329D01*
X12970871Y-20233614D01*
X12956586Y-20219329D01*
X12970871Y-20205043D01*
X12970871Y-20233614D01*
X13270871Y-20233614D02*
X13099443Y-20233614D01*
X13185157Y-20233614D02*
X13185157Y-19933614D01*
X13156586Y-19976472D01*
X13128014Y-20005043D01*
X13099443Y-20019329D01*
X13456586Y-19933614D02*
X13485157Y-19933614D01*
X13513728Y-19947900D01*
X13528014Y-19962186D01*
X13542300Y-19990757D01*
X13556586Y-20047900D01*
X13556586Y-20119329D01*
X13542300Y-20176472D01*
X13528014Y-20205043D01*
X13513728Y-20219329D01*
X13485157Y-20233614D01*
X13456586Y-20233614D01*
X13428014Y-20219329D01*
X13413728Y-20205043D01*
X13399443Y-20176472D01*
X13385157Y-20119329D01*
X13385157Y-20047900D01*
X13399443Y-19990757D01*
X13413728Y-19962186D01*
X13428014Y-19947900D01*
X13456586Y-19933614D01*
X13742300Y-19933614D02*
X13770871Y-19933614D01*
X13799443Y-19947900D01*
X13813728Y-19962186D01*
X13828014Y-19990757D01*
X13842300Y-20047900D01*
X13842300Y-20119329D01*
X13828014Y-20176472D01*
X13813728Y-20205043D01*
X13799443Y-20219329D01*
X13770871Y-20233614D01*
X13742300Y-20233614D01*
X13713728Y-20219329D01*
X13699443Y-20205043D01*
X13685157Y-20176472D01*
X13670871Y-20119329D01*
X13670871Y-20047900D01*
X13685157Y-19990757D01*
X13699443Y-19962186D01*
X13713728Y-19947900D01*
X13742300Y-19933614D01*
X13956586Y-19933614D02*
X13956586Y-19990757D01*
X14070871Y-19933614D02*
X14070871Y-19990757D01*
X14513728Y-20347900D02*
X14499443Y-20333614D01*
X14470871Y-20290757D01*
X14456586Y-20262186D01*
X14442300Y-20219329D01*
X14428014Y-20147900D01*
X14428014Y-20090757D01*
X14442300Y-20019329D01*
X14456586Y-19976472D01*
X14470871Y-19947900D01*
X14499443Y-19905043D01*
X14513728Y-19890757D01*
X14613728Y-19962186D02*
X14628014Y-19947900D01*
X14656586Y-19933614D01*
X14728014Y-19933614D01*
X14756586Y-19947900D01*
X14770871Y-19962186D01*
X14785157Y-19990757D01*
X14785157Y-20019329D01*
X14770871Y-20062186D01*
X14599443Y-20233614D01*
X14785157Y-20233614D01*
X15142300Y-20233614D02*
X15142300Y-19933614D01*
X15270871Y-20233614D02*
X15270871Y-20076472D01*
X15256586Y-20047900D01*
X15228014Y-20033614D01*
X15185157Y-20033614D01*
X15156586Y-20047900D01*
X15142300Y-20062186D01*
X15456586Y-20233614D02*
X15428014Y-20219329D01*
X15413728Y-20205043D01*
X15399443Y-20176472D01*
X15399443Y-20090757D01*
X15413728Y-20062186D01*
X15428014Y-20047900D01*
X15456586Y-20033614D01*
X15499443Y-20033614D01*
X15528014Y-20047900D01*
X15542300Y-20062186D01*
X15556586Y-20090757D01*
X15556586Y-20176472D01*
X15542300Y-20205043D01*
X15528014Y-20219329D01*
X15499443Y-20233614D01*
X15456586Y-20233614D01*
X15728014Y-20233614D02*
X15699443Y-20219329D01*
X15685157Y-20190757D01*
X15685157Y-19933614D01*
X15956586Y-20219329D02*
X15928014Y-20233614D01*
X15870871Y-20233614D01*
X15842300Y-20219329D01*
X15828014Y-20190757D01*
X15828014Y-20076472D01*
X15842300Y-20047900D01*
X15870871Y-20033614D01*
X15928014Y-20033614D01*
X15956586Y-20047900D01*
X15970871Y-20076472D01*
X15970871Y-20105043D01*
X15828014Y-20133614D01*
X16085157Y-20219329D02*
X16113728Y-20233614D01*
X16170871Y-20233614D01*
X16199443Y-20219329D01*
X16213728Y-20190757D01*
X16213728Y-20176472D01*
X16199443Y-20147900D01*
X16170871Y-20133614D01*
X16128014Y-20133614D01*
X16099443Y-20119329D01*
X16085157Y-20090757D01*
X16085157Y-20076472D01*
X16099443Y-20047900D01*
X16128014Y-20033614D01*
X16170871Y-20033614D01*
X16199443Y-20047900D01*
X16313728Y-20347900D02*
X16328014Y-20333614D01*
X16356586Y-20290757D01*
X16370871Y-20262186D01*
X16385157Y-20219329D01*
X16399443Y-20147900D01*
X16399443Y-20090757D01*
X16385157Y-20019329D01*
X16370871Y-19976472D01*
X16356586Y-19947900D01*
X16328014Y-19905043D01*
X16313728Y-19890757D01*
X9428300Y-20294400D02*
X9827300Y-20693400D01*
X9827300Y-20294400D02*
X9428300Y-20693400D01*
X9827300Y-20493900D02*
G75*
G03*
X9827300Y-20493900I-199500J0D01*
G01*
X10085157Y-20329614D02*
X10270871Y-20329614D01*
X10170871Y-20443900D01*
X10213728Y-20443900D01*
X10242300Y-20458186D01*
X10256586Y-20472472D01*
X10270871Y-20501043D01*
X10270871Y-20572472D01*
X10256586Y-20601043D01*
X10242300Y-20615329D01*
X10213728Y-20629614D01*
X10128014Y-20629614D01*
X10099443Y-20615329D01*
X10085157Y-20601043D01*
X10399443Y-20601043D02*
X10413728Y-20615329D01*
X10399443Y-20629614D01*
X10385157Y-20615329D01*
X10399443Y-20601043D01*
X10399443Y-20629614D01*
X10556586Y-20629614D02*
X10613728Y-20629614D01*
X10642300Y-20615329D01*
X10656586Y-20601043D01*
X10685157Y-20558186D01*
X10699443Y-20501043D01*
X10699443Y-20386757D01*
X10685157Y-20358186D01*
X10670871Y-20343900D01*
X10642300Y-20329614D01*
X10585157Y-20329614D01*
X10556586Y-20343900D01*
X10542300Y-20358186D01*
X10528014Y-20386757D01*
X10528014Y-20458186D01*
X10542300Y-20486757D01*
X10556586Y-20501043D01*
X10585157Y-20515329D01*
X10642300Y-20515329D01*
X10670871Y-20501043D01*
X10685157Y-20486757D01*
X10699443Y-20458186D01*
X10842300Y-20629614D02*
X10899443Y-20629614D01*
X10928014Y-20615329D01*
X10942300Y-20601043D01*
X10970871Y-20558186D01*
X10985157Y-20501043D01*
X10985157Y-20386757D01*
X10970871Y-20358186D01*
X10956586Y-20343900D01*
X10928014Y-20329614D01*
X10870871Y-20329614D01*
X10842300Y-20343900D01*
X10828014Y-20358186D01*
X10813728Y-20386757D01*
X10813728Y-20458186D01*
X10828014Y-20486757D01*
X10842300Y-20501043D01*
X10870871Y-20515329D01*
X10928014Y-20515329D01*
X10956586Y-20501043D01*
X10970871Y-20486757D01*
X10985157Y-20458186D01*
X11113728Y-20629614D02*
X11113728Y-20429614D01*
X11113728Y-20458186D02*
X11128014Y-20443900D01*
X11156586Y-20429614D01*
X11199443Y-20429614D01*
X11228014Y-20443900D01*
X11242300Y-20472472D01*
X11242300Y-20629614D01*
X11242300Y-20472472D02*
X11256586Y-20443900D01*
X11285157Y-20429614D01*
X11328014Y-20429614D01*
X11356586Y-20443900D01*
X11370871Y-20472472D01*
X11370871Y-20629614D01*
X11513728Y-20629614D02*
X11513728Y-20429614D01*
X11513728Y-20458186D02*
X11528014Y-20443900D01*
X11556586Y-20429614D01*
X11599443Y-20429614D01*
X11628014Y-20443900D01*
X11642300Y-20472472D01*
X11642300Y-20629614D01*
X11642300Y-20472472D02*
X11656586Y-20443900D01*
X11685157Y-20429614D01*
X11728014Y-20429614D01*
X11756586Y-20443900D01*
X11770871Y-20472472D01*
X11770871Y-20629614D01*
X12356586Y-20315329D02*
X12099443Y-20701043D01*
X12742300Y-20329614D02*
X12770871Y-20329614D01*
X12799443Y-20343900D01*
X12813728Y-20358186D01*
X12828014Y-20386757D01*
X12842300Y-20443900D01*
X12842300Y-20515329D01*
X12828014Y-20572472D01*
X12813728Y-20601043D01*
X12799443Y-20615329D01*
X12770871Y-20629614D01*
X12742300Y-20629614D01*
X12713728Y-20615329D01*
X12699443Y-20601043D01*
X12685157Y-20572472D01*
X12670871Y-20515329D01*
X12670871Y-20443900D01*
X12685157Y-20386757D01*
X12699443Y-20358186D01*
X12713728Y-20343900D01*
X12742300Y-20329614D01*
X12970871Y-20601043D02*
X12985157Y-20615329D01*
X12970871Y-20629614D01*
X12956586Y-20615329D01*
X12970871Y-20601043D01*
X12970871Y-20629614D01*
X13270871Y-20629614D02*
X13099443Y-20629614D01*
X13185157Y-20629614D02*
X13185157Y-20329614D01*
X13156586Y-20372472D01*
X13128014Y-20401043D01*
X13099443Y-20415329D01*
X13542300Y-20329614D02*
X13399443Y-20329614D01*
X13385157Y-20472472D01*
X13399443Y-20458186D01*
X13428014Y-20443900D01*
X13499443Y-20443900D01*
X13528014Y-20458186D01*
X13542300Y-20472472D01*
X13556586Y-20501043D01*
X13556586Y-20572472D01*
X13542300Y-20601043D01*
X13528014Y-20615329D01*
X13499443Y-20629614D01*
X13428014Y-20629614D01*
X13399443Y-20615329D01*
X13385157Y-20601043D01*
X13656586Y-20329614D02*
X13856586Y-20329614D01*
X13728014Y-20629614D01*
X13956586Y-20329614D02*
X13956586Y-20386757D01*
X14070871Y-20329614D02*
X14070871Y-20386757D01*
X14513728Y-20743900D02*
X14499443Y-20729614D01*
X14470871Y-20686757D01*
X14456586Y-20658186D01*
X14442300Y-20615329D01*
X14428014Y-20543900D01*
X14428014Y-20486757D01*
X14442300Y-20415329D01*
X14456586Y-20372472D01*
X14470871Y-20343900D01*
X14499443Y-20301043D01*
X14513728Y-20286757D01*
X14613728Y-20358186D02*
X14628014Y-20343900D01*
X14656586Y-20329614D01*
X14728014Y-20329614D01*
X14756586Y-20343900D01*
X14770871Y-20358186D01*
X14785157Y-20386757D01*
X14785157Y-20415329D01*
X14770871Y-20458186D01*
X14599443Y-20629614D01*
X14785157Y-20629614D01*
X15142300Y-20629614D02*
X15142300Y-20329614D01*
X15270871Y-20629614D02*
X15270871Y-20472472D01*
X15256586Y-20443900D01*
X15228014Y-20429614D01*
X15185157Y-20429614D01*
X15156586Y-20443900D01*
X15142300Y-20458186D01*
X15456586Y-20629614D02*
X15428014Y-20615329D01*
X15413728Y-20601043D01*
X15399443Y-20572472D01*
X15399443Y-20486757D01*
X15413728Y-20458186D01*
X15428014Y-20443900D01*
X15456586Y-20429614D01*
X15499443Y-20429614D01*
X15528014Y-20443900D01*
X15542300Y-20458186D01*
X15556586Y-20486757D01*
X15556586Y-20572472D01*
X15542300Y-20601043D01*
X15528014Y-20615329D01*
X15499443Y-20629614D01*
X15456586Y-20629614D01*
X15728014Y-20629614D02*
X15699443Y-20615329D01*
X15685157Y-20586757D01*
X15685157Y-20329614D01*
X15956586Y-20615329D02*
X15928014Y-20629614D01*
X15870871Y-20629614D01*
X15842300Y-20615329D01*
X15828014Y-20586757D01*
X15828014Y-20472472D01*
X15842300Y-20443900D01*
X15870871Y-20429614D01*
X15928014Y-20429614D01*
X15956586Y-20443900D01*
X15970871Y-20472472D01*
X15970871Y-20501043D01*
X15828014Y-20529614D01*
X16085157Y-20615329D02*
X16113728Y-20629614D01*
X16170871Y-20629614D01*
X16199443Y-20615329D01*
X16213728Y-20586757D01*
X16213728Y-20572472D01*
X16199443Y-20543900D01*
X16170871Y-20529614D01*
X16128014Y-20529614D01*
X16099443Y-20515329D01*
X16085157Y-20486757D01*
X16085157Y-20472472D01*
X16099443Y-20443900D01*
X16128014Y-20429614D01*
X16170871Y-20429614D01*
X16199443Y-20443900D01*
X16313728Y-20743900D02*
X16328014Y-20729614D01*
X16356586Y-20686757D01*
X16370871Y-20658186D01*
X16385157Y-20615329D01*
X16399443Y-20543900D01*
X16399443Y-20486757D01*
X16385157Y-20415329D01*
X16370871Y-20372472D01*
X16356586Y-20343900D01*
X16328014Y-20301043D01*
X16313728Y-20286757D01*
X9397300Y-20807900D02*
X9827300Y-21237900D01*
X9827300Y-20807900D02*
X9397300Y-21237900D01*
X9612300Y-20807900D02*
X9612300Y-21237900D01*
X9397300Y-21022900D02*
X9827300Y-21022900D01*
X10242300Y-20958614D02*
X10242300Y-21158614D01*
X10170871Y-20844329D02*
X10099443Y-21058614D01*
X10285157Y-21058614D01*
X10399443Y-21130043D02*
X10413728Y-21144329D01*
X10399443Y-21158614D01*
X10385157Y-21144329D01*
X10399443Y-21130043D01*
X10399443Y-21158614D01*
X10513728Y-20858614D02*
X10699443Y-20858614D01*
X10599443Y-20972900D01*
X10642300Y-20972900D01*
X10670871Y-20987186D01*
X10685157Y-21001472D01*
X10699443Y-21030043D01*
X10699443Y-21101472D01*
X10685157Y-21130043D01*
X10670871Y-21144329D01*
X10642300Y-21158614D01*
X10556586Y-21158614D01*
X10528014Y-21144329D01*
X10513728Y-21130043D01*
X10885157Y-20858614D02*
X10913728Y-20858614D01*
X10942300Y-20872900D01*
X10956586Y-20887186D01*
X10970871Y-20915757D01*
X10985157Y-20972900D01*
X10985157Y-21044329D01*
X10970871Y-21101472D01*
X10956586Y-21130043D01*
X10942300Y-21144329D01*
X10913728Y-21158614D01*
X10885157Y-21158614D01*
X10856586Y-21144329D01*
X10842300Y-21130043D01*
X10828014Y-21101472D01*
X10813728Y-21044329D01*
X10813728Y-20972900D01*
X10828014Y-20915757D01*
X10842300Y-20887186D01*
X10856586Y-20872900D01*
X10885157Y-20858614D01*
X11113728Y-21158614D02*
X11113728Y-20958614D01*
X11113728Y-20987186D02*
X11128014Y-20972900D01*
X11156586Y-20958614D01*
X11199443Y-20958614D01*
X11228014Y-20972900D01*
X11242300Y-21001472D01*
X11242300Y-21158614D01*
X11242300Y-21001472D02*
X11256586Y-20972900D01*
X11285157Y-20958614D01*
X11328014Y-20958614D01*
X11356586Y-20972900D01*
X11370871Y-21001472D01*
X11370871Y-21158614D01*
X11513728Y-21158614D02*
X11513728Y-20958614D01*
X11513728Y-20987186D02*
X11528014Y-20972900D01*
X11556586Y-20958614D01*
X11599443Y-20958614D01*
X11628014Y-20972900D01*
X11642300Y-21001472D01*
X11642300Y-21158614D01*
X11642300Y-21001472D02*
X11656586Y-20972900D01*
X11685157Y-20958614D01*
X11728014Y-20958614D01*
X11756586Y-20972900D01*
X11770871Y-21001472D01*
X11770871Y-21158614D01*
X12356586Y-20844329D02*
X12099443Y-21230043D01*
X12742300Y-20858614D02*
X12770871Y-20858614D01*
X12799443Y-20872900D01*
X12813728Y-20887186D01*
X12828014Y-20915757D01*
X12842300Y-20972900D01*
X12842300Y-21044329D01*
X12828014Y-21101472D01*
X12813728Y-21130043D01*
X12799443Y-21144329D01*
X12770871Y-21158614D01*
X12742300Y-21158614D01*
X12713728Y-21144329D01*
X12699443Y-21130043D01*
X12685157Y-21101472D01*
X12670871Y-21044329D01*
X12670871Y-20972900D01*
X12685157Y-20915757D01*
X12699443Y-20887186D01*
X12713728Y-20872900D01*
X12742300Y-20858614D01*
X12970871Y-21130043D02*
X12985157Y-21144329D01*
X12970871Y-21158614D01*
X12956586Y-21144329D01*
X12970871Y-21130043D01*
X12970871Y-21158614D01*
X13270871Y-21158614D02*
X13099443Y-21158614D01*
X13185157Y-21158614D02*
X13185157Y-20858614D01*
X13156586Y-20901472D01*
X13128014Y-20930043D01*
X13099443Y-20944329D01*
X13528014Y-20858614D02*
X13470871Y-20858614D01*
X13442300Y-20872900D01*
X13428014Y-20887186D01*
X13399443Y-20930043D01*
X13385157Y-20987186D01*
X13385157Y-21101472D01*
X13399443Y-21130043D01*
X13413728Y-21144329D01*
X13442300Y-21158614D01*
X13499443Y-21158614D01*
X13528014Y-21144329D01*
X13542300Y-21130043D01*
X13556586Y-21101472D01*
X13556586Y-21030043D01*
X13542300Y-21001472D01*
X13528014Y-20987186D01*
X13499443Y-20972900D01*
X13442300Y-20972900D01*
X13413728Y-20987186D01*
X13399443Y-21001472D01*
X13385157Y-21030043D01*
X13699443Y-21158614D02*
X13756586Y-21158614D01*
X13785157Y-21144329D01*
X13799443Y-21130043D01*
X13828014Y-21087186D01*
X13842300Y-21030043D01*
X13842300Y-20915757D01*
X13828014Y-20887186D01*
X13813728Y-20872900D01*
X13785157Y-20858614D01*
X13728014Y-20858614D01*
X13699443Y-20872900D01*
X13685157Y-20887186D01*
X13670871Y-20915757D01*
X13670871Y-20987186D01*
X13685157Y-21015757D01*
X13699443Y-21030043D01*
X13728014Y-21044329D01*
X13785157Y-21044329D01*
X13813728Y-21030043D01*
X13828014Y-21015757D01*
X13842300Y-20987186D01*
X13956586Y-20858614D02*
X13956586Y-20915757D01*
X14070871Y-20858614D02*
X14070871Y-20915757D01*
X14513728Y-21272900D02*
X14499443Y-21258614D01*
X14470871Y-21215757D01*
X14456586Y-21187186D01*
X14442300Y-21144329D01*
X14428014Y-21072900D01*
X14428014Y-21015757D01*
X14442300Y-20944329D01*
X14456586Y-20901472D01*
X14470871Y-20872900D01*
X14499443Y-20830043D01*
X14513728Y-20815757D01*
X14756586Y-20958614D02*
X14756586Y-21158614D01*
X14685157Y-20844329D02*
X14613728Y-21058614D01*
X14799443Y-21058614D01*
X15142300Y-21158614D02*
X15142300Y-20858614D01*
X15270871Y-21158614D02*
X15270871Y-21001472D01*
X15256586Y-20972900D01*
X15228014Y-20958614D01*
X15185157Y-20958614D01*
X15156586Y-20972900D01*
X15142300Y-20987186D01*
X15456586Y-21158614D02*
X15428014Y-21144329D01*
X15413728Y-21130043D01*
X15399443Y-21101472D01*
X15399443Y-21015757D01*
X15413728Y-20987186D01*
X15428014Y-20972900D01*
X15456586Y-20958614D01*
X15499443Y-20958614D01*
X15528014Y-20972900D01*
X15542300Y-20987186D01*
X15556586Y-21015757D01*
X15556586Y-21101472D01*
X15542300Y-21130043D01*
X15528014Y-21144329D01*
X15499443Y-21158614D01*
X15456586Y-21158614D01*
X15728014Y-21158614D02*
X15699443Y-21144329D01*
X15685157Y-21115757D01*
X15685157Y-20858614D01*
X15956586Y-21144329D02*
X15928014Y-21158614D01*
X15870871Y-21158614D01*
X15842300Y-21144329D01*
X15828014Y-21115757D01*
X15828014Y-21001472D01*
X15842300Y-20972900D01*
X15870871Y-20958614D01*
X15928014Y-20958614D01*
X15956586Y-20972900D01*
X15970871Y-21001472D01*
X15970871Y-21030043D01*
X15828014Y-21058614D01*
X16085157Y-21144329D02*
X16113728Y-21158614D01*
X16170871Y-21158614D01*
X16199443Y-21144329D01*
X16213728Y-21115757D01*
X16213728Y-21101472D01*
X16199443Y-21072900D01*
X16170871Y-21058614D01*
X16128014Y-21058614D01*
X16099443Y-21044329D01*
X16085157Y-21015757D01*
X16085157Y-21001472D01*
X16099443Y-20972900D01*
X16128014Y-20958614D01*
X16170871Y-20958614D01*
X16199443Y-20972900D01*
X16313728Y-21272900D02*
X16328014Y-21258614D01*
X16356586Y-21215757D01*
X16370871Y-21187186D01*
X16385157Y-21144329D01*
X16399443Y-21072900D01*
X16399443Y-21015757D01*
X16385157Y-20944329D01*
X16370871Y-20901472D01*
X16356586Y-20872900D01*
X16328014Y-20830043D01*
X16313728Y-20815757D01*
X9717300Y-21527900D02*
X9827300Y-21637900D01*
X9827300Y-21527900D02*
X9717300Y-21637900D01*
X9811191Y-21621791D02*
X9811191Y-21544009D01*
X9733409Y-21544009D01*
X9733409Y-21621791D01*
X9811191Y-21621791D01*
X10270871Y-21718614D02*
X10099443Y-21718614D01*
X10185157Y-21718614D02*
X10185157Y-21418614D01*
X10156586Y-21461472D01*
X10128014Y-21490043D01*
X10099443Y-21504329D01*
X10399443Y-21690043D02*
X10413728Y-21704329D01*
X10399443Y-21718614D01*
X10385157Y-21704329D01*
X10399443Y-21690043D01*
X10399443Y-21718614D01*
X10699443Y-21718614D02*
X10528014Y-21718614D01*
X10613728Y-21718614D02*
X10613728Y-21418614D01*
X10585157Y-21461472D01*
X10556586Y-21490043D01*
X10528014Y-21504329D01*
X10885157Y-21418614D02*
X10913728Y-21418614D01*
X10942300Y-21432900D01*
X10956586Y-21447186D01*
X10970871Y-21475757D01*
X10985157Y-21532900D01*
X10985157Y-21604329D01*
X10970871Y-21661472D01*
X10956586Y-21690043D01*
X10942300Y-21704329D01*
X10913728Y-21718614D01*
X10885157Y-21718614D01*
X10856586Y-21704329D01*
X10842300Y-21690043D01*
X10828014Y-21661472D01*
X10813728Y-21604329D01*
X10813728Y-21532900D01*
X10828014Y-21475757D01*
X10842300Y-21447186D01*
X10856586Y-21432900D01*
X10885157Y-21418614D01*
X11113728Y-21718614D02*
X11113728Y-21518614D01*
X11113728Y-21547186D02*
X11128014Y-21532900D01*
X11156586Y-21518614D01*
X11199443Y-21518614D01*
X11228014Y-21532900D01*
X11242300Y-21561472D01*
X11242300Y-21718614D01*
X11242300Y-21561472D02*
X11256586Y-21532900D01*
X11285157Y-21518614D01*
X11328014Y-21518614D01*
X11356586Y-21532900D01*
X11370871Y-21561472D01*
X11370871Y-21718614D01*
X11513728Y-21718614D02*
X11513728Y-21518614D01*
X11513728Y-21547186D02*
X11528014Y-21532900D01*
X11556586Y-21518614D01*
X11599443Y-21518614D01*
X11628014Y-21532900D01*
X11642300Y-21561472D01*
X11642300Y-21718614D01*
X11642300Y-21561472D02*
X11656586Y-21532900D01*
X11685157Y-21518614D01*
X11728014Y-21518614D01*
X11756586Y-21532900D01*
X11770871Y-21561472D01*
X11770871Y-21718614D01*
X12356586Y-21404329D02*
X12099443Y-21790043D01*
X12742300Y-21418614D02*
X12770871Y-21418614D01*
X12799443Y-21432900D01*
X12813728Y-21447186D01*
X12828014Y-21475757D01*
X12842300Y-21532900D01*
X12842300Y-21604329D01*
X12828014Y-21661472D01*
X12813728Y-21690043D01*
X12799443Y-21704329D01*
X12770871Y-21718614D01*
X12742300Y-21718614D01*
X12713728Y-21704329D01*
X12699443Y-21690043D01*
X12685157Y-21661472D01*
X12670871Y-21604329D01*
X12670871Y-21532900D01*
X12685157Y-21475757D01*
X12699443Y-21447186D01*
X12713728Y-21432900D01*
X12742300Y-21418614D01*
X12970871Y-21690043D02*
X12985157Y-21704329D01*
X12970871Y-21718614D01*
X12956586Y-21704329D01*
X12970871Y-21690043D01*
X12970871Y-21718614D01*
X13170871Y-21418614D02*
X13199443Y-21418614D01*
X13228014Y-21432900D01*
X13242300Y-21447186D01*
X13256586Y-21475757D01*
X13270871Y-21532900D01*
X13270871Y-21604329D01*
X13256586Y-21661472D01*
X13242300Y-21690043D01*
X13228014Y-21704329D01*
X13199443Y-21718614D01*
X13170871Y-21718614D01*
X13142300Y-21704329D01*
X13128014Y-21690043D01*
X13113728Y-21661472D01*
X13099443Y-21604329D01*
X13099443Y-21532900D01*
X13113728Y-21475757D01*
X13128014Y-21447186D01*
X13142300Y-21432900D01*
X13170871Y-21418614D01*
X13528014Y-21518614D02*
X13528014Y-21718614D01*
X13456586Y-21404329D02*
X13385157Y-21618614D01*
X13570871Y-21618614D01*
X13656586Y-21418614D02*
X13842300Y-21418614D01*
X13742300Y-21532900D01*
X13785157Y-21532900D01*
X13813728Y-21547186D01*
X13828014Y-21561472D01*
X13842300Y-21590043D01*
X13842300Y-21661472D01*
X13828014Y-21690043D01*
X13813728Y-21704329D01*
X13785157Y-21718614D01*
X13699443Y-21718614D01*
X13670871Y-21704329D01*
X13656586Y-21690043D01*
X13956586Y-21418614D02*
X13956586Y-21475757D01*
X14070871Y-21418614D02*
X14070871Y-21475757D01*
X14513728Y-21832900D02*
X14499443Y-21818614D01*
X14470871Y-21775757D01*
X14456586Y-21747186D01*
X14442300Y-21704329D01*
X14428014Y-21632900D01*
X14428014Y-21575757D01*
X14442300Y-21504329D01*
X14456586Y-21461472D01*
X14470871Y-21432900D01*
X14499443Y-21390043D01*
X14513728Y-21375757D01*
X14756586Y-21518614D02*
X14756586Y-21718614D01*
X14685157Y-21404329D02*
X14613728Y-21618614D01*
X14799443Y-21618614D01*
X14970871Y-21418614D02*
X14999443Y-21418614D01*
X15028014Y-21432900D01*
X15042300Y-21447186D01*
X15056586Y-21475757D01*
X15070871Y-21532900D01*
X15070871Y-21604329D01*
X15056586Y-21661472D01*
X15042300Y-21690043D01*
X15028014Y-21704329D01*
X14999443Y-21718614D01*
X14970871Y-21718614D01*
X14942300Y-21704329D01*
X14928014Y-21690043D01*
X14913728Y-21661472D01*
X14899443Y-21604329D01*
X14899443Y-21532900D01*
X14913728Y-21475757D01*
X14928014Y-21447186D01*
X14942300Y-21432900D01*
X14970871Y-21418614D01*
X15428014Y-21718614D02*
X15428014Y-21418614D01*
X15556586Y-21718614D02*
X15556586Y-21561472D01*
X15542300Y-21532900D01*
X15513728Y-21518614D01*
X15470871Y-21518614D01*
X15442300Y-21532900D01*
X15428014Y-21547186D01*
X15742300Y-21718614D02*
X15713728Y-21704329D01*
X15699443Y-21690043D01*
X15685157Y-21661472D01*
X15685157Y-21575757D01*
X15699443Y-21547186D01*
X15713728Y-21532900D01*
X15742300Y-21518614D01*
X15785157Y-21518614D01*
X15813728Y-21532900D01*
X15828014Y-21547186D01*
X15842300Y-21575757D01*
X15842300Y-21661472D01*
X15828014Y-21690043D01*
X15813728Y-21704329D01*
X15785157Y-21718614D01*
X15742300Y-21718614D01*
X16013728Y-21718614D02*
X15985157Y-21704329D01*
X15970871Y-21675757D01*
X15970871Y-21418614D01*
X16242300Y-21704329D02*
X16213728Y-21718614D01*
X16156586Y-21718614D01*
X16128014Y-21704329D01*
X16113728Y-21675757D01*
X16113728Y-21561472D01*
X16128014Y-21532900D01*
X16156586Y-21518614D01*
X16213728Y-21518614D01*
X16242300Y-21532900D01*
X16256586Y-21561472D01*
X16256586Y-21590043D01*
X16113728Y-21618614D01*
X16370871Y-21704329D02*
X16399443Y-21718614D01*
X16456586Y-21718614D01*
X16485157Y-21704329D01*
X16499443Y-21675757D01*
X16499443Y-21661472D01*
X16485157Y-21632900D01*
X16456586Y-21618614D01*
X16413728Y-21618614D01*
X16385157Y-21604329D01*
X16370871Y-21575757D01*
X16370871Y-21561472D01*
X16385157Y-21532900D01*
X16413728Y-21518614D01*
X16456586Y-21518614D01*
X16485157Y-21532900D01*
X16599443Y-21832900D02*
X16613728Y-21818614D01*
X16642300Y-21775757D01*
X16656586Y-21747186D01*
X16670871Y-21704329D01*
X16685157Y-21632900D01*
X16685157Y-21575757D01*
X16670871Y-21504329D01*
X16656586Y-21461472D01*
X16642300Y-21432900D01*
X16613728Y-21390043D01*
X16599443Y-21375757D01*
X17142300Y-21832900D02*
X17128014Y-21818614D01*
X17099443Y-21775757D01*
X17085157Y-21747186D01*
X17070871Y-21704329D01*
X17056586Y-21632900D01*
X17056586Y-21575757D01*
X17070871Y-21504329D01*
X17085157Y-21461472D01*
X17099443Y-21432900D01*
X17128014Y-21390043D01*
X17142300Y-21375757D01*
X17256586Y-21518614D02*
X17256586Y-21718614D01*
X17256586Y-21547186D02*
X17270871Y-21532900D01*
X17299443Y-21518614D01*
X17342300Y-21518614D01*
X17370871Y-21532900D01*
X17385157Y-21561472D01*
X17385157Y-21718614D01*
X17570871Y-21718614D02*
X17542300Y-21704329D01*
X17528014Y-21690043D01*
X17513728Y-21661472D01*
X17513728Y-21575757D01*
X17528014Y-21547186D01*
X17542300Y-21532900D01*
X17570871Y-21518614D01*
X17613728Y-21518614D01*
X17642300Y-21532900D01*
X17656586Y-21547186D01*
X17670871Y-21575757D01*
X17670871Y-21661472D01*
X17656586Y-21690043D01*
X17642300Y-21704329D01*
X17613728Y-21718614D01*
X17570871Y-21718614D01*
X17756586Y-21518614D02*
X17870871Y-21518614D01*
X17799443Y-21418614D02*
X17799443Y-21675757D01*
X17813728Y-21704329D01*
X17842300Y-21718614D01*
X17870871Y-21718614D01*
X18199443Y-21518614D02*
X18199443Y-21818614D01*
X18199443Y-21532900D02*
X18228014Y-21518614D01*
X18285157Y-21518614D01*
X18313728Y-21532900D01*
X18328014Y-21547186D01*
X18342300Y-21575757D01*
X18342300Y-21661472D01*
X18328014Y-21690043D01*
X18313728Y-21704329D01*
X18285157Y-21718614D01*
X18228014Y-21718614D01*
X18199443Y-21704329D01*
X18513728Y-21718614D02*
X18485157Y-21704329D01*
X18470871Y-21675757D01*
X18470871Y-21418614D01*
X18756586Y-21718614D02*
X18756586Y-21561472D01*
X18742300Y-21532900D01*
X18713728Y-21518614D01*
X18656586Y-21518614D01*
X18628014Y-21532900D01*
X18756586Y-21704329D02*
X18728014Y-21718614D01*
X18656586Y-21718614D01*
X18628014Y-21704329D01*
X18613728Y-21675757D01*
X18613728Y-21647186D01*
X18628014Y-21618614D01*
X18656586Y-21604329D01*
X18728014Y-21604329D01*
X18756586Y-21590043D01*
X18856586Y-21518614D02*
X18970871Y-21518614D01*
X18899443Y-21418614D02*
X18899443Y-21675757D01*
X18913728Y-21704329D01*
X18942300Y-21718614D01*
X18970871Y-21718614D01*
X19185157Y-21704329D02*
X19156586Y-21718614D01*
X19099443Y-21718614D01*
X19070871Y-21704329D01*
X19056586Y-21675757D01*
X19056586Y-21561472D01*
X19070871Y-21532900D01*
X19099443Y-21518614D01*
X19156586Y-21518614D01*
X19185157Y-21532900D01*
X19199443Y-21561472D01*
X19199443Y-21590043D01*
X19056586Y-21618614D01*
X19456586Y-21718614D02*
X19456586Y-21418614D01*
X19456586Y-21704329D02*
X19428014Y-21718614D01*
X19370871Y-21718614D01*
X19342300Y-21704329D01*
X19328014Y-21690043D01*
X19313728Y-21661472D01*
X19313728Y-21575757D01*
X19328014Y-21547186D01*
X19342300Y-21532900D01*
X19370871Y-21518614D01*
X19428014Y-21518614D01*
X19456586Y-21532900D01*
X19570871Y-21832900D02*
X19585157Y-21818614D01*
X19613728Y-21775757D01*
X19628014Y-21747186D01*
X19642300Y-21704329D01*
X19656586Y-21632900D01*
X19656586Y-21575757D01*
X19642300Y-21504329D01*
X19628014Y-21461472D01*
X19613728Y-21432900D01*
X19585157Y-21390043D01*
X19570871Y-21375757D01*
M02*
