%TF.GenerationSoftware,KiCad,Pcbnew,(5.1.8)-1*%
%TF.CreationDate,2021-05-23T23:23:44-05:00*%
%TF.ProjectId,CircuitBoardV2,43697263-7569-4744-926f-61726456322e,rev?*%
%TF.SameCoordinates,Original*%
%TF.FileFunction,Soldermask,Bot*%
%TF.FilePolarity,Negative*%
%FSLAX46Y46*%
G04 Gerber Fmt 4.6, Leading zero omitted, Abs format (unit mm)*
G04 Created by KiCad (PCBNEW (5.1.8)-1) date 2021-05-23 23:23:44*
%MOMM*%
%LPD*%
G01*
G04 APERTURE LIST*
%ADD10C,1.100000*%
%ADD11O,1.730000X2.030000*%
%ADD12R,1.730000X2.030000*%
%ADD13O,1.700000X1.700000*%
%ADD14R,1.700000X1.700000*%
%ADD15C,7.500000*%
%ADD16C,2.540000*%
%ADD17C,3.990000*%
%ADD18C,2.400000*%
%ADD19O,2.030000X1.730000*%
%ADD20R,2.030000X1.730000*%
G04 APERTURE END LIST*
D10*
%TO.C,J31*%
X102616000Y-96140000D03*
D11*
X100076000Y-93980000D03*
X102616000Y-93980000D03*
X105156000Y-93980000D03*
D12*
X107696000Y-93980000D03*
%TD*%
D13*
%TO.C,J21*%
X134620000Y-85090000D03*
X134620000Y-87630000D03*
X134620000Y-90170000D03*
X134620000Y-92710000D03*
X134620000Y-95250000D03*
X134620000Y-97790000D03*
X134620000Y-100330000D03*
X134620000Y-102870000D03*
X134620000Y-105410000D03*
X134620000Y-107950000D03*
X134620000Y-110490000D03*
X134620000Y-113030000D03*
X134620000Y-115570000D03*
X134620000Y-118110000D03*
X134620000Y-120650000D03*
X134620000Y-123190000D03*
X134620000Y-125730000D03*
X134620000Y-128270000D03*
X134620000Y-130810000D03*
X134620000Y-133350000D03*
X134620000Y-135890000D03*
X134620000Y-138430000D03*
X134620000Y-140970000D03*
D14*
X134620000Y-143510000D03*
%TD*%
D15*
%TO.C,REF\u002A\u002A*%
X137668000Y-60706000D03*
%TD*%
%TO.C,REF\u002A\u002A*%
X116332000Y-60706000D03*
%TD*%
%TO.C,REF\u002A\u002A*%
X137668000Y-155956000D03*
%TD*%
%TO.C,REF\u002A\u002A*%
X116332000Y-155956000D03*
%TD*%
D10*
%TO.C,J37*%
X102616000Y-138812000D03*
D11*
X100076000Y-136652000D03*
X102616000Y-136652000D03*
X105156000Y-136652000D03*
D12*
X107696000Y-136652000D03*
%TD*%
%TO.C,J40*%
X107696000Y-157988000D03*
D11*
X105156000Y-157988000D03*
X102616000Y-157988000D03*
X100076000Y-157988000D03*
D10*
X102616000Y-160148000D03*
%TD*%
%TO.C,J5*%
X151384000Y-69976000D03*
D11*
X153924000Y-72136000D03*
X151384000Y-72136000D03*
X148844000Y-72136000D03*
D12*
X146304000Y-72136000D03*
%TD*%
D10*
%TO.C,J1*%
X151384000Y-91312000D03*
D11*
X153924000Y-93472000D03*
X151384000Y-93472000D03*
X148844000Y-93472000D03*
D12*
X146304000Y-93472000D03*
%TD*%
D10*
%TO.C,J3*%
X151384000Y-98424000D03*
D11*
X153924000Y-100584000D03*
X151384000Y-100584000D03*
X148844000Y-100584000D03*
D12*
X146304000Y-100584000D03*
%TD*%
D10*
%TO.C,J35*%
X102616000Y-124588000D03*
D11*
X100076000Y-122428000D03*
X102616000Y-122428000D03*
X105156000Y-122428000D03*
D12*
X107696000Y-122428000D03*
%TD*%
%TO.C,J38*%
X107696000Y-143764000D03*
D11*
X105156000Y-143764000D03*
X102616000Y-143764000D03*
X100076000Y-143764000D03*
D10*
X102616000Y-145924000D03*
%TD*%
%TO.C,J36*%
X102616000Y-131700000D03*
D11*
X100076000Y-129540000D03*
X102616000Y-129540000D03*
X105156000Y-129540000D03*
D12*
X107696000Y-129540000D03*
%TD*%
%TO.C,J39*%
X107696000Y-150876000D03*
D11*
X105156000Y-150876000D03*
X102616000Y-150876000D03*
X100076000Y-150876000D03*
D10*
X102616000Y-153036000D03*
%TD*%
D12*
%TO.C,J41*%
X107696000Y-165100000D03*
D11*
X105156000Y-165100000D03*
X102616000Y-165100000D03*
X100076000Y-165100000D03*
D10*
X102616000Y-167260000D03*
%TD*%
D16*
%TO.C,JMolex1*%
X116840000Y-164635000D03*
D17*
X121920000Y-172255000D03*
X132080000Y-172255000D03*
D16*
X137160000Y-164635000D03*
D18*
X134620000Y-162095000D03*
X129540000Y-162095000D03*
X124460000Y-162095000D03*
X119380000Y-162095000D03*
%TD*%
D12*
%TO.C,J42*%
X107696000Y-172212000D03*
D11*
X105156000Y-172212000D03*
X102616000Y-172212000D03*
X100076000Y-172212000D03*
D10*
X102616000Y-174372000D03*
%TD*%
%TO.C,J34*%
X102616000Y-117476000D03*
D11*
X100076000Y-115316000D03*
X102616000Y-115316000D03*
X105156000Y-115316000D03*
D12*
X107696000Y-115316000D03*
%TD*%
D10*
%TO.C,J33*%
X102616000Y-110364000D03*
D11*
X100076000Y-108204000D03*
X102616000Y-108204000D03*
X105156000Y-108204000D03*
D12*
X107696000Y-108204000D03*
%TD*%
D10*
%TO.C,J32*%
X102616000Y-103252000D03*
D11*
X100076000Y-101092000D03*
X102616000Y-101092000D03*
X105156000Y-101092000D03*
D12*
X107696000Y-101092000D03*
%TD*%
D10*
%TO.C,J30*%
X102616000Y-89028000D03*
D11*
X100076000Y-86868000D03*
X102616000Y-86868000D03*
X105156000Y-86868000D03*
D12*
X107696000Y-86868000D03*
%TD*%
D10*
%TO.C,J29*%
X102616000Y-81916000D03*
D11*
X100076000Y-79756000D03*
X102616000Y-79756000D03*
X105156000Y-79756000D03*
D12*
X107696000Y-79756000D03*
%TD*%
D10*
%TO.C,J28*%
X102616000Y-74804000D03*
D11*
X100076000Y-72644000D03*
X102616000Y-72644000D03*
X105156000Y-72644000D03*
D12*
X107696000Y-72644000D03*
%TD*%
D10*
%TO.C,J27*%
X102616000Y-67692000D03*
D11*
X100076000Y-65532000D03*
X102616000Y-65532000D03*
X105156000Y-65532000D03*
D12*
X107696000Y-65532000D03*
%TD*%
D10*
%TO.C,J26*%
X151384000Y-55752000D03*
D11*
X153924000Y-57912000D03*
X151384000Y-57912000D03*
X148844000Y-57912000D03*
D12*
X146304000Y-57912000D03*
%TD*%
D10*
%TO.C,J25*%
X141858000Y-47752000D03*
D19*
X144018000Y-45212000D03*
X144018000Y-47752000D03*
X144018000Y-50292000D03*
D20*
X144018000Y-52832000D03*
%TD*%
D10*
%TO.C,J24*%
X134746000Y-47752000D03*
D19*
X136906000Y-45212000D03*
X136906000Y-47752000D03*
X136906000Y-50292000D03*
D20*
X136906000Y-52832000D03*
%TD*%
D10*
%TO.C,J23*%
X127634000Y-47752000D03*
D19*
X129794000Y-45212000D03*
X129794000Y-47752000D03*
X129794000Y-50292000D03*
D20*
X129794000Y-52832000D03*
%TD*%
D13*
%TO.C,J22*%
X119380000Y-85090000D03*
X119380000Y-87630000D03*
X119380000Y-90170000D03*
X119380000Y-92710000D03*
X119380000Y-95250000D03*
X119380000Y-97790000D03*
X119380000Y-100330000D03*
X119380000Y-102870000D03*
X119380000Y-105410000D03*
X119380000Y-107950000D03*
X119380000Y-110490000D03*
X119380000Y-113030000D03*
X119380000Y-115570000D03*
X119380000Y-118110000D03*
X119380000Y-120650000D03*
X119380000Y-123190000D03*
X119380000Y-125730000D03*
X119380000Y-128270000D03*
X119380000Y-130810000D03*
X119380000Y-133350000D03*
X119380000Y-135890000D03*
X119380000Y-138430000D03*
X119380000Y-140970000D03*
D14*
X119380000Y-143510000D03*
%TD*%
D10*
%TO.C,J20*%
X151384000Y-105536000D03*
D11*
X153924000Y-107696000D03*
X151384000Y-107696000D03*
X148844000Y-107696000D03*
D12*
X146304000Y-107696000D03*
%TD*%
D10*
%TO.C,J19*%
X151384000Y-112648000D03*
D11*
X153924000Y-114808000D03*
X151384000Y-114808000D03*
X148844000Y-114808000D03*
D12*
X146304000Y-114808000D03*
%TD*%
D10*
%TO.C,J18*%
X151384000Y-119760000D03*
D11*
X153924000Y-121920000D03*
X151384000Y-121920000D03*
X148844000Y-121920000D03*
D12*
X146304000Y-121920000D03*
%TD*%
D10*
%TO.C,J17*%
X151384000Y-126872000D03*
D11*
X153924000Y-129032000D03*
X151384000Y-129032000D03*
X148844000Y-129032000D03*
D12*
X146304000Y-129032000D03*
%TD*%
D10*
%TO.C,J16*%
X151384000Y-133984000D03*
D11*
X153924000Y-136144000D03*
X151384000Y-136144000D03*
X148844000Y-136144000D03*
D12*
X146304000Y-136144000D03*
%TD*%
D10*
%TO.C,J15*%
X151384000Y-141096000D03*
D11*
X153924000Y-143256000D03*
X151384000Y-143256000D03*
X148844000Y-143256000D03*
D12*
X146304000Y-143256000D03*
%TD*%
D10*
%TO.C,J14*%
X151384000Y-148208000D03*
D11*
X153924000Y-150368000D03*
X151384000Y-150368000D03*
X148844000Y-150368000D03*
D12*
X146304000Y-150368000D03*
%TD*%
D10*
%TO.C,J13*%
X151384000Y-155320000D03*
D11*
X153924000Y-157480000D03*
X151384000Y-157480000D03*
X148844000Y-157480000D03*
D12*
X146304000Y-157480000D03*
%TD*%
D10*
%TO.C,J12*%
X151384000Y-162432000D03*
D11*
X153924000Y-164592000D03*
X151384000Y-164592000D03*
X148844000Y-164592000D03*
D12*
X146304000Y-164592000D03*
%TD*%
D10*
%TO.C,J11*%
X151384000Y-169544000D03*
D11*
X153924000Y-171704000D03*
X151384000Y-171704000D03*
X148844000Y-171704000D03*
D12*
X146304000Y-171704000D03*
%TD*%
D10*
%TO.C,J10*%
X120522000Y-47752000D03*
D19*
X122682000Y-45212000D03*
X122682000Y-47752000D03*
X122682000Y-50292000D03*
D20*
X122682000Y-52832000D03*
%TD*%
D10*
%TO.C,J9*%
X106298000Y-47752000D03*
D19*
X108458000Y-45212000D03*
X108458000Y-47752000D03*
X108458000Y-50292000D03*
D20*
X108458000Y-52832000D03*
%TD*%
D10*
%TO.C,J8*%
X102616000Y-60580000D03*
D11*
X100076000Y-58420000D03*
X102616000Y-58420000D03*
X105156000Y-58420000D03*
D12*
X107696000Y-58420000D03*
%TD*%
D10*
%TO.C,J7*%
X151384000Y-62864000D03*
D11*
X153924000Y-65024000D03*
X151384000Y-65024000D03*
X148844000Y-65024000D03*
D12*
X146304000Y-65024000D03*
%TD*%
D10*
%TO.C,J6*%
X113410000Y-47752000D03*
D19*
X115570000Y-45212000D03*
X115570000Y-47752000D03*
X115570000Y-50292000D03*
D20*
X115570000Y-52832000D03*
%TD*%
D10*
%TO.C,J4*%
X151384000Y-77088000D03*
D11*
X153924000Y-79248000D03*
X151384000Y-79248000D03*
X148844000Y-79248000D03*
D12*
X146304000Y-79248000D03*
%TD*%
D10*
%TO.C,J2*%
X151384000Y-84200000D03*
D11*
X153924000Y-86360000D03*
X151384000Y-86360000D03*
X148844000Y-86360000D03*
D12*
X146304000Y-86360000D03*
%TD*%
M02*
