%TF.GenerationSoftware,KiCad,Pcbnew,(5.1.8)-1*%
%TF.CreationDate,2021-05-23T23:23:44-05:00*%
%TF.ProjectId,CircuitBoardV2,43697263-7569-4744-926f-61726456322e,rev?*%
%TF.SameCoordinates,Original*%
%TF.FileFunction,Legend,Top*%
%TF.FilePolarity,Positive*%
%FSLAX46Y46*%
G04 Gerber Fmt 4.6, Leading zero omitted, Abs format (unit mm)*
G04 Created by KiCad (PCBNEW (5.1.8)-1) date 2021-05-23 23:23:44*
%MOMM*%
%LPD*%
G01*
G04 APERTURE LIST*
%ADD10C,0.203200*%
%ADD11C,0.889000*%
%ADD12C,0.300000*%
%ADD13C,0.150000*%
%ADD14C,0.200000*%
%ADD15C,0.127000*%
%ADD16C,0.120000*%
%ADD17C,0.010000*%
%ADD18C,0.100000*%
%ADD19C,0.015000*%
G04 APERTURE END LIST*
D10*
X122682000Y-133858000D02*
X122682000Y-86106000D01*
X131064000Y-133858000D02*
X122682000Y-133858000D01*
X131064000Y-86106000D02*
X131064000Y-133858000D01*
X122682000Y-86106000D02*
X131064000Y-86106000D01*
D11*
X124677714Y-90145809D02*
X124435809Y-89903904D01*
X124193904Y-89178190D01*
X124193904Y-88694380D01*
X124435809Y-87968666D01*
X124919619Y-87484857D01*
X125403428Y-87242952D01*
X126371047Y-87001047D01*
X127096761Y-87001047D01*
X128064380Y-87242952D01*
X128548190Y-87484857D01*
X129032000Y-87968666D01*
X129273904Y-88694380D01*
X129273904Y-89178190D01*
X129032000Y-89903904D01*
X128790095Y-90145809D01*
X129273904Y-93290571D02*
X129273904Y-94258190D01*
X129032000Y-94742000D01*
X128548190Y-95225809D01*
X127580571Y-95467714D01*
X125887238Y-95467714D01*
X124919619Y-95225809D01*
X124435809Y-94742000D01*
X124193904Y-94258190D01*
X124193904Y-93290571D01*
X124435809Y-92806761D01*
X124919619Y-92322952D01*
X125887238Y-92081047D01*
X127580571Y-92081047D01*
X128548190Y-92322952D01*
X129032000Y-92806761D01*
X129273904Y-93290571D01*
X124193904Y-97644857D02*
X129273904Y-97644857D01*
X124193904Y-100547714D01*
X129273904Y-100547714D01*
X129273904Y-102241047D02*
X129273904Y-105143904D01*
X124193904Y-103692476D02*
X129273904Y-103692476D01*
X124193904Y-109740095D02*
X126612952Y-108046761D01*
X124193904Y-106837238D02*
X129273904Y-106837238D01*
X129273904Y-108772476D01*
X129032000Y-109256285D01*
X128790095Y-109498190D01*
X128306285Y-109740095D01*
X127580571Y-109740095D01*
X127096761Y-109498190D01*
X126854857Y-109256285D01*
X126612952Y-108772476D01*
X126612952Y-106837238D01*
X129273904Y-112884857D02*
X129273904Y-113852476D01*
X129032000Y-114336285D01*
X128548190Y-114820095D01*
X127580571Y-115062000D01*
X125887238Y-115062000D01*
X124919619Y-114820095D01*
X124435809Y-114336285D01*
X124193904Y-113852476D01*
X124193904Y-112884857D01*
X124435809Y-112401047D01*
X124919619Y-111917238D01*
X125887238Y-111675333D01*
X127580571Y-111675333D01*
X128548190Y-111917238D01*
X129032000Y-112401047D01*
X129273904Y-112884857D01*
X124193904Y-119658190D02*
X124193904Y-117239142D01*
X129273904Y-117239142D01*
X124193904Y-123770571D02*
X124193904Y-121351523D01*
X129273904Y-121351523D01*
X126854857Y-125463904D02*
X126854857Y-127157238D01*
X124193904Y-127882952D02*
X124193904Y-125463904D01*
X129273904Y-125463904D01*
X129273904Y-127882952D01*
X124193904Y-132962952D02*
X126612952Y-131269619D01*
X124193904Y-130060095D02*
X129273904Y-130060095D01*
X129273904Y-131995333D01*
X129032000Y-132479142D01*
X128790095Y-132721047D01*
X128306285Y-132962952D01*
X127580571Y-132962952D01*
X127096761Y-132721047D01*
X126854857Y-132479142D01*
X126612952Y-131995333D01*
X126612952Y-130060095D01*
D12*
X122682604Y-79342626D02*
X122896690Y-79413988D01*
X123253500Y-79413988D01*
X123396223Y-79342626D01*
X123467585Y-79271264D01*
X123538947Y-79128540D01*
X123538947Y-78985816D01*
X123467585Y-78843092D01*
X123396223Y-78771730D01*
X123253500Y-78700369D01*
X122968052Y-78629007D01*
X122825328Y-78557645D01*
X122753966Y-78486283D01*
X122682604Y-78343559D01*
X122682604Y-78200835D01*
X122753966Y-78058111D01*
X122825328Y-77986750D01*
X122968052Y-77915388D01*
X123324861Y-77915388D01*
X123538947Y-77986750D01*
X124181204Y-79413988D02*
X124181204Y-77915388D01*
X124538014Y-77915388D01*
X124752100Y-77986750D01*
X124894823Y-78129473D01*
X124966185Y-78272197D01*
X125037547Y-78557645D01*
X125037547Y-78771730D01*
X124966185Y-79057178D01*
X124894823Y-79199902D01*
X124752100Y-79342626D01*
X124538014Y-79413988D01*
X124181204Y-79413988D01*
X127677938Y-79271264D02*
X127606576Y-79342626D01*
X127392490Y-79413988D01*
X127249766Y-79413988D01*
X127035680Y-79342626D01*
X126892957Y-79199902D01*
X126821595Y-79057178D01*
X126750233Y-78771730D01*
X126750233Y-78557645D01*
X126821595Y-78272197D01*
X126892957Y-78129473D01*
X127035680Y-77986750D01*
X127249766Y-77915388D01*
X127392490Y-77915388D01*
X127606576Y-77986750D01*
X127677938Y-78058111D01*
X128962452Y-79413988D02*
X128962452Y-78629007D01*
X128891090Y-78486283D01*
X128748366Y-78414921D01*
X128462919Y-78414921D01*
X128320195Y-78486283D01*
X128962452Y-79342626D02*
X128819728Y-79413988D01*
X128462919Y-79413988D01*
X128320195Y-79342626D01*
X128248833Y-79199902D01*
X128248833Y-79057178D01*
X128320195Y-78914454D01*
X128462919Y-78843092D01*
X128819728Y-78843092D01*
X128962452Y-78771730D01*
X129676071Y-79413988D02*
X129676071Y-78414921D01*
X129676071Y-78700369D02*
X129747433Y-78557645D01*
X129818795Y-78486283D01*
X129961519Y-78414921D01*
X130104242Y-78414921D01*
X131246033Y-79413988D02*
X131246033Y-77915388D01*
X131246033Y-79342626D02*
X131103309Y-79413988D01*
X130817861Y-79413988D01*
X130675138Y-79342626D01*
X130603776Y-79271264D01*
X130532414Y-79128540D01*
X130532414Y-78700369D01*
X130603776Y-78557645D01*
X130675138Y-78486283D01*
X130817861Y-78414921D01*
X131103309Y-78414921D01*
X131246033Y-78486283D01*
X125572761Y-80320564D02*
X126857276Y-82247335D01*
X128141790Y-80391926D02*
X126857276Y-82318697D01*
D13*
X109736095Y-171997714D02*
X110450380Y-171997714D01*
X110021809Y-171569142D02*
X109736095Y-172854857D01*
X110355142Y-172426285D02*
X109640857Y-172426285D01*
X110069428Y-172854857D02*
X110355142Y-171569142D01*
X111212285Y-171997714D02*
X111212285Y-172664380D01*
X110974190Y-171616761D02*
X110736095Y-172331047D01*
X111355142Y-172331047D01*
X111926571Y-171664380D02*
X112021809Y-171664380D01*
X112117047Y-171712000D01*
X112164666Y-171759619D01*
X112212285Y-171854857D01*
X112259904Y-172045333D01*
X112259904Y-172283428D01*
X112212285Y-172473904D01*
X112164666Y-172569142D01*
X112117047Y-172616761D01*
X112021809Y-172664380D01*
X111926571Y-172664380D01*
X111831333Y-172616761D01*
X111783714Y-172569142D01*
X111736095Y-172473904D01*
X111688476Y-172283428D01*
X111688476Y-172045333D01*
X111736095Y-171854857D01*
X111783714Y-171759619D01*
X111831333Y-171712000D01*
X111926571Y-171664380D01*
X109736095Y-164885714D02*
X110450380Y-164885714D01*
X110021809Y-164457142D02*
X109736095Y-165742857D01*
X110355142Y-165314285D02*
X109640857Y-165314285D01*
X110069428Y-165742857D02*
X110355142Y-164457142D01*
X110688476Y-164552380D02*
X111307523Y-164552380D01*
X110974190Y-164933333D01*
X111117047Y-164933333D01*
X111212285Y-164980952D01*
X111259904Y-165028571D01*
X111307523Y-165123809D01*
X111307523Y-165361904D01*
X111259904Y-165457142D01*
X111212285Y-165504761D01*
X111117047Y-165552380D01*
X110831333Y-165552380D01*
X110736095Y-165504761D01*
X110688476Y-165457142D01*
X111783714Y-165552380D02*
X111974190Y-165552380D01*
X112069428Y-165504761D01*
X112117047Y-165457142D01*
X112212285Y-165314285D01*
X112259904Y-165123809D01*
X112259904Y-164742857D01*
X112212285Y-164647619D01*
X112164666Y-164600000D01*
X112069428Y-164552380D01*
X111878952Y-164552380D01*
X111783714Y-164600000D01*
X111736095Y-164647619D01*
X111688476Y-164742857D01*
X111688476Y-164980952D01*
X111736095Y-165076190D01*
X111783714Y-165123809D01*
X111878952Y-165171428D01*
X112069428Y-165171428D01*
X112164666Y-165123809D01*
X112212285Y-165076190D01*
X112259904Y-164980952D01*
X109736095Y-157773714D02*
X110450380Y-157773714D01*
X110021809Y-157345142D02*
X109736095Y-158630857D01*
X110355142Y-158202285D02*
X109640857Y-158202285D01*
X110069428Y-158630857D02*
X110355142Y-157345142D01*
X110688476Y-157440380D02*
X111307523Y-157440380D01*
X110974190Y-157821333D01*
X111117047Y-157821333D01*
X111212285Y-157868952D01*
X111259904Y-157916571D01*
X111307523Y-158011809D01*
X111307523Y-158249904D01*
X111259904Y-158345142D01*
X111212285Y-158392761D01*
X111117047Y-158440380D01*
X110831333Y-158440380D01*
X110736095Y-158392761D01*
X110688476Y-158345142D01*
X111878952Y-157868952D02*
X111783714Y-157821333D01*
X111736095Y-157773714D01*
X111688476Y-157678476D01*
X111688476Y-157630857D01*
X111736095Y-157535619D01*
X111783714Y-157488000D01*
X111878952Y-157440380D01*
X112069428Y-157440380D01*
X112164666Y-157488000D01*
X112212285Y-157535619D01*
X112259904Y-157630857D01*
X112259904Y-157678476D01*
X112212285Y-157773714D01*
X112164666Y-157821333D01*
X112069428Y-157868952D01*
X111878952Y-157868952D01*
X111783714Y-157916571D01*
X111736095Y-157964190D01*
X111688476Y-158059428D01*
X111688476Y-158249904D01*
X111736095Y-158345142D01*
X111783714Y-158392761D01*
X111878952Y-158440380D01*
X112069428Y-158440380D01*
X112164666Y-158392761D01*
X112212285Y-158345142D01*
X112259904Y-158249904D01*
X112259904Y-158059428D01*
X112212285Y-157964190D01*
X112164666Y-157916571D01*
X112069428Y-157868952D01*
X109736095Y-150661714D02*
X110450380Y-150661714D01*
X110021809Y-150233142D02*
X109736095Y-151518857D01*
X110355142Y-151090285D02*
X109640857Y-151090285D01*
X110069428Y-151518857D02*
X110355142Y-150233142D01*
X110688476Y-150328380D02*
X111307523Y-150328380D01*
X110974190Y-150709333D01*
X111117047Y-150709333D01*
X111212285Y-150756952D01*
X111259904Y-150804571D01*
X111307523Y-150899809D01*
X111307523Y-151137904D01*
X111259904Y-151233142D01*
X111212285Y-151280761D01*
X111117047Y-151328380D01*
X110831333Y-151328380D01*
X110736095Y-151280761D01*
X110688476Y-151233142D01*
X111640857Y-150328380D02*
X112307523Y-150328380D01*
X111878952Y-151328380D01*
X109736095Y-143549714D02*
X110450380Y-143549714D01*
X110021809Y-143121142D02*
X109736095Y-144406857D01*
X110355142Y-143978285D02*
X109640857Y-143978285D01*
X110069428Y-144406857D02*
X110355142Y-143121142D01*
X110688476Y-143216380D02*
X111307523Y-143216380D01*
X110974190Y-143597333D01*
X111117047Y-143597333D01*
X111212285Y-143644952D01*
X111259904Y-143692571D01*
X111307523Y-143787809D01*
X111307523Y-144025904D01*
X111259904Y-144121142D01*
X111212285Y-144168761D01*
X111117047Y-144216380D01*
X110831333Y-144216380D01*
X110736095Y-144168761D01*
X110688476Y-144121142D01*
X112164666Y-143216380D02*
X111974190Y-143216380D01*
X111878952Y-143264000D01*
X111831333Y-143311619D01*
X111736095Y-143454476D01*
X111688476Y-143644952D01*
X111688476Y-144025904D01*
X111736095Y-144121142D01*
X111783714Y-144168761D01*
X111878952Y-144216380D01*
X112069428Y-144216380D01*
X112164666Y-144168761D01*
X112212285Y-144121142D01*
X112259904Y-144025904D01*
X112259904Y-143787809D01*
X112212285Y-143692571D01*
X112164666Y-143644952D01*
X112069428Y-143597333D01*
X111878952Y-143597333D01*
X111783714Y-143644952D01*
X111736095Y-143692571D01*
X111688476Y-143787809D01*
X109736095Y-136437714D02*
X110450380Y-136437714D01*
X110021809Y-136009142D02*
X109736095Y-137294857D01*
X110355142Y-136866285D02*
X109640857Y-136866285D01*
X110069428Y-137294857D02*
X110355142Y-136009142D01*
X110688476Y-136104380D02*
X111307523Y-136104380D01*
X110974190Y-136485333D01*
X111117047Y-136485333D01*
X111212285Y-136532952D01*
X111259904Y-136580571D01*
X111307523Y-136675809D01*
X111307523Y-136913904D01*
X111259904Y-137009142D01*
X111212285Y-137056761D01*
X111117047Y-137104380D01*
X110831333Y-137104380D01*
X110736095Y-137056761D01*
X110688476Y-137009142D01*
X112212285Y-136104380D02*
X111736095Y-136104380D01*
X111688476Y-136580571D01*
X111736095Y-136532952D01*
X111831333Y-136485333D01*
X112069428Y-136485333D01*
X112164666Y-136532952D01*
X112212285Y-136580571D01*
X112259904Y-136675809D01*
X112259904Y-136913904D01*
X112212285Y-137009142D01*
X112164666Y-137056761D01*
X112069428Y-137104380D01*
X111831333Y-137104380D01*
X111736095Y-137056761D01*
X111688476Y-137009142D01*
X109736095Y-127801714D02*
X110450380Y-127801714D01*
X110021809Y-127373142D02*
X109736095Y-128658857D01*
X110355142Y-128230285D02*
X109640857Y-128230285D01*
X110069428Y-128658857D02*
X110355142Y-127373142D01*
X110688476Y-127468380D02*
X111307523Y-127468380D01*
X110974190Y-127849333D01*
X111117047Y-127849333D01*
X111212285Y-127896952D01*
X111259904Y-127944571D01*
X111307523Y-128039809D01*
X111307523Y-128277904D01*
X111259904Y-128373142D01*
X111212285Y-128420761D01*
X111117047Y-128468380D01*
X110831333Y-128468380D01*
X110736095Y-128420761D01*
X110688476Y-128373142D01*
X112164666Y-127801714D02*
X112164666Y-128468380D01*
X111926571Y-127420761D02*
X111688476Y-128135047D01*
X112307523Y-128135047D01*
X109736095Y-122213714D02*
X110450380Y-122213714D01*
X110021809Y-121785142D02*
X109736095Y-123070857D01*
X110355142Y-122642285D02*
X109640857Y-122642285D01*
X110069428Y-123070857D02*
X110355142Y-121785142D01*
X110688476Y-121880380D02*
X111307523Y-121880380D01*
X110974190Y-122261333D01*
X111117047Y-122261333D01*
X111212285Y-122308952D01*
X111259904Y-122356571D01*
X111307523Y-122451809D01*
X111307523Y-122689904D01*
X111259904Y-122785142D01*
X111212285Y-122832761D01*
X111117047Y-122880380D01*
X110831333Y-122880380D01*
X110736095Y-122832761D01*
X110688476Y-122785142D01*
X111640857Y-121880380D02*
X112259904Y-121880380D01*
X111926571Y-122261333D01*
X112069428Y-122261333D01*
X112164666Y-122308952D01*
X112212285Y-122356571D01*
X112259904Y-122451809D01*
X112259904Y-122689904D01*
X112212285Y-122785142D01*
X112164666Y-122832761D01*
X112069428Y-122880380D01*
X111783714Y-122880380D01*
X111688476Y-122832761D01*
X111640857Y-122785142D01*
X109736095Y-115101714D02*
X110450380Y-115101714D01*
X110021809Y-114673142D02*
X109736095Y-115958857D01*
X110355142Y-115530285D02*
X109640857Y-115530285D01*
X110069428Y-115958857D02*
X110355142Y-114673142D01*
X110688476Y-114768380D02*
X111307523Y-114768380D01*
X110974190Y-115149333D01*
X111117047Y-115149333D01*
X111212285Y-115196952D01*
X111259904Y-115244571D01*
X111307523Y-115339809D01*
X111307523Y-115577904D01*
X111259904Y-115673142D01*
X111212285Y-115720761D01*
X111117047Y-115768380D01*
X110831333Y-115768380D01*
X110736095Y-115720761D01*
X110688476Y-115673142D01*
X111688476Y-114863619D02*
X111736095Y-114816000D01*
X111831333Y-114768380D01*
X112069428Y-114768380D01*
X112164666Y-114816000D01*
X112212285Y-114863619D01*
X112259904Y-114958857D01*
X112259904Y-115054095D01*
X112212285Y-115196952D01*
X111640857Y-115768380D01*
X112259904Y-115768380D01*
X109736095Y-107989714D02*
X110450380Y-107989714D01*
X110021809Y-107561142D02*
X109736095Y-108846857D01*
X110355142Y-108418285D02*
X109640857Y-108418285D01*
X110069428Y-108846857D02*
X110355142Y-107561142D01*
X110688476Y-107656380D02*
X111307523Y-107656380D01*
X110974190Y-108037333D01*
X111117047Y-108037333D01*
X111212285Y-108084952D01*
X111259904Y-108132571D01*
X111307523Y-108227809D01*
X111307523Y-108465904D01*
X111259904Y-108561142D01*
X111212285Y-108608761D01*
X111117047Y-108656380D01*
X110831333Y-108656380D01*
X110736095Y-108608761D01*
X110688476Y-108561142D01*
X112259904Y-108656380D02*
X111688476Y-108656380D01*
X111974190Y-108656380D02*
X111974190Y-107656380D01*
X111878952Y-107799238D01*
X111783714Y-107894476D01*
X111688476Y-107942095D01*
X109736095Y-100623714D02*
X110450380Y-100623714D01*
X110021809Y-100195142D02*
X109736095Y-101480857D01*
X110355142Y-101052285D02*
X109640857Y-101052285D01*
X110069428Y-101480857D02*
X110355142Y-100195142D01*
X110688476Y-100290380D02*
X111307523Y-100290380D01*
X110974190Y-100671333D01*
X111117047Y-100671333D01*
X111212285Y-100718952D01*
X111259904Y-100766571D01*
X111307523Y-100861809D01*
X111307523Y-101099904D01*
X111259904Y-101195142D01*
X111212285Y-101242761D01*
X111117047Y-101290380D01*
X110831333Y-101290380D01*
X110736095Y-101242761D01*
X110688476Y-101195142D01*
X111926571Y-100290380D02*
X112021809Y-100290380D01*
X112117047Y-100338000D01*
X112164666Y-100385619D01*
X112212285Y-100480857D01*
X112259904Y-100671333D01*
X112259904Y-100909428D01*
X112212285Y-101099904D01*
X112164666Y-101195142D01*
X112117047Y-101242761D01*
X112021809Y-101290380D01*
X111926571Y-101290380D01*
X111831333Y-101242761D01*
X111783714Y-101195142D01*
X111736095Y-101099904D01*
X111688476Y-100909428D01*
X111688476Y-100671333D01*
X111736095Y-100480857D01*
X111783714Y-100385619D01*
X111831333Y-100338000D01*
X111926571Y-100290380D01*
X109736095Y-91987714D02*
X110450380Y-91987714D01*
X110021809Y-91559142D02*
X109736095Y-92844857D01*
X110355142Y-92416285D02*
X109640857Y-92416285D01*
X110069428Y-92844857D02*
X110355142Y-91559142D01*
X110736095Y-91749619D02*
X110783714Y-91702000D01*
X110878952Y-91654380D01*
X111117047Y-91654380D01*
X111212285Y-91702000D01*
X111259904Y-91749619D01*
X111307523Y-91844857D01*
X111307523Y-91940095D01*
X111259904Y-92082952D01*
X110688476Y-92654380D01*
X111307523Y-92654380D01*
X111783714Y-92654380D02*
X111974190Y-92654380D01*
X112069428Y-92606761D01*
X112117047Y-92559142D01*
X112212285Y-92416285D01*
X112259904Y-92225809D01*
X112259904Y-91844857D01*
X112212285Y-91749619D01*
X112164666Y-91702000D01*
X112069428Y-91654380D01*
X111878952Y-91654380D01*
X111783714Y-91702000D01*
X111736095Y-91749619D01*
X111688476Y-91844857D01*
X111688476Y-92082952D01*
X111736095Y-92178190D01*
X111783714Y-92225809D01*
X111878952Y-92273428D01*
X112069428Y-92273428D01*
X112164666Y-92225809D01*
X112212285Y-92178190D01*
X112259904Y-92082952D01*
X109736095Y-86653714D02*
X110450380Y-86653714D01*
X110021809Y-86225142D02*
X109736095Y-87510857D01*
X110355142Y-87082285D02*
X109640857Y-87082285D01*
X110069428Y-87510857D02*
X110355142Y-86225142D01*
X110736095Y-86415619D02*
X110783714Y-86368000D01*
X110878952Y-86320380D01*
X111117047Y-86320380D01*
X111212285Y-86368000D01*
X111259904Y-86415619D01*
X111307523Y-86510857D01*
X111307523Y-86606095D01*
X111259904Y-86748952D01*
X110688476Y-87320380D01*
X111307523Y-87320380D01*
X111878952Y-86748952D02*
X111783714Y-86701333D01*
X111736095Y-86653714D01*
X111688476Y-86558476D01*
X111688476Y-86510857D01*
X111736095Y-86415619D01*
X111783714Y-86368000D01*
X111878952Y-86320380D01*
X112069428Y-86320380D01*
X112164666Y-86368000D01*
X112212285Y-86415619D01*
X112259904Y-86510857D01*
X112259904Y-86558476D01*
X112212285Y-86653714D01*
X112164666Y-86701333D01*
X112069428Y-86748952D01*
X111878952Y-86748952D01*
X111783714Y-86796571D01*
X111736095Y-86844190D01*
X111688476Y-86939428D01*
X111688476Y-87129904D01*
X111736095Y-87225142D01*
X111783714Y-87272761D01*
X111878952Y-87320380D01*
X112069428Y-87320380D01*
X112164666Y-87272761D01*
X112212285Y-87225142D01*
X112259904Y-87129904D01*
X112259904Y-86939428D01*
X112212285Y-86844190D01*
X112164666Y-86796571D01*
X112069428Y-86748952D01*
X109736095Y-79033714D02*
X110450380Y-79033714D01*
X110021809Y-78605142D02*
X109736095Y-79890857D01*
X110355142Y-79462285D02*
X109640857Y-79462285D01*
X110069428Y-79890857D02*
X110355142Y-78605142D01*
X110736095Y-78795619D02*
X110783714Y-78748000D01*
X110878952Y-78700380D01*
X111117047Y-78700380D01*
X111212285Y-78748000D01*
X111259904Y-78795619D01*
X111307523Y-78890857D01*
X111307523Y-78986095D01*
X111259904Y-79128952D01*
X110688476Y-79700380D01*
X111307523Y-79700380D01*
X111640857Y-78700380D02*
X112307523Y-78700380D01*
X111878952Y-79700380D01*
X109736095Y-72175714D02*
X110450380Y-72175714D01*
X110021809Y-71747142D02*
X109736095Y-73032857D01*
X110355142Y-72604285D02*
X109640857Y-72604285D01*
X110069428Y-73032857D02*
X110355142Y-71747142D01*
X110736095Y-71937619D02*
X110783714Y-71890000D01*
X110878952Y-71842380D01*
X111117047Y-71842380D01*
X111212285Y-71890000D01*
X111259904Y-71937619D01*
X111307523Y-72032857D01*
X111307523Y-72128095D01*
X111259904Y-72270952D01*
X110688476Y-72842380D01*
X111307523Y-72842380D01*
X112164666Y-71842380D02*
X111974190Y-71842380D01*
X111878952Y-71890000D01*
X111831333Y-71937619D01*
X111736095Y-72080476D01*
X111688476Y-72270952D01*
X111688476Y-72651904D01*
X111736095Y-72747142D01*
X111783714Y-72794761D01*
X111878952Y-72842380D01*
X112069428Y-72842380D01*
X112164666Y-72794761D01*
X112212285Y-72747142D01*
X112259904Y-72651904D01*
X112259904Y-72413809D01*
X112212285Y-72318571D01*
X112164666Y-72270952D01*
X112069428Y-72223333D01*
X111878952Y-72223333D01*
X111783714Y-72270952D01*
X111736095Y-72318571D01*
X111688476Y-72413809D01*
X109736095Y-65317714D02*
X110450380Y-65317714D01*
X110021809Y-64889142D02*
X109736095Y-66174857D01*
X110355142Y-65746285D02*
X109640857Y-65746285D01*
X110069428Y-66174857D02*
X110355142Y-64889142D01*
X110736095Y-65079619D02*
X110783714Y-65032000D01*
X110878952Y-64984380D01*
X111117047Y-64984380D01*
X111212285Y-65032000D01*
X111259904Y-65079619D01*
X111307523Y-65174857D01*
X111307523Y-65270095D01*
X111259904Y-65412952D01*
X110688476Y-65984380D01*
X111307523Y-65984380D01*
X112212285Y-64984380D02*
X111736095Y-64984380D01*
X111688476Y-65460571D01*
X111736095Y-65412952D01*
X111831333Y-65365333D01*
X112069428Y-65365333D01*
X112164666Y-65412952D01*
X112212285Y-65460571D01*
X112259904Y-65555809D01*
X112259904Y-65793904D01*
X112212285Y-65889142D01*
X112164666Y-65936761D01*
X112069428Y-65984380D01*
X111831333Y-65984380D01*
X111736095Y-65936761D01*
X111688476Y-65889142D01*
X109736095Y-58459714D02*
X110450380Y-58459714D01*
X110021809Y-58031142D02*
X109736095Y-59316857D01*
X110355142Y-58888285D02*
X109640857Y-58888285D01*
X110069428Y-59316857D02*
X110355142Y-58031142D01*
X110736095Y-58221619D02*
X110783714Y-58174000D01*
X110878952Y-58126380D01*
X111117047Y-58126380D01*
X111212285Y-58174000D01*
X111259904Y-58221619D01*
X111307523Y-58316857D01*
X111307523Y-58412095D01*
X111259904Y-58554952D01*
X110688476Y-59126380D01*
X111307523Y-59126380D01*
X112164666Y-58459714D02*
X112164666Y-59126380D01*
X111926571Y-58078761D02*
X111688476Y-58793047D01*
X112307523Y-58793047D01*
X109482095Y-55157714D02*
X110196380Y-55157714D01*
X109767809Y-54729142D02*
X109482095Y-56014857D01*
X110101142Y-55586285D02*
X109386857Y-55586285D01*
X109815428Y-56014857D02*
X110101142Y-54729142D01*
X110482095Y-54919619D02*
X110529714Y-54872000D01*
X110624952Y-54824380D01*
X110863047Y-54824380D01*
X110958285Y-54872000D01*
X111005904Y-54919619D01*
X111053523Y-55014857D01*
X111053523Y-55110095D01*
X111005904Y-55252952D01*
X110434476Y-55824380D01*
X111053523Y-55824380D01*
X111386857Y-54824380D02*
X112005904Y-54824380D01*
X111672571Y-55205333D01*
X111815428Y-55205333D01*
X111910666Y-55252952D01*
X111958285Y-55300571D01*
X112005904Y-55395809D01*
X112005904Y-55633904D01*
X111958285Y-55729142D01*
X111910666Y-55776761D01*
X111815428Y-55824380D01*
X111529714Y-55824380D01*
X111434476Y-55776761D01*
X111386857Y-55729142D01*
X114054095Y-55157714D02*
X114768380Y-55157714D01*
X114339809Y-54729142D02*
X114054095Y-56014857D01*
X114673142Y-55586285D02*
X113958857Y-55586285D01*
X114387428Y-56014857D02*
X114673142Y-54729142D01*
X115054095Y-54919619D02*
X115101714Y-54872000D01*
X115196952Y-54824380D01*
X115435047Y-54824380D01*
X115530285Y-54872000D01*
X115577904Y-54919619D01*
X115625523Y-55014857D01*
X115625523Y-55110095D01*
X115577904Y-55252952D01*
X115006476Y-55824380D01*
X115625523Y-55824380D01*
X116006476Y-54919619D02*
X116054095Y-54872000D01*
X116149333Y-54824380D01*
X116387428Y-54824380D01*
X116482666Y-54872000D01*
X116530285Y-54919619D01*
X116577904Y-55014857D01*
X116577904Y-55110095D01*
X116530285Y-55252952D01*
X115958857Y-55824380D01*
X116577904Y-55824380D01*
X121166095Y-55157714D02*
X121880380Y-55157714D01*
X121451809Y-54729142D02*
X121166095Y-56014857D01*
X121785142Y-55586285D02*
X121070857Y-55586285D01*
X121499428Y-56014857D02*
X121785142Y-54729142D01*
X122166095Y-54919619D02*
X122213714Y-54872000D01*
X122308952Y-54824380D01*
X122547047Y-54824380D01*
X122642285Y-54872000D01*
X122689904Y-54919619D01*
X122737523Y-55014857D01*
X122737523Y-55110095D01*
X122689904Y-55252952D01*
X122118476Y-55824380D01*
X122737523Y-55824380D01*
X123689904Y-55824380D02*
X123118476Y-55824380D01*
X123404190Y-55824380D02*
X123404190Y-54824380D01*
X123308952Y-54967238D01*
X123213714Y-55062476D01*
X123118476Y-55110095D01*
X128532095Y-55157714D02*
X129246380Y-55157714D01*
X128817809Y-54729142D02*
X128532095Y-56014857D01*
X129151142Y-55586285D02*
X128436857Y-55586285D01*
X128865428Y-56014857D02*
X129151142Y-54729142D01*
X129532095Y-54919619D02*
X129579714Y-54872000D01*
X129674952Y-54824380D01*
X129913047Y-54824380D01*
X130008285Y-54872000D01*
X130055904Y-54919619D01*
X130103523Y-55014857D01*
X130103523Y-55110095D01*
X130055904Y-55252952D01*
X129484476Y-55824380D01*
X130103523Y-55824380D01*
X130722571Y-54824380D02*
X130817809Y-54824380D01*
X130913047Y-54872000D01*
X130960666Y-54919619D01*
X131008285Y-55014857D01*
X131055904Y-55205333D01*
X131055904Y-55443428D01*
X131008285Y-55633904D01*
X130960666Y-55729142D01*
X130913047Y-55776761D01*
X130817809Y-55824380D01*
X130722571Y-55824380D01*
X130627333Y-55776761D01*
X130579714Y-55729142D01*
X130532095Y-55633904D01*
X130484476Y-55443428D01*
X130484476Y-55205333D01*
X130532095Y-55014857D01*
X130579714Y-54919619D01*
X130627333Y-54872000D01*
X130722571Y-54824380D01*
X135390095Y-55157714D02*
X136104380Y-55157714D01*
X135675809Y-54729142D02*
X135390095Y-56014857D01*
X136009142Y-55586285D02*
X135294857Y-55586285D01*
X135723428Y-56014857D02*
X136009142Y-54729142D01*
X136961523Y-55824380D02*
X136390095Y-55824380D01*
X136675809Y-55824380D02*
X136675809Y-54824380D01*
X136580571Y-54967238D01*
X136485333Y-55062476D01*
X136390095Y-55110095D01*
X137437714Y-55824380D02*
X137628190Y-55824380D01*
X137723428Y-55776761D01*
X137771047Y-55729142D01*
X137866285Y-55586285D01*
X137913904Y-55395809D01*
X137913904Y-55014857D01*
X137866285Y-54919619D01*
X137818666Y-54872000D01*
X137723428Y-54824380D01*
X137532952Y-54824380D01*
X137437714Y-54872000D01*
X137390095Y-54919619D01*
X137342476Y-55014857D01*
X137342476Y-55252952D01*
X137390095Y-55348190D01*
X137437714Y-55395809D01*
X137532952Y-55443428D01*
X137723428Y-55443428D01*
X137818666Y-55395809D01*
X137866285Y-55348190D01*
X137913904Y-55252952D01*
X141740095Y-55157714D02*
X142454380Y-55157714D01*
X142025809Y-54729142D02*
X141740095Y-56014857D01*
X142359142Y-55586285D02*
X141644857Y-55586285D01*
X142073428Y-56014857D02*
X142359142Y-54729142D01*
X143311523Y-55824380D02*
X142740095Y-55824380D01*
X143025809Y-55824380D02*
X143025809Y-54824380D01*
X142930571Y-54967238D01*
X142835333Y-55062476D01*
X142740095Y-55110095D01*
X143882952Y-55252952D02*
X143787714Y-55205333D01*
X143740095Y-55157714D01*
X143692476Y-55062476D01*
X143692476Y-55014857D01*
X143740095Y-54919619D01*
X143787714Y-54872000D01*
X143882952Y-54824380D01*
X144073428Y-54824380D01*
X144168666Y-54872000D01*
X144216285Y-54919619D01*
X144263904Y-55014857D01*
X144263904Y-55062476D01*
X144216285Y-55157714D01*
X144168666Y-55205333D01*
X144073428Y-55252952D01*
X143882952Y-55252952D01*
X143787714Y-55300571D01*
X143740095Y-55348190D01*
X143692476Y-55443428D01*
X143692476Y-55633904D01*
X143740095Y-55729142D01*
X143787714Y-55776761D01*
X143882952Y-55824380D01*
X144073428Y-55824380D01*
X144168666Y-55776761D01*
X144216285Y-55729142D01*
X144263904Y-55633904D01*
X144263904Y-55443428D01*
X144216285Y-55348190D01*
X144168666Y-55300571D01*
X144073428Y-55252952D01*
X141740095Y-58205714D02*
X142454380Y-58205714D01*
X142025809Y-57777142D02*
X141740095Y-59062857D01*
X142359142Y-58634285D02*
X141644857Y-58634285D01*
X142073428Y-59062857D02*
X142359142Y-57777142D01*
X143311523Y-58872380D02*
X142740095Y-58872380D01*
X143025809Y-58872380D02*
X143025809Y-57872380D01*
X142930571Y-58015238D01*
X142835333Y-58110476D01*
X142740095Y-58158095D01*
X143644857Y-57872380D02*
X144311523Y-57872380D01*
X143882952Y-58872380D01*
X141740095Y-64809714D02*
X142454380Y-64809714D01*
X142025809Y-64381142D02*
X141740095Y-65666857D01*
X142359142Y-65238285D02*
X141644857Y-65238285D01*
X142073428Y-65666857D02*
X142359142Y-64381142D01*
X143311523Y-65476380D02*
X142740095Y-65476380D01*
X143025809Y-65476380D02*
X143025809Y-64476380D01*
X142930571Y-64619238D01*
X142835333Y-64714476D01*
X142740095Y-64762095D01*
X144168666Y-64476380D02*
X143978190Y-64476380D01*
X143882952Y-64524000D01*
X143835333Y-64571619D01*
X143740095Y-64714476D01*
X143692476Y-64904952D01*
X143692476Y-65285904D01*
X143740095Y-65381142D01*
X143787714Y-65428761D01*
X143882952Y-65476380D01*
X144073428Y-65476380D01*
X144168666Y-65428761D01*
X144216285Y-65381142D01*
X144263904Y-65285904D01*
X144263904Y-65047809D01*
X144216285Y-64952571D01*
X144168666Y-64904952D01*
X144073428Y-64857333D01*
X143882952Y-64857333D01*
X143787714Y-64904952D01*
X143740095Y-64952571D01*
X143692476Y-65047809D01*
X141740095Y-71921714D02*
X142454380Y-71921714D01*
X142025809Y-71493142D02*
X141740095Y-72778857D01*
X142359142Y-72350285D02*
X141644857Y-72350285D01*
X142073428Y-72778857D02*
X142359142Y-71493142D01*
X143311523Y-72588380D02*
X142740095Y-72588380D01*
X143025809Y-72588380D02*
X143025809Y-71588380D01*
X142930571Y-71731238D01*
X142835333Y-71826476D01*
X142740095Y-71874095D01*
X144216285Y-71588380D02*
X143740095Y-71588380D01*
X143692476Y-72064571D01*
X143740095Y-72016952D01*
X143835333Y-71969333D01*
X144073428Y-71969333D01*
X144168666Y-72016952D01*
X144216285Y-72064571D01*
X144263904Y-72159809D01*
X144263904Y-72397904D01*
X144216285Y-72493142D01*
X144168666Y-72540761D01*
X144073428Y-72588380D01*
X143835333Y-72588380D01*
X143740095Y-72540761D01*
X143692476Y-72493142D01*
X141740095Y-79033714D02*
X142454380Y-79033714D01*
X142025809Y-78605142D02*
X141740095Y-79890857D01*
X142359142Y-79462285D02*
X141644857Y-79462285D01*
X142073428Y-79890857D02*
X142359142Y-78605142D01*
X143311523Y-79700380D02*
X142740095Y-79700380D01*
X143025809Y-79700380D02*
X143025809Y-78700380D01*
X142930571Y-78843238D01*
X142835333Y-78938476D01*
X142740095Y-78986095D01*
X144168666Y-79033714D02*
X144168666Y-79700380D01*
X143930571Y-78652761D02*
X143692476Y-79367047D01*
X144311523Y-79367047D01*
X142248095Y-84875714D02*
X142962380Y-84875714D01*
X142533809Y-84447142D02*
X142248095Y-85732857D01*
X142867142Y-85304285D02*
X142152857Y-85304285D01*
X142581428Y-85732857D02*
X142867142Y-84447142D01*
X143819523Y-85542380D02*
X143248095Y-85542380D01*
X143533809Y-85542380D02*
X143533809Y-84542380D01*
X143438571Y-84685238D01*
X143343333Y-84780476D01*
X143248095Y-84828095D01*
X144152857Y-84542380D02*
X144771904Y-84542380D01*
X144438571Y-84923333D01*
X144581428Y-84923333D01*
X144676666Y-84970952D01*
X144724285Y-85018571D01*
X144771904Y-85113809D01*
X144771904Y-85351904D01*
X144724285Y-85447142D01*
X144676666Y-85494761D01*
X144581428Y-85542380D01*
X144295714Y-85542380D01*
X144200476Y-85494761D01*
X144152857Y-85447142D01*
X141994095Y-93511714D02*
X142708380Y-93511714D01*
X142279809Y-93083142D02*
X141994095Y-94368857D01*
X142613142Y-93940285D02*
X141898857Y-93940285D01*
X142327428Y-94368857D02*
X142613142Y-93083142D01*
X143565523Y-94178380D02*
X142994095Y-94178380D01*
X143279809Y-94178380D02*
X143279809Y-93178380D01*
X143184571Y-93321238D01*
X143089333Y-93416476D01*
X142994095Y-93464095D01*
X143946476Y-93273619D02*
X143994095Y-93226000D01*
X144089333Y-93178380D01*
X144327428Y-93178380D01*
X144422666Y-93226000D01*
X144470285Y-93273619D01*
X144517904Y-93368857D01*
X144517904Y-93464095D01*
X144470285Y-93606952D01*
X143898857Y-94178380D01*
X144517904Y-94178380D01*
X141740095Y-100369714D02*
X142454380Y-100369714D01*
X142025809Y-99941142D02*
X141740095Y-101226857D01*
X142359142Y-100798285D02*
X141644857Y-100798285D01*
X142073428Y-101226857D02*
X142359142Y-99941142D01*
X143311523Y-101036380D02*
X142740095Y-101036380D01*
X143025809Y-101036380D02*
X143025809Y-100036380D01*
X142930571Y-100179238D01*
X142835333Y-100274476D01*
X142740095Y-100322095D01*
X144263904Y-101036380D02*
X143692476Y-101036380D01*
X143978190Y-101036380D02*
X143978190Y-100036380D01*
X143882952Y-100179238D01*
X143787714Y-100274476D01*
X143692476Y-100322095D01*
X141740095Y-107481714D02*
X142454380Y-107481714D01*
X142025809Y-107053142D02*
X141740095Y-108338857D01*
X142359142Y-107910285D02*
X141644857Y-107910285D01*
X142073428Y-108338857D02*
X142359142Y-107053142D01*
X143311523Y-108148380D02*
X142740095Y-108148380D01*
X143025809Y-108148380D02*
X143025809Y-107148380D01*
X142930571Y-107291238D01*
X142835333Y-107386476D01*
X142740095Y-107434095D01*
X143930571Y-107148380D02*
X144025809Y-107148380D01*
X144121047Y-107196000D01*
X144168666Y-107243619D01*
X144216285Y-107338857D01*
X144263904Y-107529333D01*
X144263904Y-107767428D01*
X144216285Y-107957904D01*
X144168666Y-108053142D01*
X144121047Y-108100761D01*
X144025809Y-108148380D01*
X143930571Y-108148380D01*
X143835333Y-108100761D01*
X143787714Y-108053142D01*
X143740095Y-107957904D01*
X143692476Y-107767428D01*
X143692476Y-107529333D01*
X143740095Y-107338857D01*
X143787714Y-107243619D01*
X143835333Y-107196000D01*
X143930571Y-107148380D01*
X142724285Y-114593714D02*
X143438571Y-114593714D01*
X143010000Y-114165142D02*
X142724285Y-115450857D01*
X143343333Y-115022285D02*
X142629047Y-115022285D01*
X143057619Y-115450857D02*
X143343333Y-114165142D01*
X143819523Y-115260380D02*
X144010000Y-115260380D01*
X144105238Y-115212761D01*
X144152857Y-115165142D01*
X144248095Y-115022285D01*
X144295714Y-114831809D01*
X144295714Y-114450857D01*
X144248095Y-114355619D01*
X144200476Y-114308000D01*
X144105238Y-114260380D01*
X143914761Y-114260380D01*
X143819523Y-114308000D01*
X143771904Y-114355619D01*
X143724285Y-114450857D01*
X143724285Y-114688952D01*
X143771904Y-114784190D01*
X143819523Y-114831809D01*
X143914761Y-114879428D01*
X144105238Y-114879428D01*
X144200476Y-114831809D01*
X144248095Y-114784190D01*
X144295714Y-114688952D01*
X142724285Y-121197714D02*
X143438571Y-121197714D01*
X143010000Y-120769142D02*
X142724285Y-122054857D01*
X143343333Y-121626285D02*
X142629047Y-121626285D01*
X143057619Y-122054857D02*
X143343333Y-120769142D01*
X143914761Y-121292952D02*
X143819523Y-121245333D01*
X143771904Y-121197714D01*
X143724285Y-121102476D01*
X143724285Y-121054857D01*
X143771904Y-120959619D01*
X143819523Y-120912000D01*
X143914761Y-120864380D01*
X144105238Y-120864380D01*
X144200476Y-120912000D01*
X144248095Y-120959619D01*
X144295714Y-121054857D01*
X144295714Y-121102476D01*
X144248095Y-121197714D01*
X144200476Y-121245333D01*
X144105238Y-121292952D01*
X143914761Y-121292952D01*
X143819523Y-121340571D01*
X143771904Y-121388190D01*
X143724285Y-121483428D01*
X143724285Y-121673904D01*
X143771904Y-121769142D01*
X143819523Y-121816761D01*
X143914761Y-121864380D01*
X144105238Y-121864380D01*
X144200476Y-121816761D01*
X144248095Y-121769142D01*
X144295714Y-121673904D01*
X144295714Y-121483428D01*
X144248095Y-121388190D01*
X144200476Y-121340571D01*
X144105238Y-121292952D01*
X142724285Y-130087714D02*
X143438571Y-130087714D01*
X143010000Y-129659142D02*
X142724285Y-130944857D01*
X143343333Y-130516285D02*
X142629047Y-130516285D01*
X143057619Y-130944857D02*
X143343333Y-129659142D01*
X143676666Y-129754380D02*
X144343333Y-129754380D01*
X143914761Y-130754380D01*
X142724285Y-135929714D02*
X143438571Y-135929714D01*
X143010000Y-135501142D02*
X142724285Y-136786857D01*
X143343333Y-136358285D02*
X142629047Y-136358285D01*
X143057619Y-136786857D02*
X143343333Y-135501142D01*
X144200476Y-135596380D02*
X144010000Y-135596380D01*
X143914761Y-135644000D01*
X143867142Y-135691619D01*
X143771904Y-135834476D01*
X143724285Y-136024952D01*
X143724285Y-136405904D01*
X143771904Y-136501142D01*
X143819523Y-136548761D01*
X143914761Y-136596380D01*
X144105238Y-136596380D01*
X144200476Y-136548761D01*
X144248095Y-136501142D01*
X144295714Y-136405904D01*
X144295714Y-136167809D01*
X144248095Y-136072571D01*
X144200476Y-136024952D01*
X144105238Y-135977333D01*
X143914761Y-135977333D01*
X143819523Y-136024952D01*
X143771904Y-136072571D01*
X143724285Y-136167809D01*
X142724285Y-143041714D02*
X143438571Y-143041714D01*
X143010000Y-142613142D02*
X142724285Y-143898857D01*
X143343333Y-143470285D02*
X142629047Y-143470285D01*
X143057619Y-143898857D02*
X143343333Y-142613142D01*
X144248095Y-142708380D02*
X143771904Y-142708380D01*
X143724285Y-143184571D01*
X143771904Y-143136952D01*
X143867142Y-143089333D01*
X144105238Y-143089333D01*
X144200476Y-143136952D01*
X144248095Y-143184571D01*
X144295714Y-143279809D01*
X144295714Y-143517904D01*
X144248095Y-143613142D01*
X144200476Y-143660761D01*
X144105238Y-143708380D01*
X143867142Y-143708380D01*
X143771904Y-143660761D01*
X143724285Y-143613142D01*
X142724285Y-150153714D02*
X143438571Y-150153714D01*
X143010000Y-149725142D02*
X142724285Y-151010857D01*
X143343333Y-150582285D02*
X142629047Y-150582285D01*
X143057619Y-151010857D02*
X143343333Y-149725142D01*
X144200476Y-150153714D02*
X144200476Y-150820380D01*
X143962380Y-149772761D02*
X143724285Y-150487047D01*
X144343333Y-150487047D01*
X142216285Y-157265714D02*
X142930571Y-157265714D01*
X142502000Y-156837142D02*
X142216285Y-158122857D01*
X142835333Y-157694285D02*
X142121047Y-157694285D01*
X142549619Y-158122857D02*
X142835333Y-156837142D01*
X143168666Y-156932380D02*
X143787714Y-156932380D01*
X143454380Y-157313333D01*
X143597238Y-157313333D01*
X143692476Y-157360952D01*
X143740095Y-157408571D01*
X143787714Y-157503809D01*
X143787714Y-157741904D01*
X143740095Y-157837142D01*
X143692476Y-157884761D01*
X143597238Y-157932380D01*
X143311523Y-157932380D01*
X143216285Y-157884761D01*
X143168666Y-157837142D01*
X141962285Y-164377714D02*
X142676571Y-164377714D01*
X142248000Y-163949142D02*
X141962285Y-165234857D01*
X142581333Y-164806285D02*
X141867047Y-164806285D01*
X142295619Y-165234857D02*
X142581333Y-163949142D01*
X142962285Y-164139619D02*
X143009904Y-164092000D01*
X143105142Y-164044380D01*
X143343238Y-164044380D01*
X143438476Y-164092000D01*
X143486095Y-164139619D01*
X143533714Y-164234857D01*
X143533714Y-164330095D01*
X143486095Y-164472952D01*
X142914666Y-165044380D01*
X143533714Y-165044380D01*
X142216285Y-171235714D02*
X142930571Y-171235714D01*
X142502000Y-170807142D02*
X142216285Y-172092857D01*
X142835333Y-171664285D02*
X142121047Y-171664285D01*
X142549619Y-172092857D02*
X142835333Y-170807142D01*
X143787714Y-171902380D02*
X143216285Y-171902380D01*
X143502000Y-171902380D02*
X143502000Y-170902380D01*
X143406761Y-171045238D01*
X143311523Y-171140476D01*
X143216285Y-171188095D01*
D12*
X124599142Y-138111571D02*
X124599142Y-139325857D01*
X124670571Y-139468714D01*
X124742000Y-139540142D01*
X124884857Y-139611571D01*
X125170571Y-139611571D01*
X125313428Y-139540142D01*
X125384857Y-139468714D01*
X125456285Y-139325857D01*
X125456285Y-138111571D01*
X126099142Y-139540142D02*
X126313428Y-139611571D01*
X126670571Y-139611571D01*
X126813428Y-139540142D01*
X126884857Y-139468714D01*
X126956285Y-139325857D01*
X126956285Y-139183000D01*
X126884857Y-139040142D01*
X126813428Y-138968714D01*
X126670571Y-138897285D01*
X126384857Y-138825857D01*
X126242000Y-138754428D01*
X126170571Y-138683000D01*
X126099142Y-138540142D01*
X126099142Y-138397285D01*
X126170571Y-138254428D01*
X126242000Y-138183000D01*
X126384857Y-138111571D01*
X126742000Y-138111571D01*
X126956285Y-138183000D01*
X128099142Y-138825857D02*
X128313428Y-138897285D01*
X128384857Y-138968714D01*
X128456285Y-139111571D01*
X128456285Y-139325857D01*
X128384857Y-139468714D01*
X128313428Y-139540142D01*
X128170571Y-139611571D01*
X127599142Y-139611571D01*
X127599142Y-138111571D01*
X128099142Y-138111571D01*
X128242000Y-138183000D01*
X128313428Y-138254428D01*
X128384857Y-138397285D01*
X128384857Y-138540142D01*
X128313428Y-138683000D01*
X128242000Y-138754428D01*
X128099142Y-138825857D01*
X127599142Y-138825857D01*
X125063428Y-140518714D02*
X126349142Y-142447285D01*
X127634857Y-140590142D02*
X126349142Y-142518714D01*
D13*
X114384666Y-148070500D02*
X114300000Y-148155166D01*
X114046000Y-148239833D01*
X113876666Y-148239833D01*
X113622666Y-148155166D01*
X113453333Y-147985833D01*
X113368666Y-147816500D01*
X113284000Y-147477833D01*
X113284000Y-147223833D01*
X113368666Y-146885166D01*
X113453333Y-146715833D01*
X113622666Y-146546500D01*
X113876666Y-146461833D01*
X114046000Y-146461833D01*
X114300000Y-146546500D01*
X114384666Y-146631166D01*
X115400666Y-148239833D02*
X115231333Y-148155166D01*
X115146666Y-148070500D01*
X115062000Y-147901166D01*
X115062000Y-147393166D01*
X115146666Y-147223833D01*
X115231333Y-147139166D01*
X115400666Y-147054500D01*
X115654666Y-147054500D01*
X115824000Y-147139166D01*
X115908666Y-147223833D01*
X115993333Y-147393166D01*
X115993333Y-147901166D01*
X115908666Y-148070500D01*
X115824000Y-148155166D01*
X115654666Y-148239833D01*
X115400666Y-148239833D01*
X117009333Y-148239833D02*
X116840000Y-148155166D01*
X116755333Y-147985833D01*
X116755333Y-146461833D01*
X117940666Y-148239833D02*
X117771333Y-148155166D01*
X117686666Y-147985833D01*
X117686666Y-146461833D01*
X118618000Y-148239833D02*
X118618000Y-147054500D01*
X118618000Y-146461833D02*
X118533333Y-146546500D01*
X118618000Y-146631166D01*
X118702666Y-146546500D01*
X118618000Y-146461833D01*
X118618000Y-146631166D01*
X119464666Y-147054500D02*
X119464666Y-148239833D01*
X119464666Y-147223833D02*
X119549333Y-147139166D01*
X119718666Y-147054500D01*
X119972666Y-147054500D01*
X120142000Y-147139166D01*
X120226666Y-147308500D01*
X120226666Y-148239833D01*
X122428000Y-147308500D02*
X123020666Y-147308500D01*
X123274666Y-148239833D02*
X122428000Y-148239833D01*
X122428000Y-146461833D01*
X123274666Y-146461833D01*
X124036666Y-148239833D02*
X124036666Y-147054500D01*
X124036666Y-147393166D02*
X124121333Y-147223833D01*
X124206000Y-147139166D01*
X124375333Y-147054500D01*
X124544666Y-147054500D01*
X125137333Y-148239833D02*
X125137333Y-147054500D01*
X125137333Y-146461833D02*
X125052666Y-146546500D01*
X125137333Y-146631166D01*
X125222000Y-146546500D01*
X125137333Y-146461833D01*
X125137333Y-146631166D01*
X126746000Y-148155166D02*
X126576666Y-148239833D01*
X126238000Y-148239833D01*
X126068666Y-148155166D01*
X125984000Y-148070500D01*
X125899333Y-147901166D01*
X125899333Y-147393166D01*
X125984000Y-147223833D01*
X126068666Y-147139166D01*
X126238000Y-147054500D01*
X126576666Y-147054500D01*
X126746000Y-147139166D01*
X129201333Y-146461833D02*
X129539999Y-146461833D01*
X129709333Y-146546500D01*
X129878666Y-146715833D01*
X129963333Y-147054500D01*
X129963333Y-147647166D01*
X129878666Y-147985833D01*
X129709333Y-148155166D01*
X129539999Y-148239833D01*
X129201333Y-148239833D01*
X129031999Y-148155166D01*
X128862666Y-147985833D01*
X128777999Y-147647166D01*
X128777999Y-147054500D01*
X128862666Y-146715833D01*
X129031999Y-146546500D01*
X129201333Y-146461833D01*
X130640666Y-148155166D02*
X130810000Y-148239833D01*
X131148666Y-148239833D01*
X131318000Y-148155166D01*
X131402666Y-147985833D01*
X131402666Y-147901166D01*
X131318000Y-147731833D01*
X131148666Y-147647166D01*
X130894666Y-147647166D01*
X130725333Y-147562500D01*
X130640666Y-147393166D01*
X130640666Y-147308500D01*
X130725333Y-147139166D01*
X130894666Y-147054500D01*
X131148666Y-147054500D01*
X131318000Y-147139166D01*
X131910666Y-147054500D02*
X132588000Y-147054500D01*
X132164666Y-146461833D02*
X132164666Y-147985833D01*
X132249333Y-148155166D01*
X132418666Y-148239833D01*
X132588000Y-148239833D01*
X133180666Y-148239833D02*
X133180666Y-147054500D01*
X133180666Y-147393166D02*
X133265333Y-147223833D01*
X133350000Y-147139166D01*
X133519333Y-147054500D01*
X133688666Y-147054500D01*
X134535333Y-148239833D02*
X134366000Y-148155166D01*
X134281333Y-148070500D01*
X134196666Y-147901166D01*
X134196666Y-147393166D01*
X134281333Y-147223833D01*
X134366000Y-147139166D01*
X134535333Y-147054500D01*
X134789333Y-147054500D01*
X134958666Y-147139166D01*
X135043333Y-147223833D01*
X135128000Y-147393166D01*
X135128000Y-147901166D01*
X135043333Y-148070500D01*
X134958666Y-148155166D01*
X134789333Y-148239833D01*
X134535333Y-148239833D01*
X135720666Y-147054500D02*
X136059333Y-148239833D01*
X136398000Y-147393166D01*
X136736666Y-148239833D01*
X137075333Y-147054500D01*
X137668000Y-148155166D02*
X137837333Y-148239833D01*
X138176000Y-148239833D01*
X138345333Y-148155166D01*
X138430000Y-147985833D01*
X138430000Y-147901166D01*
X138345333Y-147731833D01*
X138176000Y-147647166D01*
X137922000Y-147647166D01*
X137752666Y-147562500D01*
X137668000Y-147393166D01*
X137668000Y-147308500D01*
X137752666Y-147139166D01*
X137922000Y-147054500D01*
X138176000Y-147054500D01*
X138345333Y-147139166D01*
X139192000Y-148239833D02*
X139192000Y-146461833D01*
X139361333Y-147562500D02*
X139869333Y-148239833D01*
X139869333Y-147054500D02*
X139192000Y-147731833D01*
X140631333Y-148239833D02*
X140631333Y-147054500D01*
X140631333Y-146461833D02*
X140546666Y-146546500D01*
X140631333Y-146631166D01*
X140716000Y-146546500D01*
X140631333Y-146461833D01*
X140631333Y-146631166D01*
X115316000Y-149278833D02*
X116332000Y-149278833D01*
X115824000Y-151056833D02*
X115824000Y-149278833D01*
X117602000Y-150972166D02*
X117432666Y-151056833D01*
X117094000Y-151056833D01*
X116924666Y-150972166D01*
X116840000Y-150802833D01*
X116840000Y-150125500D01*
X116924666Y-149956166D01*
X117094000Y-149871500D01*
X117432666Y-149871500D01*
X117602000Y-149956166D01*
X117686666Y-150125500D01*
X117686666Y-150294833D01*
X116840000Y-150464166D01*
X119210666Y-150972166D02*
X119041333Y-151056833D01*
X118702666Y-151056833D01*
X118533333Y-150972166D01*
X118448666Y-150887500D01*
X118364000Y-150718166D01*
X118364000Y-150210166D01*
X118448666Y-150040833D01*
X118533333Y-149956166D01*
X118702666Y-149871500D01*
X119041333Y-149871500D01*
X119210666Y-149956166D01*
X119972666Y-151056833D02*
X119972666Y-149278833D01*
X120734666Y-151056833D02*
X120734666Y-150125500D01*
X120650000Y-149956166D01*
X120480666Y-149871500D01*
X120226666Y-149871500D01*
X120057333Y-149956166D01*
X119972666Y-150040833D01*
X121581333Y-149871500D02*
X121581333Y-151056833D01*
X121581333Y-150040833D02*
X121666000Y-149956166D01*
X121835333Y-149871500D01*
X122089333Y-149871500D01*
X122258666Y-149956166D01*
X122343333Y-150125500D01*
X122343333Y-151056833D01*
X123444000Y-151056833D02*
X123274666Y-150972166D01*
X123190000Y-150887500D01*
X123105333Y-150718166D01*
X123105333Y-150210166D01*
X123190000Y-150040833D01*
X123274666Y-149956166D01*
X123444000Y-149871500D01*
X123698000Y-149871500D01*
X123867333Y-149956166D01*
X123952000Y-150040833D01*
X124036666Y-150210166D01*
X124036666Y-150718166D01*
X123952000Y-150887500D01*
X123867333Y-150972166D01*
X123698000Y-151056833D01*
X123444000Y-151056833D01*
X125052666Y-151056833D02*
X124883333Y-150972166D01*
X124798666Y-150802833D01*
X124798666Y-149278833D01*
X125984000Y-151056833D02*
X125814666Y-150972166D01*
X125730000Y-150887500D01*
X125645333Y-150718166D01*
X125645333Y-150210166D01*
X125730000Y-150040833D01*
X125814666Y-149956166D01*
X125984000Y-149871500D01*
X126238000Y-149871500D01*
X126407333Y-149956166D01*
X126492000Y-150040833D01*
X126576666Y-150210166D01*
X126576666Y-150718166D01*
X126492000Y-150887500D01*
X126407333Y-150972166D01*
X126238000Y-151056833D01*
X125984000Y-151056833D01*
X128100666Y-149871500D02*
X128100666Y-151310833D01*
X128016000Y-151480166D01*
X127931333Y-151564833D01*
X127762000Y-151649500D01*
X127508000Y-151649500D01*
X127338666Y-151564833D01*
X128100666Y-150972166D02*
X127931333Y-151056833D01*
X127592666Y-151056833D01*
X127423333Y-150972166D01*
X127338666Y-150887500D01*
X127254000Y-150718166D01*
X127254000Y-150210166D01*
X127338666Y-150040833D01*
X127423333Y-149956166D01*
X127592666Y-149871500D01*
X127931333Y-149871500D01*
X128100666Y-149956166D01*
X128778000Y-149871500D02*
X129201333Y-151056833D01*
X129624666Y-149871500D02*
X129201333Y-151056833D01*
X129032000Y-151480166D01*
X128947333Y-151564833D01*
X128778000Y-151649500D01*
X130302000Y-151056833D02*
X130302000Y-149871500D01*
X130302000Y-150040833D02*
X130386666Y-149956166D01*
X130556000Y-149871500D01*
X130810000Y-149871500D01*
X130979333Y-149956166D01*
X131064000Y-150125500D01*
X131064000Y-151056833D01*
X131064000Y-150125500D02*
X131148666Y-149956166D01*
X131318000Y-149871500D01*
X131572000Y-149871500D01*
X131741333Y-149956166D01*
X131826000Y-150125500D01*
X131826000Y-151056833D01*
X133434666Y-151056833D02*
X133434666Y-150125500D01*
X133350000Y-149956166D01*
X133180666Y-149871500D01*
X132842000Y-149871500D01*
X132672666Y-149956166D01*
X133434666Y-150972166D02*
X133265333Y-151056833D01*
X132842000Y-151056833D01*
X132672666Y-150972166D01*
X132588000Y-150802833D01*
X132588000Y-150633500D01*
X132672666Y-150464166D01*
X132842000Y-150379500D01*
X133265333Y-150379500D01*
X133434666Y-150294833D01*
X134281333Y-149871500D02*
X134281333Y-151056833D01*
X134281333Y-150040833D02*
X134366000Y-149956166D01*
X134535333Y-149871500D01*
X134789333Y-149871500D01*
X134958666Y-149956166D01*
X135043333Y-150125500D01*
X135043333Y-151056833D01*
X136228666Y-149278833D02*
X136398000Y-149278833D01*
X136567333Y-149363500D01*
X136652000Y-149448166D01*
X136736666Y-149617500D01*
X136821333Y-149956166D01*
X136821333Y-150379500D01*
X136736666Y-150718166D01*
X136652000Y-150887500D01*
X136567333Y-150972166D01*
X136398000Y-151056833D01*
X136228666Y-151056833D01*
X136059333Y-150972166D01*
X135974666Y-150887500D01*
X135890000Y-150718166D01*
X135805333Y-150379500D01*
X135805333Y-149956166D01*
X135890000Y-149617500D01*
X135974666Y-149448166D01*
X136059333Y-149363500D01*
X136228666Y-149278833D01*
X137922000Y-149278833D02*
X138091333Y-149278833D01*
X138260666Y-149363500D01*
X138345333Y-149448166D01*
X138430000Y-149617500D01*
X138514666Y-149956166D01*
X138514666Y-150379500D01*
X138430000Y-150718166D01*
X138345333Y-150887500D01*
X138260666Y-150972166D01*
X138091333Y-151056833D01*
X137922000Y-151056833D01*
X137752666Y-150972166D01*
X137668000Y-150887500D01*
X137583333Y-150718166D01*
X137498666Y-150379500D01*
X137498666Y-149956166D01*
X137583333Y-149617500D01*
X137668000Y-149448166D01*
X137752666Y-149363500D01*
X137922000Y-149278833D01*
X143708380Y-49918666D02*
X142708380Y-49918666D01*
X142708380Y-49537714D01*
X142756000Y-49442476D01*
X142803619Y-49394857D01*
X142898857Y-49347238D01*
X143041714Y-49347238D01*
X143136952Y-49394857D01*
X143184571Y-49442476D01*
X143232190Y-49537714D01*
X143232190Y-49918666D01*
X143708380Y-48775809D02*
X143660761Y-48871047D01*
X143613142Y-48918666D01*
X143517904Y-48966285D01*
X143232190Y-48966285D01*
X143136952Y-48918666D01*
X143089333Y-48871047D01*
X143041714Y-48775809D01*
X143041714Y-48632952D01*
X143089333Y-48537714D01*
X143136952Y-48490095D01*
X143232190Y-48442476D01*
X143517904Y-48442476D01*
X143613142Y-48490095D01*
X143660761Y-48537714D01*
X143708380Y-48632952D01*
X143708380Y-48775809D01*
X143708380Y-48013904D02*
X143041714Y-48013904D01*
X143232190Y-48013904D02*
X143136952Y-47966285D01*
X143089333Y-47918666D01*
X143041714Y-47823428D01*
X143041714Y-47728190D01*
X143041714Y-47537714D02*
X143041714Y-47156761D01*
X142708380Y-47394857D02*
X143565523Y-47394857D01*
X143660761Y-47347238D01*
X143708380Y-47252000D01*
X143708380Y-47156761D01*
X143708380Y-46013904D02*
X143708380Y-45823428D01*
X143660761Y-45728190D01*
X143613142Y-45680571D01*
X143470285Y-45585333D01*
X143279809Y-45537714D01*
X142898857Y-45537714D01*
X142803619Y-45585333D01*
X142756000Y-45632952D01*
X142708380Y-45728190D01*
X142708380Y-45918666D01*
X142756000Y-46013904D01*
X142803619Y-46061523D01*
X142898857Y-46109142D01*
X143136952Y-46109142D01*
X143232190Y-46061523D01*
X143279809Y-46013904D01*
X143327428Y-45918666D01*
X143327428Y-45728190D01*
X143279809Y-45632952D01*
X143232190Y-45585333D01*
X143136952Y-45537714D01*
X120332857Y-159456380D02*
X120332857Y-158456380D01*
X120713809Y-158456380D01*
X120809047Y-158504000D01*
X120856666Y-158551619D01*
X120904285Y-158646857D01*
X120904285Y-158789714D01*
X120856666Y-158884952D01*
X120809047Y-158932571D01*
X120713809Y-158980190D01*
X120332857Y-158980190D01*
X121237619Y-158456380D02*
X121475714Y-159456380D01*
X121666190Y-158742095D01*
X121856666Y-159456380D01*
X122094761Y-158456380D01*
X123047142Y-159456380D02*
X122713809Y-158980190D01*
X122475714Y-159456380D02*
X122475714Y-158456380D01*
X122856666Y-158456380D01*
X122951904Y-158504000D01*
X122999523Y-158551619D01*
X123047142Y-158646857D01*
X123047142Y-158789714D01*
X122999523Y-158884952D01*
X122951904Y-158932571D01*
X122856666Y-158980190D01*
X122475714Y-158980190D01*
X123237619Y-159551619D02*
X123999523Y-159551619D01*
X123999523Y-159551619D02*
X124761428Y-159551619D01*
X124999523Y-159456380D02*
X124999523Y-158456380D01*
X125475714Y-159456380D02*
X125475714Y-158456380D01*
X126047142Y-159456380D01*
X126047142Y-158456380D01*
D14*
%TO.C,U5*%
X117828000Y-135259000D02*
G75*
G03*
X117828000Y-135259000I-100000J0D01*
G01*
D15*
X115738000Y-135784000D02*
X111338000Y-135784000D01*
X115738000Y-128884000D02*
X111338000Y-128884000D01*
D16*
%TO.C,J31*%
X109046000Y-96580000D02*
X103296000Y-96580000D01*
X101946000Y-96530000D02*
X98746000Y-96530000D01*
X98746000Y-96530000D02*
X98746000Y-90580000D01*
X98746000Y-90580000D02*
X109046000Y-90580000D01*
X109046000Y-90580000D02*
X109046000Y-96580000D01*
X107696000Y-90680000D02*
X107696000Y-91690000D01*
X107696000Y-91690000D02*
X102616000Y-91690000D01*
X102616000Y-91690000D02*
X102616000Y-90680000D01*
%TO.C,J21*%
X135950000Y-142240000D02*
X133290000Y-142240000D01*
X135950000Y-142240000D02*
X135950000Y-83760000D01*
X135950000Y-83760000D02*
X133290000Y-83760000D01*
X133290000Y-142240000D02*
X133290000Y-83760000D01*
X133290000Y-144840000D02*
X133290000Y-143510000D01*
X134620000Y-144840000D02*
X133290000Y-144840000D01*
D15*
%TO.C,U1*%
X138262000Y-129180000D02*
X142662000Y-129180000D01*
X138262000Y-122280000D02*
X142662000Y-122280000D01*
D14*
X136372000Y-122805000D02*
G75*
G03*
X136372000Y-122805000I-100000J0D01*
G01*
D17*
%TO.C,G\u002A\u002A\u002A*%
G36*
X136860579Y-67868791D02*
G01*
X136942489Y-67868933D01*
X137011089Y-67869310D01*
X137067588Y-67870023D01*
X137113194Y-67871176D01*
X137149113Y-67872871D01*
X137176555Y-67875210D01*
X137196728Y-67878297D01*
X137210838Y-67882232D01*
X137220095Y-67887120D01*
X137225706Y-67893062D01*
X137228879Y-67900162D01*
X137230821Y-67908520D01*
X137232705Y-67918076D01*
X137237471Y-67938896D01*
X137244446Y-67968454D01*
X137249651Y-67990134D01*
X137256162Y-68020115D01*
X137260456Y-68045801D01*
X137261491Y-68057868D01*
X137263128Y-68074909D01*
X137267545Y-68102793D01*
X137273829Y-68135835D01*
X137274635Y-68139734D01*
X137283323Y-68181917D01*
X137292636Y-68227990D01*
X137299480Y-68262500D01*
X137307293Y-68302277D01*
X137315632Y-68344467D01*
X137321221Y-68372567D01*
X137328239Y-68410404D01*
X137334891Y-68450613D01*
X137337730Y-68469934D01*
X137340896Y-68491992D01*
X137344614Y-68515128D01*
X137349459Y-68542481D01*
X137356006Y-68577190D01*
X137364831Y-68622393D01*
X137375738Y-68677367D01*
X137387058Y-68734346D01*
X137395577Y-68777760D01*
X137401857Y-68810641D01*
X137406455Y-68836018D01*
X137409932Y-68856925D01*
X137412848Y-68876392D01*
X137414030Y-68884801D01*
X137424560Y-68941311D01*
X137438671Y-68982962D01*
X137457003Y-69011571D01*
X137459671Y-69014369D01*
X137477156Y-69026005D01*
X137507391Y-69040068D01*
X137546685Y-69054933D01*
X137567218Y-69061730D01*
X137605807Y-69074384D01*
X137640455Y-69086525D01*
X137666656Y-69096533D01*
X137677773Y-69101513D01*
X137698444Y-69110209D01*
X137713469Y-69113400D01*
X137729963Y-69116591D01*
X137752384Y-69124362D01*
X137754496Y-69125246D01*
X137780285Y-69135866D01*
X137811010Y-69148037D01*
X137820400Y-69151659D01*
X137846958Y-69161815D01*
X137869273Y-69170348D01*
X137875433Y-69172704D01*
X137888268Y-69178373D01*
X137913545Y-69190152D01*
X137948485Y-69206725D01*
X137990312Y-69226774D01*
X138032066Y-69246953D01*
X138079301Y-69269516D01*
X138123742Y-69290098D01*
X138162172Y-69307258D01*
X138191375Y-69319556D01*
X138206501Y-69325097D01*
X138221914Y-69329393D01*
X138235044Y-69331111D01*
X138248567Y-69329123D01*
X138265162Y-69322298D01*
X138287507Y-69309509D01*
X138318281Y-69289625D01*
X138360162Y-69261519D01*
X138364896Y-69258326D01*
X138398906Y-69235483D01*
X138428799Y-69215584D01*
X138451188Y-69200870D01*
X138462263Y-69193834D01*
X138476276Y-69184323D01*
X138480799Y-69180236D01*
X138485307Y-69176536D01*
X138496774Y-69168242D01*
X138516089Y-69154747D01*
X138544142Y-69135444D01*
X138581823Y-69109726D01*
X138630020Y-69076986D01*
X138689624Y-69036617D01*
X138761524Y-68988011D01*
X138844873Y-68931733D01*
X138887904Y-68902518D01*
X138930008Y-68873626D01*
X138967391Y-68847682D01*
X138996260Y-68827310D01*
X139005739Y-68820456D01*
X139058498Y-68782167D01*
X139099833Y-68753186D01*
X139131647Y-68732373D01*
X139155840Y-68718584D01*
X139174313Y-68710679D01*
X139188967Y-68707515D01*
X139194078Y-68707320D01*
X139203438Y-68708569D01*
X139214230Y-68712955D01*
X139227959Y-68721756D01*
X139246133Y-68736250D01*
X139270256Y-68757714D01*
X139301835Y-68787427D01*
X139342376Y-68826666D01*
X139391180Y-68874537D01*
X139481734Y-68963979D01*
X139567267Y-69049060D01*
X139647081Y-69129059D01*
X139720478Y-69203252D01*
X139786759Y-69270917D01*
X139845228Y-69331333D01*
X139895185Y-69383775D01*
X139935934Y-69427522D01*
X139966776Y-69461852D01*
X139987013Y-69486041D01*
X139995947Y-69499369D01*
X139996333Y-69500930D01*
X139994951Y-69507718D01*
X139990314Y-69518473D01*
X139981685Y-69534336D01*
X139968327Y-69556446D01*
X139949502Y-69585945D01*
X139924474Y-69623971D01*
X139892506Y-69671666D01*
X139852860Y-69730169D01*
X139804799Y-69800621D01*
X139765200Y-69858467D01*
X139731845Y-69907158D01*
X139697150Y-69957833D01*
X139664079Y-70006159D01*
X139635599Y-70047803D01*
X139620340Y-70070134D01*
X139594994Y-70107238D01*
X139563617Y-70153159D01*
X139529739Y-70202732D01*
X139496886Y-70250796D01*
X139488219Y-70263474D01*
X139451998Y-70316801D01*
X139424485Y-70358281D01*
X139404559Y-70389857D01*
X139391099Y-70413469D01*
X139382984Y-70431060D01*
X139379092Y-70444571D01*
X139378266Y-70453900D01*
X139381963Y-70466772D01*
X139392322Y-70492274D01*
X139408247Y-70527983D01*
X139428642Y-70571478D01*
X139452411Y-70620336D01*
X139465338Y-70646259D01*
X139512139Y-70741327D01*
X139551579Y-70826139D01*
X139585375Y-70904729D01*
X139615246Y-70981135D01*
X139642911Y-71059392D01*
X139649006Y-71077667D01*
X139668320Y-71135000D01*
X139683990Y-71178301D01*
X139697102Y-71209796D01*
X139708743Y-71231711D01*
X139719999Y-71246275D01*
X139731956Y-71255712D01*
X139737277Y-71258599D01*
X139758697Y-71266632D01*
X139790201Y-71275572D01*
X139825169Y-71283553D01*
X139826999Y-71283915D01*
X139867196Y-71291828D01*
X139909355Y-71300185D01*
X139941299Y-71306565D01*
X139979134Y-71313640D01*
X140019340Y-71320374D01*
X140038666Y-71323263D01*
X140108817Y-71334239D01*
X140178656Y-71347307D01*
X140240163Y-71360957D01*
X140243855Y-71361872D01*
X140276084Y-71368685D01*
X140306411Y-71373085D01*
X140320908Y-71374000D01*
X140349445Y-71376708D01*
X140373953Y-71382548D01*
X140395472Y-71388306D01*
X140426365Y-71394557D01*
X140453533Y-71398982D01*
X140483035Y-71403411D01*
X140512740Y-71408382D01*
X140546364Y-71414591D01*
X140587620Y-71422738D01*
X140640225Y-71433517D01*
X140665200Y-71438707D01*
X140716202Y-71449573D01*
X140753269Y-71458209D01*
X140779118Y-71465471D01*
X140796463Y-71472216D01*
X140808020Y-71479298D01*
X140815059Y-71485932D01*
X140818145Y-71490148D01*
X140820797Y-71496306D01*
X140823056Y-71505665D01*
X140824961Y-71519481D01*
X140826551Y-71539011D01*
X140827868Y-71565512D01*
X140828950Y-71600242D01*
X140829837Y-71644458D01*
X140830570Y-71699415D01*
X140831188Y-71766373D01*
X140831731Y-71846587D01*
X140832239Y-71941314D01*
X140832712Y-72042934D01*
X140835125Y-72583101D01*
X140815779Y-72604707D01*
X140797533Y-72619273D01*
X140770740Y-72629554D01*
X140741400Y-72635779D01*
X140666724Y-72648970D01*
X140582397Y-72664463D01*
X140495320Y-72680985D01*
X140485283Y-72682925D01*
X140422107Y-72695154D01*
X140372409Y-72704767D01*
X140333044Y-72712369D01*
X140300867Y-72718566D01*
X140272733Y-72723966D01*
X140245496Y-72729173D01*
X140229166Y-72732287D01*
X140193608Y-72738926D01*
X140161385Y-72744701D01*
X140138604Y-72748521D01*
X140136033Y-72748909D01*
X140115144Y-72752367D01*
X140084120Y-72757968D01*
X140049431Y-72764543D01*
X140047133Y-72764990D01*
X140005932Y-72772920D01*
X139961820Y-72781265D01*
X139928599Y-72787434D01*
X139869212Y-72798614D01*
X139824082Y-72808283D01*
X139790750Y-72817619D01*
X139766753Y-72827797D01*
X139749632Y-72839994D01*
X139736924Y-72855386D01*
X139726170Y-72875150D01*
X139720903Y-72886707D01*
X139709546Y-72915768D01*
X139701954Y-72941669D01*
X139699999Y-72954898D01*
X139696030Y-72978307D01*
X139688393Y-72998294D01*
X139679700Y-73018733D01*
X139669331Y-73048132D01*
X139662065Y-73071567D01*
X139630570Y-73167138D01*
X139610245Y-73217904D01*
X139602289Y-73238758D01*
X139598460Y-73253076D01*
X139598399Y-73254066D01*
X139595064Y-73265378D01*
X139586265Y-73287462D01*
X139573818Y-73315799D01*
X139572170Y-73319395D01*
X139557430Y-73351544D01*
X139543973Y-73381118D01*
X139534706Y-73401729D01*
X139534689Y-73401767D01*
X139518924Y-73435787D01*
X139498190Y-73478423D01*
X139475613Y-73523417D01*
X139454322Y-73564511D01*
X139441618Y-73588034D01*
X139423829Y-73629258D01*
X139417378Y-73672028D01*
X139417241Y-73676934D01*
X139417336Y-73696113D01*
X139419429Y-73712332D01*
X139425010Y-73728831D01*
X139435568Y-73748849D01*
X139452591Y-73775626D01*
X139477568Y-73812402D01*
X139483391Y-73820867D01*
X139514839Y-73866580D01*
X139549518Y-73917038D01*
X139583002Y-73965795D01*
X139608458Y-74002901D01*
X139653820Y-74068986D01*
X139699908Y-74135975D01*
X139744942Y-74201290D01*
X139787142Y-74262356D01*
X139824728Y-74316597D01*
X139855920Y-74361435D01*
X139874603Y-74388134D01*
X139915138Y-74446563D01*
X139946182Y-74493183D01*
X139968618Y-74529567D01*
X139983329Y-74557290D01*
X139991199Y-74577925D01*
X139993109Y-74593045D01*
X139992367Y-74598046D01*
X139984889Y-74609688D01*
X139965458Y-74632841D01*
X139934307Y-74667256D01*
X139891671Y-74712687D01*
X139837782Y-74768886D01*
X139772875Y-74835608D01*
X139697183Y-74912605D01*
X139638057Y-74972334D01*
X139556928Y-75053997D01*
X139486774Y-75124379D01*
X139426723Y-75184294D01*
X139375900Y-75234557D01*
X139333429Y-75275982D01*
X139298439Y-75309385D01*
X139270053Y-75335579D01*
X139247399Y-75355379D01*
X139229602Y-75369600D01*
X139215788Y-75379057D01*
X139205082Y-75384564D01*
X139196611Y-75386936D01*
X139192877Y-75387200D01*
X139178191Y-75382101D01*
X139150709Y-75367064D01*
X139111050Y-75342485D01*
X139059836Y-75308760D01*
X138997687Y-75266282D01*
X138944467Y-75229055D01*
X138919833Y-75211872D01*
X138885682Y-75188303D01*
X138846523Y-75161452D01*
X138806865Y-75134419D01*
X138806766Y-75134352D01*
X138762888Y-75104453D01*
X138715411Y-75071958D01*
X138670540Y-75041119D01*
X138639378Y-75019590D01*
X138606372Y-74996840D01*
X138576564Y-74976541D01*
X138553939Y-74961392D01*
X138544673Y-74955400D01*
X138529171Y-74945261D01*
X138503831Y-74928146D01*
X138472685Y-74906793D01*
X138451183Y-74891900D01*
X138417527Y-74868910D01*
X138386082Y-74848162D01*
X138361273Y-74832541D01*
X138351153Y-74826691D01*
X138324285Y-74816145D01*
X138298470Y-74812129D01*
X138279197Y-74815117D01*
X138273366Y-74819934D01*
X138261128Y-74827696D01*
X138255765Y-74828400D01*
X138241311Y-74832667D01*
X138219906Y-74843361D01*
X138211815Y-74848197D01*
X138186409Y-74863235D01*
X138149664Y-74883829D01*
X138105373Y-74907934D01*
X138057328Y-74933506D01*
X138009321Y-74958499D01*
X137972800Y-74977051D01*
X137939414Y-74993228D01*
X137916097Y-75002685D01*
X137898111Y-75006916D01*
X137880715Y-75007413D01*
X137877019Y-75007204D01*
X137870762Y-75005213D01*
X137863896Y-74999001D01*
X137855648Y-74986986D01*
X137845249Y-74967588D01*
X137831928Y-74939228D01*
X137814914Y-74900326D01*
X137793436Y-74849302D01*
X137766724Y-74784575D01*
X137757793Y-74762784D01*
X137737445Y-74713168D01*
X137714510Y-74657378D01*
X137692450Y-74603835D01*
X137681170Y-74576517D01*
X137663887Y-74534629D01*
X137642584Y-74482871D01*
X137619647Y-74427047D01*
X137597463Y-74372962D01*
X137591539Y-74358500D01*
X137573403Y-74314253D01*
X137557084Y-74274532D01*
X137543857Y-74242427D01*
X137534993Y-74221028D01*
X137532278Y-74214567D01*
X137526027Y-74199535D01*
X137515278Y-74173244D01*
X137501846Y-74140147D01*
X137494287Y-74121434D01*
X137479441Y-74084876D01*
X137465572Y-74051160D01*
X137454830Y-74025502D01*
X137451478Y-74017717D01*
X137438951Y-73989127D01*
X137427393Y-73962684D01*
X137419532Y-73944059D01*
X137407113Y-73913939D01*
X137391869Y-73876553D01*
X137376206Y-73837801D01*
X137359913Y-73797841D01*
X137344727Y-73761546D01*
X137332374Y-73732978D01*
X137324713Y-73716464D01*
X137316076Y-73697574D01*
X137312401Y-73685412D01*
X137312400Y-73685305D01*
X137309064Y-73674548D01*
X137300289Y-73653020D01*
X137287922Y-73625236D01*
X137286999Y-73623238D01*
X137274482Y-73595433D01*
X137265410Y-73573832D01*
X137261620Y-73562821D01*
X137261599Y-73562544D01*
X137258351Y-73551596D01*
X137250413Y-73532565D01*
X137249260Y-73530047D01*
X137241504Y-73512185D01*
X137229155Y-73482498D01*
X137213826Y-73444911D01*
X137197131Y-73403354D01*
X137194813Y-73397534D01*
X137176898Y-73352953D01*
X137158970Y-73309109D01*
X137143073Y-73270956D01*
X137131251Y-73243447D01*
X137130952Y-73242776D01*
X137116503Y-73208144D01*
X137110105Y-73182758D01*
X137113108Y-73162763D01*
X137126860Y-73144303D01*
X137152711Y-73123522D01*
X137179050Y-73105312D01*
X137239447Y-73064198D01*
X137288287Y-73030250D01*
X137328215Y-73001408D01*
X137361873Y-72975615D01*
X137391906Y-72950812D01*
X137420958Y-72924939D01*
X137451672Y-72895938D01*
X137466879Y-72881184D01*
X137562101Y-72777726D01*
X137641294Y-72668836D01*
X137704478Y-72554484D01*
X137731503Y-72491601D01*
X137743019Y-72462476D01*
X137754041Y-72435323D01*
X137757053Y-72428101D01*
X137768857Y-72394122D01*
X137780901Y-72349075D01*
X137791714Y-72298740D01*
X137795821Y-72275701D01*
X137801989Y-72242330D01*
X137809070Y-72209230D01*
X137811418Y-72199501D01*
X137815259Y-72174180D01*
X137817859Y-72136426D01*
X137819219Y-72090692D01*
X137819340Y-72041432D01*
X137818223Y-71993099D01*
X137815869Y-71950149D01*
X137812279Y-71917034D01*
X137811347Y-71911634D01*
X137804961Y-71876878D01*
X137798141Y-71838103D01*
X137795534Y-71822734D01*
X137767056Y-71702390D01*
X137722293Y-71583325D01*
X137661896Y-71466764D01*
X137586513Y-71353932D01*
X137496794Y-71246053D01*
X137480663Y-71228820D01*
X137452392Y-71200415D01*
X137422683Y-71173643D01*
X137388161Y-71145757D01*
X137345451Y-71114007D01*
X137300832Y-71082379D01*
X137272235Y-71063749D01*
X137237109Y-71042874D01*
X137198876Y-71021549D01*
X137160960Y-71001572D01*
X137126784Y-70984738D01*
X137099769Y-70972843D01*
X137083340Y-70967683D01*
X137082096Y-70967601D01*
X137065759Y-70962040D01*
X137060774Y-70958122D01*
X137046700Y-70950245D01*
X137024027Y-70942876D01*
X137018864Y-70941676D01*
X136996285Y-70936322D01*
X136963018Y-70927824D01*
X136924671Y-70917633D01*
X136906000Y-70912535D01*
X136877314Y-70904934D01*
X136851998Y-70899293D01*
X136826732Y-70895324D01*
X136798198Y-70892736D01*
X136763076Y-70891239D01*
X136718046Y-70890544D01*
X136659790Y-70890361D01*
X136652000Y-70890360D01*
X136591988Y-70890502D01*
X136545590Y-70891123D01*
X136509485Y-70892511D01*
X136480355Y-70894958D01*
X136454880Y-70898751D01*
X136429741Y-70904182D01*
X136401618Y-70911540D01*
X136398000Y-70912535D01*
X136359209Y-70923026D01*
X136322789Y-70932522D01*
X136294349Y-70939575D01*
X136285135Y-70941676D01*
X136261681Y-70948526D01*
X136245096Y-70956561D01*
X136243225Y-70958122D01*
X136227652Y-70966747D01*
X136221903Y-70967601D01*
X136207201Y-70971691D01*
X136181442Y-70982764D01*
X136148050Y-70999024D01*
X136110446Y-71018675D01*
X136072054Y-71039920D01*
X136036296Y-71060964D01*
X136006596Y-71080010D01*
X136003167Y-71082379D01*
X135950983Y-71119491D01*
X135909819Y-71150433D01*
X135876299Y-71177955D01*
X135847049Y-71204803D01*
X135823336Y-71228820D01*
X135731315Y-71335764D01*
X135653523Y-71447863D01*
X135590609Y-71563893D01*
X135543223Y-71682629D01*
X135512013Y-71802847D01*
X135508465Y-71822734D01*
X135502187Y-71859177D01*
X135495326Y-71897312D01*
X135492652Y-71911634D01*
X135488796Y-71942056D01*
X135486177Y-71983270D01*
X135484794Y-72030822D01*
X135484649Y-72080258D01*
X135485743Y-72127125D01*
X135488077Y-72166969D01*
X135491651Y-72195335D01*
X135492581Y-72199501D01*
X135499376Y-72229463D01*
X135506168Y-72264135D01*
X135508178Y-72275701D01*
X135517948Y-72326529D01*
X135529615Y-72374694D01*
X135541710Y-72414414D01*
X135546946Y-72428101D01*
X135556807Y-72452104D01*
X135568619Y-72481699D01*
X135572497Y-72491601D01*
X135625539Y-72605373D01*
X135694231Y-72715159D01*
X135777453Y-72819306D01*
X135836766Y-72881209D01*
X135871767Y-72914760D01*
X135903581Y-72943667D01*
X135935260Y-72970319D01*
X135969858Y-72997105D01*
X136010428Y-73026416D01*
X136060025Y-73060641D01*
X136103759Y-73090152D01*
X136146627Y-73120778D01*
X136176438Y-73146232D01*
X136192317Y-73165710D01*
X136194800Y-73173862D01*
X136191815Y-73184656D01*
X136183780Y-73207581D01*
X136172075Y-73239103D01*
X136158078Y-73275688D01*
X136143169Y-73313803D01*
X136128728Y-73349912D01*
X136116134Y-73380482D01*
X136106766Y-73401978D01*
X136102544Y-73410234D01*
X136096356Y-73423160D01*
X136088029Y-73445052D01*
X136085457Y-73452567D01*
X136074215Y-73483919D01*
X136061458Y-73516326D01*
X136059788Y-73520301D01*
X136047134Y-73550437D01*
X136033363Y-73583738D01*
X136029876Y-73592267D01*
X136016859Y-73623293D01*
X136001512Y-73658610D01*
X135994512Y-73674293D01*
X135983691Y-73699149D01*
X135976483Y-73717442D01*
X135974666Y-73723781D01*
X135971562Y-73733248D01*
X135963069Y-73755220D01*
X135950411Y-73786616D01*
X135934815Y-73824353D01*
X135931508Y-73832255D01*
X135908590Y-73886829D01*
X135891218Y-73927969D01*
X135878430Y-73957875D01*
X135869267Y-73978747D01*
X135862767Y-73992785D01*
X135857971Y-74002189D01*
X135855147Y-74007134D01*
X135845572Y-74026009D01*
X135842909Y-74032534D01*
X135824265Y-74082084D01*
X135803656Y-74134616D01*
X135783413Y-74184330D01*
X135765863Y-74225428D01*
X135761927Y-74234208D01*
X135749742Y-74262091D01*
X135741014Y-74284126D01*
X135737601Y-74295620D01*
X135737599Y-74295706D01*
X135733839Y-74309230D01*
X135729463Y-74318399D01*
X135723346Y-74331460D01*
X135712358Y-74356810D01*
X135697952Y-74391029D01*
X135681584Y-74430697D01*
X135678223Y-74438934D01*
X135661218Y-74480501D01*
X135645535Y-74518512D01*
X135632769Y-74549115D01*
X135624520Y-74568459D01*
X135623764Y-74570167D01*
X135615579Y-74589219D01*
X135603184Y-74618929D01*
X135588680Y-74654245D01*
X135581559Y-74671767D01*
X135567339Y-74706346D01*
X135554689Y-74736132D01*
X135545458Y-74756816D01*
X135542554Y-74762669D01*
X135535668Y-74779165D01*
X135534399Y-74786130D01*
X135531033Y-74797774D01*
X135522207Y-74819876D01*
X135509844Y-74847629D01*
X135493379Y-74883953D01*
X135476527Y-74922634D01*
X135466424Y-74946795D01*
X135449141Y-74982887D01*
X135432206Y-75003700D01*
X135414058Y-75010779D01*
X135403166Y-75009425D01*
X135387870Y-75003405D01*
X135360534Y-74990783D01*
X135324019Y-74973000D01*
X135281185Y-74951501D01*
X135234892Y-74927726D01*
X135188001Y-74903118D01*
X135143372Y-74879120D01*
X135127999Y-74870680D01*
X135077626Y-74843866D01*
X135038905Y-74825821D01*
X135009550Y-74815704D01*
X134987271Y-74812671D01*
X134974761Y-74814286D01*
X134959919Y-74821121D01*
X134934968Y-74835683D01*
X134903511Y-74855765D01*
X134872373Y-74876908D01*
X134840244Y-74899188D01*
X134797583Y-74928528D01*
X134747904Y-74962526D01*
X134694716Y-74998781D01*
X134641532Y-75034891D01*
X134627634Y-75044300D01*
X134577430Y-75078449D01*
X134528529Y-75112042D01*
X134483846Y-75143052D01*
X134446291Y-75169454D01*
X134418779Y-75189223D01*
X134411551Y-75194584D01*
X134386011Y-75213462D01*
X134366003Y-75227586D01*
X134355048Y-75234491D01*
X134354142Y-75234800D01*
X134345770Y-75239256D01*
X134327116Y-75251082D01*
X134301793Y-75267970D01*
X134294568Y-75272900D01*
X134257476Y-75298332D01*
X134216082Y-75326714D01*
X134183431Y-75349100D01*
X134154724Y-75367200D01*
X134129152Y-75380544D01*
X134111479Y-75386702D01*
X134109348Y-75386859D01*
X134092860Y-75381467D01*
X134069865Y-75367930D01*
X134052733Y-75355109D01*
X134039873Y-75343424D01*
X134016299Y-75320871D01*
X133983197Y-75288625D01*
X133941756Y-75247860D01*
X133893163Y-75199752D01*
X133838605Y-75145477D01*
X133779271Y-75086209D01*
X133716348Y-75023124D01*
X133661149Y-74967601D01*
X133584054Y-74889794D01*
X133518262Y-74823061D01*
X133463013Y-74766589D01*
X133417548Y-74719567D01*
X133381107Y-74681186D01*
X133352931Y-74650632D01*
X133332259Y-74627095D01*
X133318333Y-74609764D01*
X133310394Y-74597827D01*
X133307680Y-74590474D01*
X133307666Y-74590061D01*
X133312445Y-74573633D01*
X133325533Y-74547208D01*
X133345062Y-74514319D01*
X133358929Y-74493193D01*
X133386441Y-74452698D01*
X133418546Y-74405421D01*
X133450334Y-74358593D01*
X133466879Y-74334211D01*
X133484225Y-74308644D01*
X133498840Y-74287118D01*
X133512066Y-74267671D01*
X133525250Y-74248341D01*
X133539734Y-74227165D01*
X133556865Y-74202180D01*
X133577985Y-74171423D01*
X133604440Y-74132932D01*
X133637574Y-74084744D01*
X133678732Y-74024896D01*
X133686550Y-74013528D01*
X133719538Y-73965270D01*
X133749088Y-73921487D01*
X133773904Y-73884144D01*
X133792694Y-73855200D01*
X133804163Y-73836619D01*
X133807200Y-73830516D01*
X133813003Y-73819387D01*
X133820126Y-73812212D01*
X133844102Y-73785917D01*
X133866252Y-73750853D01*
X133882785Y-73713935D01*
X133889677Y-73685401D01*
X133890158Y-73668102D01*
X133887522Y-73649995D01*
X133880728Y-73628482D01*
X133868736Y-73600964D01*
X133850508Y-73564842D01*
X133825003Y-73517518D01*
X133815880Y-73500934D01*
X133804220Y-73478539D01*
X133790566Y-73450511D01*
X133776959Y-73421290D01*
X133765436Y-73395322D01*
X133758036Y-73377049D01*
X133756400Y-73371288D01*
X133753110Y-73360245D01*
X133744484Y-73338560D01*
X133732386Y-73310916D01*
X133732321Y-73310773D01*
X133709161Y-73257401D01*
X133685359Y-73198243D01*
X133662241Y-73137010D01*
X133641133Y-73077411D01*
X133623363Y-73023156D01*
X133610255Y-72977955D01*
X133604436Y-72953034D01*
X133596801Y-72924275D01*
X133585197Y-72891279D01*
X133579892Y-72878527D01*
X133564839Y-72850678D01*
X133546590Y-72832988D01*
X133525443Y-72821758D01*
X133493137Y-72810245D01*
X133458690Y-72801895D01*
X133451240Y-72800740D01*
X133416526Y-72795459D01*
X133370091Y-72787280D01*
X133316713Y-72777105D01*
X133261174Y-72765836D01*
X133222999Y-72757655D01*
X133191949Y-72751393D01*
X133165593Y-72747068D01*
X133151033Y-72745687D01*
X133134469Y-72744066D01*
X133107241Y-72739689D01*
X133075206Y-72733499D01*
X133074833Y-72733421D01*
X133036418Y-72725531D01*
X132990716Y-72716352D01*
X132947075Y-72707762D01*
X132943600Y-72707088D01*
X132900612Y-72698765D01*
X132854728Y-72689884D01*
X132815287Y-72682253D01*
X132812366Y-72681688D01*
X132741872Y-72668265D01*
X132668866Y-72654732D01*
X132600578Y-72642420D01*
X132562599Y-72635779D01*
X132526031Y-72627446D01*
X132501643Y-72616347D01*
X132488220Y-72604707D01*
X132468874Y-72583101D01*
X132471287Y-72042934D01*
X132471746Y-71931069D01*
X132472146Y-71834919D01*
X132472631Y-71753267D01*
X132473342Y-71684895D01*
X132474423Y-71628585D01*
X132476018Y-71583121D01*
X132478269Y-71547286D01*
X132481319Y-71519861D01*
X132485312Y-71499630D01*
X132490391Y-71485375D01*
X132496698Y-71475880D01*
X132504376Y-71469926D01*
X132513569Y-71466296D01*
X132524421Y-71463774D01*
X132537073Y-71461141D01*
X132539740Y-71460517D01*
X132572409Y-71453011D01*
X132615298Y-71443682D01*
X132663846Y-71433467D01*
X132713491Y-71423301D01*
X132759671Y-71414119D01*
X132797826Y-71406859D01*
X132820833Y-71402851D01*
X132867225Y-71395255D01*
X132921051Y-71386046D01*
X132975977Y-71376338D01*
X133025671Y-71367248D01*
X133057900Y-71361073D01*
X133093771Y-71354296D01*
X133138662Y-71346287D01*
X133184859Y-71338407D01*
X133201833Y-71335620D01*
X133243635Y-71328328D01*
X133284478Y-71320310D01*
X133317990Y-71312852D01*
X133329577Y-71309856D01*
X133358500Y-71302858D01*
X133383813Y-71298563D01*
X133393077Y-71297909D01*
X133417342Y-71295656D01*
X133451794Y-71289620D01*
X133490485Y-71281157D01*
X133527470Y-71271623D01*
X133556799Y-71262377D01*
X133566722Y-71258292D01*
X133579238Y-71250487D01*
X133590599Y-71238487D01*
X133601890Y-71220068D01*
X133614198Y-71193011D01*
X133628606Y-71155092D01*
X133646203Y-71104091D01*
X133654993Y-71077667D01*
X133682397Y-70998437D01*
X133711622Y-70921967D01*
X133744385Y-70844220D01*
X133782406Y-70761160D01*
X133827401Y-70668751D01*
X133838661Y-70646259D01*
X133863671Y-70595860D01*
X133885873Y-70549859D01*
X133904178Y-70510620D01*
X133917494Y-70480506D01*
X133924733Y-70461878D01*
X133925733Y-70457538D01*
X133924734Y-70448161D01*
X133921231Y-70436437D01*
X133914465Y-70421162D01*
X133903677Y-70401127D01*
X133888109Y-70375129D01*
X133867000Y-70341959D01*
X133839593Y-70300412D01*
X133805128Y-70249282D01*
X133762846Y-70187362D01*
X133711988Y-70113446D01*
X133680867Y-70068373D01*
X133657095Y-70033817D01*
X133626899Y-69989692D01*
X133593328Y-69940465D01*
X133559429Y-69890602D01*
X133540514Y-69862700D01*
X133505658Y-69811371D01*
X133467222Y-69755019D01*
X133428974Y-69699155D01*
X133394683Y-69649287D01*
X133381267Y-69629867D01*
X133353940Y-69589063D01*
X133331654Y-69553165D01*
X133315936Y-69524805D01*
X133308316Y-69506614D01*
X133307837Y-69503502D01*
X133310076Y-69495663D01*
X133317335Y-69483561D01*
X133330277Y-69466498D01*
X133349564Y-69443778D01*
X133375860Y-69414702D01*
X133409829Y-69378573D01*
X133452132Y-69334693D01*
X133503434Y-69282365D01*
X133564398Y-69220891D01*
X133635686Y-69149574D01*
X133717961Y-69067716D01*
X133789716Y-68996569D01*
X133856503Y-68930434D01*
X133912340Y-68875222D01*
X133958317Y-68829945D01*
X133995524Y-68793620D01*
X134025050Y-68765261D01*
X134047985Y-68743881D01*
X134065419Y-68728496D01*
X134078442Y-68718121D01*
X134088142Y-68711768D01*
X134095611Y-68708455D01*
X134101937Y-68707193D01*
X134108210Y-68706999D01*
X134109907Y-68707002D01*
X134129518Y-68712533D01*
X134160594Y-68728699D01*
X134201963Y-68754864D01*
X134217833Y-68765694D01*
X134266143Y-68799052D01*
X134324585Y-68839196D01*
X134389833Y-68883860D01*
X134458558Y-68930774D01*
X134527432Y-68977671D01*
X134593128Y-69022283D01*
X134652318Y-69062342D01*
X134701674Y-69095579D01*
X134711403Y-69102099D01*
X134746849Y-69126000D01*
X134778035Y-69147348D01*
X134801778Y-69163945D01*
X134814896Y-69173590D01*
X134815476Y-69174066D01*
X134833845Y-69188048D01*
X134842479Y-69193834D01*
X134854633Y-69201763D01*
X134877459Y-69216940D01*
X134907601Y-69237126D01*
X134939103Y-69258326D01*
X134982199Y-69287287D01*
X135013929Y-69307915D01*
X135036972Y-69321341D01*
X135054006Y-69328692D01*
X135067709Y-69331099D01*
X135080759Y-69329689D01*
X135095835Y-69325593D01*
X135097498Y-69325097D01*
X135116371Y-69318044D01*
X135147197Y-69304908D01*
X135186757Y-69287130D01*
X135231835Y-69266151D01*
X135271933Y-69246953D01*
X135317616Y-69224883D01*
X135358943Y-69205089D01*
X135393136Y-69188890D01*
X135417418Y-69177601D01*
X135428566Y-69172704D01*
X135446658Y-69165785D01*
X135472422Y-69155934D01*
X135483599Y-69151659D01*
X135513551Y-69139939D01*
X135542184Y-69128320D01*
X135549503Y-69125246D01*
X135572000Y-69117179D01*
X135589466Y-69113433D01*
X135590530Y-69113401D01*
X135607395Y-69109597D01*
X135626226Y-69101513D01*
X135643521Y-69094117D01*
X135672563Y-69083491D01*
X135708865Y-69071223D01*
X135737599Y-69062073D01*
X135775503Y-69049464D01*
X135808506Y-69036905D01*
X135832488Y-69026057D01*
X135842167Y-69019957D01*
X135852774Y-69003553D01*
X135864378Y-68975617D01*
X135875398Y-68941351D01*
X135884249Y-68905960D01*
X135889349Y-68874646D01*
X135889999Y-68862765D01*
X135892919Y-68837549D01*
X135900180Y-68807806D01*
X135902700Y-68800134D01*
X135910738Y-68771733D01*
X135915125Y-68745309D01*
X135915400Y-68739426D01*
X135917299Y-68717824D01*
X135922216Y-68687344D01*
X135927410Y-68662174D01*
X135934461Y-68629058D01*
X135942743Y-68586770D01*
X135950795Y-68542857D01*
X135953168Y-68529201D01*
X135960884Y-68485172D01*
X135969272Y-68439048D01*
X135976838Y-68399013D01*
X135978707Y-68389501D01*
X135994339Y-68309467D01*
X136007134Y-68240879D01*
X136016661Y-68186058D01*
X136017996Y-68177834D01*
X136025553Y-68134575D01*
X136035590Y-68082482D01*
X136046584Y-68029173D01*
X136057010Y-67982267D01*
X136057810Y-67978867D01*
X136064495Y-67950012D01*
X136070255Y-67924185D01*
X136071557Y-67918076D01*
X136073359Y-67908380D01*
X136075226Y-67900044D01*
X136078363Y-67892965D01*
X136083979Y-67887041D01*
X136093278Y-67882170D01*
X136107469Y-67878248D01*
X136127756Y-67875174D01*
X136155348Y-67872845D01*
X136191451Y-67871158D01*
X136237271Y-67870012D01*
X136294014Y-67869304D01*
X136362888Y-67868931D01*
X136445099Y-67868791D01*
X136541854Y-67868782D01*
X136651999Y-67868801D01*
X136764152Y-67868781D01*
X136860579Y-67868791D01*
G37*
X136860579Y-67868791D02*
X136942489Y-67868933D01*
X137011089Y-67869310D01*
X137067588Y-67870023D01*
X137113194Y-67871176D01*
X137149113Y-67872871D01*
X137176555Y-67875210D01*
X137196728Y-67878297D01*
X137210838Y-67882232D01*
X137220095Y-67887120D01*
X137225706Y-67893062D01*
X137228879Y-67900162D01*
X137230821Y-67908520D01*
X137232705Y-67918076D01*
X137237471Y-67938896D01*
X137244446Y-67968454D01*
X137249651Y-67990134D01*
X137256162Y-68020115D01*
X137260456Y-68045801D01*
X137261491Y-68057868D01*
X137263128Y-68074909D01*
X137267545Y-68102793D01*
X137273829Y-68135835D01*
X137274635Y-68139734D01*
X137283323Y-68181917D01*
X137292636Y-68227990D01*
X137299480Y-68262500D01*
X137307293Y-68302277D01*
X137315632Y-68344467D01*
X137321221Y-68372567D01*
X137328239Y-68410404D01*
X137334891Y-68450613D01*
X137337730Y-68469934D01*
X137340896Y-68491992D01*
X137344614Y-68515128D01*
X137349459Y-68542481D01*
X137356006Y-68577190D01*
X137364831Y-68622393D01*
X137375738Y-68677367D01*
X137387058Y-68734346D01*
X137395577Y-68777760D01*
X137401857Y-68810641D01*
X137406455Y-68836018D01*
X137409932Y-68856925D01*
X137412848Y-68876392D01*
X137414030Y-68884801D01*
X137424560Y-68941311D01*
X137438671Y-68982962D01*
X137457003Y-69011571D01*
X137459671Y-69014369D01*
X137477156Y-69026005D01*
X137507391Y-69040068D01*
X137546685Y-69054933D01*
X137567218Y-69061730D01*
X137605807Y-69074384D01*
X137640455Y-69086525D01*
X137666656Y-69096533D01*
X137677773Y-69101513D01*
X137698444Y-69110209D01*
X137713469Y-69113400D01*
X137729963Y-69116591D01*
X137752384Y-69124362D01*
X137754496Y-69125246D01*
X137780285Y-69135866D01*
X137811010Y-69148037D01*
X137820400Y-69151659D01*
X137846958Y-69161815D01*
X137869273Y-69170348D01*
X137875433Y-69172704D01*
X137888268Y-69178373D01*
X137913545Y-69190152D01*
X137948485Y-69206725D01*
X137990312Y-69226774D01*
X138032066Y-69246953D01*
X138079301Y-69269516D01*
X138123742Y-69290098D01*
X138162172Y-69307258D01*
X138191375Y-69319556D01*
X138206501Y-69325097D01*
X138221914Y-69329393D01*
X138235044Y-69331111D01*
X138248567Y-69329123D01*
X138265162Y-69322298D01*
X138287507Y-69309509D01*
X138318281Y-69289625D01*
X138360162Y-69261519D01*
X138364896Y-69258326D01*
X138398906Y-69235483D01*
X138428799Y-69215584D01*
X138451188Y-69200870D01*
X138462263Y-69193834D01*
X138476276Y-69184323D01*
X138480799Y-69180236D01*
X138485307Y-69176536D01*
X138496774Y-69168242D01*
X138516089Y-69154747D01*
X138544142Y-69135444D01*
X138581823Y-69109726D01*
X138630020Y-69076986D01*
X138689624Y-69036617D01*
X138761524Y-68988011D01*
X138844873Y-68931733D01*
X138887904Y-68902518D01*
X138930008Y-68873626D01*
X138967391Y-68847682D01*
X138996260Y-68827310D01*
X139005739Y-68820456D01*
X139058498Y-68782167D01*
X139099833Y-68753186D01*
X139131647Y-68732373D01*
X139155840Y-68718584D01*
X139174313Y-68710679D01*
X139188967Y-68707515D01*
X139194078Y-68707320D01*
X139203438Y-68708569D01*
X139214230Y-68712955D01*
X139227959Y-68721756D01*
X139246133Y-68736250D01*
X139270256Y-68757714D01*
X139301835Y-68787427D01*
X139342376Y-68826666D01*
X139391180Y-68874537D01*
X139481734Y-68963979D01*
X139567267Y-69049060D01*
X139647081Y-69129059D01*
X139720478Y-69203252D01*
X139786759Y-69270917D01*
X139845228Y-69331333D01*
X139895185Y-69383775D01*
X139935934Y-69427522D01*
X139966776Y-69461852D01*
X139987013Y-69486041D01*
X139995947Y-69499369D01*
X139996333Y-69500930D01*
X139994951Y-69507718D01*
X139990314Y-69518473D01*
X139981685Y-69534336D01*
X139968327Y-69556446D01*
X139949502Y-69585945D01*
X139924474Y-69623971D01*
X139892506Y-69671666D01*
X139852860Y-69730169D01*
X139804799Y-69800621D01*
X139765200Y-69858467D01*
X139731845Y-69907158D01*
X139697150Y-69957833D01*
X139664079Y-70006159D01*
X139635599Y-70047803D01*
X139620340Y-70070134D01*
X139594994Y-70107238D01*
X139563617Y-70153159D01*
X139529739Y-70202732D01*
X139496886Y-70250796D01*
X139488219Y-70263474D01*
X139451998Y-70316801D01*
X139424485Y-70358281D01*
X139404559Y-70389857D01*
X139391099Y-70413469D01*
X139382984Y-70431060D01*
X139379092Y-70444571D01*
X139378266Y-70453900D01*
X139381963Y-70466772D01*
X139392322Y-70492274D01*
X139408247Y-70527983D01*
X139428642Y-70571478D01*
X139452411Y-70620336D01*
X139465338Y-70646259D01*
X139512139Y-70741327D01*
X139551579Y-70826139D01*
X139585375Y-70904729D01*
X139615246Y-70981135D01*
X139642911Y-71059392D01*
X139649006Y-71077667D01*
X139668320Y-71135000D01*
X139683990Y-71178301D01*
X139697102Y-71209796D01*
X139708743Y-71231711D01*
X139719999Y-71246275D01*
X139731956Y-71255712D01*
X139737277Y-71258599D01*
X139758697Y-71266632D01*
X139790201Y-71275572D01*
X139825169Y-71283553D01*
X139826999Y-71283915D01*
X139867196Y-71291828D01*
X139909355Y-71300185D01*
X139941299Y-71306565D01*
X139979134Y-71313640D01*
X140019340Y-71320374D01*
X140038666Y-71323263D01*
X140108817Y-71334239D01*
X140178656Y-71347307D01*
X140240163Y-71360957D01*
X140243855Y-71361872D01*
X140276084Y-71368685D01*
X140306411Y-71373085D01*
X140320908Y-71374000D01*
X140349445Y-71376708D01*
X140373953Y-71382548D01*
X140395472Y-71388306D01*
X140426365Y-71394557D01*
X140453533Y-71398982D01*
X140483035Y-71403411D01*
X140512740Y-71408382D01*
X140546364Y-71414591D01*
X140587620Y-71422738D01*
X140640225Y-71433517D01*
X140665200Y-71438707D01*
X140716202Y-71449573D01*
X140753269Y-71458209D01*
X140779118Y-71465471D01*
X140796463Y-71472216D01*
X140808020Y-71479298D01*
X140815059Y-71485932D01*
X140818145Y-71490148D01*
X140820797Y-71496306D01*
X140823056Y-71505665D01*
X140824961Y-71519481D01*
X140826551Y-71539011D01*
X140827868Y-71565512D01*
X140828950Y-71600242D01*
X140829837Y-71644458D01*
X140830570Y-71699415D01*
X140831188Y-71766373D01*
X140831731Y-71846587D01*
X140832239Y-71941314D01*
X140832712Y-72042934D01*
X140835125Y-72583101D01*
X140815779Y-72604707D01*
X140797533Y-72619273D01*
X140770740Y-72629554D01*
X140741400Y-72635779D01*
X140666724Y-72648970D01*
X140582397Y-72664463D01*
X140495320Y-72680985D01*
X140485283Y-72682925D01*
X140422107Y-72695154D01*
X140372409Y-72704767D01*
X140333044Y-72712369D01*
X140300867Y-72718566D01*
X140272733Y-72723966D01*
X140245496Y-72729173D01*
X140229166Y-72732287D01*
X140193608Y-72738926D01*
X140161385Y-72744701D01*
X140138604Y-72748521D01*
X140136033Y-72748909D01*
X140115144Y-72752367D01*
X140084120Y-72757968D01*
X140049431Y-72764543D01*
X140047133Y-72764990D01*
X140005932Y-72772920D01*
X139961820Y-72781265D01*
X139928599Y-72787434D01*
X139869212Y-72798614D01*
X139824082Y-72808283D01*
X139790750Y-72817619D01*
X139766753Y-72827797D01*
X139749632Y-72839994D01*
X139736924Y-72855386D01*
X139726170Y-72875150D01*
X139720903Y-72886707D01*
X139709546Y-72915768D01*
X139701954Y-72941669D01*
X139699999Y-72954898D01*
X139696030Y-72978307D01*
X139688393Y-72998294D01*
X139679700Y-73018733D01*
X139669331Y-73048132D01*
X139662065Y-73071567D01*
X139630570Y-73167138D01*
X139610245Y-73217904D01*
X139602289Y-73238758D01*
X139598460Y-73253076D01*
X139598399Y-73254066D01*
X139595064Y-73265378D01*
X139586265Y-73287462D01*
X139573818Y-73315799D01*
X139572170Y-73319395D01*
X139557430Y-73351544D01*
X139543973Y-73381118D01*
X139534706Y-73401729D01*
X139534689Y-73401767D01*
X139518924Y-73435787D01*
X139498190Y-73478423D01*
X139475613Y-73523417D01*
X139454322Y-73564511D01*
X139441618Y-73588034D01*
X139423829Y-73629258D01*
X139417378Y-73672028D01*
X139417241Y-73676934D01*
X139417336Y-73696113D01*
X139419429Y-73712332D01*
X139425010Y-73728831D01*
X139435568Y-73748849D01*
X139452591Y-73775626D01*
X139477568Y-73812402D01*
X139483391Y-73820867D01*
X139514839Y-73866580D01*
X139549518Y-73917038D01*
X139583002Y-73965795D01*
X139608458Y-74002901D01*
X139653820Y-74068986D01*
X139699908Y-74135975D01*
X139744942Y-74201290D01*
X139787142Y-74262356D01*
X139824728Y-74316597D01*
X139855920Y-74361435D01*
X139874603Y-74388134D01*
X139915138Y-74446563D01*
X139946182Y-74493183D01*
X139968618Y-74529567D01*
X139983329Y-74557290D01*
X139991199Y-74577925D01*
X139993109Y-74593045D01*
X139992367Y-74598046D01*
X139984889Y-74609688D01*
X139965458Y-74632841D01*
X139934307Y-74667256D01*
X139891671Y-74712687D01*
X139837782Y-74768886D01*
X139772875Y-74835608D01*
X139697183Y-74912605D01*
X139638057Y-74972334D01*
X139556928Y-75053997D01*
X139486774Y-75124379D01*
X139426723Y-75184294D01*
X139375900Y-75234557D01*
X139333429Y-75275982D01*
X139298439Y-75309385D01*
X139270053Y-75335579D01*
X139247399Y-75355379D01*
X139229602Y-75369600D01*
X139215788Y-75379057D01*
X139205082Y-75384564D01*
X139196611Y-75386936D01*
X139192877Y-75387200D01*
X139178191Y-75382101D01*
X139150709Y-75367064D01*
X139111050Y-75342485D01*
X139059836Y-75308760D01*
X138997687Y-75266282D01*
X138944467Y-75229055D01*
X138919833Y-75211872D01*
X138885682Y-75188303D01*
X138846523Y-75161452D01*
X138806865Y-75134419D01*
X138806766Y-75134352D01*
X138762888Y-75104453D01*
X138715411Y-75071958D01*
X138670540Y-75041119D01*
X138639378Y-75019590D01*
X138606372Y-74996840D01*
X138576564Y-74976541D01*
X138553939Y-74961392D01*
X138544673Y-74955400D01*
X138529171Y-74945261D01*
X138503831Y-74928146D01*
X138472685Y-74906793D01*
X138451183Y-74891900D01*
X138417527Y-74868910D01*
X138386082Y-74848162D01*
X138361273Y-74832541D01*
X138351153Y-74826691D01*
X138324285Y-74816145D01*
X138298470Y-74812129D01*
X138279197Y-74815117D01*
X138273366Y-74819934D01*
X138261128Y-74827696D01*
X138255765Y-74828400D01*
X138241311Y-74832667D01*
X138219906Y-74843361D01*
X138211815Y-74848197D01*
X138186409Y-74863235D01*
X138149664Y-74883829D01*
X138105373Y-74907934D01*
X138057328Y-74933506D01*
X138009321Y-74958499D01*
X137972800Y-74977051D01*
X137939414Y-74993228D01*
X137916097Y-75002685D01*
X137898111Y-75006916D01*
X137880715Y-75007413D01*
X137877019Y-75007204D01*
X137870762Y-75005213D01*
X137863896Y-74999001D01*
X137855648Y-74986986D01*
X137845249Y-74967588D01*
X137831928Y-74939228D01*
X137814914Y-74900326D01*
X137793436Y-74849302D01*
X137766724Y-74784575D01*
X137757793Y-74762784D01*
X137737445Y-74713168D01*
X137714510Y-74657378D01*
X137692450Y-74603835D01*
X137681170Y-74576517D01*
X137663887Y-74534629D01*
X137642584Y-74482871D01*
X137619647Y-74427047D01*
X137597463Y-74372962D01*
X137591539Y-74358500D01*
X137573403Y-74314253D01*
X137557084Y-74274532D01*
X137543857Y-74242427D01*
X137534993Y-74221028D01*
X137532278Y-74214567D01*
X137526027Y-74199535D01*
X137515278Y-74173244D01*
X137501846Y-74140147D01*
X137494287Y-74121434D01*
X137479441Y-74084876D01*
X137465572Y-74051160D01*
X137454830Y-74025502D01*
X137451478Y-74017717D01*
X137438951Y-73989127D01*
X137427393Y-73962684D01*
X137419532Y-73944059D01*
X137407113Y-73913939D01*
X137391869Y-73876553D01*
X137376206Y-73837801D01*
X137359913Y-73797841D01*
X137344727Y-73761546D01*
X137332374Y-73732978D01*
X137324713Y-73716464D01*
X137316076Y-73697574D01*
X137312401Y-73685412D01*
X137312400Y-73685305D01*
X137309064Y-73674548D01*
X137300289Y-73653020D01*
X137287922Y-73625236D01*
X137286999Y-73623238D01*
X137274482Y-73595433D01*
X137265410Y-73573832D01*
X137261620Y-73562821D01*
X137261599Y-73562544D01*
X137258351Y-73551596D01*
X137250413Y-73532565D01*
X137249260Y-73530047D01*
X137241504Y-73512185D01*
X137229155Y-73482498D01*
X137213826Y-73444911D01*
X137197131Y-73403354D01*
X137194813Y-73397534D01*
X137176898Y-73352953D01*
X137158970Y-73309109D01*
X137143073Y-73270956D01*
X137131251Y-73243447D01*
X137130952Y-73242776D01*
X137116503Y-73208144D01*
X137110105Y-73182758D01*
X137113108Y-73162763D01*
X137126860Y-73144303D01*
X137152711Y-73123522D01*
X137179050Y-73105312D01*
X137239447Y-73064198D01*
X137288287Y-73030250D01*
X137328215Y-73001408D01*
X137361873Y-72975615D01*
X137391906Y-72950812D01*
X137420958Y-72924939D01*
X137451672Y-72895938D01*
X137466879Y-72881184D01*
X137562101Y-72777726D01*
X137641294Y-72668836D01*
X137704478Y-72554484D01*
X137731503Y-72491601D01*
X137743019Y-72462476D01*
X137754041Y-72435323D01*
X137757053Y-72428101D01*
X137768857Y-72394122D01*
X137780901Y-72349075D01*
X137791714Y-72298740D01*
X137795821Y-72275701D01*
X137801989Y-72242330D01*
X137809070Y-72209230D01*
X137811418Y-72199501D01*
X137815259Y-72174180D01*
X137817859Y-72136426D01*
X137819219Y-72090692D01*
X137819340Y-72041432D01*
X137818223Y-71993099D01*
X137815869Y-71950149D01*
X137812279Y-71917034D01*
X137811347Y-71911634D01*
X137804961Y-71876878D01*
X137798141Y-71838103D01*
X137795534Y-71822734D01*
X137767056Y-71702390D01*
X137722293Y-71583325D01*
X137661896Y-71466764D01*
X137586513Y-71353932D01*
X137496794Y-71246053D01*
X137480663Y-71228820D01*
X137452392Y-71200415D01*
X137422683Y-71173643D01*
X137388161Y-71145757D01*
X137345451Y-71114007D01*
X137300832Y-71082379D01*
X137272235Y-71063749D01*
X137237109Y-71042874D01*
X137198876Y-71021549D01*
X137160960Y-71001572D01*
X137126784Y-70984738D01*
X137099769Y-70972843D01*
X137083340Y-70967683D01*
X137082096Y-70967601D01*
X137065759Y-70962040D01*
X137060774Y-70958122D01*
X137046700Y-70950245D01*
X137024027Y-70942876D01*
X137018864Y-70941676D01*
X136996285Y-70936322D01*
X136963018Y-70927824D01*
X136924671Y-70917633D01*
X136906000Y-70912535D01*
X136877314Y-70904934D01*
X136851998Y-70899293D01*
X136826732Y-70895324D01*
X136798198Y-70892736D01*
X136763076Y-70891239D01*
X136718046Y-70890544D01*
X136659790Y-70890361D01*
X136652000Y-70890360D01*
X136591988Y-70890502D01*
X136545590Y-70891123D01*
X136509485Y-70892511D01*
X136480355Y-70894958D01*
X136454880Y-70898751D01*
X136429741Y-70904182D01*
X136401618Y-70911540D01*
X136398000Y-70912535D01*
X136359209Y-70923026D01*
X136322789Y-70932522D01*
X136294349Y-70939575D01*
X136285135Y-70941676D01*
X136261681Y-70948526D01*
X136245096Y-70956561D01*
X136243225Y-70958122D01*
X136227652Y-70966747D01*
X136221903Y-70967601D01*
X136207201Y-70971691D01*
X136181442Y-70982764D01*
X136148050Y-70999024D01*
X136110446Y-71018675D01*
X136072054Y-71039920D01*
X136036296Y-71060964D01*
X136006596Y-71080010D01*
X136003167Y-71082379D01*
X135950983Y-71119491D01*
X135909819Y-71150433D01*
X135876299Y-71177955D01*
X135847049Y-71204803D01*
X135823336Y-71228820D01*
X135731315Y-71335764D01*
X135653523Y-71447863D01*
X135590609Y-71563893D01*
X135543223Y-71682629D01*
X135512013Y-71802847D01*
X135508465Y-71822734D01*
X135502187Y-71859177D01*
X135495326Y-71897312D01*
X135492652Y-71911634D01*
X135488796Y-71942056D01*
X135486177Y-71983270D01*
X135484794Y-72030822D01*
X135484649Y-72080258D01*
X135485743Y-72127125D01*
X135488077Y-72166969D01*
X135491651Y-72195335D01*
X135492581Y-72199501D01*
X135499376Y-72229463D01*
X135506168Y-72264135D01*
X135508178Y-72275701D01*
X135517948Y-72326529D01*
X135529615Y-72374694D01*
X135541710Y-72414414D01*
X135546946Y-72428101D01*
X135556807Y-72452104D01*
X135568619Y-72481699D01*
X135572497Y-72491601D01*
X135625539Y-72605373D01*
X135694231Y-72715159D01*
X135777453Y-72819306D01*
X135836766Y-72881209D01*
X135871767Y-72914760D01*
X135903581Y-72943667D01*
X135935260Y-72970319D01*
X135969858Y-72997105D01*
X136010428Y-73026416D01*
X136060025Y-73060641D01*
X136103759Y-73090152D01*
X136146627Y-73120778D01*
X136176438Y-73146232D01*
X136192317Y-73165710D01*
X136194800Y-73173862D01*
X136191815Y-73184656D01*
X136183780Y-73207581D01*
X136172075Y-73239103D01*
X136158078Y-73275688D01*
X136143169Y-73313803D01*
X136128728Y-73349912D01*
X136116134Y-73380482D01*
X136106766Y-73401978D01*
X136102544Y-73410234D01*
X136096356Y-73423160D01*
X136088029Y-73445052D01*
X136085457Y-73452567D01*
X136074215Y-73483919D01*
X136061458Y-73516326D01*
X136059788Y-73520301D01*
X136047134Y-73550437D01*
X136033363Y-73583738D01*
X136029876Y-73592267D01*
X136016859Y-73623293D01*
X136001512Y-73658610D01*
X135994512Y-73674293D01*
X135983691Y-73699149D01*
X135976483Y-73717442D01*
X135974666Y-73723781D01*
X135971562Y-73733248D01*
X135963069Y-73755220D01*
X135950411Y-73786616D01*
X135934815Y-73824353D01*
X135931508Y-73832255D01*
X135908590Y-73886829D01*
X135891218Y-73927969D01*
X135878430Y-73957875D01*
X135869267Y-73978747D01*
X135862767Y-73992785D01*
X135857971Y-74002189D01*
X135855147Y-74007134D01*
X135845572Y-74026009D01*
X135842909Y-74032534D01*
X135824265Y-74082084D01*
X135803656Y-74134616D01*
X135783413Y-74184330D01*
X135765863Y-74225428D01*
X135761927Y-74234208D01*
X135749742Y-74262091D01*
X135741014Y-74284126D01*
X135737601Y-74295620D01*
X135737599Y-74295706D01*
X135733839Y-74309230D01*
X135729463Y-74318399D01*
X135723346Y-74331460D01*
X135712358Y-74356810D01*
X135697952Y-74391029D01*
X135681584Y-74430697D01*
X135678223Y-74438934D01*
X135661218Y-74480501D01*
X135645535Y-74518512D01*
X135632769Y-74549115D01*
X135624520Y-74568459D01*
X135623764Y-74570167D01*
X135615579Y-74589219D01*
X135603184Y-74618929D01*
X135588680Y-74654245D01*
X135581559Y-74671767D01*
X135567339Y-74706346D01*
X135554689Y-74736132D01*
X135545458Y-74756816D01*
X135542554Y-74762669D01*
X135535668Y-74779165D01*
X135534399Y-74786130D01*
X135531033Y-74797774D01*
X135522207Y-74819876D01*
X135509844Y-74847629D01*
X135493379Y-74883953D01*
X135476527Y-74922634D01*
X135466424Y-74946795D01*
X135449141Y-74982887D01*
X135432206Y-75003700D01*
X135414058Y-75010779D01*
X135403166Y-75009425D01*
X135387870Y-75003405D01*
X135360534Y-74990783D01*
X135324019Y-74973000D01*
X135281185Y-74951501D01*
X135234892Y-74927726D01*
X135188001Y-74903118D01*
X135143372Y-74879120D01*
X135127999Y-74870680D01*
X135077626Y-74843866D01*
X135038905Y-74825821D01*
X135009550Y-74815704D01*
X134987271Y-74812671D01*
X134974761Y-74814286D01*
X134959919Y-74821121D01*
X134934968Y-74835683D01*
X134903511Y-74855765D01*
X134872373Y-74876908D01*
X134840244Y-74899188D01*
X134797583Y-74928528D01*
X134747904Y-74962526D01*
X134694716Y-74998781D01*
X134641532Y-75034891D01*
X134627634Y-75044300D01*
X134577430Y-75078449D01*
X134528529Y-75112042D01*
X134483846Y-75143052D01*
X134446291Y-75169454D01*
X134418779Y-75189223D01*
X134411551Y-75194584D01*
X134386011Y-75213462D01*
X134366003Y-75227586D01*
X134355048Y-75234491D01*
X134354142Y-75234800D01*
X134345770Y-75239256D01*
X134327116Y-75251082D01*
X134301793Y-75267970D01*
X134294568Y-75272900D01*
X134257476Y-75298332D01*
X134216082Y-75326714D01*
X134183431Y-75349100D01*
X134154724Y-75367200D01*
X134129152Y-75380544D01*
X134111479Y-75386702D01*
X134109348Y-75386859D01*
X134092860Y-75381467D01*
X134069865Y-75367930D01*
X134052733Y-75355109D01*
X134039873Y-75343424D01*
X134016299Y-75320871D01*
X133983197Y-75288625D01*
X133941756Y-75247860D01*
X133893163Y-75199752D01*
X133838605Y-75145477D01*
X133779271Y-75086209D01*
X133716348Y-75023124D01*
X133661149Y-74967601D01*
X133584054Y-74889794D01*
X133518262Y-74823061D01*
X133463013Y-74766589D01*
X133417548Y-74719567D01*
X133381107Y-74681186D01*
X133352931Y-74650632D01*
X133332259Y-74627095D01*
X133318333Y-74609764D01*
X133310394Y-74597827D01*
X133307680Y-74590474D01*
X133307666Y-74590061D01*
X133312445Y-74573633D01*
X133325533Y-74547208D01*
X133345062Y-74514319D01*
X133358929Y-74493193D01*
X133386441Y-74452698D01*
X133418546Y-74405421D01*
X133450334Y-74358593D01*
X133466879Y-74334211D01*
X133484225Y-74308644D01*
X133498840Y-74287118D01*
X133512066Y-74267671D01*
X133525250Y-74248341D01*
X133539734Y-74227165D01*
X133556865Y-74202180D01*
X133577985Y-74171423D01*
X133604440Y-74132932D01*
X133637574Y-74084744D01*
X133678732Y-74024896D01*
X133686550Y-74013528D01*
X133719538Y-73965270D01*
X133749088Y-73921487D01*
X133773904Y-73884144D01*
X133792694Y-73855200D01*
X133804163Y-73836619D01*
X133807200Y-73830516D01*
X133813003Y-73819387D01*
X133820126Y-73812212D01*
X133844102Y-73785917D01*
X133866252Y-73750853D01*
X133882785Y-73713935D01*
X133889677Y-73685401D01*
X133890158Y-73668102D01*
X133887522Y-73649995D01*
X133880728Y-73628482D01*
X133868736Y-73600964D01*
X133850508Y-73564842D01*
X133825003Y-73517518D01*
X133815880Y-73500934D01*
X133804220Y-73478539D01*
X133790566Y-73450511D01*
X133776959Y-73421290D01*
X133765436Y-73395322D01*
X133758036Y-73377049D01*
X133756400Y-73371288D01*
X133753110Y-73360245D01*
X133744484Y-73338560D01*
X133732386Y-73310916D01*
X133732321Y-73310773D01*
X133709161Y-73257401D01*
X133685359Y-73198243D01*
X133662241Y-73137010D01*
X133641133Y-73077411D01*
X133623363Y-73023156D01*
X133610255Y-72977955D01*
X133604436Y-72953034D01*
X133596801Y-72924275D01*
X133585197Y-72891279D01*
X133579892Y-72878527D01*
X133564839Y-72850678D01*
X133546590Y-72832988D01*
X133525443Y-72821758D01*
X133493137Y-72810245D01*
X133458690Y-72801895D01*
X133451240Y-72800740D01*
X133416526Y-72795459D01*
X133370091Y-72787280D01*
X133316713Y-72777105D01*
X133261174Y-72765836D01*
X133222999Y-72757655D01*
X133191949Y-72751393D01*
X133165593Y-72747068D01*
X133151033Y-72745687D01*
X133134469Y-72744066D01*
X133107241Y-72739689D01*
X133075206Y-72733499D01*
X133074833Y-72733421D01*
X133036418Y-72725531D01*
X132990716Y-72716352D01*
X132947075Y-72707762D01*
X132943600Y-72707088D01*
X132900612Y-72698765D01*
X132854728Y-72689884D01*
X132815287Y-72682253D01*
X132812366Y-72681688D01*
X132741872Y-72668265D01*
X132668866Y-72654732D01*
X132600578Y-72642420D01*
X132562599Y-72635779D01*
X132526031Y-72627446D01*
X132501643Y-72616347D01*
X132488220Y-72604707D01*
X132468874Y-72583101D01*
X132471287Y-72042934D01*
X132471746Y-71931069D01*
X132472146Y-71834919D01*
X132472631Y-71753267D01*
X132473342Y-71684895D01*
X132474423Y-71628585D01*
X132476018Y-71583121D01*
X132478269Y-71547286D01*
X132481319Y-71519861D01*
X132485312Y-71499630D01*
X132490391Y-71485375D01*
X132496698Y-71475880D01*
X132504376Y-71469926D01*
X132513569Y-71466296D01*
X132524421Y-71463774D01*
X132537073Y-71461141D01*
X132539740Y-71460517D01*
X132572409Y-71453011D01*
X132615298Y-71443682D01*
X132663846Y-71433467D01*
X132713491Y-71423301D01*
X132759671Y-71414119D01*
X132797826Y-71406859D01*
X132820833Y-71402851D01*
X132867225Y-71395255D01*
X132921051Y-71386046D01*
X132975977Y-71376338D01*
X133025671Y-71367248D01*
X133057900Y-71361073D01*
X133093771Y-71354296D01*
X133138662Y-71346287D01*
X133184859Y-71338407D01*
X133201833Y-71335620D01*
X133243635Y-71328328D01*
X133284478Y-71320310D01*
X133317990Y-71312852D01*
X133329577Y-71309856D01*
X133358500Y-71302858D01*
X133383813Y-71298563D01*
X133393077Y-71297909D01*
X133417342Y-71295656D01*
X133451794Y-71289620D01*
X133490485Y-71281157D01*
X133527470Y-71271623D01*
X133556799Y-71262377D01*
X133566722Y-71258292D01*
X133579238Y-71250487D01*
X133590599Y-71238487D01*
X133601890Y-71220068D01*
X133614198Y-71193011D01*
X133628606Y-71155092D01*
X133646203Y-71104091D01*
X133654993Y-71077667D01*
X133682397Y-70998437D01*
X133711622Y-70921967D01*
X133744385Y-70844220D01*
X133782406Y-70761160D01*
X133827401Y-70668751D01*
X133838661Y-70646259D01*
X133863671Y-70595860D01*
X133885873Y-70549859D01*
X133904178Y-70510620D01*
X133917494Y-70480506D01*
X133924733Y-70461878D01*
X133925733Y-70457538D01*
X133924734Y-70448161D01*
X133921231Y-70436437D01*
X133914465Y-70421162D01*
X133903677Y-70401127D01*
X133888109Y-70375129D01*
X133867000Y-70341959D01*
X133839593Y-70300412D01*
X133805128Y-70249282D01*
X133762846Y-70187362D01*
X133711988Y-70113446D01*
X133680867Y-70068373D01*
X133657095Y-70033817D01*
X133626899Y-69989692D01*
X133593328Y-69940465D01*
X133559429Y-69890602D01*
X133540514Y-69862700D01*
X133505658Y-69811371D01*
X133467222Y-69755019D01*
X133428974Y-69699155D01*
X133394683Y-69649287D01*
X133381267Y-69629867D01*
X133353940Y-69589063D01*
X133331654Y-69553165D01*
X133315936Y-69524805D01*
X133308316Y-69506614D01*
X133307837Y-69503502D01*
X133310076Y-69495663D01*
X133317335Y-69483561D01*
X133330277Y-69466498D01*
X133349564Y-69443778D01*
X133375860Y-69414702D01*
X133409829Y-69378573D01*
X133452132Y-69334693D01*
X133503434Y-69282365D01*
X133564398Y-69220891D01*
X133635686Y-69149574D01*
X133717961Y-69067716D01*
X133789716Y-68996569D01*
X133856503Y-68930434D01*
X133912340Y-68875222D01*
X133958317Y-68829945D01*
X133995524Y-68793620D01*
X134025050Y-68765261D01*
X134047985Y-68743881D01*
X134065419Y-68728496D01*
X134078442Y-68718121D01*
X134088142Y-68711768D01*
X134095611Y-68708455D01*
X134101937Y-68707193D01*
X134108210Y-68706999D01*
X134109907Y-68707002D01*
X134129518Y-68712533D01*
X134160594Y-68728699D01*
X134201963Y-68754864D01*
X134217833Y-68765694D01*
X134266143Y-68799052D01*
X134324585Y-68839196D01*
X134389833Y-68883860D01*
X134458558Y-68930774D01*
X134527432Y-68977671D01*
X134593128Y-69022283D01*
X134652318Y-69062342D01*
X134701674Y-69095579D01*
X134711403Y-69102099D01*
X134746849Y-69126000D01*
X134778035Y-69147348D01*
X134801778Y-69163945D01*
X134814896Y-69173590D01*
X134815476Y-69174066D01*
X134833845Y-69188048D01*
X134842479Y-69193834D01*
X134854633Y-69201763D01*
X134877459Y-69216940D01*
X134907601Y-69237126D01*
X134939103Y-69258326D01*
X134982199Y-69287287D01*
X135013929Y-69307915D01*
X135036972Y-69321341D01*
X135054006Y-69328692D01*
X135067709Y-69331099D01*
X135080759Y-69329689D01*
X135095835Y-69325593D01*
X135097498Y-69325097D01*
X135116371Y-69318044D01*
X135147197Y-69304908D01*
X135186757Y-69287130D01*
X135231835Y-69266151D01*
X135271933Y-69246953D01*
X135317616Y-69224883D01*
X135358943Y-69205089D01*
X135393136Y-69188890D01*
X135417418Y-69177601D01*
X135428566Y-69172704D01*
X135446658Y-69165785D01*
X135472422Y-69155934D01*
X135483599Y-69151659D01*
X135513551Y-69139939D01*
X135542184Y-69128320D01*
X135549503Y-69125246D01*
X135572000Y-69117179D01*
X135589466Y-69113433D01*
X135590530Y-69113401D01*
X135607395Y-69109597D01*
X135626226Y-69101513D01*
X135643521Y-69094117D01*
X135672563Y-69083491D01*
X135708865Y-69071223D01*
X135737599Y-69062073D01*
X135775503Y-69049464D01*
X135808506Y-69036905D01*
X135832488Y-69026057D01*
X135842167Y-69019957D01*
X135852774Y-69003553D01*
X135864378Y-68975617D01*
X135875398Y-68941351D01*
X135884249Y-68905960D01*
X135889349Y-68874646D01*
X135889999Y-68862765D01*
X135892919Y-68837549D01*
X135900180Y-68807806D01*
X135902700Y-68800134D01*
X135910738Y-68771733D01*
X135915125Y-68745309D01*
X135915400Y-68739426D01*
X135917299Y-68717824D01*
X135922216Y-68687344D01*
X135927410Y-68662174D01*
X135934461Y-68629058D01*
X135942743Y-68586770D01*
X135950795Y-68542857D01*
X135953168Y-68529201D01*
X135960884Y-68485172D01*
X135969272Y-68439048D01*
X135976838Y-68399013D01*
X135978707Y-68389501D01*
X135994339Y-68309467D01*
X136007134Y-68240879D01*
X136016661Y-68186058D01*
X136017996Y-68177834D01*
X136025553Y-68134575D01*
X136035590Y-68082482D01*
X136046584Y-68029173D01*
X136057010Y-67982267D01*
X136057810Y-67978867D01*
X136064495Y-67950012D01*
X136070255Y-67924185D01*
X136071557Y-67918076D01*
X136073359Y-67908380D01*
X136075226Y-67900044D01*
X136078363Y-67892965D01*
X136083979Y-67887041D01*
X136093278Y-67882170D01*
X136107469Y-67878248D01*
X136127756Y-67875174D01*
X136155348Y-67872845D01*
X136191451Y-67871158D01*
X136237271Y-67870012D01*
X136294014Y-67869304D01*
X136362888Y-67868931D01*
X136445099Y-67868791D01*
X136541854Y-67868782D01*
X136651999Y-67868801D01*
X136764152Y-67868781D01*
X136860579Y-67868791D01*
D16*
%TO.C,J37*%
X109046000Y-139252000D02*
X103296000Y-139252000D01*
X101946000Y-139202000D02*
X98746000Y-139202000D01*
X98746000Y-139202000D02*
X98746000Y-133252000D01*
X98746000Y-133252000D02*
X109046000Y-133252000D01*
X109046000Y-133252000D02*
X109046000Y-139252000D01*
X107696000Y-133352000D02*
X107696000Y-134362000D01*
X107696000Y-134362000D02*
X102616000Y-134362000D01*
X102616000Y-134362000D02*
X102616000Y-133352000D01*
%TO.C,J40*%
X102616000Y-155698000D02*
X102616000Y-154688000D01*
X107696000Y-155698000D02*
X102616000Y-155698000D01*
X107696000Y-154688000D02*
X107696000Y-155698000D01*
X109046000Y-154588000D02*
X109046000Y-160588000D01*
X98746000Y-154588000D02*
X109046000Y-154588000D01*
X98746000Y-160538000D02*
X98746000Y-154588000D01*
X101946000Y-160538000D02*
X98746000Y-160538000D01*
X109046000Y-160588000D02*
X103296000Y-160588000D01*
D15*
%TO.C,U4*%
X115738000Y-93070000D02*
X111338000Y-93070000D01*
X115738000Y-99970000D02*
X111338000Y-99970000D01*
D14*
X117828000Y-99445000D02*
G75*
G03*
X117828000Y-99445000I-100000J0D01*
G01*
%TO.C,U3*%
X123921000Y-75310000D02*
G75*
G03*
X123921000Y-75310000I-100000J0D01*
G01*
D15*
X123296000Y-73320000D02*
X123296000Y-68920000D01*
X130196000Y-73320000D02*
X130196000Y-68920000D01*
%TO.C,U2*%
X137754000Y-92858000D02*
X142154000Y-92858000D01*
X137754000Y-85958000D02*
X142154000Y-85958000D01*
D14*
X135864000Y-86483000D02*
G75*
G03*
X135864000Y-86483000I-100000J0D01*
G01*
D16*
%TO.C,J5*%
X144954000Y-69536000D02*
X150704000Y-69536000D01*
X152054000Y-69586000D02*
X155254000Y-69586000D01*
X155254000Y-69586000D02*
X155254000Y-75536000D01*
X155254000Y-75536000D02*
X144954000Y-75536000D01*
X144954000Y-75536000D02*
X144954000Y-69536000D01*
X146304000Y-75436000D02*
X146304000Y-74426000D01*
X146304000Y-74426000D02*
X151384000Y-74426000D01*
X151384000Y-74426000D02*
X151384000Y-75436000D01*
%TO.C,J1*%
X144954000Y-90872000D02*
X150704000Y-90872000D01*
X152054000Y-90922000D02*
X155254000Y-90922000D01*
X155254000Y-90922000D02*
X155254000Y-96872000D01*
X155254000Y-96872000D02*
X144954000Y-96872000D01*
X144954000Y-96872000D02*
X144954000Y-90872000D01*
X146304000Y-96772000D02*
X146304000Y-95762000D01*
X146304000Y-95762000D02*
X151384000Y-95762000D01*
X151384000Y-95762000D02*
X151384000Y-96772000D01*
%TO.C,J3*%
X144954000Y-97984000D02*
X150704000Y-97984000D01*
X152054000Y-98034000D02*
X155254000Y-98034000D01*
X155254000Y-98034000D02*
X155254000Y-103984000D01*
X155254000Y-103984000D02*
X144954000Y-103984000D01*
X144954000Y-103984000D02*
X144954000Y-97984000D01*
X146304000Y-103884000D02*
X146304000Y-102874000D01*
X146304000Y-102874000D02*
X151384000Y-102874000D01*
X151384000Y-102874000D02*
X151384000Y-103884000D01*
%TO.C,J35*%
X109046000Y-125028000D02*
X103296000Y-125028000D01*
X101946000Y-124978000D02*
X98746000Y-124978000D01*
X98746000Y-124978000D02*
X98746000Y-119028000D01*
X98746000Y-119028000D02*
X109046000Y-119028000D01*
X109046000Y-119028000D02*
X109046000Y-125028000D01*
X107696000Y-119128000D02*
X107696000Y-120138000D01*
X107696000Y-120138000D02*
X102616000Y-120138000D01*
X102616000Y-120138000D02*
X102616000Y-119128000D01*
%TO.C,J38*%
X102616000Y-141474000D02*
X102616000Y-140464000D01*
X107696000Y-141474000D02*
X102616000Y-141474000D01*
X107696000Y-140464000D02*
X107696000Y-141474000D01*
X109046000Y-140364000D02*
X109046000Y-146364000D01*
X98746000Y-140364000D02*
X109046000Y-140364000D01*
X98746000Y-146314000D02*
X98746000Y-140364000D01*
X101946000Y-146314000D02*
X98746000Y-146314000D01*
X109046000Y-146364000D02*
X103296000Y-146364000D01*
%TO.C,J36*%
X109046000Y-132140000D02*
X103296000Y-132140000D01*
X101946000Y-132090000D02*
X98746000Y-132090000D01*
X98746000Y-132090000D02*
X98746000Y-126140000D01*
X98746000Y-126140000D02*
X109046000Y-126140000D01*
X109046000Y-126140000D02*
X109046000Y-132140000D01*
X107696000Y-126240000D02*
X107696000Y-127250000D01*
X107696000Y-127250000D02*
X102616000Y-127250000D01*
X102616000Y-127250000D02*
X102616000Y-126240000D01*
%TO.C,J39*%
X102616000Y-148586000D02*
X102616000Y-147576000D01*
X107696000Y-148586000D02*
X102616000Y-148586000D01*
X107696000Y-147576000D02*
X107696000Y-148586000D01*
X109046000Y-147476000D02*
X109046000Y-153476000D01*
X98746000Y-147476000D02*
X109046000Y-147476000D01*
X98746000Y-153426000D02*
X98746000Y-147476000D01*
X101946000Y-153426000D02*
X98746000Y-153426000D01*
X109046000Y-153476000D02*
X103296000Y-153476000D01*
%TO.C,J41*%
X102616000Y-162810000D02*
X102616000Y-161800000D01*
X107696000Y-162810000D02*
X102616000Y-162810000D01*
X107696000Y-161800000D02*
X107696000Y-162810000D01*
X109046000Y-161700000D02*
X109046000Y-167700000D01*
X98746000Y-161700000D02*
X109046000Y-161700000D01*
X98746000Y-167650000D02*
X98746000Y-161700000D01*
X101946000Y-167650000D02*
X98746000Y-167650000D01*
X109046000Y-167700000D02*
X103296000Y-167700000D01*
D18*
%TO.C,JMolex1*%
X115365000Y-162095000D02*
X116840000Y-162095000D01*
X115365000Y-174385000D02*
X115365000Y-162095000D01*
X138635000Y-174385000D02*
X115365000Y-174385000D01*
X138635000Y-162095000D02*
X138635000Y-174385000D01*
X137160000Y-162095000D02*
X138635000Y-162095000D01*
D16*
%TO.C,J42*%
X102616000Y-169922000D02*
X102616000Y-168912000D01*
X107696000Y-169922000D02*
X102616000Y-169922000D01*
X107696000Y-168912000D02*
X107696000Y-169922000D01*
X109046000Y-168812000D02*
X109046000Y-174812000D01*
X98746000Y-168812000D02*
X109046000Y-168812000D01*
X98746000Y-174762000D02*
X98746000Y-168812000D01*
X101946000Y-174762000D02*
X98746000Y-174762000D01*
X109046000Y-174812000D02*
X103296000Y-174812000D01*
%TO.C,J34*%
X109046000Y-117916000D02*
X103296000Y-117916000D01*
X101946000Y-117866000D02*
X98746000Y-117866000D01*
X98746000Y-117866000D02*
X98746000Y-111916000D01*
X98746000Y-111916000D02*
X109046000Y-111916000D01*
X109046000Y-111916000D02*
X109046000Y-117916000D01*
X107696000Y-112016000D02*
X107696000Y-113026000D01*
X107696000Y-113026000D02*
X102616000Y-113026000D01*
X102616000Y-113026000D02*
X102616000Y-112016000D01*
%TO.C,J33*%
X109046000Y-110804000D02*
X103296000Y-110804000D01*
X101946000Y-110754000D02*
X98746000Y-110754000D01*
X98746000Y-110754000D02*
X98746000Y-104804000D01*
X98746000Y-104804000D02*
X109046000Y-104804000D01*
X109046000Y-104804000D02*
X109046000Y-110804000D01*
X107696000Y-104904000D02*
X107696000Y-105914000D01*
X107696000Y-105914000D02*
X102616000Y-105914000D01*
X102616000Y-105914000D02*
X102616000Y-104904000D01*
%TO.C,J32*%
X109046000Y-103692000D02*
X103296000Y-103692000D01*
X101946000Y-103642000D02*
X98746000Y-103642000D01*
X98746000Y-103642000D02*
X98746000Y-97692000D01*
X98746000Y-97692000D02*
X109046000Y-97692000D01*
X109046000Y-97692000D02*
X109046000Y-103692000D01*
X107696000Y-97792000D02*
X107696000Y-98802000D01*
X107696000Y-98802000D02*
X102616000Y-98802000D01*
X102616000Y-98802000D02*
X102616000Y-97792000D01*
%TO.C,J30*%
X109046000Y-89468000D02*
X103296000Y-89468000D01*
X101946000Y-89418000D02*
X98746000Y-89418000D01*
X98746000Y-89418000D02*
X98746000Y-83468000D01*
X98746000Y-83468000D02*
X109046000Y-83468000D01*
X109046000Y-83468000D02*
X109046000Y-89468000D01*
X107696000Y-83568000D02*
X107696000Y-84578000D01*
X107696000Y-84578000D02*
X102616000Y-84578000D01*
X102616000Y-84578000D02*
X102616000Y-83568000D01*
%TO.C,J29*%
X109046000Y-82356000D02*
X103296000Y-82356000D01*
X101946000Y-82306000D02*
X98746000Y-82306000D01*
X98746000Y-82306000D02*
X98746000Y-76356000D01*
X98746000Y-76356000D02*
X109046000Y-76356000D01*
X109046000Y-76356000D02*
X109046000Y-82356000D01*
X107696000Y-76456000D02*
X107696000Y-77466000D01*
X107696000Y-77466000D02*
X102616000Y-77466000D01*
X102616000Y-77466000D02*
X102616000Y-76456000D01*
%TO.C,J28*%
X109046000Y-75244000D02*
X103296000Y-75244000D01*
X101946000Y-75194000D02*
X98746000Y-75194000D01*
X98746000Y-75194000D02*
X98746000Y-69244000D01*
X98746000Y-69244000D02*
X109046000Y-69244000D01*
X109046000Y-69244000D02*
X109046000Y-75244000D01*
X107696000Y-69344000D02*
X107696000Y-70354000D01*
X107696000Y-70354000D02*
X102616000Y-70354000D01*
X102616000Y-70354000D02*
X102616000Y-69344000D01*
%TO.C,J27*%
X109046000Y-68132000D02*
X103296000Y-68132000D01*
X101946000Y-68082000D02*
X98746000Y-68082000D01*
X98746000Y-68082000D02*
X98746000Y-62132000D01*
X98746000Y-62132000D02*
X109046000Y-62132000D01*
X109046000Y-62132000D02*
X109046000Y-68132000D01*
X107696000Y-62232000D02*
X107696000Y-63242000D01*
X107696000Y-63242000D02*
X102616000Y-63242000D01*
X102616000Y-63242000D02*
X102616000Y-62232000D01*
%TO.C,J26*%
X144954000Y-55312000D02*
X150704000Y-55312000D01*
X152054000Y-55362000D02*
X155254000Y-55362000D01*
X155254000Y-55362000D02*
X155254000Y-61312000D01*
X155254000Y-61312000D02*
X144954000Y-61312000D01*
X144954000Y-61312000D02*
X144954000Y-55312000D01*
X146304000Y-61212000D02*
X146304000Y-60202000D01*
X146304000Y-60202000D02*
X151384000Y-60202000D01*
X151384000Y-60202000D02*
X151384000Y-61212000D01*
%TO.C,J25*%
X141418000Y-54182000D02*
X141418000Y-48432000D01*
X141468000Y-47082000D02*
X141468000Y-43882000D01*
X141468000Y-43882000D02*
X147418000Y-43882000D01*
X147418000Y-43882000D02*
X147418000Y-54182000D01*
X147418000Y-54182000D02*
X141418000Y-54182000D01*
X147318000Y-52832000D02*
X146308000Y-52832000D01*
X146308000Y-52832000D02*
X146308000Y-47752000D01*
X146308000Y-47752000D02*
X147318000Y-47752000D01*
%TO.C,J24*%
X134306000Y-54182000D02*
X134306000Y-48432000D01*
X134356000Y-47082000D02*
X134356000Y-43882000D01*
X134356000Y-43882000D02*
X140306000Y-43882000D01*
X140306000Y-43882000D02*
X140306000Y-54182000D01*
X140306000Y-54182000D02*
X134306000Y-54182000D01*
X140206000Y-52832000D02*
X139196000Y-52832000D01*
X139196000Y-52832000D02*
X139196000Y-47752000D01*
X139196000Y-47752000D02*
X140206000Y-47752000D01*
%TO.C,J23*%
X127194000Y-54182000D02*
X127194000Y-48432000D01*
X127244000Y-47082000D02*
X127244000Y-43882000D01*
X127244000Y-43882000D02*
X133194000Y-43882000D01*
X133194000Y-43882000D02*
X133194000Y-54182000D01*
X133194000Y-54182000D02*
X127194000Y-54182000D01*
X133094000Y-52832000D02*
X132084000Y-52832000D01*
X132084000Y-52832000D02*
X132084000Y-47752000D01*
X132084000Y-47752000D02*
X133094000Y-47752000D01*
%TO.C,J22*%
X120710000Y-142240000D02*
X118050000Y-142240000D01*
X120710000Y-142240000D02*
X120710000Y-83760000D01*
X120710000Y-83760000D02*
X118050000Y-83760000D01*
X118050000Y-142240000D02*
X118050000Y-83760000D01*
X118050000Y-144840000D02*
X118050000Y-143510000D01*
X119380000Y-144840000D02*
X118050000Y-144840000D01*
%TO.C,J20*%
X144954000Y-105096000D02*
X150704000Y-105096000D01*
X152054000Y-105146000D02*
X155254000Y-105146000D01*
X155254000Y-105146000D02*
X155254000Y-111096000D01*
X155254000Y-111096000D02*
X144954000Y-111096000D01*
X144954000Y-111096000D02*
X144954000Y-105096000D01*
X146304000Y-110996000D02*
X146304000Y-109986000D01*
X146304000Y-109986000D02*
X151384000Y-109986000D01*
X151384000Y-109986000D02*
X151384000Y-110996000D01*
%TO.C,J19*%
X144954000Y-112208000D02*
X150704000Y-112208000D01*
X152054000Y-112258000D02*
X155254000Y-112258000D01*
X155254000Y-112258000D02*
X155254000Y-118208000D01*
X155254000Y-118208000D02*
X144954000Y-118208000D01*
X144954000Y-118208000D02*
X144954000Y-112208000D01*
X146304000Y-118108000D02*
X146304000Y-117098000D01*
X146304000Y-117098000D02*
X151384000Y-117098000D01*
X151384000Y-117098000D02*
X151384000Y-118108000D01*
%TO.C,J18*%
X144954000Y-119320000D02*
X150704000Y-119320000D01*
X152054000Y-119370000D02*
X155254000Y-119370000D01*
X155254000Y-119370000D02*
X155254000Y-125320000D01*
X155254000Y-125320000D02*
X144954000Y-125320000D01*
X144954000Y-125320000D02*
X144954000Y-119320000D01*
X146304000Y-125220000D02*
X146304000Y-124210000D01*
X146304000Y-124210000D02*
X151384000Y-124210000D01*
X151384000Y-124210000D02*
X151384000Y-125220000D01*
%TO.C,J17*%
X144954000Y-126432000D02*
X150704000Y-126432000D01*
X152054000Y-126482000D02*
X155254000Y-126482000D01*
X155254000Y-126482000D02*
X155254000Y-132432000D01*
X155254000Y-132432000D02*
X144954000Y-132432000D01*
X144954000Y-132432000D02*
X144954000Y-126432000D01*
X146304000Y-132332000D02*
X146304000Y-131322000D01*
X146304000Y-131322000D02*
X151384000Y-131322000D01*
X151384000Y-131322000D02*
X151384000Y-132332000D01*
%TO.C,J16*%
X144954000Y-133544000D02*
X150704000Y-133544000D01*
X152054000Y-133594000D02*
X155254000Y-133594000D01*
X155254000Y-133594000D02*
X155254000Y-139544000D01*
X155254000Y-139544000D02*
X144954000Y-139544000D01*
X144954000Y-139544000D02*
X144954000Y-133544000D01*
X146304000Y-139444000D02*
X146304000Y-138434000D01*
X146304000Y-138434000D02*
X151384000Y-138434000D01*
X151384000Y-138434000D02*
X151384000Y-139444000D01*
%TO.C,J15*%
X144954000Y-140656000D02*
X150704000Y-140656000D01*
X152054000Y-140706000D02*
X155254000Y-140706000D01*
X155254000Y-140706000D02*
X155254000Y-146656000D01*
X155254000Y-146656000D02*
X144954000Y-146656000D01*
X144954000Y-146656000D02*
X144954000Y-140656000D01*
X146304000Y-146556000D02*
X146304000Y-145546000D01*
X146304000Y-145546000D02*
X151384000Y-145546000D01*
X151384000Y-145546000D02*
X151384000Y-146556000D01*
%TO.C,J14*%
X144954000Y-147768000D02*
X150704000Y-147768000D01*
X152054000Y-147818000D02*
X155254000Y-147818000D01*
X155254000Y-147818000D02*
X155254000Y-153768000D01*
X155254000Y-153768000D02*
X144954000Y-153768000D01*
X144954000Y-153768000D02*
X144954000Y-147768000D01*
X146304000Y-153668000D02*
X146304000Y-152658000D01*
X146304000Y-152658000D02*
X151384000Y-152658000D01*
X151384000Y-152658000D02*
X151384000Y-153668000D01*
%TO.C,J13*%
X144954000Y-154880000D02*
X150704000Y-154880000D01*
X152054000Y-154930000D02*
X155254000Y-154930000D01*
X155254000Y-154930000D02*
X155254000Y-160880000D01*
X155254000Y-160880000D02*
X144954000Y-160880000D01*
X144954000Y-160880000D02*
X144954000Y-154880000D01*
X146304000Y-160780000D02*
X146304000Y-159770000D01*
X146304000Y-159770000D02*
X151384000Y-159770000D01*
X151384000Y-159770000D02*
X151384000Y-160780000D01*
%TO.C,J12*%
X144954000Y-161992000D02*
X150704000Y-161992000D01*
X152054000Y-162042000D02*
X155254000Y-162042000D01*
X155254000Y-162042000D02*
X155254000Y-167992000D01*
X155254000Y-167992000D02*
X144954000Y-167992000D01*
X144954000Y-167992000D02*
X144954000Y-161992000D01*
X146304000Y-167892000D02*
X146304000Y-166882000D01*
X146304000Y-166882000D02*
X151384000Y-166882000D01*
X151384000Y-166882000D02*
X151384000Y-167892000D01*
%TO.C,J11*%
X144954000Y-169104000D02*
X150704000Y-169104000D01*
X152054000Y-169154000D02*
X155254000Y-169154000D01*
X155254000Y-169154000D02*
X155254000Y-175104000D01*
X155254000Y-175104000D02*
X144954000Y-175104000D01*
X144954000Y-175104000D02*
X144954000Y-169104000D01*
X146304000Y-175004000D02*
X146304000Y-173994000D01*
X146304000Y-173994000D02*
X151384000Y-173994000D01*
X151384000Y-173994000D02*
X151384000Y-175004000D01*
%TO.C,J10*%
X120082000Y-54182000D02*
X120082000Y-48432000D01*
X120132000Y-47082000D02*
X120132000Y-43882000D01*
X120132000Y-43882000D02*
X126082000Y-43882000D01*
X126082000Y-43882000D02*
X126082000Y-54182000D01*
X126082000Y-54182000D02*
X120082000Y-54182000D01*
X125982000Y-52832000D02*
X124972000Y-52832000D01*
X124972000Y-52832000D02*
X124972000Y-47752000D01*
X124972000Y-47752000D02*
X125982000Y-47752000D01*
%TO.C,J9*%
X105858000Y-54182000D02*
X105858000Y-48432000D01*
X105908000Y-47082000D02*
X105908000Y-43882000D01*
X105908000Y-43882000D02*
X111858000Y-43882000D01*
X111858000Y-43882000D02*
X111858000Y-54182000D01*
X111858000Y-54182000D02*
X105858000Y-54182000D01*
X111758000Y-52832000D02*
X110748000Y-52832000D01*
X110748000Y-52832000D02*
X110748000Y-47752000D01*
X110748000Y-47752000D02*
X111758000Y-47752000D01*
%TO.C,J8*%
X109046000Y-61020000D02*
X103296000Y-61020000D01*
X101946000Y-60970000D02*
X98746000Y-60970000D01*
X98746000Y-60970000D02*
X98746000Y-55020000D01*
X98746000Y-55020000D02*
X109046000Y-55020000D01*
X109046000Y-55020000D02*
X109046000Y-61020000D01*
X107696000Y-55120000D02*
X107696000Y-56130000D01*
X107696000Y-56130000D02*
X102616000Y-56130000D01*
X102616000Y-56130000D02*
X102616000Y-55120000D01*
%TO.C,J7*%
X144954000Y-62424000D02*
X150704000Y-62424000D01*
X152054000Y-62474000D02*
X155254000Y-62474000D01*
X155254000Y-62474000D02*
X155254000Y-68424000D01*
X155254000Y-68424000D02*
X144954000Y-68424000D01*
X144954000Y-68424000D02*
X144954000Y-62424000D01*
X146304000Y-68324000D02*
X146304000Y-67314000D01*
X146304000Y-67314000D02*
X151384000Y-67314000D01*
X151384000Y-67314000D02*
X151384000Y-68324000D01*
%TO.C,J6*%
X112970000Y-54182000D02*
X112970000Y-48432000D01*
X113020000Y-47082000D02*
X113020000Y-43882000D01*
X113020000Y-43882000D02*
X118970000Y-43882000D01*
X118970000Y-43882000D02*
X118970000Y-54182000D01*
X118970000Y-54182000D02*
X112970000Y-54182000D01*
X118870000Y-52832000D02*
X117860000Y-52832000D01*
X117860000Y-52832000D02*
X117860000Y-47752000D01*
X117860000Y-47752000D02*
X118870000Y-47752000D01*
%TO.C,J4*%
X144954000Y-76648000D02*
X150704000Y-76648000D01*
X152054000Y-76698000D02*
X155254000Y-76698000D01*
X155254000Y-76698000D02*
X155254000Y-82648000D01*
X155254000Y-82648000D02*
X144954000Y-82648000D01*
X144954000Y-82648000D02*
X144954000Y-76648000D01*
X146304000Y-82548000D02*
X146304000Y-81538000D01*
X146304000Y-81538000D02*
X151384000Y-81538000D01*
X151384000Y-81538000D02*
X151384000Y-82548000D01*
%TO.C,J2*%
X144954000Y-83760000D02*
X150704000Y-83760000D01*
X152054000Y-83810000D02*
X155254000Y-83810000D01*
X155254000Y-83810000D02*
X155254000Y-89760000D01*
X155254000Y-89760000D02*
X144954000Y-89760000D01*
X144954000Y-89760000D02*
X144954000Y-83760000D01*
X146304000Y-89660000D02*
X146304000Y-88650000D01*
X146304000Y-88650000D02*
X151384000Y-88650000D01*
X151384000Y-88650000D02*
X151384000Y-89660000D01*
%TO.C,U5*%
D19*
X113101095Y-136171380D02*
X113101095Y-136980904D01*
X113148714Y-137076142D01*
X113196333Y-137123761D01*
X113291571Y-137171380D01*
X113482047Y-137171380D01*
X113577285Y-137123761D01*
X113624904Y-137076142D01*
X113672523Y-136980904D01*
X113672523Y-136171380D01*
X114624904Y-136171380D02*
X114148714Y-136171380D01*
X114101095Y-136647571D01*
X114148714Y-136599952D01*
X114243952Y-136552333D01*
X114482047Y-136552333D01*
X114577285Y-136599952D01*
X114624904Y-136647571D01*
X114672523Y-136742809D01*
X114672523Y-136980904D01*
X114624904Y-137076142D01*
X114577285Y-137123761D01*
X114482047Y-137171380D01*
X114243952Y-137171380D01*
X114148714Y-137123761D01*
X114101095Y-137076142D01*
%TO.C,J31*%
D13*
X102886476Y-96982380D02*
X102886476Y-97696666D01*
X102838857Y-97839523D01*
X102743619Y-97934761D01*
X102600761Y-97982380D01*
X102505523Y-97982380D01*
X103267428Y-96982380D02*
X103886476Y-96982380D01*
X103553142Y-97363333D01*
X103696000Y-97363333D01*
X103791238Y-97410952D01*
X103838857Y-97458571D01*
X103886476Y-97553809D01*
X103886476Y-97791904D01*
X103838857Y-97887142D01*
X103791238Y-97934761D01*
X103696000Y-97982380D01*
X103410285Y-97982380D01*
X103315047Y-97934761D01*
X103267428Y-97887142D01*
X104838857Y-97982380D02*
X104267428Y-97982380D01*
X104553142Y-97982380D02*
X104553142Y-96982380D01*
X104457904Y-97125238D01*
X104362666Y-97220476D01*
X104267428Y-97268095D01*
%TO.C,U1*%
D19*
X139375095Y-120797380D02*
X139375095Y-121606904D01*
X139422714Y-121702142D01*
X139470333Y-121749761D01*
X139565571Y-121797380D01*
X139756047Y-121797380D01*
X139851285Y-121749761D01*
X139898904Y-121702142D01*
X139946523Y-121606904D01*
X139946523Y-120797380D01*
X140946523Y-121797380D02*
X140375095Y-121797380D01*
X140660809Y-121797380D02*
X140660809Y-120797380D01*
X140565571Y-120940238D01*
X140470333Y-121035476D01*
X140375095Y-121083095D01*
%TO.C,J37*%
D13*
X102886476Y-139654380D02*
X102886476Y-140368666D01*
X102838857Y-140511523D01*
X102743619Y-140606761D01*
X102600761Y-140654380D01*
X102505523Y-140654380D01*
X103267428Y-139654380D02*
X103886476Y-139654380D01*
X103553142Y-140035333D01*
X103696000Y-140035333D01*
X103791238Y-140082952D01*
X103838857Y-140130571D01*
X103886476Y-140225809D01*
X103886476Y-140463904D01*
X103838857Y-140559142D01*
X103791238Y-140606761D01*
X103696000Y-140654380D01*
X103410285Y-140654380D01*
X103315047Y-140606761D01*
X103267428Y-140559142D01*
X104219809Y-139654380D02*
X104886476Y-139654380D01*
X104457904Y-140654380D01*
%TO.C,J40*%
X102886476Y-160990380D02*
X102886476Y-161704666D01*
X102838857Y-161847523D01*
X102743619Y-161942761D01*
X102600761Y-161990380D01*
X102505523Y-161990380D01*
X103791238Y-161323714D02*
X103791238Y-161990380D01*
X103553142Y-160942761D02*
X103315047Y-161657047D01*
X103934095Y-161657047D01*
X104505523Y-160990380D02*
X104600761Y-160990380D01*
X104696000Y-161038000D01*
X104743619Y-161085619D01*
X104791238Y-161180857D01*
X104838857Y-161371333D01*
X104838857Y-161609428D01*
X104791238Y-161799904D01*
X104743619Y-161895142D01*
X104696000Y-161942761D01*
X104600761Y-161990380D01*
X104505523Y-161990380D01*
X104410285Y-161942761D01*
X104362666Y-161895142D01*
X104315047Y-161799904D01*
X104267428Y-161609428D01*
X104267428Y-161371333D01*
X104315047Y-161180857D01*
X104362666Y-161085619D01*
X104410285Y-161038000D01*
X104505523Y-160990380D01*
%TO.C,U4*%
D19*
X113101095Y-100357380D02*
X113101095Y-101166904D01*
X113148714Y-101262142D01*
X113196333Y-101309761D01*
X113291571Y-101357380D01*
X113482047Y-101357380D01*
X113577285Y-101309761D01*
X113624904Y-101262142D01*
X113672523Y-101166904D01*
X113672523Y-100357380D01*
X114577285Y-100690714D02*
X114577285Y-101357380D01*
X114339190Y-100309761D02*
X114101095Y-101024047D01*
X114720142Y-101024047D01*
%TO.C,U3*%
X121813380Y-72206904D02*
X122622904Y-72206904D01*
X122718142Y-72159285D01*
X122765761Y-72111666D01*
X122813380Y-72016428D01*
X122813380Y-71825952D01*
X122765761Y-71730714D01*
X122718142Y-71683095D01*
X122622904Y-71635476D01*
X121813380Y-71635476D01*
X121813380Y-71254523D02*
X121813380Y-70635476D01*
X122194333Y-70968809D01*
X122194333Y-70825952D01*
X122241952Y-70730714D01*
X122289571Y-70683095D01*
X122384809Y-70635476D01*
X122622904Y-70635476D01*
X122718142Y-70683095D01*
X122765761Y-70730714D01*
X122813380Y-70825952D01*
X122813380Y-71111666D01*
X122765761Y-71206904D01*
X122718142Y-71254523D01*
%TO.C,U2*%
X138867095Y-84475380D02*
X138867095Y-85284904D01*
X138914714Y-85380142D01*
X138962333Y-85427761D01*
X139057571Y-85475380D01*
X139248047Y-85475380D01*
X139343285Y-85427761D01*
X139390904Y-85380142D01*
X139438523Y-85284904D01*
X139438523Y-84475380D01*
X139867095Y-84570619D02*
X139914714Y-84523000D01*
X140009952Y-84475380D01*
X140248047Y-84475380D01*
X140343285Y-84523000D01*
X140390904Y-84570619D01*
X140438523Y-84665857D01*
X140438523Y-84761095D01*
X140390904Y-84903952D01*
X139819476Y-85475380D01*
X140438523Y-85475380D01*
%TO.C,J5*%
D13*
X149970666Y-68038380D02*
X149970666Y-68752666D01*
X149923047Y-68895523D01*
X149827809Y-68990761D01*
X149684952Y-69038380D01*
X149589714Y-69038380D01*
X150923047Y-68038380D02*
X150446857Y-68038380D01*
X150399238Y-68514571D01*
X150446857Y-68466952D01*
X150542095Y-68419333D01*
X150780190Y-68419333D01*
X150875428Y-68466952D01*
X150923047Y-68514571D01*
X150970666Y-68609809D01*
X150970666Y-68847904D01*
X150923047Y-68943142D01*
X150875428Y-68990761D01*
X150780190Y-69038380D01*
X150542095Y-69038380D01*
X150446857Y-68990761D01*
X150399238Y-68943142D01*
%TO.C,J1*%
X149970666Y-89374380D02*
X149970666Y-90088666D01*
X149923047Y-90231523D01*
X149827809Y-90326761D01*
X149684952Y-90374380D01*
X149589714Y-90374380D01*
X150970666Y-90374380D02*
X150399238Y-90374380D01*
X150684952Y-90374380D02*
X150684952Y-89374380D01*
X150589714Y-89517238D01*
X150494476Y-89612476D01*
X150399238Y-89660095D01*
%TO.C,J3*%
X149970666Y-96486380D02*
X149970666Y-97200666D01*
X149923047Y-97343523D01*
X149827809Y-97438761D01*
X149684952Y-97486380D01*
X149589714Y-97486380D01*
X150351619Y-96486380D02*
X150970666Y-96486380D01*
X150637333Y-96867333D01*
X150780190Y-96867333D01*
X150875428Y-96914952D01*
X150923047Y-96962571D01*
X150970666Y-97057809D01*
X150970666Y-97295904D01*
X150923047Y-97391142D01*
X150875428Y-97438761D01*
X150780190Y-97486380D01*
X150494476Y-97486380D01*
X150399238Y-97438761D01*
X150351619Y-97391142D01*
%TO.C,J35*%
X102886476Y-125430380D02*
X102886476Y-126144666D01*
X102838857Y-126287523D01*
X102743619Y-126382761D01*
X102600761Y-126430380D01*
X102505523Y-126430380D01*
X103267428Y-125430380D02*
X103886476Y-125430380D01*
X103553142Y-125811333D01*
X103696000Y-125811333D01*
X103791238Y-125858952D01*
X103838857Y-125906571D01*
X103886476Y-126001809D01*
X103886476Y-126239904D01*
X103838857Y-126335142D01*
X103791238Y-126382761D01*
X103696000Y-126430380D01*
X103410285Y-126430380D01*
X103315047Y-126382761D01*
X103267428Y-126335142D01*
X104791238Y-125430380D02*
X104315047Y-125430380D01*
X104267428Y-125906571D01*
X104315047Y-125858952D01*
X104410285Y-125811333D01*
X104648380Y-125811333D01*
X104743619Y-125858952D01*
X104791238Y-125906571D01*
X104838857Y-126001809D01*
X104838857Y-126239904D01*
X104791238Y-126335142D01*
X104743619Y-126382761D01*
X104648380Y-126430380D01*
X104410285Y-126430380D01*
X104315047Y-126382761D01*
X104267428Y-126335142D01*
%TO.C,J38*%
X102886476Y-146766380D02*
X102886476Y-147480666D01*
X102838857Y-147623523D01*
X102743619Y-147718761D01*
X102600761Y-147766380D01*
X102505523Y-147766380D01*
X103267428Y-146766380D02*
X103886476Y-146766380D01*
X103553142Y-147147333D01*
X103696000Y-147147333D01*
X103791238Y-147194952D01*
X103838857Y-147242571D01*
X103886476Y-147337809D01*
X103886476Y-147575904D01*
X103838857Y-147671142D01*
X103791238Y-147718761D01*
X103696000Y-147766380D01*
X103410285Y-147766380D01*
X103315047Y-147718761D01*
X103267428Y-147671142D01*
X104457904Y-147194952D02*
X104362666Y-147147333D01*
X104315047Y-147099714D01*
X104267428Y-147004476D01*
X104267428Y-146956857D01*
X104315047Y-146861619D01*
X104362666Y-146814000D01*
X104457904Y-146766380D01*
X104648380Y-146766380D01*
X104743619Y-146814000D01*
X104791238Y-146861619D01*
X104838857Y-146956857D01*
X104838857Y-147004476D01*
X104791238Y-147099714D01*
X104743619Y-147147333D01*
X104648380Y-147194952D01*
X104457904Y-147194952D01*
X104362666Y-147242571D01*
X104315047Y-147290190D01*
X104267428Y-147385428D01*
X104267428Y-147575904D01*
X104315047Y-147671142D01*
X104362666Y-147718761D01*
X104457904Y-147766380D01*
X104648380Y-147766380D01*
X104743619Y-147718761D01*
X104791238Y-147671142D01*
X104838857Y-147575904D01*
X104838857Y-147385428D01*
X104791238Y-147290190D01*
X104743619Y-147242571D01*
X104648380Y-147194952D01*
%TO.C,J36*%
X102886476Y-132542380D02*
X102886476Y-133256666D01*
X102838857Y-133399523D01*
X102743619Y-133494761D01*
X102600761Y-133542380D01*
X102505523Y-133542380D01*
X103267428Y-132542380D02*
X103886476Y-132542380D01*
X103553142Y-132923333D01*
X103696000Y-132923333D01*
X103791238Y-132970952D01*
X103838857Y-133018571D01*
X103886476Y-133113809D01*
X103886476Y-133351904D01*
X103838857Y-133447142D01*
X103791238Y-133494761D01*
X103696000Y-133542380D01*
X103410285Y-133542380D01*
X103315047Y-133494761D01*
X103267428Y-133447142D01*
X104743619Y-132542380D02*
X104553142Y-132542380D01*
X104457904Y-132590000D01*
X104410285Y-132637619D01*
X104315047Y-132780476D01*
X104267428Y-132970952D01*
X104267428Y-133351904D01*
X104315047Y-133447142D01*
X104362666Y-133494761D01*
X104457904Y-133542380D01*
X104648380Y-133542380D01*
X104743619Y-133494761D01*
X104791238Y-133447142D01*
X104838857Y-133351904D01*
X104838857Y-133113809D01*
X104791238Y-133018571D01*
X104743619Y-132970952D01*
X104648380Y-132923333D01*
X104457904Y-132923333D01*
X104362666Y-132970952D01*
X104315047Y-133018571D01*
X104267428Y-133113809D01*
%TO.C,J39*%
X102886476Y-153878380D02*
X102886476Y-154592666D01*
X102838857Y-154735523D01*
X102743619Y-154830761D01*
X102600761Y-154878380D01*
X102505523Y-154878380D01*
X103267428Y-153878380D02*
X103886476Y-153878380D01*
X103553142Y-154259333D01*
X103696000Y-154259333D01*
X103791238Y-154306952D01*
X103838857Y-154354571D01*
X103886476Y-154449809D01*
X103886476Y-154687904D01*
X103838857Y-154783142D01*
X103791238Y-154830761D01*
X103696000Y-154878380D01*
X103410285Y-154878380D01*
X103315047Y-154830761D01*
X103267428Y-154783142D01*
X104362666Y-154878380D02*
X104553142Y-154878380D01*
X104648380Y-154830761D01*
X104696000Y-154783142D01*
X104791238Y-154640285D01*
X104838857Y-154449809D01*
X104838857Y-154068857D01*
X104791238Y-153973619D01*
X104743619Y-153926000D01*
X104648380Y-153878380D01*
X104457904Y-153878380D01*
X104362666Y-153926000D01*
X104315047Y-153973619D01*
X104267428Y-154068857D01*
X104267428Y-154306952D01*
X104315047Y-154402190D01*
X104362666Y-154449809D01*
X104457904Y-154497428D01*
X104648380Y-154497428D01*
X104743619Y-154449809D01*
X104791238Y-154402190D01*
X104838857Y-154306952D01*
%TO.C,J41*%
X102886476Y-168102380D02*
X102886476Y-168816666D01*
X102838857Y-168959523D01*
X102743619Y-169054761D01*
X102600761Y-169102380D01*
X102505523Y-169102380D01*
X103791238Y-168435714D02*
X103791238Y-169102380D01*
X103553142Y-168054761D02*
X103315047Y-168769047D01*
X103934095Y-168769047D01*
X104838857Y-169102380D02*
X104267428Y-169102380D01*
X104553142Y-169102380D02*
X104553142Y-168102380D01*
X104457904Y-168245238D01*
X104362666Y-168340476D01*
X104267428Y-168388095D01*
%TO.C,JMolex1*%
X128357619Y-158456380D02*
X128357619Y-159170666D01*
X128310000Y-159313523D01*
X128214761Y-159408761D01*
X128071904Y-159456380D01*
X127976666Y-159456380D01*
X128833809Y-159456380D02*
X128833809Y-158456380D01*
X129167142Y-159170666D01*
X129500476Y-158456380D01*
X129500476Y-159456380D01*
X130119523Y-159456380D02*
X130024285Y-159408761D01*
X129976666Y-159361142D01*
X129929047Y-159265904D01*
X129929047Y-158980190D01*
X129976666Y-158884952D01*
X130024285Y-158837333D01*
X130119523Y-158789714D01*
X130262380Y-158789714D01*
X130357619Y-158837333D01*
X130405238Y-158884952D01*
X130452857Y-158980190D01*
X130452857Y-159265904D01*
X130405238Y-159361142D01*
X130357619Y-159408761D01*
X130262380Y-159456380D01*
X130119523Y-159456380D01*
X131024285Y-159456380D02*
X130929047Y-159408761D01*
X130881428Y-159313523D01*
X130881428Y-158456380D01*
X131786190Y-159408761D02*
X131690952Y-159456380D01*
X131500476Y-159456380D01*
X131405238Y-159408761D01*
X131357619Y-159313523D01*
X131357619Y-158932571D01*
X131405238Y-158837333D01*
X131500476Y-158789714D01*
X131690952Y-158789714D01*
X131786190Y-158837333D01*
X131833809Y-158932571D01*
X131833809Y-159027809D01*
X131357619Y-159123047D01*
X132167142Y-159456380D02*
X132690952Y-158789714D01*
X132167142Y-158789714D02*
X132690952Y-159456380D01*
X133595714Y-159456380D02*
X133024285Y-159456380D01*
X133310000Y-159456380D02*
X133310000Y-158456380D01*
X133214761Y-158599238D01*
X133119523Y-158694476D01*
X133024285Y-158742095D01*
%TO.C,J42*%
X102886476Y-175214380D02*
X102886476Y-175928666D01*
X102838857Y-176071523D01*
X102743619Y-176166761D01*
X102600761Y-176214380D01*
X102505523Y-176214380D01*
X103791238Y-175547714D02*
X103791238Y-176214380D01*
X103553142Y-175166761D02*
X103315047Y-175881047D01*
X103934095Y-175881047D01*
X104267428Y-175309619D02*
X104315047Y-175262000D01*
X104410285Y-175214380D01*
X104648380Y-175214380D01*
X104743619Y-175262000D01*
X104791238Y-175309619D01*
X104838857Y-175404857D01*
X104838857Y-175500095D01*
X104791238Y-175642952D01*
X104219809Y-176214380D01*
X104838857Y-176214380D01*
%TO.C,J34*%
X102886476Y-118318380D02*
X102886476Y-119032666D01*
X102838857Y-119175523D01*
X102743619Y-119270761D01*
X102600761Y-119318380D01*
X102505523Y-119318380D01*
X103267428Y-118318380D02*
X103886476Y-118318380D01*
X103553142Y-118699333D01*
X103696000Y-118699333D01*
X103791238Y-118746952D01*
X103838857Y-118794571D01*
X103886476Y-118889809D01*
X103886476Y-119127904D01*
X103838857Y-119223142D01*
X103791238Y-119270761D01*
X103696000Y-119318380D01*
X103410285Y-119318380D01*
X103315047Y-119270761D01*
X103267428Y-119223142D01*
X104743619Y-118651714D02*
X104743619Y-119318380D01*
X104505523Y-118270761D02*
X104267428Y-118985047D01*
X104886476Y-118985047D01*
%TO.C,J33*%
X102886476Y-111206380D02*
X102886476Y-111920666D01*
X102838857Y-112063523D01*
X102743619Y-112158761D01*
X102600761Y-112206380D01*
X102505523Y-112206380D01*
X103267428Y-111206380D02*
X103886476Y-111206380D01*
X103553142Y-111587333D01*
X103696000Y-111587333D01*
X103791238Y-111634952D01*
X103838857Y-111682571D01*
X103886476Y-111777809D01*
X103886476Y-112015904D01*
X103838857Y-112111142D01*
X103791238Y-112158761D01*
X103696000Y-112206380D01*
X103410285Y-112206380D01*
X103315047Y-112158761D01*
X103267428Y-112111142D01*
X104219809Y-111206380D02*
X104838857Y-111206380D01*
X104505523Y-111587333D01*
X104648380Y-111587333D01*
X104743619Y-111634952D01*
X104791238Y-111682571D01*
X104838857Y-111777809D01*
X104838857Y-112015904D01*
X104791238Y-112111142D01*
X104743619Y-112158761D01*
X104648380Y-112206380D01*
X104362666Y-112206380D01*
X104267428Y-112158761D01*
X104219809Y-112111142D01*
%TO.C,J32*%
X102886476Y-104094380D02*
X102886476Y-104808666D01*
X102838857Y-104951523D01*
X102743619Y-105046761D01*
X102600761Y-105094380D01*
X102505523Y-105094380D01*
X103267428Y-104094380D02*
X103886476Y-104094380D01*
X103553142Y-104475333D01*
X103696000Y-104475333D01*
X103791238Y-104522952D01*
X103838857Y-104570571D01*
X103886476Y-104665809D01*
X103886476Y-104903904D01*
X103838857Y-104999142D01*
X103791238Y-105046761D01*
X103696000Y-105094380D01*
X103410285Y-105094380D01*
X103315047Y-105046761D01*
X103267428Y-104999142D01*
X104267428Y-104189619D02*
X104315047Y-104142000D01*
X104410285Y-104094380D01*
X104648380Y-104094380D01*
X104743619Y-104142000D01*
X104791238Y-104189619D01*
X104838857Y-104284857D01*
X104838857Y-104380095D01*
X104791238Y-104522952D01*
X104219809Y-105094380D01*
X104838857Y-105094380D01*
%TO.C,J30*%
X102886476Y-89870380D02*
X102886476Y-90584666D01*
X102838857Y-90727523D01*
X102743619Y-90822761D01*
X102600761Y-90870380D01*
X102505523Y-90870380D01*
X103267428Y-89870380D02*
X103886476Y-89870380D01*
X103553142Y-90251333D01*
X103696000Y-90251333D01*
X103791238Y-90298952D01*
X103838857Y-90346571D01*
X103886476Y-90441809D01*
X103886476Y-90679904D01*
X103838857Y-90775142D01*
X103791238Y-90822761D01*
X103696000Y-90870380D01*
X103410285Y-90870380D01*
X103315047Y-90822761D01*
X103267428Y-90775142D01*
X104505523Y-89870380D02*
X104600761Y-89870380D01*
X104696000Y-89918000D01*
X104743619Y-89965619D01*
X104791238Y-90060857D01*
X104838857Y-90251333D01*
X104838857Y-90489428D01*
X104791238Y-90679904D01*
X104743619Y-90775142D01*
X104696000Y-90822761D01*
X104600761Y-90870380D01*
X104505523Y-90870380D01*
X104410285Y-90822761D01*
X104362666Y-90775142D01*
X104315047Y-90679904D01*
X104267428Y-90489428D01*
X104267428Y-90251333D01*
X104315047Y-90060857D01*
X104362666Y-89965619D01*
X104410285Y-89918000D01*
X104505523Y-89870380D01*
%TO.C,J29*%
X102886476Y-82758380D02*
X102886476Y-83472666D01*
X102838857Y-83615523D01*
X102743619Y-83710761D01*
X102600761Y-83758380D01*
X102505523Y-83758380D01*
X103315047Y-82853619D02*
X103362666Y-82806000D01*
X103457904Y-82758380D01*
X103696000Y-82758380D01*
X103791238Y-82806000D01*
X103838857Y-82853619D01*
X103886476Y-82948857D01*
X103886476Y-83044095D01*
X103838857Y-83186952D01*
X103267428Y-83758380D01*
X103886476Y-83758380D01*
X104362666Y-83758380D02*
X104553142Y-83758380D01*
X104648380Y-83710761D01*
X104696000Y-83663142D01*
X104791238Y-83520285D01*
X104838857Y-83329809D01*
X104838857Y-82948857D01*
X104791238Y-82853619D01*
X104743619Y-82806000D01*
X104648380Y-82758380D01*
X104457904Y-82758380D01*
X104362666Y-82806000D01*
X104315047Y-82853619D01*
X104267428Y-82948857D01*
X104267428Y-83186952D01*
X104315047Y-83282190D01*
X104362666Y-83329809D01*
X104457904Y-83377428D01*
X104648380Y-83377428D01*
X104743619Y-83329809D01*
X104791238Y-83282190D01*
X104838857Y-83186952D01*
%TO.C,J28*%
X102886476Y-75646380D02*
X102886476Y-76360666D01*
X102838857Y-76503523D01*
X102743619Y-76598761D01*
X102600761Y-76646380D01*
X102505523Y-76646380D01*
X103315047Y-75741619D02*
X103362666Y-75694000D01*
X103457904Y-75646380D01*
X103696000Y-75646380D01*
X103791238Y-75694000D01*
X103838857Y-75741619D01*
X103886476Y-75836857D01*
X103886476Y-75932095D01*
X103838857Y-76074952D01*
X103267428Y-76646380D01*
X103886476Y-76646380D01*
X104457904Y-76074952D02*
X104362666Y-76027333D01*
X104315047Y-75979714D01*
X104267428Y-75884476D01*
X104267428Y-75836857D01*
X104315047Y-75741619D01*
X104362666Y-75694000D01*
X104457904Y-75646380D01*
X104648380Y-75646380D01*
X104743619Y-75694000D01*
X104791238Y-75741619D01*
X104838857Y-75836857D01*
X104838857Y-75884476D01*
X104791238Y-75979714D01*
X104743619Y-76027333D01*
X104648380Y-76074952D01*
X104457904Y-76074952D01*
X104362666Y-76122571D01*
X104315047Y-76170190D01*
X104267428Y-76265428D01*
X104267428Y-76455904D01*
X104315047Y-76551142D01*
X104362666Y-76598761D01*
X104457904Y-76646380D01*
X104648380Y-76646380D01*
X104743619Y-76598761D01*
X104791238Y-76551142D01*
X104838857Y-76455904D01*
X104838857Y-76265428D01*
X104791238Y-76170190D01*
X104743619Y-76122571D01*
X104648380Y-76074952D01*
%TO.C,J27*%
X102886476Y-68534380D02*
X102886476Y-69248666D01*
X102838857Y-69391523D01*
X102743619Y-69486761D01*
X102600761Y-69534380D01*
X102505523Y-69534380D01*
X103315047Y-68629619D02*
X103362666Y-68582000D01*
X103457904Y-68534380D01*
X103696000Y-68534380D01*
X103791238Y-68582000D01*
X103838857Y-68629619D01*
X103886476Y-68724857D01*
X103886476Y-68820095D01*
X103838857Y-68962952D01*
X103267428Y-69534380D01*
X103886476Y-69534380D01*
X104219809Y-68534380D02*
X104886476Y-68534380D01*
X104457904Y-69534380D01*
%TO.C,J26*%
X149494476Y-53814380D02*
X149494476Y-54528666D01*
X149446857Y-54671523D01*
X149351619Y-54766761D01*
X149208761Y-54814380D01*
X149113523Y-54814380D01*
X149923047Y-53909619D02*
X149970666Y-53862000D01*
X150065904Y-53814380D01*
X150304000Y-53814380D01*
X150399238Y-53862000D01*
X150446857Y-53909619D01*
X150494476Y-54004857D01*
X150494476Y-54100095D01*
X150446857Y-54242952D01*
X149875428Y-54814380D01*
X150494476Y-54814380D01*
X151351619Y-53814380D02*
X151161142Y-53814380D01*
X151065904Y-53862000D01*
X151018285Y-53909619D01*
X150923047Y-54052476D01*
X150875428Y-54242952D01*
X150875428Y-54623904D01*
X150923047Y-54719142D01*
X150970666Y-54766761D01*
X151065904Y-54814380D01*
X151256380Y-54814380D01*
X151351619Y-54766761D01*
X151399238Y-54719142D01*
X151446857Y-54623904D01*
X151446857Y-54385809D01*
X151399238Y-54290571D01*
X151351619Y-54242952D01*
X151256380Y-54195333D01*
X151065904Y-54195333D01*
X150970666Y-54242952D01*
X150923047Y-54290571D01*
X150875428Y-54385809D01*
%TO.C,J25*%
X139920380Y-49641523D02*
X140634666Y-49641523D01*
X140777523Y-49689142D01*
X140872761Y-49784380D01*
X140920380Y-49927238D01*
X140920380Y-50022476D01*
X140015619Y-49212952D02*
X139968000Y-49165333D01*
X139920380Y-49070095D01*
X139920380Y-48832000D01*
X139968000Y-48736761D01*
X140015619Y-48689142D01*
X140110857Y-48641523D01*
X140206095Y-48641523D01*
X140348952Y-48689142D01*
X140920380Y-49260571D01*
X140920380Y-48641523D01*
X139920380Y-47736761D02*
X139920380Y-48212952D01*
X140396571Y-48260571D01*
X140348952Y-48212952D01*
X140301333Y-48117714D01*
X140301333Y-47879619D01*
X140348952Y-47784380D01*
X140396571Y-47736761D01*
X140491809Y-47689142D01*
X140729904Y-47689142D01*
X140825142Y-47736761D01*
X140872761Y-47784380D01*
X140920380Y-47879619D01*
X140920380Y-48117714D01*
X140872761Y-48212952D01*
X140825142Y-48260571D01*
%TO.C,J24*%
X132808380Y-49641523D02*
X133522666Y-49641523D01*
X133665523Y-49689142D01*
X133760761Y-49784380D01*
X133808380Y-49927238D01*
X133808380Y-50022476D01*
X132903619Y-49212952D02*
X132856000Y-49165333D01*
X132808380Y-49070095D01*
X132808380Y-48832000D01*
X132856000Y-48736761D01*
X132903619Y-48689142D01*
X132998857Y-48641523D01*
X133094095Y-48641523D01*
X133236952Y-48689142D01*
X133808380Y-49260571D01*
X133808380Y-48641523D01*
X133141714Y-47784380D02*
X133808380Y-47784380D01*
X132760761Y-48022476D02*
X133475047Y-48260571D01*
X133475047Y-47641523D01*
%TO.C,J23*%
X125696380Y-49641523D02*
X126410666Y-49641523D01*
X126553523Y-49689142D01*
X126648761Y-49784380D01*
X126696380Y-49927238D01*
X126696380Y-50022476D01*
X125791619Y-49212952D02*
X125744000Y-49165333D01*
X125696380Y-49070095D01*
X125696380Y-48832000D01*
X125744000Y-48736761D01*
X125791619Y-48689142D01*
X125886857Y-48641523D01*
X125982095Y-48641523D01*
X126124952Y-48689142D01*
X126696380Y-49260571D01*
X126696380Y-48641523D01*
X125696380Y-48308190D02*
X125696380Y-47689142D01*
X126077333Y-48022476D01*
X126077333Y-47879619D01*
X126124952Y-47784380D01*
X126172571Y-47736761D01*
X126267809Y-47689142D01*
X126505904Y-47689142D01*
X126601142Y-47736761D01*
X126648761Y-47784380D01*
X126696380Y-47879619D01*
X126696380Y-48165333D01*
X126648761Y-48260571D01*
X126601142Y-48308190D01*
%TO.C,J20*%
X149494476Y-103598380D02*
X149494476Y-104312666D01*
X149446857Y-104455523D01*
X149351619Y-104550761D01*
X149208761Y-104598380D01*
X149113523Y-104598380D01*
X149923047Y-103693619D02*
X149970666Y-103646000D01*
X150065904Y-103598380D01*
X150304000Y-103598380D01*
X150399238Y-103646000D01*
X150446857Y-103693619D01*
X150494476Y-103788857D01*
X150494476Y-103884095D01*
X150446857Y-104026952D01*
X149875428Y-104598380D01*
X150494476Y-104598380D01*
X151113523Y-103598380D02*
X151208761Y-103598380D01*
X151304000Y-103646000D01*
X151351619Y-103693619D01*
X151399238Y-103788857D01*
X151446857Y-103979333D01*
X151446857Y-104217428D01*
X151399238Y-104407904D01*
X151351619Y-104503142D01*
X151304000Y-104550761D01*
X151208761Y-104598380D01*
X151113523Y-104598380D01*
X151018285Y-104550761D01*
X150970666Y-104503142D01*
X150923047Y-104407904D01*
X150875428Y-104217428D01*
X150875428Y-103979333D01*
X150923047Y-103788857D01*
X150970666Y-103693619D01*
X151018285Y-103646000D01*
X151113523Y-103598380D01*
%TO.C,J19*%
X149494476Y-110710380D02*
X149494476Y-111424666D01*
X149446857Y-111567523D01*
X149351619Y-111662761D01*
X149208761Y-111710380D01*
X149113523Y-111710380D01*
X150494476Y-111710380D02*
X149923047Y-111710380D01*
X150208761Y-111710380D02*
X150208761Y-110710380D01*
X150113523Y-110853238D01*
X150018285Y-110948476D01*
X149923047Y-110996095D01*
X150970666Y-111710380D02*
X151161142Y-111710380D01*
X151256380Y-111662761D01*
X151304000Y-111615142D01*
X151399238Y-111472285D01*
X151446857Y-111281809D01*
X151446857Y-110900857D01*
X151399238Y-110805619D01*
X151351619Y-110758000D01*
X151256380Y-110710380D01*
X151065904Y-110710380D01*
X150970666Y-110758000D01*
X150923047Y-110805619D01*
X150875428Y-110900857D01*
X150875428Y-111138952D01*
X150923047Y-111234190D01*
X150970666Y-111281809D01*
X151065904Y-111329428D01*
X151256380Y-111329428D01*
X151351619Y-111281809D01*
X151399238Y-111234190D01*
X151446857Y-111138952D01*
%TO.C,J18*%
X149494476Y-117822380D02*
X149494476Y-118536666D01*
X149446857Y-118679523D01*
X149351619Y-118774761D01*
X149208761Y-118822380D01*
X149113523Y-118822380D01*
X150494476Y-118822380D02*
X149923047Y-118822380D01*
X150208761Y-118822380D02*
X150208761Y-117822380D01*
X150113523Y-117965238D01*
X150018285Y-118060476D01*
X149923047Y-118108095D01*
X151065904Y-118250952D02*
X150970666Y-118203333D01*
X150923047Y-118155714D01*
X150875428Y-118060476D01*
X150875428Y-118012857D01*
X150923047Y-117917619D01*
X150970666Y-117870000D01*
X151065904Y-117822380D01*
X151256380Y-117822380D01*
X151351619Y-117870000D01*
X151399238Y-117917619D01*
X151446857Y-118012857D01*
X151446857Y-118060476D01*
X151399238Y-118155714D01*
X151351619Y-118203333D01*
X151256380Y-118250952D01*
X151065904Y-118250952D01*
X150970666Y-118298571D01*
X150923047Y-118346190D01*
X150875428Y-118441428D01*
X150875428Y-118631904D01*
X150923047Y-118727142D01*
X150970666Y-118774761D01*
X151065904Y-118822380D01*
X151256380Y-118822380D01*
X151351619Y-118774761D01*
X151399238Y-118727142D01*
X151446857Y-118631904D01*
X151446857Y-118441428D01*
X151399238Y-118346190D01*
X151351619Y-118298571D01*
X151256380Y-118250952D01*
%TO.C,J17*%
X149494476Y-124934380D02*
X149494476Y-125648666D01*
X149446857Y-125791523D01*
X149351619Y-125886761D01*
X149208761Y-125934380D01*
X149113523Y-125934380D01*
X150494476Y-125934380D02*
X149923047Y-125934380D01*
X150208761Y-125934380D02*
X150208761Y-124934380D01*
X150113523Y-125077238D01*
X150018285Y-125172476D01*
X149923047Y-125220095D01*
X150827809Y-124934380D02*
X151494476Y-124934380D01*
X151065904Y-125934380D01*
%TO.C,J16*%
X149494476Y-132046380D02*
X149494476Y-132760666D01*
X149446857Y-132903523D01*
X149351619Y-132998761D01*
X149208761Y-133046380D01*
X149113523Y-133046380D01*
X150494476Y-133046380D02*
X149923047Y-133046380D01*
X150208761Y-133046380D02*
X150208761Y-132046380D01*
X150113523Y-132189238D01*
X150018285Y-132284476D01*
X149923047Y-132332095D01*
X151351619Y-132046380D02*
X151161142Y-132046380D01*
X151065904Y-132094000D01*
X151018285Y-132141619D01*
X150923047Y-132284476D01*
X150875428Y-132474952D01*
X150875428Y-132855904D01*
X150923047Y-132951142D01*
X150970666Y-132998761D01*
X151065904Y-133046380D01*
X151256380Y-133046380D01*
X151351619Y-132998761D01*
X151399238Y-132951142D01*
X151446857Y-132855904D01*
X151446857Y-132617809D01*
X151399238Y-132522571D01*
X151351619Y-132474952D01*
X151256380Y-132427333D01*
X151065904Y-132427333D01*
X150970666Y-132474952D01*
X150923047Y-132522571D01*
X150875428Y-132617809D01*
%TO.C,J15*%
X149494476Y-139158380D02*
X149494476Y-139872666D01*
X149446857Y-140015523D01*
X149351619Y-140110761D01*
X149208761Y-140158380D01*
X149113523Y-140158380D01*
X150494476Y-140158380D02*
X149923047Y-140158380D01*
X150208761Y-140158380D02*
X150208761Y-139158380D01*
X150113523Y-139301238D01*
X150018285Y-139396476D01*
X149923047Y-139444095D01*
X151399238Y-139158380D02*
X150923047Y-139158380D01*
X150875428Y-139634571D01*
X150923047Y-139586952D01*
X151018285Y-139539333D01*
X151256380Y-139539333D01*
X151351619Y-139586952D01*
X151399238Y-139634571D01*
X151446857Y-139729809D01*
X151446857Y-139967904D01*
X151399238Y-140063142D01*
X151351619Y-140110761D01*
X151256380Y-140158380D01*
X151018285Y-140158380D01*
X150923047Y-140110761D01*
X150875428Y-140063142D01*
%TO.C,J14*%
X149494476Y-146270380D02*
X149494476Y-146984666D01*
X149446857Y-147127523D01*
X149351619Y-147222761D01*
X149208761Y-147270380D01*
X149113523Y-147270380D01*
X150494476Y-147270380D02*
X149923047Y-147270380D01*
X150208761Y-147270380D02*
X150208761Y-146270380D01*
X150113523Y-146413238D01*
X150018285Y-146508476D01*
X149923047Y-146556095D01*
X151351619Y-146603714D02*
X151351619Y-147270380D01*
X151113523Y-146222761D02*
X150875428Y-146937047D01*
X151494476Y-146937047D01*
%TO.C,J13*%
X149494476Y-153382380D02*
X149494476Y-154096666D01*
X149446857Y-154239523D01*
X149351619Y-154334761D01*
X149208761Y-154382380D01*
X149113523Y-154382380D01*
X150494476Y-154382380D02*
X149923047Y-154382380D01*
X150208761Y-154382380D02*
X150208761Y-153382380D01*
X150113523Y-153525238D01*
X150018285Y-153620476D01*
X149923047Y-153668095D01*
X150827809Y-153382380D02*
X151446857Y-153382380D01*
X151113523Y-153763333D01*
X151256380Y-153763333D01*
X151351619Y-153810952D01*
X151399238Y-153858571D01*
X151446857Y-153953809D01*
X151446857Y-154191904D01*
X151399238Y-154287142D01*
X151351619Y-154334761D01*
X151256380Y-154382380D01*
X150970666Y-154382380D01*
X150875428Y-154334761D01*
X150827809Y-154287142D01*
%TO.C,J12*%
X149494476Y-160494380D02*
X149494476Y-161208666D01*
X149446857Y-161351523D01*
X149351619Y-161446761D01*
X149208761Y-161494380D01*
X149113523Y-161494380D01*
X150494476Y-161494380D02*
X149923047Y-161494380D01*
X150208761Y-161494380D02*
X150208761Y-160494380D01*
X150113523Y-160637238D01*
X150018285Y-160732476D01*
X149923047Y-160780095D01*
X150875428Y-160589619D02*
X150923047Y-160542000D01*
X151018285Y-160494380D01*
X151256380Y-160494380D01*
X151351619Y-160542000D01*
X151399238Y-160589619D01*
X151446857Y-160684857D01*
X151446857Y-160780095D01*
X151399238Y-160922952D01*
X150827809Y-161494380D01*
X151446857Y-161494380D01*
%TO.C,J11*%
X149494476Y-167606380D02*
X149494476Y-168320666D01*
X149446857Y-168463523D01*
X149351619Y-168558761D01*
X149208761Y-168606380D01*
X149113523Y-168606380D01*
X150494476Y-168606380D02*
X149923047Y-168606380D01*
X150208761Y-168606380D02*
X150208761Y-167606380D01*
X150113523Y-167749238D01*
X150018285Y-167844476D01*
X149923047Y-167892095D01*
X151446857Y-168606380D02*
X150875428Y-168606380D01*
X151161142Y-168606380D02*
X151161142Y-167606380D01*
X151065904Y-167749238D01*
X150970666Y-167844476D01*
X150875428Y-167892095D01*
%TO.C,J10*%
X118584380Y-49641523D02*
X119298666Y-49641523D01*
X119441523Y-49689142D01*
X119536761Y-49784380D01*
X119584380Y-49927238D01*
X119584380Y-50022476D01*
X119584380Y-48641523D02*
X119584380Y-49212952D01*
X119584380Y-48927238D02*
X118584380Y-48927238D01*
X118727238Y-49022476D01*
X118822476Y-49117714D01*
X118870095Y-49212952D01*
X118584380Y-48022476D02*
X118584380Y-47927238D01*
X118632000Y-47832000D01*
X118679619Y-47784380D01*
X118774857Y-47736761D01*
X118965333Y-47689142D01*
X119203428Y-47689142D01*
X119393904Y-47736761D01*
X119489142Y-47784380D01*
X119536761Y-47832000D01*
X119584380Y-47927238D01*
X119584380Y-48022476D01*
X119536761Y-48117714D01*
X119489142Y-48165333D01*
X119393904Y-48212952D01*
X119203428Y-48260571D01*
X118965333Y-48260571D01*
X118774857Y-48212952D01*
X118679619Y-48165333D01*
X118632000Y-48117714D01*
X118584380Y-48022476D01*
%TO.C,J9*%
X104360380Y-49165333D02*
X105074666Y-49165333D01*
X105217523Y-49212952D01*
X105312761Y-49308190D01*
X105360380Y-49451047D01*
X105360380Y-49546285D01*
X105360380Y-48641523D02*
X105360380Y-48451047D01*
X105312761Y-48355809D01*
X105265142Y-48308190D01*
X105122285Y-48212952D01*
X104931809Y-48165333D01*
X104550857Y-48165333D01*
X104455619Y-48212952D01*
X104408000Y-48260571D01*
X104360380Y-48355809D01*
X104360380Y-48546285D01*
X104408000Y-48641523D01*
X104455619Y-48689142D01*
X104550857Y-48736761D01*
X104788952Y-48736761D01*
X104884190Y-48689142D01*
X104931809Y-48641523D01*
X104979428Y-48546285D01*
X104979428Y-48355809D01*
X104931809Y-48260571D01*
X104884190Y-48212952D01*
X104788952Y-48165333D01*
%TO.C,J8*%
X103362666Y-61422380D02*
X103362666Y-62136666D01*
X103315047Y-62279523D01*
X103219809Y-62374761D01*
X103076952Y-62422380D01*
X102981714Y-62422380D01*
X103981714Y-61850952D02*
X103886476Y-61803333D01*
X103838857Y-61755714D01*
X103791238Y-61660476D01*
X103791238Y-61612857D01*
X103838857Y-61517619D01*
X103886476Y-61470000D01*
X103981714Y-61422380D01*
X104172190Y-61422380D01*
X104267428Y-61470000D01*
X104315047Y-61517619D01*
X104362666Y-61612857D01*
X104362666Y-61660476D01*
X104315047Y-61755714D01*
X104267428Y-61803333D01*
X104172190Y-61850952D01*
X103981714Y-61850952D01*
X103886476Y-61898571D01*
X103838857Y-61946190D01*
X103791238Y-62041428D01*
X103791238Y-62231904D01*
X103838857Y-62327142D01*
X103886476Y-62374761D01*
X103981714Y-62422380D01*
X104172190Y-62422380D01*
X104267428Y-62374761D01*
X104315047Y-62327142D01*
X104362666Y-62231904D01*
X104362666Y-62041428D01*
X104315047Y-61946190D01*
X104267428Y-61898571D01*
X104172190Y-61850952D01*
%TO.C,J7*%
X149970666Y-60926380D02*
X149970666Y-61640666D01*
X149923047Y-61783523D01*
X149827809Y-61878761D01*
X149684952Y-61926380D01*
X149589714Y-61926380D01*
X150351619Y-60926380D02*
X151018285Y-60926380D01*
X150589714Y-61926380D01*
%TO.C,J6*%
X111472380Y-49165333D02*
X112186666Y-49165333D01*
X112329523Y-49212952D01*
X112424761Y-49308190D01*
X112472380Y-49451047D01*
X112472380Y-49546285D01*
X111472380Y-48260571D02*
X111472380Y-48451047D01*
X111520000Y-48546285D01*
X111567619Y-48593904D01*
X111710476Y-48689142D01*
X111900952Y-48736761D01*
X112281904Y-48736761D01*
X112377142Y-48689142D01*
X112424761Y-48641523D01*
X112472380Y-48546285D01*
X112472380Y-48355809D01*
X112424761Y-48260571D01*
X112377142Y-48212952D01*
X112281904Y-48165333D01*
X112043809Y-48165333D01*
X111948571Y-48212952D01*
X111900952Y-48260571D01*
X111853333Y-48355809D01*
X111853333Y-48546285D01*
X111900952Y-48641523D01*
X111948571Y-48689142D01*
X112043809Y-48736761D01*
%TO.C,J4*%
X149970666Y-75150380D02*
X149970666Y-75864666D01*
X149923047Y-76007523D01*
X149827809Y-76102761D01*
X149684952Y-76150380D01*
X149589714Y-76150380D01*
X150875428Y-75483714D02*
X150875428Y-76150380D01*
X150637333Y-75102761D02*
X150399238Y-75817047D01*
X151018285Y-75817047D01*
%TO.C,J2*%
X149970666Y-82262380D02*
X149970666Y-82976666D01*
X149923047Y-83119523D01*
X149827809Y-83214761D01*
X149684952Y-83262380D01*
X149589714Y-83262380D01*
X150399238Y-82357619D02*
X150446857Y-82310000D01*
X150542095Y-82262380D01*
X150780190Y-82262380D01*
X150875428Y-82310000D01*
X150923047Y-82357619D01*
X150970666Y-82452857D01*
X150970666Y-82548095D01*
X150923047Y-82690952D01*
X150351619Y-83262380D01*
X150970666Y-83262380D01*
%TD*%
M02*
