%TF.GenerationSoftware,KiCad,Pcbnew,(5.1.8)-1*%
%TF.CreationDate,2021-02-27T15:52:15-06:00*%
%TF.ProjectId,CircuitBoard,43697263-7569-4744-926f-6172642e6b69,rev?*%
%TF.SameCoordinates,Original*%
%TF.FileFunction,Copper,L1,Top*%
%TF.FilePolarity,Positive*%
%FSLAX46Y46*%
G04 Gerber Fmt 4.6, Leading zero omitted, Abs format (unit mm)*
G04 Created by KiCad (PCBNEW (5.1.8)-1) date 2021-02-27 15:52:15*
%MOMM*%
%LPD*%
G01*
G04 APERTURE LIST*
%TA.AperFunction,SMDPad,CuDef*%
%ADD10R,1.570000X0.410000*%
%TD*%
%TA.AperFunction,SMDPad,CuDef*%
%ADD11R,0.410000X1.570000*%
%TD*%
%TA.AperFunction,ComponentPad*%
%ADD12C,2.780000*%
%TD*%
%TA.AperFunction,ComponentPad*%
%ADD13R,2.780000X2.780000*%
%TD*%
%TA.AperFunction,ComponentPad*%
%ADD14O,1.730000X2.030000*%
%TD*%
%TA.AperFunction,ComponentPad*%
%ADD15R,1.730000X2.030000*%
%TD*%
%TA.AperFunction,ComponentPad*%
%ADD16O,1.700000X1.700000*%
%TD*%
%TA.AperFunction,ComponentPad*%
%ADD17R,1.700000X1.700000*%
%TD*%
%TA.AperFunction,ComponentPad*%
%ADD18O,2.030000X1.730000*%
%TD*%
%TA.AperFunction,ComponentPad*%
%ADD19R,2.030000X1.730000*%
%TD*%
%TA.AperFunction,ViaPad*%
%ADD20C,0.800000*%
%TD*%
%TA.AperFunction,Conductor*%
%ADD21C,0.250000*%
%TD*%
%TA.AperFunction,Conductor*%
%ADD22C,1.016000*%
%TD*%
G04 APERTURE END LIST*
D10*
%TO.P,U5,20*%
%TO.N,Net-(J35-Pad2)*%
X105080000Y-95635000D03*
%TO.P,U5,19*%
%TO.N,Net-(J1-Pad1)*%
X105080000Y-94985000D03*
%TO.P,U5,18*%
%TO.N,Net-(J36-Pad2)*%
X105080000Y-94335000D03*
%TO.P,U5,17*%
%TO.N,Net-(J37-Pad2)*%
X105080000Y-93685000D03*
%TO.P,U5,16*%
%TO.N,Net-(J38-Pad2)*%
X105080000Y-93035000D03*
%TO.P,U5,15*%
%TO.N,Net-(J39-Pad2)*%
X105080000Y-92385000D03*
%TO.P,U5,14*%
%TO.N,Net-(J40-Pad2)*%
X105080000Y-91735000D03*
%TO.P,U5,13*%
%TO.N,Net-(J41-Pad2)*%
X105080000Y-91085000D03*
%TO.P,U5,12*%
%TO.N,Net-(J42-Pad2)*%
X105080000Y-90435000D03*
%TO.P,U5,11*%
%TO.N,Net-(J1-Pad4)*%
X105080000Y-89785000D03*
%TO.P,U5,10*%
%TO.N,Net-(R1-Pad2)*%
X110820000Y-89785000D03*
%TO.P,U5,9*%
%TO.N,Net-(J22-Pad18)*%
X110820000Y-90435000D03*
%TO.P,U5,8*%
%TO.N,Net-(J22-Pad19)*%
X110820000Y-91085000D03*
%TO.P,U5,7*%
%TO.N,Net-(J22-Pad20)*%
X110820000Y-91735000D03*
%TO.P,U5,6*%
%TO.N,Net-(J22-Pad21)*%
X110820000Y-92385000D03*
%TO.P,U5,5*%
%TO.N,Net-(J22-Pad22)*%
X110820000Y-93035000D03*
%TO.P,U5,4*%
%TO.N,Net-(J22-Pad23)*%
X110820000Y-93685000D03*
%TO.P,U5,3*%
%TO.N,Net-(J22-Pad24)*%
X110820000Y-94335000D03*
%TO.P,U5,2*%
%TO.N,Net-(J21-Pad15)*%
X110820000Y-94985000D03*
%TO.P,U5,1*%
%TO.N,Net-(J21-Pad24)*%
X110820000Y-95635000D03*
%TD*%
%TO.P,U4,20*%
%TO.N,Net-(J27-Pad2)*%
X103810000Y-137545000D03*
%TO.P,U4,19*%
%TO.N,Net-(J1-Pad1)*%
X103810000Y-136895000D03*
%TO.P,U4,18*%
%TO.N,Net-(J28-Pad2)*%
X103810000Y-136245000D03*
%TO.P,U4,17*%
%TO.N,Net-(J29-Pad2)*%
X103810000Y-135595000D03*
%TO.P,U4,16*%
%TO.N,Net-(J30-Pad2)*%
X103810000Y-134945000D03*
%TO.P,U4,15*%
%TO.N,Net-(J31-Pad2)*%
X103810000Y-134295000D03*
%TO.P,U4,14*%
%TO.N,Net-(J32-Pad2)*%
X103810000Y-133645000D03*
%TO.P,U4,13*%
%TO.N,Net-(J33-Pad2)*%
X103810000Y-132995000D03*
%TO.P,U4,12*%
%TO.N,Net-(J34-Pad2)*%
X103810000Y-132345000D03*
%TO.P,U4,11*%
%TO.N,Net-(J1-Pad4)*%
X103810000Y-131695000D03*
%TO.P,U4,10*%
%TO.N,Net-(R1-Pad2)*%
X109550000Y-131695000D03*
%TO.P,U4,9*%
%TO.N,Net-(J21-Pad23)*%
X109550000Y-132345000D03*
%TO.P,U4,8*%
%TO.N,Net-(J21-Pad22)*%
X109550000Y-132995000D03*
%TO.P,U4,7*%
%TO.N,Net-(J21-Pad21)*%
X109550000Y-133645000D03*
%TO.P,U4,6*%
%TO.N,Net-(J21-Pad20)*%
X109550000Y-134295000D03*
%TO.P,U4,5*%
%TO.N,Net-(J21-Pad19)*%
X109550000Y-134945000D03*
%TO.P,U4,4*%
%TO.N,Net-(J21-Pad18)*%
X109550000Y-135595000D03*
%TO.P,U4,3*%
%TO.N,Net-(J21-Pad17)*%
X109550000Y-136245000D03*
%TO.P,U4,2*%
%TO.N,Net-(J21-Pad15)*%
X109550000Y-136895000D03*
%TO.P,U4,1*%
%TO.N,Net-(J21-Pad16)*%
X109550000Y-137545000D03*
%TD*%
%TO.P,U3,20*%
%TO.N,Net-(J8-Pad2)*%
X145110000Y-88515000D03*
%TO.P,U3,19*%
%TO.N,Net-(J1-Pad1)*%
X145110000Y-89165000D03*
%TO.P,U3,18*%
%TO.N,Net-(J9-Pad2)*%
X145110000Y-89815000D03*
%TO.P,U3,17*%
%TO.N,Net-(J6-Pad2)*%
X145110000Y-90465000D03*
%TO.P,U3,16*%
%TO.N,Net-(J10-Pad2)*%
X145110000Y-91115000D03*
%TO.P,U3,15*%
%TO.N,Net-(J23-Pad2)*%
X145110000Y-91765000D03*
%TO.P,U3,14*%
%TO.N,Net-(J24-Pad2)*%
X145110000Y-92415000D03*
%TO.P,U3,13*%
%TO.N,Net-(J25-Pad2)*%
X145110000Y-93065000D03*
%TO.P,U3,12*%
%TO.N,Net-(J26-Pad2)*%
X145110000Y-93715000D03*
%TO.P,U3,11*%
%TO.N,Net-(J1-Pad4)*%
X145110000Y-94365000D03*
%TO.P,U3,10*%
%TO.N,Net-(R1-Pad2)*%
X139370000Y-94365000D03*
%TO.P,U3,9*%
%TO.N,Net-(J22-Pad4)*%
X139370000Y-93715000D03*
%TO.P,U3,8*%
%TO.N,Net-(J22-Pad5)*%
X139370000Y-93065000D03*
%TO.P,U3,7*%
%TO.N,Net-(J22-Pad6)*%
X139370000Y-92415000D03*
%TO.P,U3,6*%
%TO.N,Net-(J22-Pad7)*%
X139370000Y-91765000D03*
%TO.P,U3,5*%
%TO.N,Net-(J22-Pad8)*%
X139370000Y-91115000D03*
%TO.P,U3,4*%
%TO.N,Net-(J22-Pad9)*%
X139370000Y-90465000D03*
%TO.P,U3,3*%
%TO.N,Net-(J22-Pad10)*%
X139370000Y-89815000D03*
%TO.P,U3,2*%
%TO.N,Net-(J21-Pad15)*%
X139370000Y-89165000D03*
%TO.P,U3,1*%
%TO.N,Net-(J22-Pad11)*%
X139370000Y-88515000D03*
%TD*%
D11*
%TO.P,U2,20*%
%TO.N,Net-(J19-Pad2)*%
X124075000Y-64440000D03*
%TO.P,U2,19*%
%TO.N,Net-(J1-Pad1)*%
X124725000Y-64440000D03*
%TO.P,U2,18*%
%TO.N,Net-(J20-Pad2)*%
X125375000Y-64440000D03*
%TO.P,U2,17*%
%TO.N,Net-(J3-Pad2)*%
X126025000Y-64440000D03*
%TO.P,U2,16*%
%TO.N,Net-(J1-Pad2)*%
X126675000Y-64440000D03*
%TO.P,U2,15*%
%TO.N,Net-(J2-Pad2)*%
X127325000Y-64440000D03*
%TO.P,U2,14*%
%TO.N,Net-(J4-Pad2)*%
X127975000Y-64440000D03*
%TO.P,U2,13*%
%TO.N,Net-(J5-Pad2)*%
X128625000Y-64440000D03*
%TO.P,U2,12*%
%TO.N,Net-(J7-Pad2)*%
X129275000Y-64440000D03*
%TO.P,U2,11*%
%TO.N,Net-(J1-Pad4)*%
X129925000Y-64440000D03*
%TO.P,U2,10*%
%TO.N,Net-(R1-Pad2)*%
X129925000Y-70180000D03*
%TO.P,U2,9*%
%TO.N,Net-(J22-Pad12)*%
X129275000Y-70180000D03*
%TO.P,U2,8*%
%TO.N,Net-(J22-Pad13)*%
X128625000Y-70180000D03*
%TO.P,U2,7*%
%TO.N,Net-(J22-Pad14)*%
X127975000Y-70180000D03*
%TO.P,U2,6*%
%TO.N,Net-(J21-Pad14)*%
X127325000Y-70180000D03*
%TO.P,U2,5*%
%TO.N,Net-(J21-Pad13)*%
X126675000Y-70180000D03*
%TO.P,U2,4*%
%TO.N,Net-(J21-Pad12)*%
X126025000Y-70180000D03*
%TO.P,U2,3*%
%TO.N,Net-(J21-Pad11)*%
X125375000Y-70180000D03*
%TO.P,U2,2*%
%TO.N,Net-(J21-Pad15)*%
X124725000Y-70180000D03*
%TO.P,U2,1*%
%TO.N,Net-(J21-Pad10)*%
X124075000Y-70180000D03*
%TD*%
D10*
%TO.P,U1,20*%
%TO.N,Net-(J11-Pad2)*%
X148920000Y-130425000D03*
%TO.P,U1,19*%
%TO.N,Net-(J1-Pad1)*%
X148920000Y-131075000D03*
%TO.P,U1,18*%
%TO.N,Net-(J12-Pad2)*%
X148920000Y-131725000D03*
%TO.P,U1,17*%
%TO.N,Net-(J13-Pad2)*%
X148920000Y-132375000D03*
%TO.P,U1,16*%
%TO.N,Net-(J14-Pad2)*%
X148920000Y-133025000D03*
%TO.P,U1,15*%
%TO.N,Net-(J15-Pad2)*%
X148920000Y-133675000D03*
%TO.P,U1,14*%
%TO.N,Net-(J16-Pad2)*%
X148920000Y-134325000D03*
%TO.P,U1,13*%
%TO.N,Net-(J17-Pad2)*%
X148920000Y-134975000D03*
%TO.P,U1,12*%
%TO.N,Net-(J18-Pad2)*%
X148920000Y-135625000D03*
%TO.P,U1,11*%
%TO.N,Net-(J1-Pad4)*%
X148920000Y-136275000D03*
%TO.P,U1,10*%
%TO.N,Net-(R1-Pad2)*%
X143180000Y-136275000D03*
%TO.P,U1,9*%
%TO.N,Net-(J21-Pad9)*%
X143180000Y-135625000D03*
%TO.P,U1,8*%
%TO.N,Net-(J21-Pad8)*%
X143180000Y-134975000D03*
%TO.P,U1,7*%
%TO.N,Net-(J21-Pad7)*%
X143180000Y-134325000D03*
%TO.P,U1,6*%
%TO.N,Net-(J21-Pad6)*%
X143180000Y-133675000D03*
%TO.P,U1,5*%
%TO.N,Net-(J21-Pad5)*%
X143180000Y-133025000D03*
%TO.P,U1,4*%
%TO.N,Net-(J21-Pad4)*%
X143180000Y-132375000D03*
%TO.P,U1,3*%
%TO.N,Net-(J21-Pad3)*%
X143180000Y-131725000D03*
%TO.P,U1,2*%
%TO.N,Net-(J21-Pad15)*%
X143180000Y-131075000D03*
%TO.P,U1,1*%
%TO.N,Net-(J21-Pad2)*%
X143180000Y-130425000D03*
%TD*%
%TO.P,R1,2*%
%TO.N,Net-(R1-Pad2)*%
%TA.AperFunction,SMDPad,CuDef*%
G36*
G01*
X138530000Y-154088000D02*
X138330000Y-154088000D01*
G75*
G02*
X138230000Y-153988000I0J100000D01*
G01*
X138230000Y-153728000D01*
G75*
G02*
X138330000Y-153628000I100000J0D01*
G01*
X138530000Y-153628000D01*
G75*
G02*
X138630000Y-153728000I0J-100000D01*
G01*
X138630000Y-153988000D01*
G75*
G02*
X138530000Y-154088000I-100000J0D01*
G01*
G37*
%TD.AperFunction*%
%TO.P,R1,1*%
%TO.N,Net-(J1-Pad4)*%
%TA.AperFunction,SMDPad,CuDef*%
G36*
G01*
X138530000Y-154728000D02*
X138330000Y-154728000D01*
G75*
G02*
X138230000Y-154628000I0J100000D01*
G01*
X138230000Y-154368000D01*
G75*
G02*
X138330000Y-154268000I100000J0D01*
G01*
X138530000Y-154268000D01*
G75*
G02*
X138630000Y-154368000I0J-100000D01*
G01*
X138630000Y-154628000D01*
G75*
G02*
X138530000Y-154728000I-100000J0D01*
G01*
G37*
%TD.AperFunction*%
%TD*%
D12*
%TO.P,JMolex1,4*%
%TO.N,Net-(J1-Pad1)*%
X133350000Y-169418000D03*
%TO.P,JMolex1,3*%
%TO.N,Net-(J1-Pad4)*%
X128270000Y-169418000D03*
%TO.P,JMolex1,2*%
%TO.N,Net-(JMolex1-Pad2)*%
X123190000Y-169418000D03*
D13*
%TO.P,JMolex1,1*%
%TO.N,Net-(JMolex1-Pad1)*%
X118110000Y-169418000D03*
%TD*%
D14*
%TO.P,J42,4*%
%TO.N,Net-(J1-Pad4)*%
X95250000Y-113030000D03*
%TO.P,J42,3*%
%TO.N,Net-(J42-Pad3)*%
X92710000Y-113030000D03*
%TO.P,J42,2*%
%TO.N,Net-(J42-Pad2)*%
X90170000Y-113030000D03*
D15*
%TO.P,J42,1*%
%TO.N,Net-(J1-Pad1)*%
X87630000Y-113030000D03*
%TD*%
D14*
%TO.P,J41,4*%
%TO.N,Net-(J1-Pad4)*%
X95250000Y-105410000D03*
%TO.P,J41,3*%
%TO.N,Net-(J41-Pad3)*%
X92710000Y-105410000D03*
%TO.P,J41,2*%
%TO.N,Net-(J41-Pad2)*%
X90170000Y-105410000D03*
D15*
%TO.P,J41,1*%
%TO.N,Net-(J1-Pad1)*%
X87630000Y-105410000D03*
%TD*%
D14*
%TO.P,J40,4*%
%TO.N,Net-(J1-Pad4)*%
X95250000Y-97790000D03*
%TO.P,J40,3*%
%TO.N,Net-(J40-Pad3)*%
X92710000Y-97790000D03*
%TO.P,J40,2*%
%TO.N,Net-(J40-Pad2)*%
X90170000Y-97790000D03*
D15*
%TO.P,J40,1*%
%TO.N,Net-(J1-Pad1)*%
X87630000Y-97790000D03*
%TD*%
D14*
%TO.P,J39,4*%
%TO.N,Net-(J1-Pad4)*%
X95250000Y-90170000D03*
%TO.P,J39,3*%
%TO.N,Net-(J39-Pad3)*%
X92710000Y-90170000D03*
%TO.P,J39,2*%
%TO.N,Net-(J39-Pad2)*%
X90170000Y-90170000D03*
D15*
%TO.P,J39,1*%
%TO.N,Net-(J1-Pad1)*%
X87630000Y-90170000D03*
%TD*%
D14*
%TO.P,J38,4*%
%TO.N,Net-(J1-Pad4)*%
X95250000Y-82550000D03*
%TO.P,J38,3*%
%TO.N,Net-(J38-Pad3)*%
X92710000Y-82550000D03*
%TO.P,J38,2*%
%TO.N,Net-(J38-Pad2)*%
X90170000Y-82550000D03*
D15*
%TO.P,J38,1*%
%TO.N,Net-(J1-Pad1)*%
X87630000Y-82550000D03*
%TD*%
D14*
%TO.P,J37,4*%
%TO.N,Net-(J1-Pad4)*%
X95250000Y-74930000D03*
%TO.P,J37,3*%
%TO.N,Net-(J37-Pad3)*%
X92710000Y-74930000D03*
%TO.P,J37,2*%
%TO.N,Net-(J37-Pad2)*%
X90170000Y-74930000D03*
D15*
%TO.P,J37,1*%
%TO.N,Net-(J1-Pad1)*%
X87630000Y-74930000D03*
%TD*%
D14*
%TO.P,J36,4*%
%TO.N,Net-(J1-Pad4)*%
X95250000Y-67310000D03*
%TO.P,J36,3*%
%TO.N,Net-(J36-Pad3)*%
X92710000Y-67310000D03*
%TO.P,J36,2*%
%TO.N,Net-(J36-Pad2)*%
X90170000Y-67310000D03*
D15*
%TO.P,J36,1*%
%TO.N,Net-(J1-Pad1)*%
X87630000Y-67310000D03*
%TD*%
D14*
%TO.P,J35,4*%
%TO.N,Net-(J1-Pad4)*%
X95250000Y-59690000D03*
%TO.P,J35,3*%
%TO.N,Net-(J35-Pad3)*%
X92710000Y-59690000D03*
%TO.P,J35,2*%
%TO.N,Net-(J35-Pad2)*%
X90170000Y-59690000D03*
D15*
%TO.P,J35,1*%
%TO.N,Net-(J1-Pad1)*%
X87630000Y-59690000D03*
%TD*%
D14*
%TO.P,J34,4*%
%TO.N,Net-(J1-Pad4)*%
X95250000Y-121920000D03*
%TO.P,J34,3*%
%TO.N,Net-(J34-Pad3)*%
X92710000Y-121920000D03*
%TO.P,J34,2*%
%TO.N,Net-(J34-Pad2)*%
X90170000Y-121920000D03*
D15*
%TO.P,J34,1*%
%TO.N,Net-(J1-Pad1)*%
X87630000Y-121920000D03*
%TD*%
D14*
%TO.P,J33,4*%
%TO.N,Net-(J1-Pad4)*%
X95250000Y-129540000D03*
%TO.P,J33,3*%
%TO.N,Net-(J33-Pad3)*%
X92710000Y-129540000D03*
%TO.P,J33,2*%
%TO.N,Net-(J33-Pad2)*%
X90170000Y-129540000D03*
D15*
%TO.P,J33,1*%
%TO.N,Net-(J1-Pad1)*%
X87630000Y-129540000D03*
%TD*%
D14*
%TO.P,J32,4*%
%TO.N,Net-(J1-Pad4)*%
X95250000Y-137160000D03*
%TO.P,J32,3*%
%TO.N,Net-(J32-Pad3)*%
X92710000Y-137160000D03*
%TO.P,J32,2*%
%TO.N,Net-(J32-Pad2)*%
X90170000Y-137160000D03*
D15*
%TO.P,J32,1*%
%TO.N,Net-(J1-Pad1)*%
X87630000Y-137160000D03*
%TD*%
D14*
%TO.P,J31,4*%
%TO.N,Net-(J1-Pad4)*%
X95250000Y-144780000D03*
%TO.P,J31,3*%
%TO.N,Net-(J31-Pad3)*%
X92710000Y-144780000D03*
%TO.P,J31,2*%
%TO.N,Net-(J31-Pad2)*%
X90170000Y-144780000D03*
D15*
%TO.P,J31,1*%
%TO.N,Net-(J1-Pad1)*%
X87630000Y-144780000D03*
%TD*%
D14*
%TO.P,J30,4*%
%TO.N,Net-(J1-Pad4)*%
X95250000Y-153670000D03*
%TO.P,J30,3*%
%TO.N,Net-(J30-Pad3)*%
X92710000Y-153670000D03*
%TO.P,J30,2*%
%TO.N,Net-(J30-Pad2)*%
X90170000Y-153670000D03*
D15*
%TO.P,J30,1*%
%TO.N,Net-(J1-Pad1)*%
X87630000Y-153670000D03*
%TD*%
D14*
%TO.P,J29,4*%
%TO.N,Net-(J1-Pad4)*%
X95250000Y-162560000D03*
%TO.P,J29,3*%
%TO.N,Net-(J29-Pad3)*%
X92710000Y-162560000D03*
%TO.P,J29,2*%
%TO.N,Net-(J29-Pad2)*%
X90170000Y-162560000D03*
D15*
%TO.P,J29,1*%
%TO.N,Net-(J1-Pad1)*%
X87630000Y-162560000D03*
%TD*%
D14*
%TO.P,J28,4*%
%TO.N,Net-(J1-Pad4)*%
X95250000Y-171450000D03*
%TO.P,J28,3*%
%TO.N,Net-(J28-Pad3)*%
X92710000Y-171450000D03*
%TO.P,J28,2*%
%TO.N,Net-(J28-Pad2)*%
X90170000Y-171450000D03*
D15*
%TO.P,J28,1*%
%TO.N,Net-(J1-Pad1)*%
X87630000Y-171450000D03*
%TD*%
D14*
%TO.P,J27,4*%
%TO.N,Net-(J1-Pad4)*%
X95250000Y-179070000D03*
%TO.P,J27,3*%
%TO.N,Net-(J27-Pad3)*%
X92710000Y-179070000D03*
%TO.P,J27,2*%
%TO.N,Net-(J27-Pad2)*%
X90170000Y-179070000D03*
D15*
%TO.P,J27,1*%
%TO.N,Net-(J1-Pad1)*%
X87630000Y-179070000D03*
%TD*%
D14*
%TO.P,J26,4*%
%TO.N,Net-(J1-Pad4)*%
X163830000Y-115824000D03*
%TO.P,J26,3*%
%TO.N,Net-(J26-Pad3)*%
X161290000Y-115824000D03*
%TO.P,J26,2*%
%TO.N,Net-(J26-Pad2)*%
X158750000Y-115824000D03*
D15*
%TO.P,J26,1*%
%TO.N,Net-(J1-Pad1)*%
X156210000Y-115824000D03*
%TD*%
D14*
%TO.P,J25,4*%
%TO.N,Net-(J1-Pad4)*%
X163830000Y-106934000D03*
%TO.P,J25,3*%
%TO.N,Net-(J25-Pad3)*%
X161290000Y-106934000D03*
%TO.P,J25,2*%
%TO.N,Net-(J25-Pad2)*%
X158750000Y-106934000D03*
D15*
%TO.P,J25,1*%
%TO.N,Net-(J1-Pad1)*%
X156210000Y-106934000D03*
%TD*%
D14*
%TO.P,J24,4*%
%TO.N,Net-(J1-Pad4)*%
X163830000Y-98044000D03*
%TO.P,J24,3*%
%TO.N,Net-(J24-Pad3)*%
X161290000Y-98044000D03*
%TO.P,J24,2*%
%TO.N,Net-(J24-Pad2)*%
X158750000Y-98044000D03*
D15*
%TO.P,J24,1*%
%TO.N,Net-(J1-Pad1)*%
X156210000Y-98044000D03*
%TD*%
D14*
%TO.P,J23,4*%
%TO.N,Net-(J1-Pad4)*%
X163830000Y-90424000D03*
%TO.P,J23,3*%
%TO.N,Net-(J23-Pad3)*%
X161290000Y-90424000D03*
%TO.P,J23,2*%
%TO.N,Net-(J23-Pad2)*%
X158750000Y-90424000D03*
D15*
%TO.P,J23,1*%
%TO.N,Net-(J1-Pad1)*%
X156210000Y-90424000D03*
%TD*%
D16*
%TO.P,J22,24*%
%TO.N,Net-(J22-Pad24)*%
X119380000Y-85090000D03*
%TO.P,J22,23*%
%TO.N,Net-(J22-Pad23)*%
X119380000Y-87630000D03*
%TO.P,J22,22*%
%TO.N,Net-(J22-Pad22)*%
X119380000Y-90170000D03*
%TO.P,J22,21*%
%TO.N,Net-(J22-Pad21)*%
X119380000Y-92710000D03*
%TO.P,J22,20*%
%TO.N,Net-(J22-Pad20)*%
X119380000Y-95250000D03*
%TO.P,J22,19*%
%TO.N,Net-(J22-Pad19)*%
X119380000Y-97790000D03*
%TO.P,J22,18*%
%TO.N,Net-(J22-Pad18)*%
X119380000Y-100330000D03*
%TO.P,J22,17*%
%TO.N,Net-(J22-Pad17)*%
X119380000Y-102870000D03*
%TO.P,J22,16*%
%TO.N,Net-(J22-Pad16)*%
X119380000Y-105410000D03*
%TO.P,J22,15*%
%TO.N,Net-(J22-Pad15)*%
X119380000Y-107950000D03*
%TO.P,J22,14*%
%TO.N,Net-(J22-Pad14)*%
X119380000Y-110490000D03*
%TO.P,J22,13*%
%TO.N,Net-(J22-Pad13)*%
X119380000Y-113030000D03*
%TO.P,J22,12*%
%TO.N,Net-(J22-Pad12)*%
X119380000Y-115570000D03*
%TO.P,J22,11*%
%TO.N,Net-(J22-Pad11)*%
X119380000Y-118110000D03*
%TO.P,J22,10*%
%TO.N,Net-(J22-Pad10)*%
X119380000Y-120650000D03*
%TO.P,J22,9*%
%TO.N,Net-(J22-Pad9)*%
X119380000Y-123190000D03*
%TO.P,J22,8*%
%TO.N,Net-(J22-Pad8)*%
X119380000Y-125730000D03*
%TO.P,J22,7*%
%TO.N,Net-(J22-Pad7)*%
X119380000Y-128270000D03*
%TO.P,J22,6*%
%TO.N,Net-(J22-Pad6)*%
X119380000Y-130810000D03*
%TO.P,J22,5*%
%TO.N,Net-(J22-Pad5)*%
X119380000Y-133350000D03*
%TO.P,J22,4*%
%TO.N,Net-(J22-Pad4)*%
X119380000Y-135890000D03*
%TO.P,J22,3*%
%TO.N,Net-(J22-Pad3)*%
X119380000Y-138430000D03*
%TO.P,J22,2*%
%TO.N,Net-(J22-Pad2)*%
X119380000Y-140970000D03*
D17*
%TO.P,J22,1*%
%TO.N,Net-(J22-Pad1)*%
X119380000Y-143510000D03*
%TD*%
D16*
%TO.P,J21,24*%
%TO.N,Net-(J21-Pad24)*%
X134620000Y-85090000D03*
%TO.P,J21,23*%
%TO.N,Net-(J21-Pad23)*%
X134620000Y-87630000D03*
%TO.P,J21,22*%
%TO.N,Net-(J21-Pad22)*%
X134620000Y-90170000D03*
%TO.P,J21,21*%
%TO.N,Net-(J21-Pad21)*%
X134620000Y-92710000D03*
%TO.P,J21,20*%
%TO.N,Net-(J21-Pad20)*%
X134620000Y-95250000D03*
%TO.P,J21,19*%
%TO.N,Net-(J21-Pad19)*%
X134620000Y-97790000D03*
%TO.P,J21,18*%
%TO.N,Net-(J21-Pad18)*%
X134620000Y-100330000D03*
%TO.P,J21,17*%
%TO.N,Net-(J21-Pad17)*%
X134620000Y-102870000D03*
%TO.P,J21,16*%
%TO.N,Net-(J21-Pad16)*%
X134620000Y-105410000D03*
%TO.P,J21,15*%
%TO.N,Net-(J21-Pad15)*%
X134620000Y-107950000D03*
%TO.P,J21,14*%
%TO.N,Net-(J21-Pad14)*%
X134620000Y-110490000D03*
%TO.P,J21,13*%
%TO.N,Net-(J21-Pad13)*%
X134620000Y-113030000D03*
%TO.P,J21,12*%
%TO.N,Net-(J21-Pad12)*%
X134620000Y-115570000D03*
%TO.P,J21,11*%
%TO.N,Net-(J21-Pad11)*%
X134620000Y-118110000D03*
%TO.P,J21,10*%
%TO.N,Net-(J21-Pad10)*%
X134620000Y-120650000D03*
%TO.P,J21,9*%
%TO.N,Net-(J21-Pad9)*%
X134620000Y-123190000D03*
%TO.P,J21,8*%
%TO.N,Net-(J21-Pad8)*%
X134620000Y-125730000D03*
%TO.P,J21,7*%
%TO.N,Net-(J21-Pad7)*%
X134620000Y-128270000D03*
%TO.P,J21,6*%
%TO.N,Net-(J21-Pad6)*%
X134620000Y-130810000D03*
%TO.P,J21,5*%
%TO.N,Net-(J21-Pad5)*%
X134620000Y-133350000D03*
%TO.P,J21,4*%
%TO.N,Net-(J21-Pad4)*%
X134620000Y-135890000D03*
%TO.P,J21,3*%
%TO.N,Net-(J21-Pad3)*%
X134620000Y-138430000D03*
%TO.P,J21,2*%
%TO.N,Net-(J21-Pad2)*%
X134620000Y-140970000D03*
D17*
%TO.P,J21,1*%
%TO.N,Net-(J1-Pad4)*%
X134620000Y-143510000D03*
%TD*%
D18*
%TO.P,J20,4*%
%TO.N,Net-(J1-Pad4)*%
X106680000Y-54610000D03*
%TO.P,J20,3*%
%TO.N,Net-(J20-Pad3)*%
X106680000Y-52070000D03*
%TO.P,J20,2*%
%TO.N,Net-(J20-Pad2)*%
X106680000Y-49530000D03*
D19*
%TO.P,J20,1*%
%TO.N,Net-(J1-Pad1)*%
X106680000Y-46990000D03*
%TD*%
D18*
%TO.P,J19,4*%
%TO.N,Net-(J1-Pad4)*%
X99060000Y-54610000D03*
%TO.P,J19,3*%
%TO.N,Net-(J19-Pad3)*%
X99060000Y-52070000D03*
%TO.P,J19,2*%
%TO.N,Net-(J19-Pad2)*%
X99060000Y-49530000D03*
D19*
%TO.P,J19,1*%
%TO.N,Net-(J1-Pad1)*%
X99060000Y-46990000D03*
%TD*%
D14*
%TO.P,J18,4*%
%TO.N,Net-(J1-Pad4)*%
X163830000Y-123190000D03*
%TO.P,J18,3*%
%TO.N,Net-(J18-Pad3)*%
X161290000Y-123190000D03*
%TO.P,J18,2*%
%TO.N,Net-(J18-Pad2)*%
X158750000Y-123190000D03*
D15*
%TO.P,J18,1*%
%TO.N,Net-(J1-Pad1)*%
X156210000Y-123190000D03*
%TD*%
D14*
%TO.P,J17,4*%
%TO.N,Net-(J1-Pad4)*%
X163830000Y-132080000D03*
%TO.P,J17,3*%
%TO.N,Net-(J17-Pad3)*%
X161290000Y-132080000D03*
%TO.P,J17,2*%
%TO.N,Net-(J17-Pad2)*%
X158750000Y-132080000D03*
D15*
%TO.P,J17,1*%
%TO.N,Net-(J1-Pad1)*%
X156210000Y-132080000D03*
%TD*%
D14*
%TO.P,J16,4*%
%TO.N,Net-(J1-Pad4)*%
X163830000Y-139700000D03*
%TO.P,J16,3*%
%TO.N,Net-(J16-Pad3)*%
X161290000Y-139700000D03*
%TO.P,J16,2*%
%TO.N,Net-(J16-Pad2)*%
X158750000Y-139700000D03*
D15*
%TO.P,J16,1*%
%TO.N,Net-(J1-Pad1)*%
X156210000Y-139700000D03*
%TD*%
D14*
%TO.P,J15,4*%
%TO.N,Net-(J1-Pad4)*%
X163830000Y-148590000D03*
%TO.P,J15,3*%
%TO.N,Net-(J15-Pad3)*%
X161290000Y-148590000D03*
%TO.P,J15,2*%
%TO.N,Net-(J15-Pad2)*%
X158750000Y-148590000D03*
D15*
%TO.P,J15,1*%
%TO.N,Net-(J1-Pad1)*%
X156210000Y-148590000D03*
%TD*%
D14*
%TO.P,J14,4*%
%TO.N,Net-(J1-Pad4)*%
X163830000Y-157480000D03*
%TO.P,J14,3*%
%TO.N,Net-(J14-Pad3)*%
X161290000Y-157480000D03*
%TO.P,J14,2*%
%TO.N,Net-(J14-Pad2)*%
X158750000Y-157480000D03*
D15*
%TO.P,J14,1*%
%TO.N,Net-(J1-Pad1)*%
X156210000Y-157480000D03*
%TD*%
D14*
%TO.P,J13,4*%
%TO.N,Net-(J1-Pad4)*%
X163830000Y-165100000D03*
%TO.P,J13,3*%
%TO.N,Net-(J13-Pad3)*%
X161290000Y-165100000D03*
%TO.P,J13,2*%
%TO.N,Net-(J13-Pad2)*%
X158750000Y-165100000D03*
D15*
%TO.P,J13,1*%
%TO.N,Net-(J1-Pad1)*%
X156210000Y-165100000D03*
%TD*%
D14*
%TO.P,J12,4*%
%TO.N,Net-(J1-Pad4)*%
X163830000Y-172720000D03*
%TO.P,J12,3*%
%TO.N,Net-(J12-Pad3)*%
X161290000Y-172720000D03*
%TO.P,J12,2*%
%TO.N,Net-(J12-Pad2)*%
X158750000Y-172720000D03*
D15*
%TO.P,J12,1*%
%TO.N,Net-(J1-Pad1)*%
X156210000Y-172720000D03*
%TD*%
D14*
%TO.P,J11,4*%
%TO.N,Net-(J1-Pad4)*%
X163830000Y-180340000D03*
%TO.P,J11,3*%
%TO.N,Net-(J11-Pad3)*%
X161290000Y-180340000D03*
%TO.P,J11,2*%
%TO.N,Net-(J11-Pad2)*%
X158750000Y-180340000D03*
D15*
%TO.P,J11,1*%
%TO.N,Net-(J1-Pad1)*%
X156210000Y-180340000D03*
%TD*%
D14*
%TO.P,J10,4*%
%TO.N,Net-(J1-Pad4)*%
X163830000Y-82804000D03*
%TO.P,J10,3*%
%TO.N,Net-(J10-Pad3)*%
X161290000Y-82804000D03*
%TO.P,J10,2*%
%TO.N,Net-(J10-Pad2)*%
X158750000Y-82804000D03*
D15*
%TO.P,J10,1*%
%TO.N,Net-(J1-Pad1)*%
X156210000Y-82804000D03*
%TD*%
D14*
%TO.P,J9,4*%
%TO.N,Net-(J1-Pad4)*%
X163830000Y-67564000D03*
%TO.P,J9,3*%
%TO.N,Net-(J9-Pad3)*%
X161290000Y-67564000D03*
%TO.P,J9,2*%
%TO.N,Net-(J9-Pad2)*%
X158750000Y-67564000D03*
D15*
%TO.P,J9,1*%
%TO.N,Net-(J1-Pad1)*%
X156210000Y-67564000D03*
%TD*%
D14*
%TO.P,J8,4*%
%TO.N,Net-(J1-Pad4)*%
X163830000Y-60198000D03*
%TO.P,J8,3*%
%TO.N,Net-(J8-Pad3)*%
X161290000Y-60198000D03*
%TO.P,J8,2*%
%TO.N,Net-(J8-Pad2)*%
X158750000Y-60198000D03*
D15*
%TO.P,J8,1*%
%TO.N,Net-(J1-Pad1)*%
X156210000Y-60198000D03*
%TD*%
D18*
%TO.P,J7,4*%
%TO.N,Net-(J1-Pad4)*%
X152400000Y-54610000D03*
%TO.P,J7,3*%
%TO.N,Net-(J7-Pad3)*%
X152400000Y-52070000D03*
%TO.P,J7,2*%
%TO.N,Net-(J7-Pad2)*%
X152400000Y-49530000D03*
D19*
%TO.P,J7,1*%
%TO.N,Net-(J1-Pad1)*%
X152400000Y-46990000D03*
%TD*%
D14*
%TO.P,J6,4*%
%TO.N,Net-(J1-Pad4)*%
X163830000Y-75184000D03*
%TO.P,J6,3*%
%TO.N,Net-(J6-Pad3)*%
X161290000Y-75184000D03*
%TO.P,J6,2*%
%TO.N,Net-(J6-Pad2)*%
X158750000Y-75184000D03*
D15*
%TO.P,J6,1*%
%TO.N,Net-(J1-Pad1)*%
X156210000Y-75184000D03*
%TD*%
D18*
%TO.P,J5,4*%
%TO.N,Net-(J1-Pad4)*%
X144780000Y-54610000D03*
%TO.P,J5,3*%
%TO.N,Net-(J5-Pad3)*%
X144780000Y-52070000D03*
%TO.P,J5,2*%
%TO.N,Net-(J5-Pad2)*%
X144780000Y-49530000D03*
D19*
%TO.P,J5,1*%
%TO.N,Net-(J1-Pad1)*%
X144780000Y-46990000D03*
%TD*%
D18*
%TO.P,J4,4*%
%TO.N,Net-(J1-Pad4)*%
X137160000Y-54610000D03*
%TO.P,J4,3*%
%TO.N,Net-(J4-Pad3)*%
X137160000Y-52070000D03*
%TO.P,J4,2*%
%TO.N,Net-(J4-Pad2)*%
X137160000Y-49530000D03*
D19*
%TO.P,J4,1*%
%TO.N,Net-(J1-Pad1)*%
X137160000Y-46990000D03*
%TD*%
D18*
%TO.P,J3,4*%
%TO.N,Net-(J1-Pad4)*%
X114300000Y-54610000D03*
%TO.P,J3,3*%
%TO.N,Net-(J3-Pad3)*%
X114300000Y-52070000D03*
%TO.P,J3,2*%
%TO.N,Net-(J3-Pad2)*%
X114300000Y-49530000D03*
D19*
%TO.P,J3,1*%
%TO.N,Net-(J1-Pad1)*%
X114300000Y-46990000D03*
%TD*%
D18*
%TO.P,J2,4*%
%TO.N,Net-(J1-Pad4)*%
X129540000Y-54610000D03*
%TO.P,J2,3*%
%TO.N,Net-(J2-Pad3)*%
X129540000Y-52070000D03*
%TO.P,J2,2*%
%TO.N,Net-(J2-Pad2)*%
X129540000Y-49530000D03*
D19*
%TO.P,J2,1*%
%TO.N,Net-(J1-Pad1)*%
X129540000Y-46990000D03*
%TD*%
D18*
%TO.P,J1,4*%
%TO.N,Net-(J1-Pad4)*%
X121920000Y-54610000D03*
%TO.P,J1,3*%
%TO.N,Net-(J1-Pad3)*%
X121920000Y-52070000D03*
%TO.P,J1,2*%
%TO.N,Net-(J1-Pad2)*%
X121920000Y-49530000D03*
D19*
%TO.P,J1,1*%
%TO.N,Net-(J1-Pad1)*%
X121920000Y-46990000D03*
%TD*%
D20*
%TO.N,Net-(J1-Pad4)*%
X133350000Y-62484000D03*
X103810000Y-129870000D03*
%TO.N,Net-(J1-Pad1)*%
X149606000Y-83058000D03*
X152072000Y-128958000D03*
%TO.N,Net-(J11-Pad2)*%
X148920000Y-128600000D03*
%TO.N,Net-(J12-Pad2)*%
X152400000Y-131572000D03*
%TO.N,Net-(J21-Pad24)*%
X116572000Y-90918000D03*
%TO.N,Net-(J21-Pad23)*%
X113284000Y-130810000D03*
%TO.N,Net-(J21-Pad22)*%
X114554000Y-131318000D03*
%TO.N,Net-(J21-Pad21)*%
X113751000Y-133645000D03*
%TO.N,Net-(J21-Pad20)*%
X114300000Y-134620000D03*
%TO.N,Net-(J21-Pad19)*%
X115824000Y-135382000D03*
%TO.N,Net-(J21-Pad18)*%
X114046000Y-136144000D03*
%TO.N,Net-(J21-Pad17)*%
X113284000Y-137160000D03*
%TO.N,Net-(J21-Pad16)*%
X110744000Y-139446000D03*
X137160000Y-104648000D03*
X130556000Y-131318000D03*
X131826000Y-128016000D03*
X130556000Y-110744000D03*
X130556000Y-107950000D03*
%TO.N,Net-(J21-Pad15)*%
X112067000Y-138377000D03*
X122682000Y-71882000D03*
X113792000Y-91948000D03*
X141478000Y-85090000D03*
X137287000Y-107315000D03*
X140462000Y-103378000D03*
X140462000Y-131572000D03*
%TO.N,Net-(J21-Pad14)*%
X125476000Y-75692000D03*
%TO.N,Net-(J21-Pad13)*%
X125417177Y-74467425D03*
%TO.N,Net-(J21-Pad12)*%
X126224291Y-73877010D03*
%TO.N,Net-(J21-Pad11)*%
X123698000Y-73152000D03*
%TO.N,Net-(J21-Pad10)*%
X121158000Y-71374000D03*
%TO.N,Net-(J35-Pad2)*%
X102652999Y-97336610D03*
%TO.N,Net-(J36-Pad2)*%
X101600000Y-95250000D03*
%TO.N,Net-(R1-Pad2)*%
X111760000Y-130302000D03*
X138430000Y-151130000D03*
X111760000Y-88392000D03*
X141224000Y-97282000D03*
X141478000Y-83058000D03*
%TD*%
D21*
%TO.N,Net-(J1-Pad4)*%
X138621058Y-154498000D02*
X138430000Y-154498000D01*
X138430000Y-154498000D02*
X138430000Y-161290000D01*
X134620000Y-143510000D02*
X134620000Y-165100000D01*
D22*
X163830000Y-172720000D02*
X163830000Y-180340000D01*
X163830000Y-172720000D02*
X163830000Y-165100000D01*
X163830000Y-165100000D02*
X163830000Y-157480000D01*
X163830000Y-157480000D02*
X163830000Y-148590000D01*
X163830000Y-148590000D02*
X163830000Y-139700000D01*
X163830000Y-139700000D02*
X163830000Y-132080000D01*
X163830000Y-115824000D02*
X163830000Y-106934000D01*
X163830000Y-106934000D02*
X163830000Y-98044000D01*
X163830000Y-98044000D02*
X163830000Y-90424000D01*
X163830000Y-90424000D02*
X163830000Y-82804000D01*
X163830000Y-82804000D02*
X163830000Y-75184000D01*
X163830000Y-75184000D02*
X163830000Y-67564000D01*
X163830000Y-67564000D02*
X163830000Y-60198000D01*
X95250000Y-90170000D02*
X95250000Y-82550000D01*
X95250000Y-74930000D02*
X95250000Y-67310000D01*
X95250000Y-67310000D02*
X95250000Y-59690000D01*
X95250000Y-58420000D02*
X99060000Y-54610000D01*
X95250000Y-59690000D02*
X95250000Y-58420000D01*
D21*
X131881000Y-62484000D02*
X129925000Y-64440000D01*
X133350000Y-62484000D02*
X131881000Y-62484000D01*
X103810000Y-131695000D02*
X103810000Y-129870000D01*
X103810000Y-129870000D02*
X103810000Y-129870000D01*
X145110000Y-94365000D02*
X145110000Y-112090000D01*
X153162000Y-120142000D02*
X163830000Y-120142000D01*
X145110000Y-112090000D02*
X153162000Y-120142000D01*
D22*
X163830000Y-120142000D02*
X163830000Y-115824000D01*
X163830000Y-123190000D02*
X163830000Y-120142000D01*
D21*
X157559990Y-131437082D02*
X159952073Y-129044999D01*
X157559990Y-133195012D02*
X157559990Y-131437082D01*
X154480002Y-136275000D02*
X157559990Y-133195012D01*
X159952073Y-129044999D02*
X163588999Y-129044999D01*
X163588999Y-129044999D02*
X163830000Y-129286000D01*
X148920000Y-136275000D02*
X154480002Y-136275000D01*
D22*
X163830000Y-132080000D02*
X163830000Y-129286000D01*
X163830000Y-129286000D02*
X163830000Y-123190000D01*
D21*
X103255000Y-89785000D02*
X95250000Y-97790000D01*
X105080000Y-89785000D02*
X103255000Y-89785000D01*
X132588000Y-165100000D02*
X128270000Y-169418000D01*
X134620000Y-165100000D02*
X132588000Y-165100000D01*
X138430000Y-161290000D02*
X134620000Y-165100000D01*
D22*
X133858000Y-175006000D02*
X128270000Y-169418000D01*
X144780000Y-175006000D02*
X133858000Y-175006000D01*
X152146000Y-182372000D02*
X144780000Y-175006000D01*
X161798000Y-182372000D02*
X152146000Y-182372000D01*
X163830000Y-180340000D02*
X161798000Y-182372000D01*
D21*
%TO.N,Net-(J1-Pad2)*%
X126675000Y-53369998D02*
X122835002Y-49530000D01*
X122835002Y-49530000D02*
X121920000Y-49530000D01*
X126675000Y-64440000D02*
X126675000Y-53369998D01*
D22*
%TO.N,Net-(J1-Pad1)*%
X156210000Y-50800000D02*
X152400000Y-46990000D01*
X156210000Y-60198000D02*
X156210000Y-50800000D01*
X152400000Y-46990000D02*
X144780000Y-46990000D01*
X144780000Y-46990000D02*
X137160000Y-46990000D01*
X137160000Y-46990000D02*
X129540000Y-46990000D01*
X129540000Y-46990000D02*
X121920000Y-46990000D01*
X121920000Y-46990000D02*
X114300000Y-46990000D01*
X114300000Y-46990000D02*
X106680000Y-46990000D01*
X106680000Y-46990000D02*
X99060000Y-46990000D01*
X87630000Y-59690000D02*
X87630000Y-67310000D01*
X87630000Y-67310000D02*
X87630000Y-74930000D01*
X87630000Y-74930000D02*
X87630000Y-82550000D01*
X87630000Y-82550000D02*
X87630000Y-90170000D01*
X87630000Y-90170000D02*
X87630000Y-97790000D01*
X87630000Y-97790000D02*
X87630000Y-105410000D01*
X87630000Y-105410000D02*
X87630000Y-113030000D01*
X87630000Y-113030000D02*
X87630000Y-121920000D01*
X87630000Y-121920000D02*
X87630000Y-129540000D01*
X87630000Y-129540000D02*
X87630000Y-137160000D01*
X87630000Y-137160000D02*
X87630000Y-144780000D01*
X87630000Y-144780000D02*
X87630000Y-153670000D01*
X87630000Y-153670000D02*
X87630000Y-162560000D01*
X87630000Y-162560000D02*
X87630000Y-171450000D01*
X87630000Y-171450000D02*
X87630000Y-179070000D01*
X144780000Y-168910000D02*
X156210000Y-180340000D01*
X156210000Y-180340000D02*
X156210000Y-172720000D01*
X156210000Y-172720000D02*
X156210000Y-165100000D01*
D21*
X105339990Y-48330010D02*
X106680000Y-46990000D01*
X105339990Y-52562918D02*
X105339990Y-48330010D01*
X107362010Y-53260010D02*
X106037082Y-53260010D01*
X109902010Y-55800010D02*
X107362010Y-53260010D01*
X106037082Y-53260010D02*
X105339990Y-52562918D01*
X117120010Y-55800010D02*
X109902010Y-55800010D01*
X124725000Y-63405000D02*
X117120010Y-55800010D01*
X124725000Y-64440000D02*
X124725000Y-63405000D01*
X104845000Y-136895000D02*
X105664000Y-137714000D01*
X103810000Y-136895000D02*
X104845000Y-136895000D01*
X88970010Y-180410010D02*
X87630000Y-179070000D01*
X95742918Y-180410010D02*
X88970010Y-180410010D01*
X105664000Y-170488928D02*
X95742918Y-180410010D01*
X105664000Y-139446000D02*
X105664000Y-170488928D01*
X105664000Y-137714000D02*
X105664000Y-139446000D01*
X102304998Y-96611609D02*
X101927998Y-96988609D01*
X101927998Y-96988609D02*
X101927998Y-97684611D01*
X105410000Y-139192000D02*
X105664000Y-139446000D01*
X105410000Y-101166613D02*
X105410000Y-139192000D01*
X101927998Y-97684611D02*
X105410000Y-101166613D01*
X102418391Y-96611609D02*
X102304998Y-96611609D01*
X105080000Y-94985000D02*
X104045000Y-94985000D01*
X104045000Y-94985000D02*
X102418391Y-96611609D01*
X146145000Y-89165000D02*
X149606000Y-85704000D01*
X145110000Y-89165000D02*
X146145000Y-89165000D01*
X149606000Y-85704000D02*
X149606000Y-83058000D01*
X149606000Y-83058000D02*
X149606000Y-83058000D01*
X149955000Y-131075000D02*
X152072000Y-128958000D01*
X148920000Y-131075000D02*
X149955000Y-131075000D01*
X152072000Y-128958000D02*
X152146000Y-128884000D01*
D22*
X133858000Y-168910000D02*
X133350000Y-169418000D01*
X144780000Y-168910000D02*
X133858000Y-168910000D01*
X99060000Y-46990000D02*
X96266000Y-49784000D01*
X94996000Y-52324000D02*
X87630000Y-59690000D01*
X96266000Y-51054000D02*
X94996000Y-52324000D01*
X96266000Y-49784000D02*
X96266000Y-51054000D01*
D21*
%TO.N,Net-(J2-Pad2)*%
X127325000Y-51745000D02*
X129540000Y-49530000D01*
X127325000Y-64440000D02*
X127325000Y-51745000D01*
%TO.N,Net-(J3-Pad2)*%
X115215002Y-49530000D02*
X114300000Y-49530000D01*
X117335001Y-52057001D02*
X117335001Y-51649999D01*
X117335001Y-51649999D02*
X115215002Y-49530000D01*
X126025000Y-60747000D02*
X117335001Y-52057001D01*
X126025000Y-64440000D02*
X126025000Y-60747000D01*
%TO.N,Net-(J4-Pad2)*%
X127975000Y-58007928D02*
X136452928Y-49530000D01*
X136452928Y-49530000D02*
X137160000Y-49530000D01*
X127975000Y-64440000D02*
X127975000Y-58007928D01*
%TO.N,Net-(J5-Pad2)*%
X128625000Y-64440000D02*
X128625000Y-61312072D01*
X128625000Y-61312072D02*
X136517082Y-53419990D01*
X136517082Y-53419990D02*
X140890010Y-53419990D01*
X140890010Y-53419990D02*
X144780000Y-49530000D01*
%TO.N,Net-(J6-Pad2)*%
X155019999Y-78914001D02*
X158750000Y-75184000D01*
X153670000Y-78914001D02*
X155019999Y-78914001D01*
X153670000Y-83058000D02*
X153670000Y-78914001D01*
X146263000Y-90465000D02*
X153670000Y-83058000D01*
X145110000Y-90465000D02*
X146263000Y-90465000D01*
%TO.N,Net-(J7-Pad2)*%
X146129990Y-55800010D02*
X152400000Y-49530000D01*
X136879990Y-55800010D02*
X146129990Y-55800010D01*
X129275000Y-63405000D02*
X136879990Y-55800010D01*
X129275000Y-64440000D02*
X129275000Y-63405000D01*
%TO.N,Net-(J8-Pad2)*%
X147828000Y-85797000D02*
X145110000Y-88515000D01*
X147828000Y-71044000D02*
X147828000Y-85797000D01*
X147829002Y-71044000D02*
X147828000Y-71044000D01*
X158675002Y-60198000D02*
X147829002Y-71044000D01*
X158750000Y-60198000D02*
X158675002Y-60198000D01*
%TO.N,Net-(J9-Pad2)*%
X158750000Y-67564000D02*
X153219989Y-73094011D01*
X153219989Y-73094011D02*
X153219989Y-82740011D01*
X153219989Y-82740011D02*
X146145000Y-89815000D01*
X146145000Y-89815000D02*
X145110000Y-89815000D01*
%TO.N,Net-(J10-Pad2)*%
X158675002Y-82804000D02*
X158750000Y-82804000D01*
X150364002Y-91115000D02*
X158675002Y-82804000D01*
X149931000Y-91115000D02*
X150364002Y-91115000D01*
X145110000Y-91115000D02*
X149931000Y-91115000D01*
X149931000Y-91115000D02*
X150110002Y-91115000D01*
%TO.N,Net-(J11-Pad2)*%
X148920000Y-130425000D02*
X148920000Y-128600000D01*
X148920000Y-128600000D02*
X148920000Y-128600000D01*
%TO.N,Net-(J12-Pad2)*%
X148920000Y-131725000D02*
X152247000Y-131725000D01*
X152247000Y-131725000D02*
X152400000Y-131572000D01*
X152400000Y-131572000D02*
X152400000Y-131572000D01*
%TO.N,Net-(J13-Pad2)*%
X148920000Y-132375000D02*
X147885000Y-132375000D01*
X147885000Y-132375000D02*
X144780000Y-135480000D01*
X144780000Y-135480000D02*
X144780000Y-151130000D01*
X144780000Y-151130000D02*
X158750000Y-165100000D01*
%TO.N,Net-(J14-Pad2)*%
X146304000Y-134606000D02*
X146304000Y-145034000D01*
X148920000Y-133025000D02*
X147885000Y-133025000D01*
X147885000Y-133025000D02*
X146304000Y-134606000D01*
X146304000Y-145034000D02*
X158750000Y-157480000D01*
%TO.N,Net-(J15-Pad2)*%
X149352000Y-139192000D02*
X158750000Y-148590000D01*
X146754011Y-139192000D02*
X149352000Y-139192000D01*
X146754011Y-134805989D02*
X146754011Y-139192000D01*
X147885000Y-133675000D02*
X146754011Y-134805989D01*
X148920000Y-133675000D02*
X147885000Y-133675000D01*
%TO.N,Net-(J16-Pad2)*%
X156537989Y-137487989D02*
X158750000Y-139700000D01*
X148920000Y-134325000D02*
X147885000Y-134325000D01*
X147885000Y-134325000D02*
X147204022Y-135005978D01*
X147204022Y-135005978D02*
X147204022Y-137487989D01*
X147204022Y-137487989D02*
X156537989Y-137487989D01*
%TO.N,Net-(J17-Pad2)*%
X147874999Y-136805001D02*
X155289999Y-136805001D01*
X148920000Y-134975000D02*
X147885000Y-134975000D01*
X158750000Y-133345000D02*
X158750000Y-132080000D01*
X147809999Y-136740001D02*
X147874999Y-136805001D01*
X155289999Y-136805001D02*
X158750000Y-133345000D01*
X147809999Y-135050001D02*
X147809999Y-136740001D01*
X147885000Y-134975000D02*
X147809999Y-135050001D01*
%TO.N,Net-(J18-Pad2)*%
X158750000Y-126830000D02*
X158750000Y-123190000D01*
X149955000Y-135625000D02*
X158750000Y-126830000D01*
X148920000Y-135625000D02*
X149955000Y-135625000D01*
%TO.N,Net-(J19-Pad2)*%
X99975002Y-49530000D02*
X99060000Y-49530000D01*
X102095001Y-51649999D02*
X99975002Y-49530000D01*
X102095001Y-52311001D02*
X102095001Y-51649999D01*
X114224000Y-64440000D02*
X102095001Y-52311001D01*
X124075000Y-64440000D02*
X114224000Y-64440000D01*
%TO.N,Net-(J20-Pad2)*%
X107595002Y-49530000D02*
X106680000Y-49530000D01*
X111325012Y-53260010D02*
X107595002Y-49530000D01*
X115230010Y-53260010D02*
X111325012Y-53260010D01*
X125375000Y-63405000D02*
X115230010Y-53260010D01*
X125375000Y-64440000D02*
X125375000Y-63405000D01*
%TO.N,Net-(J21-Pad24)*%
X110820000Y-95635000D02*
X111855000Y-95635000D01*
X111855000Y-95635000D02*
X116572000Y-90918000D01*
X116572000Y-90918000D02*
X116586000Y-90904000D01*
%TO.N,Net-(J21-Pad23)*%
X109550000Y-132345000D02*
X111749000Y-132345000D01*
X111749000Y-132345000D02*
X113284000Y-130810000D01*
X113284000Y-130810000D02*
X113284000Y-130810000D01*
%TO.N,Net-(J21-Pad22)*%
X109550000Y-132995000D02*
X112877000Y-132995000D01*
X112877000Y-132995000D02*
X114554000Y-131318000D01*
X114554000Y-131318000D02*
X114554000Y-131318000D01*
%TO.N,Net-(J21-Pad21)*%
X109550000Y-133645000D02*
X113751000Y-133645000D01*
X113751000Y-133645000D02*
X113751000Y-133645000D01*
%TO.N,Net-(J21-Pad20)*%
X109550000Y-134295000D02*
X112705000Y-134295000D01*
X112705000Y-134295000D02*
X112959000Y-134295000D01*
X112959000Y-134295000D02*
X113284000Y-134620000D01*
X113284000Y-134620000D02*
X114300000Y-134620000D01*
X114300000Y-134620000D02*
X114300000Y-134620000D01*
%TO.N,Net-(J21-Pad19)*%
X110585000Y-134945000D02*
X111022000Y-135382000D01*
X109550000Y-134945000D02*
X110585000Y-134945000D01*
X111022000Y-135382000D02*
X115824000Y-135382000D01*
X115824000Y-135382000D02*
X115824000Y-135382000D01*
%TO.N,Net-(J21-Pad18)*%
X110585000Y-135595000D02*
X111134000Y-136144000D01*
X109550000Y-135595000D02*
X110585000Y-135595000D01*
X111134000Y-136144000D02*
X114046000Y-136144000D01*
X114046000Y-136144000D02*
X114046000Y-136144000D01*
%TO.N,Net-(J21-Pad17)*%
X110585000Y-136245000D02*
X111500000Y-137160000D01*
X109550000Y-136245000D02*
X110585000Y-136245000D01*
X111500000Y-137160000D02*
X112522000Y-137160000D01*
X112522000Y-137160000D02*
X113284000Y-137160000D01*
X113284000Y-137160000D02*
X113284000Y-137160000D01*
%TO.N,Net-(J21-Pad16)*%
X109550000Y-137545000D02*
X109550000Y-137998000D01*
X109550000Y-138252000D02*
X110744000Y-139446000D01*
X110744000Y-139446000D02*
X110744000Y-139446000D01*
X109550000Y-138100000D02*
X109550000Y-137545000D01*
X109550000Y-138100000D02*
X109550000Y-138252000D01*
X134620000Y-105410000D02*
X136398000Y-105410000D01*
X136398000Y-105410000D02*
X137160000Y-104648000D01*
X137160000Y-104648000D02*
X137160000Y-104648000D01*
X130556000Y-131318000D02*
X130556000Y-130048000D01*
X130556000Y-130048000D02*
X130556000Y-129286000D01*
X130556000Y-129286000D02*
X131826000Y-128016000D01*
X131826000Y-128016000D02*
X131826000Y-128016000D01*
X130556000Y-110744000D02*
X130556000Y-107950000D01*
X130556000Y-107950000D02*
X130556000Y-107950000D01*
%TO.N,Net-(J21-Pad15)*%
X110585000Y-136895000D02*
X112067000Y-138377000D01*
X109550000Y-136895000D02*
X110585000Y-136895000D01*
X112067000Y-138377000D02*
X112120000Y-138430000D01*
X124725000Y-71215000D02*
X124312000Y-71628000D01*
X124725000Y-70180000D02*
X124725000Y-71215000D01*
X124312000Y-71628000D02*
X122682000Y-71628000D01*
X122682000Y-71628000D02*
X122682000Y-71882000D01*
X122682000Y-71882000D02*
X122682000Y-71882000D01*
X111855000Y-94985000D02*
X113792000Y-93048000D01*
X110820000Y-94985000D02*
X111855000Y-94985000D01*
X113792000Y-93048000D02*
X113792000Y-91948000D01*
X113792000Y-91948000D02*
X113792000Y-91948000D01*
X140405000Y-89165000D02*
X141478000Y-88092000D01*
X139370000Y-89165000D02*
X140405000Y-89165000D01*
X141478000Y-88092000D02*
X141478000Y-85090000D01*
X141478000Y-85090000D02*
X141478000Y-85090000D01*
X137287000Y-107315000D02*
X137287000Y-106553000D01*
X137287000Y-106553000D02*
X140462000Y-103378000D01*
X140462000Y-103378000D02*
X140462000Y-103378000D01*
X143180000Y-131075000D02*
X140959000Y-131075000D01*
X140959000Y-131075000D02*
X140462000Y-131572000D01*
X140462000Y-131572000D02*
X140462000Y-131572000D01*
%TO.N,Net-(J21-Pad14)*%
X125476000Y-75692000D02*
X125476000Y-75692000D01*
X127325000Y-70180000D02*
X127399303Y-70254303D01*
X127399303Y-70254303D02*
X127399303Y-74370433D01*
X127399303Y-74370433D02*
X126077736Y-75692000D01*
X126077736Y-75692000D02*
X125476000Y-75692000D01*
%TO.N,Net-(J21-Pad13)*%
X125476000Y-74422000D02*
X125476000Y-74422000D01*
X125817176Y-74867424D02*
X125417177Y-74467425D01*
X126265901Y-74867424D02*
X125817176Y-74867424D01*
X126949292Y-73488031D02*
X126949292Y-74184033D01*
X126949292Y-74184033D02*
X126265901Y-74867424D01*
X126675000Y-73213739D02*
X126949292Y-73488031D01*
X126675000Y-70180000D02*
X126675000Y-73213739D01*
%TO.N,Net-(J21-Pad12)*%
X126025000Y-73677719D02*
X126224291Y-73877010D01*
X126025000Y-70180000D02*
X126025000Y-73677719D01*
%TO.N,Net-(J21-Pad11)*%
X125375000Y-70180000D02*
X125375000Y-71475000D01*
X125375000Y-71475000D02*
X123698000Y-73152000D01*
X123698000Y-73152000D02*
X123698000Y-73152000D01*
%TO.N,Net-(J21-Pad10)*%
X124075000Y-70180000D02*
X122352000Y-70180000D01*
X122352000Y-70180000D02*
X121158000Y-71374000D01*
X121158000Y-71374000D02*
X121158000Y-71374000D01*
%TO.N,Net-(J21-Pad9)*%
X143180000Y-135505001D02*
X144118589Y-135505001D01*
X144118589Y-135505001D02*
X146540052Y-133083538D01*
X146540052Y-133083538D02*
X146540053Y-129028000D01*
X146540053Y-129028000D02*
X140702053Y-123190000D01*
X140702053Y-123190000D02*
X134620000Y-123190000D01*
%TO.N,Net-(J21-Pad8)*%
X142605648Y-125730001D02*
X146090042Y-129214400D01*
X144012178Y-134975000D02*
X143180000Y-134975000D01*
X146090042Y-132897138D02*
X144012178Y-134975000D01*
X146090042Y-129214400D02*
X146090042Y-132897138D01*
X134620000Y-125730000D02*
X142605648Y-125730001D01*
%TO.N,Net-(J21-Pad7)*%
X144025770Y-134325000D02*
X143180000Y-134325000D01*
X144509233Y-128270000D02*
X145640031Y-129400800D01*
X145640031Y-132710739D02*
X144025770Y-134325000D01*
X145640031Y-129400800D02*
X145640031Y-132710739D01*
X134620000Y-128270000D02*
X144509233Y-128270000D01*
%TO.N,Net-(J21-Pad6)*%
X145190020Y-132524339D02*
X144039357Y-133675000D01*
X144554791Y-128951969D02*
X145190020Y-129587200D01*
X134620000Y-130810000D02*
X136478031Y-128951969D01*
X144039357Y-133675000D02*
X143180000Y-133675000D01*
X145190020Y-129587200D02*
X145190020Y-132524339D01*
X136478031Y-128951969D02*
X144554791Y-128951969D01*
%TO.N,Net-(J21-Pad5)*%
X144740009Y-129773600D02*
X144740009Y-132337939D01*
X144052946Y-133025000D02*
X143180000Y-133025000D01*
X144368391Y-129401980D02*
X144740009Y-129773600D01*
X144740009Y-132337939D02*
X144052946Y-133025000D01*
X138568020Y-129401980D02*
X144368391Y-129401980D01*
X134620000Y-133350000D02*
X138568020Y-129401980D01*
%TO.N,Net-(J21-Pad4)*%
X134620000Y-135890000D02*
X133417919Y-135890000D01*
X133417919Y-135890000D02*
X132137990Y-137169929D01*
X142145000Y-132375000D02*
X143180000Y-132375000D01*
X132137990Y-137169929D02*
X132137990Y-140226992D01*
X132137990Y-140226992D02*
X134055999Y-142145001D01*
X135184001Y-142145001D02*
X135795001Y-141534001D01*
X135795001Y-141534001D02*
X135795001Y-138724999D01*
X135795001Y-138724999D02*
X142145000Y-132375000D01*
X134055999Y-142145001D02*
X135184001Y-142145001D01*
%TO.N,Net-(J21-Pad3)*%
X142254998Y-131725000D02*
X143180000Y-131725000D01*
X134620000Y-138430000D02*
X135440000Y-138430000D01*
X143136991Y-131768009D02*
X143180000Y-131725000D01*
X142101991Y-131768009D02*
X143136991Y-131768009D01*
X135440000Y-138430000D02*
X142101991Y-131768009D01*
%TO.N,Net-(J21-Pad2)*%
X142254998Y-130425000D02*
X143180000Y-130425000D01*
X138684000Y-131572000D02*
X139831000Y-130425000D01*
X138684000Y-133594392D02*
X138684000Y-131572000D01*
X135118392Y-137160000D02*
X138684000Y-133594392D01*
X139831000Y-130425000D02*
X143180000Y-130425000D01*
X133096000Y-137160000D02*
X135118392Y-137160000D01*
X132588000Y-137668000D02*
X133096000Y-137160000D01*
X132588000Y-138938000D02*
X132588000Y-137668000D01*
X134620000Y-140970000D02*
X132588000Y-138938000D01*
%TO.N,Net-(J22-Pad24)*%
X111855000Y-94335000D02*
X110820000Y-94335000D01*
X112268000Y-93922000D02*
X111855000Y-94335000D01*
X112268000Y-89154000D02*
X112268000Y-93922000D01*
X116332000Y-85090000D02*
X112268000Y-89154000D01*
X119380000Y-85090000D02*
X116332000Y-85090000D01*
%TO.N,Net-(J22-Pad23)*%
X109903050Y-93685000D02*
X110820000Y-93685000D01*
X119380000Y-87630000D02*
X118204999Y-88805001D01*
X118204999Y-88805001D02*
X118204999Y-90711412D01*
X108458002Y-95130048D02*
X109903050Y-93685000D01*
X108458002Y-96899587D02*
X108458002Y-95130048D01*
X118204999Y-90711412D02*
X112016824Y-96899587D01*
X112016824Y-96899587D02*
X108458002Y-96899587D01*
%TO.N,Net-(J22-Pad22)*%
X110422400Y-99764011D02*
X108007991Y-97349602D01*
X108007991Y-94943649D02*
X109916640Y-93035000D01*
X109916640Y-93035000D02*
X110820000Y-93035000D01*
X108007991Y-97349602D02*
X108007991Y-94943649D01*
X119380000Y-90806410D02*
X110422400Y-99764011D01*
X119380000Y-90170000D02*
X119380000Y-90806410D01*
%TO.N,Net-(J22-Pad21)*%
X109930230Y-92385000D02*
X110820000Y-92385000D01*
X107557980Y-98944020D02*
X107557980Y-94757250D01*
X119380000Y-92964000D02*
X110478980Y-101865020D01*
X110478980Y-101865020D02*
X107557980Y-98944020D01*
X107557980Y-94757250D02*
X109930230Y-92385000D01*
X119380000Y-92710000D02*
X119380000Y-92964000D01*
%TO.N,Net-(J22-Pad20)*%
X107107969Y-94570850D02*
X109943819Y-91735000D01*
X107107969Y-99130420D02*
X107107969Y-94570850D01*
X109943819Y-91735000D02*
X110820000Y-91735000D01*
X110292579Y-102315029D02*
X107107969Y-99130420D01*
X112314971Y-102315029D02*
X110292579Y-102315029D01*
X119380000Y-95250000D02*
X112314971Y-102315029D01*
%TO.N,Net-(J22-Pad19)*%
X109877824Y-91085000D02*
X110820000Y-91085000D01*
X106657958Y-99316819D02*
X106657958Y-94304866D01*
X110106179Y-102765040D02*
X106657958Y-99316819D01*
X114404960Y-102765040D02*
X110106179Y-102765040D01*
X119380000Y-97790000D02*
X114404960Y-102765040D01*
X106657958Y-94304866D02*
X109877824Y-91085000D01*
%TO.N,Net-(J22-Pad18)*%
X106500390Y-104220033D02*
X115489967Y-104220033D01*
X106207945Y-103927588D02*
X106500390Y-104220033D01*
X109891413Y-90435000D02*
X106207945Y-94118468D01*
X110820000Y-90435000D02*
X109891413Y-90435000D01*
X115489967Y-104220033D02*
X119380000Y-100330000D01*
X106207945Y-94118468D02*
X106207945Y-103927588D01*
%TO.N,Net-(J22-Pad14)*%
X127975000Y-101895000D02*
X119380000Y-110490000D01*
X127975000Y-70180000D02*
X127975000Y-101895000D01*
%TO.N,Net-(J22-Pad13)*%
X128625000Y-103785000D02*
X119380000Y-113030000D01*
X128625000Y-70180000D02*
X128625000Y-103785000D01*
%TO.N,Net-(J22-Pad12)*%
X129275000Y-105675000D02*
X119380000Y-115570000D01*
X129275000Y-70180000D02*
X129275000Y-105675000D01*
%TO.N,Net-(J22-Pad11)*%
X138335000Y-88515000D02*
X139370000Y-88515000D01*
X138044999Y-88805001D02*
X138335000Y-88515000D01*
X134245997Y-88805001D02*
X138044999Y-88805001D01*
X130048000Y-93002998D02*
X134245997Y-88805001D01*
X128835989Y-107001600D02*
X130048000Y-105789590D01*
X130048000Y-105789590D02*
X130048000Y-93002998D01*
X128835989Y-108654011D02*
X128835989Y-107001600D01*
X119380000Y-118110000D02*
X128835989Y-108654011D01*
%TO.N,Net-(J22-Pad10)*%
X136804999Y-91345001D02*
X138335000Y-89815000D01*
X138335000Y-89815000D02*
X139370000Y-89815000D01*
X130498011Y-105975989D02*
X130498011Y-95092987D01*
X129286000Y-110744000D02*
X129286000Y-107188000D01*
X134245997Y-91345001D02*
X136804999Y-91345001D01*
X129286000Y-107188000D02*
X130498011Y-105975989D01*
X119380000Y-120650000D02*
X129286000Y-110744000D01*
X130498011Y-95092987D02*
X134245997Y-91345001D01*
%TO.N,Net-(J22-Pad9)*%
X135184001Y-93885001D02*
X137628999Y-91440003D01*
X131768009Y-110801991D02*
X131768009Y-96362989D01*
X119380000Y-123190000D02*
X131768009Y-110801991D01*
X137628999Y-91171001D02*
X138335000Y-90465000D01*
X131768009Y-96362989D02*
X134245997Y-93885001D01*
X137628999Y-91440003D02*
X137628999Y-91171001D01*
X134245997Y-93885001D02*
X135184001Y-93885001D01*
X138335000Y-90465000D02*
X139370000Y-90465000D01*
%TO.N,Net-(J22-Pad8)*%
X132218020Y-112891980D02*
X132218020Y-97905980D01*
X138335000Y-91115000D02*
X139370000Y-91115000D01*
X135184001Y-96425001D02*
X136905960Y-94703042D01*
X133698999Y-96425001D02*
X135184001Y-96425001D01*
X132218020Y-97905980D02*
X133698999Y-96425001D01*
X119380000Y-125730000D02*
X132218020Y-112891980D01*
X136905960Y-94703042D02*
X136905961Y-92799452D01*
X138079010Y-91370990D02*
X138335000Y-91115000D01*
X138079009Y-91626403D02*
X138079010Y-91370990D01*
X136905961Y-92799452D02*
X138079009Y-91626403D01*
%TO.N,Net-(J22-Pad7)*%
X140405000Y-91765000D02*
X139370000Y-91765000D01*
X118815999Y-137065001D02*
X119944001Y-137065001D01*
X142632020Y-93992020D02*
X140405000Y-91765000D01*
X135184001Y-121825001D02*
X142632020Y-114376982D01*
X142632020Y-114376982D02*
X142632020Y-93992020D01*
X134081409Y-121825001D02*
X135184001Y-121825001D01*
X120555001Y-135351409D02*
X134081409Y-121825001D01*
X120555001Y-136454001D02*
X120555001Y-135351409D01*
X118204999Y-136454001D02*
X118815999Y-137065001D01*
X119944001Y-137065001D02*
X120555001Y-136454001D01*
X119380000Y-128270000D02*
X118204999Y-129445001D01*
X118204999Y-129445001D02*
X118204999Y-136454001D01*
%TO.N,Net-(J22-Pad6)*%
X134055999Y-101505001D02*
X135184001Y-101505001D01*
X138563235Y-92415000D02*
X139370000Y-92415000D01*
X137805981Y-98883021D02*
X137805981Y-93172254D01*
X135184001Y-101505001D02*
X137805981Y-98883021D01*
X132922033Y-102638967D02*
X134055999Y-101505001D01*
X119380000Y-130810000D02*
X132922033Y-117267967D01*
X137805981Y-93172254D02*
X138563235Y-92415000D01*
X132922033Y-117267967D02*
X132922033Y-102638967D01*
%TO.N,Net-(J22-Pad5)*%
X133444999Y-118905412D02*
X133444999Y-104656001D01*
X138549646Y-93065000D02*
X139370000Y-93065000D01*
X119380000Y-133350000D02*
X119380000Y-132970411D01*
X119380000Y-132970411D02*
X133444999Y-118905412D01*
X133444999Y-104656001D02*
X134055999Y-104045001D01*
X138255992Y-93358654D02*
X138549646Y-93065000D01*
X138255992Y-100973010D02*
X138255992Y-93358654D01*
X134055999Y-104045001D02*
X135184001Y-104045001D01*
X135184001Y-104045001D02*
X138255992Y-100973010D01*
%TO.N,Net-(J22-Pad4)*%
X140405000Y-93715000D02*
X142182009Y-95492009D01*
X139370000Y-93715000D02*
X140405000Y-93715000D01*
X142182009Y-95492009D02*
X142182009Y-112286993D01*
X142182009Y-112286993D02*
X135184001Y-119285001D01*
X135184001Y-119285001D02*
X133701821Y-119285001D01*
X133701821Y-119285001D02*
X133234022Y-119752800D01*
X133234022Y-119752800D02*
X133234022Y-122035978D01*
X133234022Y-122035978D02*
X119380000Y-135890000D01*
%TO.N,Net-(J23-Pad2)*%
X158675002Y-90424000D02*
X158750000Y-90424000D01*
X157334002Y-91765000D02*
X158675002Y-90424000D01*
X145364000Y-91765000D02*
X157334002Y-91765000D01*
%TO.N,Net-(J24-Pad2)*%
X153121000Y-92415000D02*
X158750000Y-98044000D01*
X145110000Y-92415000D02*
X152867000Y-92415000D01*
X153121000Y-92415000D02*
X152867000Y-92415000D01*
%TO.N,Net-(J25-Pad2)*%
X158750000Y-105416000D02*
X158750000Y-106934000D01*
X146399000Y-93065000D02*
X158750000Y-105416000D01*
X145110000Y-93065000D02*
X146145000Y-93065000D01*
X146399000Y-93065000D02*
X146145000Y-93065000D01*
%TO.N,Net-(J26-Pad2)*%
X157559990Y-104875990D02*
X157559990Y-114633990D01*
X146399000Y-93715000D02*
X157559990Y-104875990D01*
X157559990Y-114633990D02*
X158750000Y-115824000D01*
X146399000Y-93715000D02*
X146039000Y-93715000D01*
X146039000Y-93715000D02*
X146145000Y-93715000D01*
X145110000Y-93715000D02*
X146039000Y-93715000D01*
%TO.N,Net-(J27-Pad2)*%
X90170000Y-177805000D02*
X90170000Y-179070000D01*
X91940001Y-176034999D02*
X90170000Y-177805000D01*
X93459001Y-176034999D02*
X91940001Y-176034999D01*
X104024016Y-165469984D02*
X93459001Y-176034999D01*
X104024016Y-137759016D02*
X104024016Y-165469984D01*
X103810000Y-137545000D02*
X104024016Y-137759016D01*
%TO.N,Net-(J28-Pad2)*%
X102700000Y-136402818D02*
X102857818Y-136245000D01*
X102700000Y-157655000D02*
X102700000Y-136402818D01*
X90170000Y-170185000D02*
X102700000Y-157655000D01*
X102857818Y-136245000D02*
X103810000Y-136245000D01*
X90170000Y-171450000D02*
X90170000Y-170185000D01*
%TO.N,Net-(J29-Pad2)*%
X90170000Y-161294998D02*
X102249989Y-149215009D01*
X102249989Y-149215009D02*
X102249990Y-136216418D01*
X90170000Y-162560000D02*
X90170000Y-161294998D01*
X102249990Y-136216418D02*
X102871408Y-135595000D01*
X102871408Y-135595000D02*
X103810000Y-135595000D01*
%TO.N,Net-(J30-Pad2)*%
X102884998Y-134945000D02*
X103810000Y-134945000D01*
X94059990Y-143770008D02*
X102884998Y-134945000D01*
X94059990Y-145462010D02*
X94059990Y-143770008D01*
X90170000Y-149352000D02*
X94059990Y-145462010D01*
X90170000Y-153670000D02*
X90170000Y-149352000D01*
%TO.N,Net-(J31-Pad2)*%
X96282072Y-134295000D02*
X103810000Y-134295000D01*
X94059990Y-136517082D02*
X96282072Y-134295000D01*
X94059990Y-139625010D02*
X94059990Y-136517082D01*
X90170000Y-143515000D02*
X94059990Y-139625010D01*
X90170000Y-144780000D02*
X90170000Y-143515000D01*
%TO.N,Net-(J32-Pad2)*%
X90170000Y-135895000D02*
X90170000Y-137160000D01*
X92420000Y-133645000D02*
X90170000Y-135895000D01*
X103810000Y-133645000D02*
X92420000Y-133645000D01*
%TO.N,Net-(J33-Pad2)*%
X90170000Y-128624998D02*
X90170000Y-129540000D01*
X92289999Y-126504999D02*
X90170000Y-128624998D01*
X96284999Y-126504999D02*
X92289999Y-126504999D01*
X102775000Y-132995000D02*
X96284999Y-126504999D01*
X103810000Y-132995000D02*
X102775000Y-132995000D01*
%TO.N,Net-(J34-Pad2)*%
X91510010Y-123260010D02*
X90170000Y-121920000D01*
X93690010Y-123260010D02*
X91510010Y-123260010D01*
X102775000Y-132345000D02*
X93690010Y-123260010D01*
X103810000Y-132345000D02*
X102775000Y-132345000D01*
%TO.N,Net-(J35-Pad2)*%
X102616000Y-97282000D02*
X102616000Y-97282000D01*
X105080000Y-95635000D02*
X104354609Y-95635000D01*
X104354609Y-95635000D02*
X102652999Y-97336610D01*
%TO.N,Net-(J36-Pad2)*%
X101600000Y-95250000D02*
X101600000Y-95250000D01*
X101854000Y-94996000D02*
X101600000Y-95250000D01*
X103384000Y-94996000D02*
X101854000Y-94996000D01*
X105080000Y-94335000D02*
X104045000Y-94335000D01*
X104045000Y-94335000D02*
X103384000Y-94996000D01*
%TO.N,Net-(J37-Pad2)*%
X106005002Y-93685000D02*
X109474000Y-90216002D01*
X105080000Y-93685000D02*
X106005002Y-93685000D01*
X109474000Y-90216002D02*
X109474000Y-79248000D01*
X91510010Y-76270010D02*
X90170000Y-74930000D01*
X106496010Y-76270010D02*
X91510010Y-76270010D01*
X109474000Y-79248000D02*
X106496010Y-76270010D01*
%TO.N,Net-(J38-Pad2)*%
X106018592Y-93035000D02*
X107753989Y-91299603D01*
X107753989Y-82607989D02*
X104660999Y-79514999D01*
X91940001Y-79514999D02*
X90170000Y-81285000D01*
X107753989Y-91299603D02*
X107753989Y-82607989D01*
X90170000Y-81285000D02*
X90170000Y-82550000D01*
X105080000Y-93035000D02*
X106018592Y-93035000D01*
X104660999Y-79514999D02*
X91940001Y-79514999D01*
%TO.N,Net-(J39-Pad2)*%
X106032182Y-92385000D02*
X107303978Y-91113204D01*
X105080000Y-92385000D02*
X106032182Y-92385000D01*
X90170000Y-88905000D02*
X90170000Y-90170000D01*
X107303978Y-91113204D02*
X107303978Y-84189978D01*
X107303978Y-84189978D02*
X104323990Y-81209990D01*
X104323990Y-81209990D02*
X94757082Y-81209990D01*
X94757082Y-81209990D02*
X94059990Y-81907082D01*
X94059990Y-81907082D02*
X94059990Y-85015010D01*
X94059990Y-85015010D02*
X90170000Y-88905000D01*
%TO.N,Net-(J40-Pad2)*%
X103124000Y-85090000D02*
X93459001Y-94754999D01*
X93459001Y-94754999D02*
X91940001Y-94754999D01*
X106853967Y-86025967D02*
X105918000Y-85090000D01*
X90170000Y-96525000D02*
X90170000Y-97790000D01*
X105080000Y-91735000D02*
X106045772Y-91735000D01*
X91940001Y-94754999D02*
X90170000Y-96525000D01*
X105918000Y-85090000D02*
X103124000Y-85090000D01*
X106045772Y-91735000D02*
X106853967Y-90926805D01*
X106853967Y-90926805D02*
X106853967Y-86025967D01*
%TO.N,Net-(J41-Pad2)*%
X102887048Y-88160044D02*
X93900010Y-97147082D01*
X106403956Y-90740406D02*
X106403956Y-88160044D01*
X93900010Y-99299970D02*
X90170000Y-103029980D01*
X106059362Y-91085000D02*
X106403956Y-90740406D01*
X106403956Y-88160044D02*
X102887048Y-88160044D01*
X93900010Y-97147082D02*
X93900010Y-99299970D01*
X90170000Y-103029980D02*
X90170000Y-105410000D01*
X105080000Y-91085000D02*
X106059362Y-91085000D01*
%TO.N,Net-(J42-Pad2)*%
X101971411Y-92508589D02*
X101971411Y-92901517D01*
X104045000Y-90435000D02*
X101971411Y-92508589D01*
X101971411Y-92901517D02*
X93900010Y-100972918D01*
X105080000Y-90435000D02*
X104045000Y-90435000D01*
X93900010Y-100972918D02*
X93900010Y-108034990D01*
X93900010Y-108034990D02*
X90170000Y-111765000D01*
X90170000Y-111765000D02*
X90170000Y-113030000D01*
%TO.N,Net-(R1-Pad2)*%
X143180000Y-149108000D02*
X138430000Y-153858000D01*
X143180000Y-136275000D02*
X143180000Y-149108000D01*
X109550000Y-131695000D02*
X110367000Y-131695000D01*
X110367000Y-131695000D02*
X111760000Y-130302000D01*
X111760000Y-130302000D02*
X111760000Y-130302000D01*
X138430000Y-153858000D02*
X138430000Y-151130000D01*
X138430000Y-151130000D02*
X138430000Y-151130000D01*
X110820000Y-89785000D02*
X110820000Y-89332000D01*
X110820000Y-89332000D02*
X111760000Y-88392000D01*
X111760000Y-88392000D02*
X111760000Y-88392000D01*
X111760000Y-80919998D02*
X119126000Y-73553998D01*
X111760000Y-88392000D02*
X111760000Y-80919998D01*
X119126000Y-73553998D02*
X119126000Y-68326000D01*
X119126000Y-68326000D02*
X120650000Y-66802000D01*
X129925000Y-69145000D02*
X129925000Y-70180000D01*
X127582000Y-66802000D02*
X129925000Y-69145000D01*
X120650000Y-66802000D02*
X127582000Y-66802000D01*
X139370000Y-94365000D02*
X139370000Y-95428000D01*
X139370000Y-95428000D02*
X141224000Y-97282000D01*
X141478000Y-83058000D02*
X141478000Y-81788000D01*
X129925000Y-70235000D02*
X129925000Y-70180000D01*
X141478000Y-81788000D02*
X129925000Y-70235000D01*
%TD*%
M02*
