%TF.GenerationSoftware,KiCad,Pcbnew,(5.1.8)-1*%
%TF.CreationDate,2020-12-30T12:04:26-06:00*%
%TF.ProjectId,CircuitBoard,43697263-7569-4744-926f-6172642e6b69,rev?*%
%TF.SameCoordinates,Original*%
%TF.FileFunction,Soldermask,Bot*%
%TF.FilePolarity,Negative*%
%FSLAX46Y46*%
G04 Gerber Fmt 4.6, Leading zero omitted, Abs format (unit mm)*
G04 Created by KiCad (PCBNEW (5.1.8)-1) date 2020-12-30 12:04:26*
%MOMM*%
%LPD*%
G01*
G04 APERTURE LIST*
%ADD10C,2.780000*%
%ADD11R,2.780000X2.780000*%
%ADD12C,1.100000*%
%ADD13O,1.730000X2.030000*%
%ADD14R,1.730000X2.030000*%
%ADD15O,1.700000X1.700000*%
%ADD16R,1.700000X1.700000*%
%ADD17O,2.030000X1.730000*%
%ADD18R,2.030000X1.730000*%
G04 APERTURE END LIST*
D10*
%TO.C,JMolex1*%
X133350000Y-169418000D03*
X128270000Y-169418000D03*
X123190000Y-169418000D03*
D11*
X118110000Y-169418000D03*
%TD*%
D12*
%TO.C,J42*%
X92710000Y-110870000D03*
D13*
X95250000Y-113030000D03*
X92710000Y-113030000D03*
X90170000Y-113030000D03*
D14*
X87630000Y-113030000D03*
%TD*%
D12*
%TO.C,J41*%
X92710000Y-103250000D03*
D13*
X95250000Y-105410000D03*
X92710000Y-105410000D03*
X90170000Y-105410000D03*
D14*
X87630000Y-105410000D03*
%TD*%
D12*
%TO.C,J40*%
X92710000Y-95630000D03*
D13*
X95250000Y-97790000D03*
X92710000Y-97790000D03*
X90170000Y-97790000D03*
D14*
X87630000Y-97790000D03*
%TD*%
D12*
%TO.C,J39*%
X92710000Y-88010000D03*
D13*
X95250000Y-90170000D03*
X92710000Y-90170000D03*
X90170000Y-90170000D03*
D14*
X87630000Y-90170000D03*
%TD*%
D12*
%TO.C,J38*%
X92710000Y-80390000D03*
D13*
X95250000Y-82550000D03*
X92710000Y-82550000D03*
X90170000Y-82550000D03*
D14*
X87630000Y-82550000D03*
%TD*%
D12*
%TO.C,J37*%
X92710000Y-72770000D03*
D13*
X95250000Y-74930000D03*
X92710000Y-74930000D03*
X90170000Y-74930000D03*
D14*
X87630000Y-74930000D03*
%TD*%
D12*
%TO.C,J36*%
X92710000Y-65150000D03*
D13*
X95250000Y-67310000D03*
X92710000Y-67310000D03*
X90170000Y-67310000D03*
D14*
X87630000Y-67310000D03*
%TD*%
D12*
%TO.C,J35*%
X92710000Y-57530000D03*
D13*
X95250000Y-59690000D03*
X92710000Y-59690000D03*
X90170000Y-59690000D03*
D14*
X87630000Y-59690000D03*
%TD*%
D12*
%TO.C,J34*%
X92710000Y-119760000D03*
D13*
X95250000Y-121920000D03*
X92710000Y-121920000D03*
X90170000Y-121920000D03*
D14*
X87630000Y-121920000D03*
%TD*%
D12*
%TO.C,J33*%
X92710000Y-127380000D03*
D13*
X95250000Y-129540000D03*
X92710000Y-129540000D03*
X90170000Y-129540000D03*
D14*
X87630000Y-129540000D03*
%TD*%
D12*
%TO.C,J32*%
X92710000Y-135000000D03*
D13*
X95250000Y-137160000D03*
X92710000Y-137160000D03*
X90170000Y-137160000D03*
D14*
X87630000Y-137160000D03*
%TD*%
D12*
%TO.C,J31*%
X92710000Y-142620000D03*
D13*
X95250000Y-144780000D03*
X92710000Y-144780000D03*
X90170000Y-144780000D03*
D14*
X87630000Y-144780000D03*
%TD*%
D12*
%TO.C,J30*%
X92710000Y-151510000D03*
D13*
X95250000Y-153670000D03*
X92710000Y-153670000D03*
X90170000Y-153670000D03*
D14*
X87630000Y-153670000D03*
%TD*%
D12*
%TO.C,J29*%
X92710000Y-160400000D03*
D13*
X95250000Y-162560000D03*
X92710000Y-162560000D03*
X90170000Y-162560000D03*
D14*
X87630000Y-162560000D03*
%TD*%
D12*
%TO.C,J28*%
X92710000Y-169290000D03*
D13*
X95250000Y-171450000D03*
X92710000Y-171450000D03*
X90170000Y-171450000D03*
D14*
X87630000Y-171450000D03*
%TD*%
D12*
%TO.C,J27*%
X92710000Y-176910000D03*
D13*
X95250000Y-179070000D03*
X92710000Y-179070000D03*
X90170000Y-179070000D03*
D14*
X87630000Y-179070000D03*
%TD*%
D12*
%TO.C,J26*%
X161290000Y-113664000D03*
D13*
X163830000Y-115824000D03*
X161290000Y-115824000D03*
X158750000Y-115824000D03*
D14*
X156210000Y-115824000D03*
%TD*%
D12*
%TO.C,J25*%
X161290000Y-104774000D03*
D13*
X163830000Y-106934000D03*
X161290000Y-106934000D03*
X158750000Y-106934000D03*
D14*
X156210000Y-106934000D03*
%TD*%
D12*
%TO.C,J24*%
X161290000Y-95884000D03*
D13*
X163830000Y-98044000D03*
X161290000Y-98044000D03*
X158750000Y-98044000D03*
D14*
X156210000Y-98044000D03*
%TD*%
D12*
%TO.C,J23*%
X161290000Y-88264000D03*
D13*
X163830000Y-90424000D03*
X161290000Y-90424000D03*
X158750000Y-90424000D03*
D14*
X156210000Y-90424000D03*
%TD*%
D15*
%TO.C,J22*%
X119380000Y-85090000D03*
X119380000Y-87630000D03*
X119380000Y-90170000D03*
X119380000Y-92710000D03*
X119380000Y-95250000D03*
X119380000Y-97790000D03*
X119380000Y-100330000D03*
X119380000Y-102870000D03*
X119380000Y-105410000D03*
X119380000Y-107950000D03*
X119380000Y-110490000D03*
X119380000Y-113030000D03*
X119380000Y-115570000D03*
X119380000Y-118110000D03*
X119380000Y-120650000D03*
X119380000Y-123190000D03*
X119380000Y-125730000D03*
X119380000Y-128270000D03*
X119380000Y-130810000D03*
X119380000Y-133350000D03*
X119380000Y-135890000D03*
X119380000Y-138430000D03*
X119380000Y-140970000D03*
D16*
X119380000Y-143510000D03*
%TD*%
D15*
%TO.C,J21*%
X134620000Y-85090000D03*
X134620000Y-87630000D03*
X134620000Y-90170000D03*
X134620000Y-92710000D03*
X134620000Y-95250000D03*
X134620000Y-97790000D03*
X134620000Y-100330000D03*
X134620000Y-102870000D03*
X134620000Y-105410000D03*
X134620000Y-107950000D03*
X134620000Y-110490000D03*
X134620000Y-113030000D03*
X134620000Y-115570000D03*
X134620000Y-118110000D03*
X134620000Y-120650000D03*
X134620000Y-123190000D03*
X134620000Y-125730000D03*
X134620000Y-128270000D03*
X134620000Y-130810000D03*
X134620000Y-133350000D03*
X134620000Y-135890000D03*
X134620000Y-138430000D03*
X134620000Y-140970000D03*
D16*
X134620000Y-143510000D03*
%TD*%
D12*
%TO.C,J20*%
X108840000Y-52070000D03*
D17*
X106680000Y-54610000D03*
X106680000Y-52070000D03*
X106680000Y-49530000D03*
D18*
X106680000Y-46990000D03*
%TD*%
D12*
%TO.C,J19*%
X101220000Y-52070000D03*
D17*
X99060000Y-54610000D03*
X99060000Y-52070000D03*
X99060000Y-49530000D03*
D18*
X99060000Y-46990000D03*
%TD*%
D12*
%TO.C,J18*%
X161290000Y-121030000D03*
D13*
X163830000Y-123190000D03*
X161290000Y-123190000D03*
X158750000Y-123190000D03*
D14*
X156210000Y-123190000D03*
%TD*%
D12*
%TO.C,J17*%
X161290000Y-129920000D03*
D13*
X163830000Y-132080000D03*
X161290000Y-132080000D03*
X158750000Y-132080000D03*
D14*
X156210000Y-132080000D03*
%TD*%
D12*
%TO.C,J16*%
X161290000Y-137540000D03*
D13*
X163830000Y-139700000D03*
X161290000Y-139700000D03*
X158750000Y-139700000D03*
D14*
X156210000Y-139700000D03*
%TD*%
D12*
%TO.C,J15*%
X161290000Y-146430000D03*
D13*
X163830000Y-148590000D03*
X161290000Y-148590000D03*
X158750000Y-148590000D03*
D14*
X156210000Y-148590000D03*
%TD*%
D12*
%TO.C,J14*%
X161290000Y-155320000D03*
D13*
X163830000Y-157480000D03*
X161290000Y-157480000D03*
X158750000Y-157480000D03*
D14*
X156210000Y-157480000D03*
%TD*%
D12*
%TO.C,J13*%
X161290000Y-162940000D03*
D13*
X163830000Y-165100000D03*
X161290000Y-165100000D03*
X158750000Y-165100000D03*
D14*
X156210000Y-165100000D03*
%TD*%
D12*
%TO.C,J12*%
X161290000Y-170560000D03*
D13*
X163830000Y-172720000D03*
X161290000Y-172720000D03*
X158750000Y-172720000D03*
D14*
X156210000Y-172720000D03*
%TD*%
D12*
%TO.C,J11*%
X161290000Y-178180000D03*
D13*
X163830000Y-180340000D03*
X161290000Y-180340000D03*
X158750000Y-180340000D03*
D14*
X156210000Y-180340000D03*
%TD*%
D12*
%TO.C,J10*%
X161290000Y-80644000D03*
D13*
X163830000Y-82804000D03*
X161290000Y-82804000D03*
X158750000Y-82804000D03*
D14*
X156210000Y-82804000D03*
%TD*%
D12*
%TO.C,J9*%
X161290000Y-65404000D03*
D13*
X163830000Y-67564000D03*
X161290000Y-67564000D03*
X158750000Y-67564000D03*
D14*
X156210000Y-67564000D03*
%TD*%
D12*
%TO.C,J8*%
X161290000Y-58038000D03*
D13*
X163830000Y-60198000D03*
X161290000Y-60198000D03*
X158750000Y-60198000D03*
D14*
X156210000Y-60198000D03*
%TD*%
D12*
%TO.C,J7*%
X154560000Y-52070000D03*
D17*
X152400000Y-54610000D03*
X152400000Y-52070000D03*
X152400000Y-49530000D03*
D18*
X152400000Y-46990000D03*
%TD*%
D12*
%TO.C,J6*%
X161290000Y-73024000D03*
D13*
X163830000Y-75184000D03*
X161290000Y-75184000D03*
X158750000Y-75184000D03*
D14*
X156210000Y-75184000D03*
%TD*%
D12*
%TO.C,J5*%
X146940000Y-52070000D03*
D17*
X144780000Y-54610000D03*
X144780000Y-52070000D03*
X144780000Y-49530000D03*
D18*
X144780000Y-46990000D03*
%TD*%
D12*
%TO.C,J4*%
X139320000Y-52070000D03*
D17*
X137160000Y-54610000D03*
X137160000Y-52070000D03*
X137160000Y-49530000D03*
D18*
X137160000Y-46990000D03*
%TD*%
D12*
%TO.C,J3*%
X116460000Y-52070000D03*
D17*
X114300000Y-54610000D03*
X114300000Y-52070000D03*
X114300000Y-49530000D03*
D18*
X114300000Y-46990000D03*
%TD*%
D12*
%TO.C,J2*%
X131700000Y-52070000D03*
D17*
X129540000Y-54610000D03*
X129540000Y-52070000D03*
X129540000Y-49530000D03*
D18*
X129540000Y-46990000D03*
%TD*%
D12*
%TO.C,J1*%
X124080000Y-52070000D03*
D17*
X121920000Y-54610000D03*
X121920000Y-52070000D03*
X121920000Y-49530000D03*
D18*
X121920000Y-46990000D03*
%TD*%
M02*
