M48
; DRILL file {KiCad (5.1.8)-1} date 12/30/20 12:04:54
; FORMAT={-:-/ absolute / inch / decimal}
; #@! TF.CreationDate,2020-12-30T12:04:54-06:00
; #@! TF.GenerationSoftware,Kicad,Pcbnew,(5.1.8)-1
; #@! TF.FileFunction,NonPlated,1,2,NPTH
FMAT,2
INCH
T1C0.0433
%
G90
G05
T1
X6.35Y-6.415
X6.35Y-6.715
X3.985Y-2.05
X3.65Y-2.865
X6.35Y-3.475
X6.35Y-4.765
X6.35Y-7.015
X6.35Y-5.765
X3.65Y-5.615
X3.65Y-3.765
X3.65Y-2.565
X4.285Y-2.05
X6.085Y-2.05
X5.485Y-2.05
X3.65Y-6.665
X3.65Y-4.715
X6.35Y-3.775
X6.35Y-6.115
X3.65Y-4.065
X4.885Y-2.05
X3.65Y-5.965
X3.65Y-6.965
X6.35Y-4.125
X6.35Y-3.175
X3.65Y-4.365
X6.35Y-5.115
X3.65Y-3.165
X3.65Y-6.315
X6.35Y-4.475
X6.35Y-2.575
X6.35Y-2.875
X3.65Y-5.015
X3.65Y-2.265
X6.35Y-2.285
X5.785Y-2.05
X6.35Y-5.415
X4.585Y-2.05
X5.185Y-2.05
X3.65Y-3.465
X3.65Y-5.315
T0
M30
