M48
; DRILL file {KiCad (5.1.8)-1} date 12/30/20 12:04:54
; FORMAT={-:-/ absolute / inch / decimal}
; #@! TF.CreationDate,2020-12-30T12:04:54-06:00
; #@! TF.GenerationSoftware,Kicad,Pcbnew,(5.1.8)-1
; #@! TF.FileFunction,Plated,1,2,PTH
FMAT,2
INCH
T1C0.0157
T2C0.0394
T3C0.0402
T4C0.0701
%
G90
G05
T1
X4.0Y-3.75
X4.0415Y-3.8321
X4.087Y-5.113
X4.36Y-5.49
X4.4Y-3.48
X4.4Y-5.13
X4.4121Y-5.4479
X4.46Y-5.15
X4.46Y-5.4
X4.4784Y-5.2616
X4.48Y-3.62
X4.49Y-5.36
X4.5Y-5.3
X4.51Y-5.17
X4.56Y-5.33
X4.5894Y-3.5794
X4.77Y-2.81
X4.83Y-2.83
X4.87Y-2.88
X4.9377Y-2.9318
X4.94Y-2.98
X4.9695Y-2.9085
X5.14Y-4.25
X5.14Y-4.36
X5.14Y-5.17
X5.19Y-5.04
X5.25Y-2.46
X5.4Y-4.12
X5.405Y-4.225
X5.45Y-5.95
X5.53Y-4.07
X5.53Y-5.18
X5.56Y-3.83
X5.57Y-3.27
X5.57Y-3.35
X5.863Y-5.063
X5.89Y-3.27
X5.9871Y-5.0771
X6.0Y-5.18
T2
X5.3Y-3.35
X5.3Y-3.45
X5.3Y-3.55
X5.3Y-3.65
X5.3Y-3.75
X5.3Y-3.85
X5.3Y-3.95
X5.3Y-4.05
X5.3Y-4.15
X5.3Y-4.25
X5.3Y-4.35
X5.3Y-4.45
X5.3Y-4.55
X5.3Y-4.65
X5.3Y-4.75
X5.3Y-4.85
X5.3Y-4.95
X5.3Y-5.05
X5.3Y-5.15
X5.3Y-5.25
X5.3Y-5.35
X5.3Y-5.45
X5.3Y-5.55
X5.3Y-5.65
X4.7Y-3.35
X4.7Y-3.45
X4.7Y-3.55
X4.7Y-3.65
X4.7Y-3.75
X4.7Y-3.85
X4.7Y-3.95
X4.7Y-4.05
X4.7Y-4.15
X4.7Y-4.25
X4.7Y-4.35
X4.7Y-4.45
X4.7Y-4.55
X4.7Y-4.65
X4.7Y-4.75
X4.7Y-4.85
X4.7Y-4.95
X4.7Y-5.05
X4.7Y-5.15
X4.7Y-5.25
X4.7Y-5.35
X4.7Y-5.45
X4.7Y-5.55
X4.7Y-5.65
T3
X3.45Y-5.1
X3.55Y-5.1
X3.65Y-5.1
X3.75Y-5.1
X3.45Y-2.35
X3.55Y-2.35
X3.65Y-2.35
X3.75Y-2.35
X6.15Y-2.37
X6.25Y-2.37
X6.35Y-2.37
X6.45Y-2.37
X5.7Y-1.85
X5.7Y-1.95
X5.7Y-2.05
X5.7Y-2.15
X6.15Y-5.5
X6.25Y-5.5
X6.35Y-5.5
X6.45Y-5.5
X4.5Y-1.85
X4.5Y-1.95
X4.5Y-2.05
X4.5Y-2.15
X5.1Y-1.85
X5.1Y-1.95
X5.1Y-2.05
X5.1Y-2.15
X3.45Y-3.55
X3.55Y-3.55
X3.65Y-3.55
X3.75Y-3.55
X3.45Y-5.4
X3.55Y-5.4
X3.65Y-5.4
X3.75Y-5.4
X6.15Y-6.5
X6.25Y-6.5
X6.35Y-6.5
X6.45Y-6.5
X6.15Y-6.8
X6.25Y-6.8
X6.35Y-6.8
X6.45Y-6.8
X3.9Y-1.85
X3.9Y-1.95
X3.9Y-2.05
X3.9Y-2.15
X3.45Y-2.95
X3.55Y-2.95
X3.65Y-2.95
X3.75Y-2.95
X6.15Y-3.56
X6.25Y-3.56
X6.35Y-3.56
X6.45Y-3.56
X6.15Y-4.85
X6.25Y-4.85
X6.35Y-4.85
X6.45Y-4.85
X6.15Y-7.1
X6.25Y-7.1
X6.35Y-7.1
X6.45Y-7.1
X6.15Y-5.85
X6.25Y-5.85
X6.35Y-5.85
X6.45Y-5.85
X3.45Y-5.7
X3.55Y-5.7
X3.65Y-5.7
X3.75Y-5.7
X3.45Y-3.85
X3.55Y-3.85
X3.65Y-3.85
X3.75Y-3.85
X3.45Y-2.65
X3.55Y-2.65
X3.65Y-2.65
X3.75Y-2.65
X4.2Y-1.85
X4.2Y-1.95
X4.2Y-2.05
X4.2Y-2.15
X6.0Y-1.85
X6.0Y-1.95
X6.0Y-2.05
X6.0Y-2.15
X5.4Y-1.85
X5.4Y-1.95
X5.4Y-2.05
X5.4Y-2.15
X3.45Y-6.75
X3.55Y-6.75
X3.65Y-6.75
X3.75Y-6.75
X3.45Y-4.8
X3.55Y-4.8
X3.65Y-4.8
X3.75Y-4.8
X6.15Y-3.86
X6.25Y-3.86
X6.35Y-3.86
X6.45Y-3.86
X6.15Y-6.2
X6.25Y-6.2
X6.35Y-6.2
X6.45Y-6.2
X3.45Y-4.15
X3.55Y-4.15
X3.65Y-4.15
X3.75Y-4.15
X4.8Y-1.85
X4.8Y-1.95
X4.8Y-2.05
X4.8Y-2.15
X3.45Y-6.05
X3.55Y-6.05
X3.65Y-6.05
X3.75Y-6.05
X3.45Y-7.05
X3.55Y-7.05
X3.65Y-7.05
X3.75Y-7.05
X6.15Y-4.21
X6.25Y-4.21
X6.35Y-4.21
X6.45Y-4.21
X6.15Y-3.26
X6.25Y-3.26
X6.35Y-3.26
X6.45Y-3.26
X3.45Y-4.45
X3.55Y-4.45
X3.65Y-4.45
X3.75Y-4.45
X6.15Y-5.2
X6.25Y-5.2
X6.35Y-5.2
X6.45Y-5.2
X3.45Y-3.25
X3.55Y-3.25
X3.65Y-3.25
X3.75Y-3.25
X3.45Y-6.4
X3.55Y-6.4
X3.65Y-6.4
X3.75Y-6.4
X6.15Y-4.56
X6.25Y-4.56
X6.35Y-4.56
X6.45Y-4.56
X6.15Y-2.66
X6.25Y-2.66
X6.35Y-2.66
X6.45Y-2.66
X6.15Y-2.96
X6.25Y-2.96
X6.35Y-2.96
X6.45Y-2.96
T4
X4.65Y-6.67
X4.85Y-6.67
X5.05Y-6.67
X5.25Y-6.67
T0
M30
