%TF.GenerationSoftware,KiCad,Pcbnew,(5.1.8)-1*%
%TF.CreationDate,2021-02-28T20:43:26-06:00*%
%TF.ProjectId,CircuitBoard,43697263-7569-4744-926f-6172642e6b69,rev?*%
%TF.SameCoordinates,Original*%
%TF.FileFunction,Soldermask,Top*%
%TF.FilePolarity,Negative*%
%FSLAX46Y46*%
G04 Gerber Fmt 4.6, Leading zero omitted, Abs format (unit mm)*
G04 Created by KiCad (PCBNEW (5.1.8)-1) date 2021-02-28 20:43:26*
%MOMM*%
%LPD*%
G01*
G04 APERTURE LIST*
%ADD10R,1.570000X0.410000*%
%ADD11R,0.410000X1.570000*%
%ADD12C,2.780000*%
%ADD13R,2.780000X2.780000*%
%ADD14C,1.100000*%
%ADD15O,1.730000X2.030000*%
%ADD16R,1.730000X2.030000*%
%ADD17O,1.700000X1.700000*%
%ADD18R,1.700000X1.700000*%
%ADD19O,2.030000X1.730000*%
%ADD20R,2.030000X1.730000*%
G04 APERTURE END LIST*
D10*
%TO.C,U5*%
X105080000Y-95635000D03*
X105080000Y-94985000D03*
X105080000Y-94335000D03*
X105080000Y-93685000D03*
X105080000Y-93035000D03*
X105080000Y-92385000D03*
X105080000Y-91735000D03*
X105080000Y-91085000D03*
X105080000Y-90435000D03*
X105080000Y-89785000D03*
X110820000Y-89785000D03*
X110820000Y-90435000D03*
X110820000Y-91085000D03*
X110820000Y-91735000D03*
X110820000Y-92385000D03*
X110820000Y-93035000D03*
X110820000Y-93685000D03*
X110820000Y-94335000D03*
X110820000Y-94985000D03*
X110820000Y-95635000D03*
%TD*%
%TO.C,U4*%
X103810000Y-137545000D03*
X103810000Y-136895000D03*
X103810000Y-136245000D03*
X103810000Y-135595000D03*
X103810000Y-134945000D03*
X103810000Y-134295000D03*
X103810000Y-133645000D03*
X103810000Y-132995000D03*
X103810000Y-132345000D03*
X103810000Y-131695000D03*
X109550000Y-131695000D03*
X109550000Y-132345000D03*
X109550000Y-132995000D03*
X109550000Y-133645000D03*
X109550000Y-134295000D03*
X109550000Y-134945000D03*
X109550000Y-135595000D03*
X109550000Y-136245000D03*
X109550000Y-136895000D03*
X109550000Y-137545000D03*
%TD*%
%TO.C,U3*%
X145110000Y-88515000D03*
X145110000Y-89165000D03*
X145110000Y-89815000D03*
X145110000Y-90465000D03*
X145110000Y-91115000D03*
X145110000Y-91765000D03*
X145110000Y-92415000D03*
X145110000Y-93065000D03*
X145110000Y-93715000D03*
X145110000Y-94365000D03*
X139370000Y-94365000D03*
X139370000Y-93715000D03*
X139370000Y-93065000D03*
X139370000Y-92415000D03*
X139370000Y-91765000D03*
X139370000Y-91115000D03*
X139370000Y-90465000D03*
X139370000Y-89815000D03*
X139370000Y-89165000D03*
X139370000Y-88515000D03*
%TD*%
D11*
%TO.C,U2*%
X124075000Y-64440000D03*
X124725000Y-64440000D03*
X125375000Y-64440000D03*
X126025000Y-64440000D03*
X126675000Y-64440000D03*
X127325000Y-64440000D03*
X127975000Y-64440000D03*
X128625000Y-64440000D03*
X129275000Y-64440000D03*
X129925000Y-64440000D03*
X129925000Y-70180000D03*
X129275000Y-70180000D03*
X128625000Y-70180000D03*
X127975000Y-70180000D03*
X127325000Y-70180000D03*
X126675000Y-70180000D03*
X126025000Y-70180000D03*
X125375000Y-70180000D03*
X124725000Y-70180000D03*
X124075000Y-70180000D03*
%TD*%
D10*
%TO.C,U1*%
X148920000Y-130425000D03*
X148920000Y-131075000D03*
X148920000Y-131725000D03*
X148920000Y-132375000D03*
X148920000Y-133025000D03*
X148920000Y-133675000D03*
X148920000Y-134325000D03*
X148920000Y-134975000D03*
X148920000Y-135625000D03*
X148920000Y-136275000D03*
X143180000Y-136275000D03*
X143180000Y-135625000D03*
X143180000Y-134975000D03*
X143180000Y-134325000D03*
X143180000Y-133675000D03*
X143180000Y-133025000D03*
X143180000Y-132375000D03*
X143180000Y-131725000D03*
X143180000Y-131075000D03*
X143180000Y-130425000D03*
%TD*%
%TO.C,R1*%
G36*
G01*
X138530000Y-154088000D02*
X138330000Y-154088000D01*
G75*
G02*
X138230000Y-153988000I0J100000D01*
G01*
X138230000Y-153728000D01*
G75*
G02*
X138330000Y-153628000I100000J0D01*
G01*
X138530000Y-153628000D01*
G75*
G02*
X138630000Y-153728000I0J-100000D01*
G01*
X138630000Y-153988000D01*
G75*
G02*
X138530000Y-154088000I-100000J0D01*
G01*
G37*
G36*
G01*
X138530000Y-154728000D02*
X138330000Y-154728000D01*
G75*
G02*
X138230000Y-154628000I0J100000D01*
G01*
X138230000Y-154368000D01*
G75*
G02*
X138330000Y-154268000I100000J0D01*
G01*
X138530000Y-154268000D01*
G75*
G02*
X138630000Y-154368000I0J-100000D01*
G01*
X138630000Y-154628000D01*
G75*
G02*
X138530000Y-154728000I-100000J0D01*
G01*
G37*
%TD*%
D12*
%TO.C,JMolex1*%
X133350000Y-169418000D03*
X128270000Y-169418000D03*
X123190000Y-169418000D03*
D13*
X118110000Y-169418000D03*
%TD*%
D14*
%TO.C,J42*%
X92710000Y-110870000D03*
D15*
X95250000Y-113030000D03*
X92710000Y-113030000D03*
X90170000Y-113030000D03*
D16*
X87630000Y-113030000D03*
%TD*%
D14*
%TO.C,J41*%
X92710000Y-103250000D03*
D15*
X95250000Y-105410000D03*
X92710000Y-105410000D03*
X90170000Y-105410000D03*
D16*
X87630000Y-105410000D03*
%TD*%
D14*
%TO.C,J40*%
X92710000Y-95630000D03*
D15*
X95250000Y-97790000D03*
X92710000Y-97790000D03*
X90170000Y-97790000D03*
D16*
X87630000Y-97790000D03*
%TD*%
D14*
%TO.C,J39*%
X92710000Y-88010000D03*
D15*
X95250000Y-90170000D03*
X92710000Y-90170000D03*
X90170000Y-90170000D03*
D16*
X87630000Y-90170000D03*
%TD*%
D14*
%TO.C,J38*%
X92710000Y-80390000D03*
D15*
X95250000Y-82550000D03*
X92710000Y-82550000D03*
X90170000Y-82550000D03*
D16*
X87630000Y-82550000D03*
%TD*%
D14*
%TO.C,J37*%
X92710000Y-72770000D03*
D15*
X95250000Y-74930000D03*
X92710000Y-74930000D03*
X90170000Y-74930000D03*
D16*
X87630000Y-74930000D03*
%TD*%
D14*
%TO.C,J36*%
X92710000Y-65150000D03*
D15*
X95250000Y-67310000D03*
X92710000Y-67310000D03*
X90170000Y-67310000D03*
D16*
X87630000Y-67310000D03*
%TD*%
D14*
%TO.C,J35*%
X92710000Y-57530000D03*
D15*
X95250000Y-59690000D03*
X92710000Y-59690000D03*
X90170000Y-59690000D03*
D16*
X87630000Y-59690000D03*
%TD*%
D14*
%TO.C,J34*%
X92710000Y-119760000D03*
D15*
X95250000Y-121920000D03*
X92710000Y-121920000D03*
X90170000Y-121920000D03*
D16*
X87630000Y-121920000D03*
%TD*%
D14*
%TO.C,J33*%
X92710000Y-127380000D03*
D15*
X95250000Y-129540000D03*
X92710000Y-129540000D03*
X90170000Y-129540000D03*
D16*
X87630000Y-129540000D03*
%TD*%
D14*
%TO.C,J32*%
X92710000Y-135000000D03*
D15*
X95250000Y-137160000D03*
X92710000Y-137160000D03*
X90170000Y-137160000D03*
D16*
X87630000Y-137160000D03*
%TD*%
D14*
%TO.C,J31*%
X92710000Y-142620000D03*
D15*
X95250000Y-144780000D03*
X92710000Y-144780000D03*
X90170000Y-144780000D03*
D16*
X87630000Y-144780000D03*
%TD*%
D14*
%TO.C,J30*%
X92710000Y-151510000D03*
D15*
X95250000Y-153670000D03*
X92710000Y-153670000D03*
X90170000Y-153670000D03*
D16*
X87630000Y-153670000D03*
%TD*%
D14*
%TO.C,J29*%
X92710000Y-160400000D03*
D15*
X95250000Y-162560000D03*
X92710000Y-162560000D03*
X90170000Y-162560000D03*
D16*
X87630000Y-162560000D03*
%TD*%
D14*
%TO.C,J28*%
X92710000Y-169290000D03*
D15*
X95250000Y-171450000D03*
X92710000Y-171450000D03*
X90170000Y-171450000D03*
D16*
X87630000Y-171450000D03*
%TD*%
D14*
%TO.C,J27*%
X92710000Y-176910000D03*
D15*
X95250000Y-179070000D03*
X92710000Y-179070000D03*
X90170000Y-179070000D03*
D16*
X87630000Y-179070000D03*
%TD*%
D14*
%TO.C,J26*%
X161290000Y-113664000D03*
D15*
X163830000Y-115824000D03*
X161290000Y-115824000D03*
X158750000Y-115824000D03*
D16*
X156210000Y-115824000D03*
%TD*%
D14*
%TO.C,J25*%
X161290000Y-104774000D03*
D15*
X163830000Y-106934000D03*
X161290000Y-106934000D03*
X158750000Y-106934000D03*
D16*
X156210000Y-106934000D03*
%TD*%
D14*
%TO.C,J24*%
X161290000Y-95884000D03*
D15*
X163830000Y-98044000D03*
X161290000Y-98044000D03*
X158750000Y-98044000D03*
D16*
X156210000Y-98044000D03*
%TD*%
D14*
%TO.C,J23*%
X161290000Y-88264000D03*
D15*
X163830000Y-90424000D03*
X161290000Y-90424000D03*
X158750000Y-90424000D03*
D16*
X156210000Y-90424000D03*
%TD*%
D17*
%TO.C,J22*%
X119380000Y-85090000D03*
X119380000Y-87630000D03*
X119380000Y-90170000D03*
X119380000Y-92710000D03*
X119380000Y-95250000D03*
X119380000Y-97790000D03*
X119380000Y-100330000D03*
X119380000Y-102870000D03*
X119380000Y-105410000D03*
X119380000Y-107950000D03*
X119380000Y-110490000D03*
X119380000Y-113030000D03*
X119380000Y-115570000D03*
X119380000Y-118110000D03*
X119380000Y-120650000D03*
X119380000Y-123190000D03*
X119380000Y-125730000D03*
X119380000Y-128270000D03*
X119380000Y-130810000D03*
X119380000Y-133350000D03*
X119380000Y-135890000D03*
X119380000Y-138430000D03*
X119380000Y-140970000D03*
D18*
X119380000Y-143510000D03*
%TD*%
D17*
%TO.C,J21*%
X134620000Y-85090000D03*
X134620000Y-87630000D03*
X134620000Y-90170000D03*
X134620000Y-92710000D03*
X134620000Y-95250000D03*
X134620000Y-97790000D03*
X134620000Y-100330000D03*
X134620000Y-102870000D03*
X134620000Y-105410000D03*
X134620000Y-107950000D03*
X134620000Y-110490000D03*
X134620000Y-113030000D03*
X134620000Y-115570000D03*
X134620000Y-118110000D03*
X134620000Y-120650000D03*
X134620000Y-123190000D03*
X134620000Y-125730000D03*
X134620000Y-128270000D03*
X134620000Y-130810000D03*
X134620000Y-133350000D03*
X134620000Y-135890000D03*
X134620000Y-138430000D03*
X134620000Y-140970000D03*
D18*
X134620000Y-143510000D03*
%TD*%
D14*
%TO.C,J20*%
X108840000Y-52070000D03*
D19*
X106680000Y-54610000D03*
X106680000Y-52070000D03*
X106680000Y-49530000D03*
D20*
X106680000Y-46990000D03*
%TD*%
D14*
%TO.C,J19*%
X101220000Y-52070000D03*
D19*
X99060000Y-54610000D03*
X99060000Y-52070000D03*
X99060000Y-49530000D03*
D20*
X99060000Y-46990000D03*
%TD*%
D14*
%TO.C,J18*%
X161290000Y-121030000D03*
D15*
X163830000Y-123190000D03*
X161290000Y-123190000D03*
X158750000Y-123190000D03*
D16*
X156210000Y-123190000D03*
%TD*%
D14*
%TO.C,J17*%
X161290000Y-129920000D03*
D15*
X163830000Y-132080000D03*
X161290000Y-132080000D03*
X158750000Y-132080000D03*
D16*
X156210000Y-132080000D03*
%TD*%
D14*
%TO.C,J16*%
X161290000Y-137540000D03*
D15*
X163830000Y-139700000D03*
X161290000Y-139700000D03*
X158750000Y-139700000D03*
D16*
X156210000Y-139700000D03*
%TD*%
D14*
%TO.C,J15*%
X161290000Y-146430000D03*
D15*
X163830000Y-148590000D03*
X161290000Y-148590000D03*
X158750000Y-148590000D03*
D16*
X156210000Y-148590000D03*
%TD*%
D14*
%TO.C,J14*%
X161290000Y-155320000D03*
D15*
X163830000Y-157480000D03*
X161290000Y-157480000D03*
X158750000Y-157480000D03*
D16*
X156210000Y-157480000D03*
%TD*%
D14*
%TO.C,J13*%
X161290000Y-162940000D03*
D15*
X163830000Y-165100000D03*
X161290000Y-165100000D03*
X158750000Y-165100000D03*
D16*
X156210000Y-165100000D03*
%TD*%
D14*
%TO.C,J12*%
X161290000Y-170560000D03*
D15*
X163830000Y-172720000D03*
X161290000Y-172720000D03*
X158750000Y-172720000D03*
D16*
X156210000Y-172720000D03*
%TD*%
D14*
%TO.C,J11*%
X161290000Y-178180000D03*
D15*
X163830000Y-180340000D03*
X161290000Y-180340000D03*
X158750000Y-180340000D03*
D16*
X156210000Y-180340000D03*
%TD*%
D14*
%TO.C,J10*%
X161290000Y-80644000D03*
D15*
X163830000Y-82804000D03*
X161290000Y-82804000D03*
X158750000Y-82804000D03*
D16*
X156210000Y-82804000D03*
%TD*%
D14*
%TO.C,J9*%
X161290000Y-65404000D03*
D15*
X163830000Y-67564000D03*
X161290000Y-67564000D03*
X158750000Y-67564000D03*
D16*
X156210000Y-67564000D03*
%TD*%
D14*
%TO.C,J8*%
X161290000Y-58038000D03*
D15*
X163830000Y-60198000D03*
X161290000Y-60198000D03*
X158750000Y-60198000D03*
D16*
X156210000Y-60198000D03*
%TD*%
D14*
%TO.C,J7*%
X154560000Y-52070000D03*
D19*
X152400000Y-54610000D03*
X152400000Y-52070000D03*
X152400000Y-49530000D03*
D20*
X152400000Y-46990000D03*
%TD*%
D14*
%TO.C,J6*%
X161290000Y-73024000D03*
D15*
X163830000Y-75184000D03*
X161290000Y-75184000D03*
X158750000Y-75184000D03*
D16*
X156210000Y-75184000D03*
%TD*%
D14*
%TO.C,J5*%
X146940000Y-52070000D03*
D19*
X144780000Y-54610000D03*
X144780000Y-52070000D03*
X144780000Y-49530000D03*
D20*
X144780000Y-46990000D03*
%TD*%
D14*
%TO.C,J4*%
X139320000Y-52070000D03*
D19*
X137160000Y-54610000D03*
X137160000Y-52070000D03*
X137160000Y-49530000D03*
D20*
X137160000Y-46990000D03*
%TD*%
D14*
%TO.C,J3*%
X116460000Y-52070000D03*
D19*
X114300000Y-54610000D03*
X114300000Y-52070000D03*
X114300000Y-49530000D03*
D20*
X114300000Y-46990000D03*
%TD*%
D14*
%TO.C,J2*%
X131700000Y-52070000D03*
D19*
X129540000Y-54610000D03*
X129540000Y-52070000D03*
X129540000Y-49530000D03*
D20*
X129540000Y-46990000D03*
%TD*%
D14*
%TO.C,J1*%
X124080000Y-52070000D03*
D19*
X121920000Y-54610000D03*
X121920000Y-52070000D03*
X121920000Y-49530000D03*
D20*
X121920000Y-46990000D03*
%TD*%
M02*
